<svg xmlns="http://www.w3.org/2000/svg" xmlns:xlink="http://www.w3.org/1999/xlink" viewBox="0 0 1080 1080"><defs><style>.cls-1{isolation:isolate;}.cls-2{fill:url(#linear-gradient);}.cls-3{fill:url(#linear-gradient-2);}.cls-4{mix-blend-mode:lighten;fill:url(#linear-gradient-3);}.cls-5{fill:url(#linear-gradient-4);}.cls-6{fill:url(#linear-gradient-5);}.cls-7{fill:url(#linear-gradient-6);}.cls-8{fill:url(#linear-gradient-7);}.cls-9{fill:url(#linear-gradient-8);}.cls-10{fill:url(#linear-gradient-9);}.cls-11{fill:url(#linear-gradient-10);}.cls-12{fill:url(#linear-gradient-11);}.cls-13{fill:url(#linear-gradient-12);}.cls-14{fill:url(#linear-gradient-13);}.cls-15{fill:url(#linear-gradient-14);}.cls-16{fill:url(#linear-gradient-15);}.cls-17{fill:url(#linear-gradient-16);}.cls-18{fill:url(#linear-gradient-17);}.cls-19{fill:url(#linear-gradient-18);}.cls-20{fill:url(#linear-gradient-19);}.cls-21{fill:url(#linear-gradient-20);}.cls-22{fill:url(#linear-gradient-21);}.cls-23{fill:url(#linear-gradient-22);}.cls-24{fill:url(#linear-gradient-23);}.cls-25{fill:url(#linear-gradient-24);}.cls-26{fill:url(#linear-gradient-25);}.cls-27{fill:url(#linear-gradient-26);}.cls-28{fill:url(#linear-gradient-27);}.cls-29{fill:url(#linear-gradient-28);}.cls-30{fill:url(#linear-gradient-29);}.cls-31{fill:url(#linear-gradient-30);}.cls-32{fill:url(#linear-gradient-31);}.cls-33{fill:url(#linear-gradient-32);}.cls-34{fill:url(#linear-gradient-33);}.cls-35{fill:url(#linear-gradient-34);}.cls-36{fill:url(#linear-gradient-35);}.cls-37{fill:url(#linear-gradient-36);}.cls-38{fill:url(#linear-gradient-37);}.cls-39{fill:url(#linear-gradient-38);}.cls-40{fill:url(#linear-gradient-39);}.cls-41{fill:url(#linear-gradient-40);}.cls-42{fill:url(#linear-gradient-41);}.cls-43{fill:url(#linear-gradient-42);}.cls-44{fill:url(#linear-gradient-43);}.cls-45{fill:url(#linear-gradient-44);}.cls-46{fill:url(#linear-gradient-45);}.cls-47{fill:url(#linear-gradient-46);}.cls-48{fill:url(#linear-gradient-47);}.cls-49{fill:url(#linear-gradient-48);}.cls-50{fill:url(#linear-gradient-49);}.cls-51{fill:url(#linear-gradient-50);}.cls-52{fill:url(#linear-gradient-51);}.cls-53{fill:url(#linear-gradient-52);}.cls-54{fill:url(#linear-gradient-53);}.cls-55{fill:url(#linear-gradient-54);}.cls-56{fill:url(#linear-gradient-55);}.cls-57{fill:url(#linear-gradient-56);}.cls-58{fill:url(#linear-gradient-57);}.cls-59{fill:url(#linear-gradient-58);}.cls-60{fill:url(#linear-gradient-59);}.cls-61{fill:url(#linear-gradient-60);}.cls-62{fill:url(#linear-gradient-61);}.cls-63{fill:url(#linear-gradient-62);}.cls-64{fill:url(#linear-gradient-63);}.cls-65{fill:url(#linear-gradient-64);}.cls-66{fill:url(#linear-gradient-65);}.cls-67{fill:url(#linear-gradient-66);}.cls-68{fill:url(#linear-gradient-67);}.cls-69{fill:url(#linear-gradient-68);}.cls-70{fill:url(#linear-gradient-69);}.cls-71{fill:url(#linear-gradient-70);}.cls-72{fill:url(#linear-gradient-71);}.cls-73{fill:url(#linear-gradient-72);}.cls-74{fill:url(#linear-gradient-73);}.cls-75{fill:url(#linear-gradient-74);}.cls-76{fill:url(#linear-gradient-75);}.cls-77{fill:url(#linear-gradient-76);}.cls-78{fill:url(#linear-gradient-77);}.cls-79{fill:url(#linear-gradient-78);}.cls-80{fill:url(#linear-gradient-79);}.cls-81{fill:url(#linear-gradient-80);}.cls-82{fill:url(#linear-gradient-81);}.cls-83{fill:url(#linear-gradient-82);}.cls-84{fill:url(#linear-gradient-83);}.cls-85{fill:url(#linear-gradient-84);}.cls-86{fill:url(#linear-gradient-85);}.cls-87{fill:url(#linear-gradient-86);}.cls-88{fill:url(#linear-gradient-87);}.cls-89{fill:url(#linear-gradient-88);}.cls-90{fill:url(#linear-gradient-89);}.cls-91{fill:url(#linear-gradient-90);}.cls-92{fill:url(#linear-gradient-91);}.cls-93{fill:url(#linear-gradient-92);}.cls-94{fill:url(#linear-gradient-93);}.cls-95{fill:url(#linear-gradient-94);}.cls-96{fill:url(#linear-gradient-95);}.cls-97{fill:url(#linear-gradient-96);}.cls-98{fill:url(#linear-gradient-97);}.cls-99{fill:url(#linear-gradient-98);}.cls-100{fill:url(#linear-gradient-99);}.cls-101{fill:url(#linear-gradient-100);}.cls-102{fill:url(#linear-gradient-101);}.cls-103{fill:url(#linear-gradient-102);}.cls-104{fill:url(#linear-gradient-103);}.cls-105{fill:url(#linear-gradient-104);}.cls-106{fill:url(#linear-gradient-105);}.cls-107{fill:url(#linear-gradient-106);}.cls-108{fill:url(#linear-gradient-107);}.cls-109{fill:url(#linear-gradient-108);}.cls-110{fill:url(#linear-gradient-109);}.cls-111{fill:url(#linear-gradient-110);}.cls-112{fill:url(#linear-gradient-111);}.cls-113{fill:url(#linear-gradient-112);}.cls-114{fill:url(#linear-gradient-113);}.cls-115{fill:url(#linear-gradient-114);}.cls-116{fill:url(#linear-gradient-115);}.cls-117{fill:url(#linear-gradient-116);}.cls-118{fill:url(#linear-gradient-117);}.cls-119{fill:url(#linear-gradient-118);}.cls-120{fill:url(#linear-gradient-119);}.cls-121{fill:url(#linear-gradient-120);}.cls-122{fill:url(#linear-gradient-121);}.cls-123{fill:url(#linear-gradient-122);}.cls-124{fill:url(#linear-gradient-123);}.cls-125{fill:url(#linear-gradient-124);}.cls-126{fill:url(#linear-gradient-125);}.cls-127{fill:url(#linear-gradient-126);}.cls-128{fill:url(#linear-gradient-127);}.cls-129{fill:url(#linear-gradient-128);}.cls-130{fill:url(#linear-gradient-129);}.cls-131{fill:url(#linear-gradient-130);}.cls-132{fill:url(#linear-gradient-131);}.cls-133{fill:url(#linear-gradient-132);}.cls-134{fill:url(#linear-gradient-133);}.cls-135{fill:url(#linear-gradient-134);}.cls-136{fill:url(#linear-gradient-135);}</style><linearGradient id="linear-gradient" x1="679.75" y1="433.89" x2="691.04" y2="639.17" gradientUnits="userSpaceOnUse"><stop offset="0" stop-color="#ffca05"/><stop offset="0.46" stop-color="#f6921e"/><stop offset="1" stop-color="#ef4e23"/></linearGradient><linearGradient id="linear-gradient-2" x1="855.06" y1="429.77" x2="864.3" y2="654.93" gradientUnits="userSpaceOnUse"><stop offset="0" stop-color="#bed630"/><stop offset="0.51" stop-color="#3bb44a"/><stop offset="1" stop-color="#005025"/></linearGradient><linearGradient id="linear-gradient-3" x1="397.79" y1="550.39" x2="767.81" y2="550.39" gradientUnits="userSpaceOnUse"><stop offset="0" stop-color="#4dbeed"/><stop offset="0.49" stop-color="#0d72b9"/><stop offset="1" stop-color="#244f95"/></linearGradient><linearGradient id="linear-gradient-4" x1="165.74" y1="380.87" x2="165.22" y2="638.49" xlink:href="#linear-gradient-3"/><linearGradient id="linear-gradient-5" x1="164.62" y1="380.87" x2="164.1" y2="638.49" xlink:href="#linear-gradient-3"/><linearGradient id="linear-gradient-6" x1="165.62" y1="380.87" x2="165.11" y2="638.49" xlink:href="#linear-gradient-3"/><linearGradient id="linear-gradient-7" x1="168.18" y1="380.87" x2="167.66" y2="638.49" xlink:href="#linear-gradient-3"/><linearGradient id="linear-gradient-8" x1="172.2" y1="380.88" x2="171.69" y2="638.5" xlink:href="#linear-gradient-3"/><linearGradient id="linear-gradient-9" x1="184.47" y1="380.91" x2="183.96" y2="638.53" xlink:href="#linear-gradient-3"/><linearGradient id="linear-gradient-10" x1="192.25" y1="380.92" x2="191.74" y2="638.54" xlink:href="#linear-gradient-3"/><linearGradient id="linear-gradient-11" x1="200.5" y1="380.94" x2="199.99" y2="638.56" xlink:href="#linear-gradient-3"/><linearGradient id="linear-gradient-12" x1="212.14" y1="380.96" x2="211.62" y2="638.58" xlink:href="#linear-gradient-3"/><linearGradient id="linear-gradient-13" x1="223.14" y1="380.98" x2="222.62" y2="638.6" xlink:href="#linear-gradient-3"/><linearGradient id="linear-gradient-14" x1="230.92" y1="381" x2="230.41" y2="638.62" xlink:href="#linear-gradient-3"/><linearGradient id="linear-gradient-15" x1="246.99" y1="381.03" x2="246.48" y2="638.65" xlink:href="#linear-gradient-3"/><linearGradient id="linear-gradient-16" x1="260.75" y1="381.06" x2="260.24" y2="638.68" xlink:href="#linear-gradient-3"/><linearGradient id="linear-gradient-17" x1="274.67" y1="381.09" x2="274.16" y2="638.71" xlink:href="#linear-gradient-3"/><linearGradient id="linear-gradient-18" x1="285.07" y1="381.11" x2="284.56" y2="638.73" xlink:href="#linear-gradient-3"/><linearGradient id="linear-gradient-19" x1="296.28" y1="381.13" x2="295.77" y2="638.75" xlink:href="#linear-gradient-3"/><linearGradient id="linear-gradient-20" x1="309.58" y1="381.16" x2="309.07" y2="638.78" xlink:href="#linear-gradient-3"/><linearGradient id="linear-gradient-21" x1="329.95" y1="381.2" x2="329.43" y2="638.82" xlink:href="#linear-gradient-3"/><linearGradient id="linear-gradient-22" x1="341.27" y1="381.22" x2="340.75" y2="638.84" xlink:href="#linear-gradient-3"/><linearGradient id="linear-gradient-23" x1="353.72" y1="381.24" x2="353.21" y2="638.86" xlink:href="#linear-gradient-3"/><linearGradient id="linear-gradient-24" x1="363.34" y1="381.26" x2="362.83" y2="638.88" xlink:href="#linear-gradient-3"/><linearGradient id="linear-gradient-25" x1="371.64" y1="381.28" x2="371.13" y2="638.9" xlink:href="#linear-gradient-3"/><linearGradient id="linear-gradient-26" x1="377.39" y1="381.29" x2="376.87" y2="638.91" xlink:href="#linear-gradient-3"/><linearGradient id="linear-gradient-27" x1="382.37" y1="381.3" x2="381.86" y2="638.92" xlink:href="#linear-gradient-3"/><linearGradient id="linear-gradient-28" x1="383.69" y1="381.3" x2="383.18" y2="638.92" xlink:href="#linear-gradient-3"/><linearGradient id="linear-gradient-29" x1="384.46" y1="381.31" x2="383.95" y2="638.93" xlink:href="#linear-gradient-3"/><linearGradient id="linear-gradient-30" x1="383.45" y1="381.3" x2="382.93" y2="638.92" xlink:href="#linear-gradient-3"/><linearGradient id="linear-gradient-31" x1="329.7" y1="553.81" x2="329.7" y2="665.81" xlink:href="#linear-gradient"/><linearGradient id="linear-gradient-32" x1="218.39" y1="553.81" x2="218.39" y2="665.81" xlink:href="#linear-gradient"/><linearGradient id="linear-gradient-33" x1="233.91" y1="576.65" x2="270.55" y2="576.65" xlink:href="#linear-gradient-3"/><linearGradient id="linear-gradient-34" x1="244.38" y1="567.71" x2="303.52" y2="567.71" xlink:href="#linear-gradient"/><linearGradient id="linear-gradient-35" x1="277.22" y1="577.52" x2="313.4" y2="577.52" xlink:href="#linear-gradient-3"/><linearGradient id="linear-gradient-36" x1="285.36" y1="518.96" x2="284.01" y2="549.18" xlink:href="#linear-gradient-3"/><linearGradient id="linear-gradient-37" x1="247.08" y1="544.2" x2="245.73" y2="563.06" xlink:href="#linear-gradient-2"/><linearGradient id="linear-gradient-38" x1="263.81" y1="518" x2="262.46" y2="548.22" xlink:href="#linear-gradient-3"/><linearGradient id="linear-gradient-39" x1="300.42" y1="546.52" x2="302.54" y2="562.88" gradientUnits="userSpaceOnUse"><stop offset="0" stop-color="#bed630"/><stop offset="1" stop-color="#005025"/></linearGradient><linearGradient id="linear-gradient-40" x1="270.94" y1="471.34" x2="276.33" y2="558.52" xlink:href="#linear-gradient"/><linearGradient id="linear-gradient-41" x1="271.99" y1="471.28" x2="277.38" y2="558.45" xlink:href="#linear-gradient"/><linearGradient id="linear-gradient-42" x1="281.99" y1="478.98" x2="280.26" y2="556.15" xlink:href="#linear-gradient-2"/><linearGradient id="linear-gradient-43" x1="308.93" y1="479.58" x2="307.2" y2="556.75" xlink:href="#linear-gradient-2"/><linearGradient id="linear-gradient-44" x1="288.39" y1="467.86" x2="295.71" y2="566.01" xlink:href="#linear-gradient-3"/><linearGradient id="linear-gradient-45" x1="272.71" y1="416.18" x2="286.18" y2="563.59" xlink:href="#linear-gradient-2"/><linearGradient id="linear-gradient-46" x1="289.61" y1="479.15" x2="287.87" y2="556.32" xlink:href="#linear-gradient-2"/><linearGradient id="linear-gradient-47" x1="273.64" y1="416.09" x2="287.11" y2="563.5" xlink:href="#linear-gradient-2"/><linearGradient id="linear-gradient-48" x1="299.69" y1="469.56" x2="305.07" y2="556.74" xlink:href="#linear-gradient"/><linearGradient id="linear-gradient-49" x1="284.3" y1="415.12" x2="297.77" y2="562.53" xlink:href="#linear-gradient-2"/><linearGradient id="linear-gradient-50" x1="299.8" y1="469.56" x2="305.19" y2="556.73" xlink:href="#linear-gradient"/><linearGradient id="linear-gradient-51" x1="293.13" y1="414.31" x2="306.6" y2="561.72" xlink:href="#linear-gradient-2"/><linearGradient id="linear-gradient-52" x1="288.81" y1="470.24" x2="294.2" y2="557.41" xlink:href="#linear-gradient"/><linearGradient id="linear-gradient-53" x1="272.73" y1="469.03" x2="280.04" y2="567.17" xlink:href="#linear-gradient-3"/><linearGradient id="linear-gradient-54" x1="305.98" y1="413.13" x2="319.46" y2="560.55" xlink:href="#linear-gradient-2"/><linearGradient id="linear-gradient-55" x1="316" y1="468.56" x2="321.38" y2="555.73" xlink:href="#linear-gradient"/><linearGradient id="linear-gradient-56" x1="257.14" y1="417.6" x2="270.61" y2="565.01" xlink:href="#linear-gradient-2"/><linearGradient id="linear-gradient-57" x1="237.1" y1="473.43" x2="242.49" y2="560.61" xlink:href="#linear-gradient"/><linearGradient id="linear-gradient-58" x1="230.1" y1="473.87" x2="235.48" y2="561.04" xlink:href="#linear-gradient"/><linearGradient id="linear-gradient-59" x1="253.84" y1="470.43" x2="261.16" y2="568.58" xlink:href="#linear-gradient-3"/><linearGradient id="linear-gradient-60" x1="263.94" y1="495.33" x2="268.36" y2="512.65" xlink:href="#linear-gradient"/><linearGradient id="linear-gradient-61" x1="251.24" y1="418.14" x2="264.71" y2="565.55" xlink:href="#linear-gradient-2"/><linearGradient id="linear-gradient-62" x1="267.36" y1="478.65" x2="265.63" y2="555.82" xlink:href="#linear-gradient-2"/><linearGradient id="linear-gradient-63" x1="241.64" y1="471.34" x2="248.95" y2="569.49" xlink:href="#linear-gradient-3"/><linearGradient id="linear-gradient-64" x1="231.91" y1="472.07" x2="239.23" y2="570.21" xlink:href="#linear-gradient-3"/><linearGradient id="linear-gradient-65" x1="251.76" y1="472.53" x2="257.14" y2="559.7" xlink:href="#linear-gradient"/><linearGradient id="linear-gradient-66" x1="242.29" y1="418.96" x2="255.76" y2="566.37" xlink:href="#linear-gradient-2"/><linearGradient id="linear-gradient-67" x1="238.38" y1="419.31" x2="251.86" y2="566.73" xlink:href="#linear-gradient-2"/><linearGradient id="linear-gradient-68" x1="246.32" y1="472.86" x2="251.7" y2="560.04" xlink:href="#linear-gradient"/><linearGradient id="linear-gradient-69" x1="257.08" y1="470.19" x2="264.4" y2="568.34" xlink:href="#linear-gradient-3"/><linearGradient id="linear-gradient-70" x1="232.21" y1="472.04" x2="239.53" y2="570.19" xlink:href="#linear-gradient-3"/><linearGradient id="linear-gradient-71" x1="220.99" y1="420.9" x2="234.46" y2="568.32" xlink:href="#linear-gradient-2"/><linearGradient id="linear-gradient-72" x1="221.7" y1="474.38" x2="227.09" y2="561.56" xlink:href="#linear-gradient"/><linearGradient id="linear-gradient-73" x1="229.99" y1="420.08" x2="243.46" y2="567.49" xlink:href="#linear-gradient-2"/><linearGradient id="linear-gradient-74" x1="247.12" y1="472.81" x2="252.51" y2="559.99" xlink:href="#linear-gradient"/><linearGradient id="linear-gradient-75" x1="259.19" y1="417.41" x2="272.66" y2="564.82" xlink:href="#linear-gradient-2"/><linearGradient id="linear-gradient-76" x1="213.9" y1="474.87" x2="219.29" y2="562.04" xlink:href="#linear-gradient"/><linearGradient id="linear-gradient-77" x1="211.6" y1="421.76" x2="225.07" y2="569.17" xlink:href="#linear-gradient-2"/><linearGradient id="linear-gradient-78" x1="204.07" y1="422.45" x2="217.54" y2="569.86" xlink:href="#linear-gradient-2"/><linearGradient id="linear-gradient-79" x1="304.9" y1="413.23" x2="318.37" y2="560.65" xlink:href="#linear-gradient-2"/><linearGradient id="linear-gradient-80" x1="304.99" y1="466.62" x2="312.3" y2="564.77" xlink:href="#linear-gradient-3"/><linearGradient id="linear-gradient-81" x1="285.63" y1="414.99" x2="299.11" y2="562.41" xlink:href="#linear-gradient-2"/><linearGradient id="linear-gradient-82" x1="321.8" y1="465.37" x2="329.12" y2="563.52" xlink:href="#linear-gradient-3"/><linearGradient id="linear-gradient-83" x1="310.4" y1="468.9" x2="315.78" y2="556.08" xlink:href="#linear-gradient"/><linearGradient id="linear-gradient-84" x1="294.21" y1="414.21" x2="307.68" y2="561.62" xlink:href="#linear-gradient-2"/><linearGradient id="linear-gradient-85" x1="278.26" y1="415.67" x2="291.73" y2="563.08" xlink:href="#linear-gradient-2"/><linearGradient id="linear-gradient-86" x1="321.88" y1="411.68" x2="335.35" y2="559.1" xlink:href="#linear-gradient-2"/><linearGradient id="linear-gradient-87" x1="323.2" y1="468.11" x2="328.59" y2="555.29" xlink:href="#linear-gradient"/><linearGradient id="linear-gradient-88" x1="313.19" y1="412.48" x2="326.67" y2="559.89" xlink:href="#linear-gradient-2"/><linearGradient id="linear-gradient-89" x1="301.3" y1="469.46" x2="306.68" y2="556.64" xlink:href="#linear-gradient"/><linearGradient id="linear-gradient-90" x1="310.86" y1="412.69" x2="324.33" y2="560.1" xlink:href="#linear-gradient-2"/><linearGradient id="linear-gradient-91" x1="300.14" y1="413.67" x2="313.61" y2="561.08" xlink:href="#linear-gradient-2"/><linearGradient id="linear-gradient-92" x1="310.15" y1="468.92" x2="315.54" y2="556.09" xlink:href="#linear-gradient"/><linearGradient id="linear-gradient-93" x1="327.36" y1="480" x2="325.63" y2="557.17" xlink:href="#linear-gradient-2"/><linearGradient id="linear-gradient-94" x1="327.71" y1="467.83" x2="333.09" y2="555.01" xlink:href="#linear-gradient"/><linearGradient id="linear-gradient-95" x1="331.07" y1="464.68" x2="338.38" y2="562.83" xlink:href="#linear-gradient-3"/><linearGradient id="linear-gradient-96" x1="325.46" y1="467.97" x2="330.85" y2="555.15" xlink:href="#linear-gradient"/><linearGradient id="linear-gradient-97" x1="307.37" y1="413.01" x2="320.84" y2="560.42" xlink:href="#linear-gradient-2"/><linearGradient id="linear-gradient-98" x1="329.53" y1="410.98" x2="343" y2="558.4" xlink:href="#linear-gradient-2"/><linearGradient id="linear-gradient-99" x1="331.45" y1="410.81" x2="344.92" y2="558.22" xlink:href="#linear-gradient-2"/><linearGradient id="linear-gradient-100" x1="330.79" y1="410.87" x2="344.26" y2="558.28" xlink:href="#linear-gradient-2"/><linearGradient id="linear-gradient-101" x1="341.45" y1="463.91" x2="348.76" y2="562.05" xlink:href="#linear-gradient-3"/><linearGradient id="linear-gradient-102" x1="329.96" y1="410.94" x2="343.43" y2="558.36" xlink:href="#linear-gradient-2"/><linearGradient id="linear-gradient-103" x1="199.48" y1="474.48" x2="206.79" y2="572.63" xlink:href="#linear-gradient-3"/><linearGradient id="linear-gradient-104" x1="339.2" y1="467.12" x2="344.59" y2="554.3" xlink:href="#linear-gradient"/><linearGradient id="linear-gradient-105" x1="340.01" y1="410.03" x2="353.48" y2="557.44" xlink:href="#linear-gradient-2"/><linearGradient id="linear-gradient-106" x1="310.46" y1="466.21" x2="317.77" y2="564.36" xlink:href="#linear-gradient-3"/><linearGradient id="linear-gradient-107" x1="247.6" y1="472.78" x2="252.99" y2="559.96" xlink:href="#linear-gradient"/><linearGradient id="linear-gradient-108" x1="226.83" y1="477.74" x2="225.1" y2="554.91" xlink:href="#linear-gradient-2"/><linearGradient id="linear-gradient-109" x1="230.84" y1="473.82" x2="236.22" y2="561" xlink:href="#linear-gradient"/><linearGradient id="linear-gradient-110" x1="227.65" y1="472.38" x2="234.97" y2="570.53" xlink:href="#linear-gradient-3"/><linearGradient id="linear-gradient-111" x1="230.33" y1="472.18" x2="237.65" y2="570.33" xlink:href="#linear-gradient-3"/><linearGradient id="linear-gradient-112" x1="233.01" y1="419.8" x2="246.49" y2="567.22" xlink:href="#linear-gradient-2"/><linearGradient id="linear-gradient-113" x1="225.8" y1="474.13" x2="231.19" y2="561.31" xlink:href="#linear-gradient"/><linearGradient id="linear-gradient-114" x1="213.85" y1="421.55" x2="227.32" y2="568.97" xlink:href="#linear-gradient-2"/><linearGradient id="linear-gradient-115" x1="211.61" y1="508.71" x2="216.03" y2="526.03" xlink:href="#linear-gradient"/><linearGradient id="linear-gradient-116" x1="207.94" y1="473.85" x2="215.25" y2="572" xlink:href="#linear-gradient-3"/><linearGradient id="linear-gradient-117" x1="192.55" y1="476.19" x2="197.94" y2="563.36" xlink:href="#linear-gradient"/><linearGradient id="linear-gradient-118" x1="194.38" y1="474.86" x2="201.69" y2="573.01" xlink:href="#linear-gradient-3"/><linearGradient id="linear-gradient-119" x1="214.34" y1="474.84" x2="219.73" y2="562.02" xlink:href="#linear-gradient"/><linearGradient id="linear-gradient-120" x1="216.36" y1="421.32" x2="229.83" y2="568.74" xlink:href="#linear-gradient-2"/><linearGradient id="linear-gradient-121" x1="195.49" y1="423.23" x2="208.96" y2="570.65" xlink:href="#linear-gradient-2"/><linearGradient id="linear-gradient-122" x1="196.81" y1="423.11" x2="210.28" y2="570.53" xlink:href="#linear-gradient-2"/><linearGradient id="linear-gradient-123" x1="206.38" y1="475.33" x2="211.77" y2="562.51" xlink:href="#linear-gradient"/><linearGradient id="linear-gradient-124" x1="227.95" y1="606.01" x2="323.22" y2="606.01" xlink:href="#linear-gradient-3"/><linearGradient id="linear-gradient-125" x1="302.9" y1="599.28" x2="316.35" y2="599.28" xlink:href="#linear-gradient-3"/><linearGradient id="linear-gradient-126" x1="233.91" y1="600.02" x2="247.5" y2="600.02" xlink:href="#linear-gradient-3"/><linearGradient id="linear-gradient-127" x1="211.89" y1="462.28" x2="336.32" y2="462.28" xlink:href="#linear-gradient-2"/><linearGradient id="linear-gradient-128" x1="180.45" y1="587.59" x2="367.87" y2="587.59" xlink:href="#linear-gradient-2"/><linearGradient id="linear-gradient-129" x1="204.88" y1="448.57" x2="201.29" y2="556.34" xlink:href="#linear-gradient-3"/><linearGradient id="linear-gradient-130" x1="193.59" y1="448.2" x2="190" y2="555.97" xlink:href="#linear-gradient-3"/><linearGradient id="linear-gradient-131" x1="187.1" y1="447.98" x2="183.51" y2="555.75" xlink:href="#linear-gradient-3"/><linearGradient id="linear-gradient-132" x1="344.09" y1="453.21" x2="340.49" y2="560.98" xlink:href="#linear-gradient-3"/><linearGradient id="linear-gradient-133" x1="357.01" y1="453.64" x2="353.42" y2="561.41" xlink:href="#linear-gradient-3"/><linearGradient id="linear-gradient-134" x1="364.34" y1="453.89" x2="360.75" y2="561.66" xlink:href="#linear-gradient-3"/><linearGradient id="linear-gradient-135" x1="269.51" y1="409.35" x2="277.21" y2="647.98" xlink:href="#linear-gradient-3"/></defs><g class="cls-1"><g id="Layer_1" data-name="Layer 1"><path class="cls-2" d="M739.91,550.67c17.58-7,27.06-20.09,27.06-41.84,0-30.7-18.69-51.62-63.05-51.62H621.05c-10.6,0-15.63,5-15.63,15.34v123h32.37V564.07h67.8c19.25,0,29,8.36,29,24.26,0,15.35-9.21,24.56-29,24.56H667.3v32.64h37.45c44.36,0,63.06-21.76,63.06-51.89C767.81,571.87,757.76,557.93,739.91,550.67Zm-35.16-13.95h-67v-43.8c0-2.23,1.4-3.36,3.63-3.36H705c20.09,0,28.74,9.77,28.74,24.56C733.77,529.47,724.28,536.72,704.75,536.72Z"/><path class="cls-3" d="M858,490.12h75.89V457.21H855.73c-50,0-69.48,27.34-69.48,65V645.53h32.93V571H932.73V539.79H819.18V521.93C819.18,504.36,828.11,490.12,858,490.12Z"/><path class="cls-4" d="M644.72,612.89H593.53L542.59,478.83c-6.7-17.58-19.53-24.28-39.06-24.28-19.8,0-32.64,6.7-39.62,24.28l-66.12,167.4h36.27l27-68.5h68.51l-8.66-27.34H471.83l21.94-55.67c2-4.45,5-6.4,9.49-6.4s7.52,1.95,9.2,6.4l44.61,118.17,12.32,32.64h75.33Z"/><path class="cls-5" d="M171.26,548.69a2.83,2.83,0,0,1,.46,1.26,2,2,0,0,1-.22,1.27,3.12,3.12,0,0,1-1.22,1l-1.12.61.55,4.34,1.41.31c1.08.23,1.67.76,1.78,1.62a2.52,2.52,0,0,1-.13,1.19,1.41,1.41,0,0,1-.6.81,1.3,1.3,0,0,0-.52-.49,5.87,5.87,0,0,0-1.05-.36L160,557.67a2.69,2.69,0,0,0-.94.88,2,2,0,0,1-1.15-1.72,1.74,1.74,0,0,1,.34-1.46,6.49,6.49,0,0,1,1.73-1.18l8.83-4.62a3,3,0,0,0,1.59-1.55A1.82,1.82,0,0,1,171.26,548.69Zm-3.47,8.11-.38-3-4.74,2Z"/><path class="cls-6" d="M170.08,535.28a2.21,2.21,0,0,1,1.33,2.07,2.64,2.64,0,0,1-.37,1.38,4.87,4.87,0,0,1-1.5,1.35l-3.61,2.3v1.14l3.36,0a1.42,1.42,0,0,0,1.36-.66,2.28,2.28,0,0,1,.86,1.76c0,1.26-.73,1.9-2.26,1.93l-9.95.16a1.38,1.38,0,0,0-1.32.68,2.29,2.29,0,0,1-.88-1.77l-.05-3.2a6.84,6.84,0,0,1,1.11-4,4,4,0,0,1,5.6-1,5,5,0,0,1,1.55,2l3.34-2.33A5,5,0,0,0,170.08,535.28Zm-10.83,8.33,4.53-.07,0-1.1a3.14,3.14,0,0,0-.62-2.06,2.33,2.33,0,0,0-3.36,0,3.2,3.2,0,0,0-.55,2.08Z"/><path class="cls-7" d="M172.77,522.22a2.63,2.63,0,0,1,.13,1.33,1.94,1.94,0,0,1-.53,1.18,3.22,3.22,0,0,1-1.44.69l-1.24.31-.56,4.34,1.28.65a1.93,1.93,0,0,1,1.32,2,2.61,2.61,0,0,1-.43,1.13,1.4,1.4,0,0,1-.79.62,1.26,1.26,0,0,0-.38-.6,5.16,5.16,0,0,0-.92-.61l-9.63-5.23a2.62,2.62,0,0,0-1.13.62,2.08,2.08,0,0,1-.69-2,1.78,1.78,0,0,1,.7-1.33,6.65,6.65,0,0,1,2-.7l9.7-2.24a3,3,0,0,0,1.94-1.1A1.76,1.76,0,0,1,172.77,522.22Zm-5.4,7,.39-3-5.1.77Z"/><path class="cls-8" d="M165,506.55a1.51,1.51,0,0,1,1,.73,1.73,1.73,0,0,1,.11,1.32,2.58,2.58,0,0,1-.87,1.31,1.76,1.76,0,0,0-.74-.36,1.1,1.1,0,0,0-1,.33,2.84,2.84,0,0,0-.79,1.47,3.49,3.49,0,0,0-.07,1.77,1.16,1.16,0,0,0,.83.91,1.52,1.52,0,0,0,1.37-.48,14,14,0,0,0,1.53-1.65c.53-.67,1.09-1.33,1.67-2a6.44,6.44,0,0,1,2-1.52,3.25,3.25,0,0,1,2.3-.24,3.61,3.61,0,0,1,2.52,2.37,6.7,6.7,0,0,1,.13,4.17,8.25,8.25,0,0,1-1.87,3.61,2.58,2.58,0,0,1-2.61,1,1.6,1.6,0,0,1-1.1-.88,2,2,0,0,1-.12-1.45,2.49,2.49,0,0,1,1-1.36,1.35,1.35,0,0,0,.87.7,1.14,1.14,0,0,0,1.15-.42,3.76,3.76,0,0,0,.88-1.72,3.19,3.19,0,0,0,0-1.94,1.51,1.51,0,0,0-1.06-1,1.78,1.78,0,0,0-1.59.43,9.22,9.22,0,0,0-1.61,1.63c-.52.67-1.06,1.33-1.62,2a6.89,6.89,0,0,1-1.88,1.56,2.77,2.77,0,0,1-2.11.29,3.37,3.37,0,0,1-2.39-2.27,6.72,6.72,0,0,1,0-4,7.56,7.56,0,0,1,1.74-3.41A2.36,2.36,0,0,1,165,506.55Z"/><path class="cls-9" d="M172.25,505.16l-6.62-2.73a1.36,1.36,0,0,0-1.48.09,2.26,2.26,0,0,1-.1-1.93,1.82,1.82,0,0,1,1.08-1.15,2.66,2.66,0,0,1,1.77.23l6.92,2.86a2.37,2.37,0,0,0,2.08,0,3.05,3.05,0,0,0,1.38-1.61,3,3,0,0,0,.16-2.12,2.36,2.36,0,0,0-1.49-1.45l-7-2.91a1.37,1.37,0,0,0-1.49.1,2.29,2.29,0,0,1-.08-2c.48-1.18,1.43-1.48,2.83-.9l6.51,2.7a5.15,5.15,0,0,1,3.05,2.82,6.12,6.12,0,0,1-.39,4.59,6,6,0,0,1-3,3.51A5.15,5.15,0,0,1,172.25,505.16Z"/><path class="cls-10" d="M185.18,471a2.51,2.51,0,0,1,1,1.66,3.69,3.69,0,0,1-.35,2.22,5.31,5.31,0,0,1,2.31-1.35,3.33,3.33,0,0,1,1.41-.07,3.19,3.19,0,0,1,1.4.59,3.51,3.51,0,0,1,1.41,3.15,10.16,10.16,0,0,1-4.8,7.27,2.92,2.92,0,0,1-2.93-.48l-6.5-4.68a3.85,3.85,0,0,0-2-.82,16.42,16.42,0,0,1,2.48-5.16,6.85,6.85,0,0,1,3.41-2.83A3.45,3.45,0,0,1,185.18,471Zm-1.49,5.83a2.66,2.66,0,0,0,.6-1.8,1.93,1.93,0,0,0-2.39-1.71,3,3,0,0,0-1.58,1.22,7.73,7.73,0,0,0-1,1.83l3.09,2.22,1.25-1.7Zm3,4.83c.62.44,1.41,0,2.36-1.33a3.87,3.87,0,0,0,.86-2.21,1.87,1.87,0,0,0-.8-1.6,1.91,1.91,0,0,0-1.78-.26,4,4,0,0,0-1.84,1.51l-1.43,2Z"/><path class="cls-11" d="M189.35,463.64l7.56,6.75a1.4,1.4,0,0,0,1.43.46,2.26,2.26,0,0,1-.53,1.85,1.79,1.79,0,0,1-1.4.72,2.71,2.71,0,0,1-1.6-.81l-7.58-6.77a1.37,1.37,0,0,0-1.42-.41,2.21,2.21,0,0,1,.55-1.86C187.22,462.61,188.22,462.63,189.35,463.64Z"/><path class="cls-12" d="M200.51,452.68a7.14,7.14,0,0,1,2.35,1,11.74,11.74,0,0,1,3.84,4.24,7,7,0,0,1,.75,2.45,4.68,4.68,0,0,1-.42,2.52,7.14,7.14,0,0,1-1.8,2.39,5.71,5.71,0,0,1-4.92,1.71,9.52,9.52,0,0,1-7.09-7.82,5.73,5.73,0,0,1,2.19-4.72,7.31,7.31,0,0,1,2.57-1.57A4.89,4.89,0,0,1,200.51,452.68Zm3.68,10.93a2.43,2.43,0,0,0,.76-2.72,7.55,7.55,0,0,0-1.65-2.62c-.18-.2-.37-.41-.58-.62a8.77,8.77,0,0,0-3.38-2.23,2.79,2.79,0,0,0-2.9.62c-1.45,1.32-1.14,3.11.93,5.39q2.59,2.88,4.88,2.92A2.69,2.69,0,0,0,204.19,463.61Z"/><path class="cls-13" d="M210.26,456.38l-4.46-6.65a3.81,3.81,0,0,0-1.62-1.47,15.79,15.79,0,0,1,3.91-3.84,7.68,7.68,0,0,1,5.57-1.42,8,8,0,0,1,6,8.93,7.62,7.62,0,0,1-3.42,4.62,6.55,6.55,0,0,1-3.52,1.38A3,3,0,0,1,210.26,456.38Zm2.66-1.52c.44.66,1.19.63,2.26-.08a3.84,3.84,0,0,0,1.77-2.91,6.83,6.83,0,0,0-4.26-6.33,3.89,3.89,0,0,0-3.46.58,5.05,5.05,0,0,0-1.31,1.3Z"/><path class="cls-14" d="M222,438.8l4.72,9c.32.61.71.92,1.18.92a2.26,2.26,0,0,1-1.15,1.55,1.79,1.79,0,0,1-1.56.18A2.65,2.65,0,0,1,224,449.1l-4.73-9a1.35,1.35,0,0,0-1.18-.88,2.19,2.19,0,0,1,1.17-1.55C220.4,437.08,221.32,437.45,222,438.8Z"/><path class="cls-15" d="M233.44,431.82a3,3,0,0,1,1.37-1.1,1.88,1.88,0,0,1,1.44-.08,1.54,1.54,0,0,1,.89.91,4.11,4.11,0,0,1,.26,1.56l-.08,9.72a6.66,6.66,0,0,1-.29,2.23,2.09,2.09,0,0,1-1.25,1,3.72,3.72,0,0,1-.87.25,1.33,1.33,0,0,1-.74-.18,3.63,3.63,0,0,1-.68-.5c-.19-.19-.48-.5-.87-.94l-6.92-7.83a2.36,2.36,0,0,0-1.46-.89,2.7,2.7,0,0,1,1.51-1.62,1.87,1.87,0,0,1,1.39-.06,4.06,4.06,0,0,1,1.49,1.22l6.23,7.5-.39-8.81a5.91,5.91,0,0,0-.28-1.69A1.27,1.27,0,0,0,233.44,431.82Z"/><path class="cls-16" d="M247.51,439.39l3-.77a4.08,4.08,0,0,0,2.17-1.35,1.81,1.81,0,0,1,.68,2.64,2.87,2.87,0,0,1-1.67,1l-4.06,1a4,4,0,0,1-2.94-.1,3.43,3.43,0,0,1-1.53-2.32L241,431.18a1.35,1.35,0,0,0-1-1.12,2.18,2.18,0,0,1,1.49-1.26l6.25-1.6A4.32,4.32,0,0,1,250,427a1.27,1.27,0,0,1,.92,1,1.62,1.62,0,0,1-.27,1.4,6.79,6.79,0,0,0-2.45.25l-4.17,1.07.72,2.81,2.58-.67a5.19,5.19,0,0,1,2.2-.22,1.14,1.14,0,0,1,.9.91,1.52,1.52,0,0,1-.28,1.38,8.76,8.76,0,0,0-2.41.38l-2.38.61.62,2.43C246.24,439.25,246.74,439.59,247.51,439.39Z"/><path class="cls-17" d="M267.29,437.42a2.17,2.17,0,0,1-1.91,1.54,2.42,2.42,0,0,1-1.41-.21,4.71,4.71,0,0,1-1.51-1.35l-2.67-3.34-1.13.14.41,3.33a1.39,1.39,0,0,0,.81,1.28,2.31,2.31,0,0,1-1.66,1.05c-1.26.15-2-.53-2.17-2.05L254.82,428a1.37,1.37,0,0,0-.81-1.25,2.22,2.22,0,0,1,1.65-1.06l3.19-.39a6.77,6.77,0,0,1,4.13.66,4,4,0,0,1,1.63,5.46,5,5,0,0,1-1.83,1.75l2.68,3.07A4.78,4.78,0,0,0,267.29,437.42Zm-9.44-9.87.56,4.5,1.09-.13a3.25,3.25,0,0,0,2-.84,2.34,2.34,0,0,0-.42-3.34,3.18,3.18,0,0,0-2.12-.33Z"/><path class="cls-18" d="M280,427a1.46,1.46,0,0,1-.47,1.14,1.7,1.7,0,0,1-1.25.42,2.53,2.53,0,0,1-1.48-.53,1.79,1.79,0,0,0,.17-.8,1.07,1.07,0,0,0-.56-.88,2.78,2.78,0,0,0-1.61-.42,3.51,3.51,0,0,0-1.74.36,1.17,1.17,0,0,0-.69,1,1.5,1.5,0,0,0,.8,1.21,13.07,13.07,0,0,0,2,1.1c.78.35,1.55.73,2.32,1.14a6.7,6.7,0,0,1,2,1.6,3.3,3.3,0,0,1,.78,2.18,3.61,3.61,0,0,1-1.7,3,6.64,6.64,0,0,1-4,1.12,8.22,8.22,0,0,1-4-.94,2.58,2.58,0,0,1-1.58-2.29,1.6,1.6,0,0,1,.59-1.29,2.06,2.06,0,0,1,1.38-.46,2.51,2.51,0,0,1,1.56.64,1.37,1.37,0,0,0-.48,1,1.14,1.14,0,0,0,.69,1,3.7,3.7,0,0,0,1.88.44,3.23,3.23,0,0,0,1.88-.45,1.49,1.49,0,0,0,.71-1.27,1.8,1.8,0,0,0-.8-1.45,9.57,9.57,0,0,0-2-1.16c-.77-.35-1.54-.71-2.32-1.1a6.71,6.71,0,0,1-2-1.45,2.76,2.76,0,0,1-.79-2,3.33,3.33,0,0,1,1.63-2.87,6.8,6.8,0,0,1,3.9-1,7.75,7.75,0,0,1,3.73.87A2.35,2.35,0,0,1,280,427Z"/><path class="cls-19" d="M287,427l-1,10.09a1.39,1.39,0,0,0,.48,1.42,2.25,2.25,0,0,1-1.81.66,1.82,1.82,0,0,1-1.41-.7,2.69,2.69,0,0,1-.29-1.78l1-10.1a1.35,1.35,0,0,0-.5-1.39,2.2,2.2,0,0,1,1.83-.66C286.56,424.71,287.13,425.53,287,427Z"/><path class="cls-20" d="M293.42,425.79l6.86,1.32c1.21.24,1.73.84,1.54,1.81a1.88,1.88,0,0,1-.69,1,5.85,5.85,0,0,0-2.17-.77l-1.5-.29-1.88,9.78a1.39,1.39,0,0,0,.37,1.47,2.3,2.3,0,0,1-1.9.48c-1.24-.24-1.72-1.11-1.43-2.61l1.87-9.69-2.39-.46c-1.22-.23-1.73-.84-1.54-1.81a1.8,1.8,0,0,1,.68-1A5.91,5.91,0,0,0,293.42,425.79Z"/><path class="cls-21" d="M307.4,443.73a3.75,3.75,0,0,1-1.58-.16,1.6,1.6,0,0,1-1.07-.95,2.69,2.69,0,0,1,.07-1.78l1.24-3.8-1.62-6.68a1.54,1.54,0,0,0-.88-1.16,1.93,1.93,0,0,1,2.33-.87,1.83,1.83,0,0,1,1.06.83,6.34,6.34,0,0,1,.61,1.67l1,4.15,2.91-2a2,2,0,0,0,.85-1,1.45,1.45,0,0,0-.12-1.14,4.14,4.14,0,0,1,1.81.09,2.15,2.15,0,0,1,1.16.82,1.43,1.43,0,0,1,.15,1.31,2.74,2.74,0,0,1-1.18,1.36l-5.21,3.53-1.34,4.13A3.53,3.53,0,0,0,307.4,443.73Z"/><path class="cls-22" d="M329.78,438.24l5.79,3.33a4.32,4.32,0,0,1,1.6,1.32,1.16,1.16,0,0,1,0,1.19,1.59,1.59,0,0,1-1.15.76,6.69,6.69,0,0,0-1.93-1.53l-3.73-2.15-1.7,3,2.31,1.33a6,6,0,0,1,1.76,1.34,1,1,0,0,1,.1,1.12,1.25,1.25,0,0,1-1.07.62,10.64,10.64,0,0,0-2-1.38l-2.12-1.22-2.22,3.87a1.39,1.39,0,0,0-.15,1.49,2.2,2.2,0,0,1-1.94-.15c-1.09-.63-1.26-1.61-.5-2.94l5-8.62a1.37,1.37,0,0,0,.1-1.48A2.2,2.2,0,0,1,329.78,438.24Z"/><path class="cls-23" d="M348.16,453a7.18,7.18,0,0,1-.53,2.49,10.56,10.56,0,0,1-1.46,2.48,10.73,10.73,0,0,1-2,2.06,7.32,7.32,0,0,1-2.27,1.17,4.89,4.89,0,0,1-2.55,0,7.29,7.29,0,0,1-2.68-1.35,5.72,5.72,0,0,1-2.56-4.54A9.53,9.53,0,0,1,340.5,447a5.71,5.71,0,0,1,5,1.32,7.2,7.2,0,0,1,2,2.24A4.78,4.78,0,0,1,348.16,453Zm-10.09,5.57a2.43,2.43,0,0,0,2.81.27,7.67,7.67,0,0,0,2.29-2.09l.5-.69a8.59,8.59,0,0,0,1.59-3.72,2.78,2.78,0,0,0-1.13-2.74q-2.33-1.79-5.14,1.87-2.36,3.07-2,5.33A2.69,2.69,0,0,0,338.07,458.55Z"/><path class="cls-24" d="M347.4,461.84l5.12-5a1.36,1.36,0,0,0,.49-1.4,2.21,2.21,0,0,1,1.81.67,1.78,1.78,0,0,1,.64,1.44,2.65,2.65,0,0,1-.9,1.54l-5.35,5.24a2.39,2.39,0,0,0-.84,1.91,3.44,3.44,0,0,0,2.83,2.88,2.42,2.42,0,0,0,1.92-.8l5.43-5.33a1.37,1.37,0,0,0,.49-1.4,2.28,2.28,0,0,1,1.84.69c.89.91.79,1.89-.29,3l-5,4.93a5.21,5.21,0,0,1-3.79,1.7,7.59,7.59,0,0,1-6.14-6.27A5.2,5.2,0,0,1,347.4,461.84Z"/><path class="cls-25" d="M355.42,474.6l8.2-6a1.35,1.35,0,0,0,.7-1.3,2.58,2.58,0,0,1,1.9,1.19,3.08,3.08,0,0,1,.23,3.21l-4,9.51,6.77-4.94a1.35,1.35,0,0,0,.7-1.3,2.22,2.22,0,0,1,1.71.93c.76,1,.52,2-.7,2.91l-8.19,6a2.84,2.84,0,0,0-1.11,1.26,2.45,2.45,0,0,1-1.48-1.07,3.12,3.12,0,0,1-.63-2,9,9,0,0,1,.78-2.88l3.25-7.63-6.41,4.67a1.43,1.43,0,0,0-.75,1.31,2.24,2.24,0,0,1-1.69-.91,1.78,1.78,0,0,1-.41-1.52A2.7,2.7,0,0,1,355.42,474.6Z"/><path class="cls-26" d="M365.76,487.36l7.11-3.69a3.76,3.76,0,0,0,1.64-1.45,15.79,15.79,0,0,1,3.38,4.32,7.6,7.6,0,0,1,.78,5.7,8,8,0,0,1-9.54,5,7.66,7.66,0,0,1-4.21-3.92,6.48,6.48,0,0,1-1-3.65A3,3,0,0,1,365.76,487.36Zm1.22,2.81q-1.07.56-.18,2.25a3.81,3.81,0,0,0,2.7,2.09,5.84,5.84,0,0,0,3.91-.72,5.91,5.91,0,0,0,2.85-2.8,3.87,3.87,0,0,0-.19-3.51,5.28,5.28,0,0,0-1.14-1.45Z"/><path class="cls-27" d="M373.34,512.87a2.66,2.66,0,0,1-.72-1.13,1.87,1.87,0,0,1-.05-1.29,3.18,3.18,0,0,1,1-1.27l1-.83-1.45-4.14h-1.44a1.93,1.93,0,0,1-2.08-1.21,2.45,2.45,0,0,1-.12-1.2,1.42,1.42,0,0,1,.42-.92,1.23,1.23,0,0,0,.61.37,5.11,5.11,0,0,0,1.1.14l10.95.35a2.56,2.56,0,0,0,.73-1.06,2,2,0,0,1,1.49,1.44,1.72,1.72,0,0,1,0,1.5,6.82,6.82,0,0,1-1.45,1.52l-7.68,6.36a3,3,0,0,0-1.23,1.84A1.66,1.66,0,0,1,373.34,512.87Zm1.69-8.65,1,2.84,4.22-3Z"/><path class="cls-28" d="M388.05,513.82l1.46,6.83c.26,1.21-.1,1.92-1.07,2.13a1.84,1.84,0,0,1-1.19-.24,6,6,0,0,0-.14-2.3l-.32-1.49-9.74,2.08a1.4,1.4,0,0,0-1.21.91,2.28,2.28,0,0,1-1.18-1.57c-.26-1.23.35-2,1.85-2.33l9.65-2.06-.51-2.38c-.26-1.2.1-1.91,1.07-2.12a1.84,1.84,0,0,1,1.19.24A6,6,0,0,0,388.05,513.82Z"/><path class="cls-29" d="M388.57,529.33l-10.07,1.19a1.4,1.4,0,0,0-1.28.77,2.24,2.24,0,0,1-1-1.63,1.8,1.8,0,0,1,.38-1.52,2.7,2.7,0,0,1,1.67-.66l10.09-1.19a1.35,1.35,0,0,0,1.25-.79,2.21,2.21,0,0,1,1,1.65C390.76,528.43,390.08,529.16,388.57,529.33Z"/><path class="cls-30" d="M389.4,544.86a7.37,7.37,0,0,1-2.28,1.13,11.7,11.7,0,0,1-5.72.09,7.54,7.54,0,0,1-2.34-1.05,4.73,4.73,0,0,1-1.61-2,7.15,7.15,0,0,1-.61-2.93,5.72,5.72,0,0,1,2-4.83,9.52,9.52,0,0,1,10.55-.17,5.69,5.69,0,0,1,2.1,4.76,7.16,7.16,0,0,1-.51,3A4.77,4.77,0,0,1,389.4,544.86Zm-10.64-4.44a2.44,2.44,0,0,0,1.54,2.37,7.67,7.67,0,0,0,3.06.49l.85,0a8.68,8.68,0,0,0,3.9-1.06,2.81,2.81,0,0,0,1.45-2.6c0-2-1.59-2.91-4.66-2.86q-3.88.07-5.42,1.75A2.66,2.66,0,0,0,378.76,540.42Z"/><path class="cls-31" d="M379,549.71l10.07,1.39a1.35,1.35,0,0,0,1.4-.45,2.53,2.53,0,0,1,.54,2.18,3.07,3.07,0,0,1-2.05,2.46l-9.49,4.08,8.3,1.14a1.37,1.37,0,0,0,1.41-.45,2.19,2.19,0,0,1,.58,1.85c-.17,1.28-1,1.81-2.52,1.61l-10-1.39a3,3,0,0,0-1.68.14,2.42,2.42,0,0,1-.31-1.79,3.12,3.12,0,0,1,.95-1.9,9,9,0,0,1,2.56-1.54l7.63-3.23-7.86-1.09a1.41,1.41,0,0,0-1.44.43,2.26,2.26,0,0,1-.58-1.84,1.78,1.78,0,0,1,.75-1.37A2.7,2.7,0,0,1,379,549.71Z"/><path class="cls-32" d="M382.18,575.52a5.8,5.8,0,0,0,3.18-4c-.95-.5-2.94-.33-4.9.8a9.45,9.45,0,0,0-2.55,2.2c.47-1.42.9-2.85,1.24-4.31l-.56-.19c-.31,1.37-.71,2.7-1.14,4a6.6,6.6,0,0,0-1-2.89c-1.16-2-2.84-3-3.89-3.1-.47.86-.23,2.76.84,4.7a6.15,6.15,0,0,0,3.39,3.2c-.58,1.63-1.19,3.26-1.79,4.88a7.41,7.41,0,0,0-.77-3.06,5.64,5.64,0,0,0-3.61-3.32c-.54.82-.55,2.68.43,4.71a6.64,6.64,0,0,0,3.31,3.47l0,.06c-.62,1.59-1.39,3.12-2.14,4.66a7.37,7.37,0,0,0-.48-3.11,5.57,5.57,0,0,0-3.38-3.54,5.53,5.53,0,0,0,0,4.68,6.36,6.36,0,0,0,3,3.66l-.09.18-1.57,3.26c-.21.43-.45.85-.69,1.25a6.29,6.29,0,0,0-.36-3.19,5.89,5.89,0,0,0-3.21-3.8c-.63.75-.75,2.67-.11,4.77a6.18,6.18,0,0,0,2.71,3.81c-.06.1-.12.19-.17.29h0l-2.53,4.16a7.39,7.39,0,0,0-.15-3.2,5.68,5.68,0,0,0-2.9-4c-.68.71-1.05,2.53-.49,4.71a6.58,6.58,0,0,0,2.57,4.06l-.1.17c-.95,1.38-2,2.73-3,4.07a7.11,7.11,0,0,0,.13-3.16,5.5,5.5,0,0,0-2.59-4.12c-.73.65-1.28,2.41-.9,4.59a6.35,6.35,0,0,0,2.25,4.18v0h0L358,610c-.32.4-.66.78-1,1.16a6.1,6.1,0,0,0,.28-3.16c-.32-2.27-1.47-3.88-2.42-4.35-.77.6-1.22,2.49-1.05,4.63a6.16,6.16,0,0,0,1.93,4.28l-.14.14-3.38,3.72a7.64,7.64,0,0,0,.46-3.16,5.71,5.71,0,0,0-2.08-4.46c-.8.56-1.52,2.29-1.39,4.54a6.62,6.62,0,0,0,1.74,4.47l-.09.1-3.74,3.41a7,7,0,0,0,.72-3.06,5.54,5.54,0,0,0-1.74-4.55c-.86.49-1.72,2.12-1.77,4.34a6.43,6.43,0,0,0,1.4,4.54l-.14.14c-.9.8-1.77,1.64-2.7,2.42l-1.13.84a6.2,6.2,0,0,0,.91-3c.12-2.29-.69-4.1-1.53-4.75-.86.46-1.68,2.22-1.95,4.33a6.2,6.2,0,0,0,1.07,4.57l0,0h0l-.25.19h0c-1.29.95-2.57,1.92-3.87,2.87a7.64,7.64,0,0,0,1-3,5.71,5.71,0,0,0-1.17-4.79c-.9.4-1.93,2-2.23,4.2a6.65,6.65,0,0,0,.82,4.71l-.16.12-4.31,2.62a7.3,7.3,0,0,0,1.31-2.89,5.62,5.62,0,0,0-.83-4.81c-.94.32-2.1,1.76-2.57,3.93a6.42,6.42,0,0,0,.49,4.73l-.29.18h0c-.94.57-1.86,1.18-2.85,1.67l-1.4.68a6.31,6.31,0,0,0,1.5-2.77c.56-2.23.12-4.16-.58-5-.92.31-2.09,1.81-2.76,3.84a6.25,6.25,0,0,0,.15,4.7l-.17.09c-1.52.7-3,1.47-4.53,2.18a8,8,0,0,0,1.62-2.77A5.74,5.74,0,0,0,319,633c-.95.22-2.26,1.55-3,3.69a6.71,6.71,0,0,0-.13,4.76l-.27.12c-1.55.54-3.09,1.12-4.62,1.7a7.28,7.28,0,0,0,1.85-2.59,5.59,5.59,0,0,0,.13-4.88c-1,.13-2.4,1.32-3.29,3.36a6.48,6.48,0,0,0-.43,4.75c-1.67.6-3.35,1.17-5.06,1.63a6.62,6.62,0,0,0,2.09-2.45c1-2.08.93-4.07.4-5a3.36,3.36,0,0,0-1.69,1,8.51,8.51,0,0,0-1.77,2.24,6.2,6.2,0,0,0-.77,4.65h0c-1.68.41-3.34.88-5,1.28a7.52,7.52,0,0,0,2.13-2.39,5.73,5.73,0,0,0,.75-4.88c-1,0-2.52,1.08-3.66,3a6.66,6.66,0,0,0-1.06,4.65l-.19,0-5,.76a7.28,7.28,0,0,0,2.32-2.16,5.55,5.55,0,0,0,1.08-4.75c-1-.07-2.61.81-3.88,2.63a6.46,6.46,0,0,0-1.36,4.56h0l-.3,0h0c-1.09.16-2.17.36-3.27.46l-1.55.08a6.2,6.2,0,0,0,2.44-2,6,6,0,0,0,1.38-4.8c-1-.08-2.63.89-4,2.49a6.2,6.2,0,0,0-1.67,4.39h-.19l-5,.25a7.59,7.59,0,0,0,2.56-1.91,5.76,5.76,0,0,0,1.69-4.63c-1-.17-2.7.55-4.19,2.24a6.65,6.65,0,0,0-1.95,4.39l-.33,0v.58h.35a5.55,5.55,0,0,0,2.13,4.21c1.69,1.53,3.75,2.06,4.81,1.79.17-1.05-.63-2.9-2.32-4.43a7.77,7.77,0,0,0-2.79-1.66l5.11-.25h.19a6,6,0,0,0,2.41,4.19,5.46,5.46,0,0,0,4.92,1.48c.1-1.07-.81-2.84-2.6-4.2a10.21,10.21,0,0,0-2.88-1.57l1.6-.08c1.2-.11,2.4-.34,3.6-.51h0a5.79,5.79,0,0,0,2.67,4c1.89,1.34,4,1.65,5,1.27,0-1.06-1-2.8-2.89-4.15a8.17,8.17,0,0,0-3-1.36l5-.76.2-.05a5.57,5.57,0,0,0,2.91,3.76c2,1.16,4.09,1.27,5.08.79,0-1.06-1.19-2.72-3.15-3.88a7.57,7.57,0,0,0-3.05-1.07c1.6-.39,3.18-.83,4.78-1.23h0l.33-.08a6,6,0,0,0,3.18,3.62,7.22,7.22,0,0,0,3,.94,4.06,4.06,0,0,0,2.13-.43c-.11-1.07-1.35-2.62-3.37-3.6a9,9,0,0,0-3.06-1c1.68-.46,3.33-1,5-1.61a5.72,5.72,0,0,0,3.38,3.34c2.12,1,4.26.83,5.19.26-.18-1-1.54-2.56-3.65-3.5a8.16,8.16,0,0,0-3.17-.74c1.53-.58,3.06-1.16,4.6-1.7h0l0,0,.26-.09v0h0a5.59,5.59,0,0,0,3.6,3.13c2.15.75,4.25.44,5.13-.22-.25-1-1.7-2.44-3.85-3.19a7.51,7.51,0,0,0-3.2-.45c1.55-.72,3.06-1.5,4.6-2.22l.18-.08a6,6,0,0,0,3.83,2.93,5.46,5.46,0,0,0,5.12-.51c-.31-1-1.84-2.31-4-2.88a9.54,9.54,0,0,0-3.27-.35l1.44-.69c1.09-.54,2.09-1.24,3.14-1.85h0a5.73,5.73,0,0,0,4,2.62c2.26.52,4.33,0,5.13-.75-.37-1-2-2.21-4.26-2.72a8.33,8.33,0,0,0-3.26-.12l4.35-2.64.16-.12a5.53,5.53,0,0,0,4.13,2.34c2.25.33,4.26-.38,5-1.2-.44-1-2.14-2.06-4.4-2.38a7.76,7.76,0,0,0-3.26.18c1.41-1,2.8-2.09,4.2-3.13l.05,0a6,6,0,0,0,4.34,2.14,5.53,5.53,0,0,0,4.9-1.52c-.51-.94-2.25-1.91-4.5-2.05a10.25,10.25,0,0,0-3.26.32l1.17-.87c.93-.78,1.81-1.63,2.71-2.43l.15-.14a5.78,5.78,0,0,0,4.42,1.81c2.32.07,4.26-.85,4.9-1.73-.56-.9-2.39-1.77-4.71-1.84a8.21,8.21,0,0,0-3.25.52l3.64-3.33v0l.14-.15.08-.08h0v0a5.62,5.62,0,0,0,4.49,1.49c2.29-.12,4.12-1.2,4.68-2.14-.62-.87-2.49-1.61-4.78-1.49a7.7,7.7,0,0,0-3.15.79l3.44-3.78.14-.15a6,6,0,0,0,4.67,1.27,5.62,5.62,0,0,0,4.5-2.46c-.69-.83-2.59-1.43-4.82-1.14a10.35,10.35,0,0,0-3.11,1c.35-.4.71-.79,1.05-1.21l2-2.68.19-.26a5.78,5.78,0,0,0,4.7.92c2.29-.38,4-1.64,4.48-2.64-.73-.77-2.68-1.26-5-.89a8.48,8.48,0,0,0-3.08,1.12c1-1.35,2.05-2.7,3-4.1l.11-.17a5.6,5.6,0,0,0,4.69.58c2.22-.56,3.82-2,4.19-3-.78-.73-2.76-1.09-5-.53a7.9,7.9,0,0,0-2.93,1.36l2.55-4.19h0v0l.16-.26h0v0a6,6,0,0,0,4.84.34,5.73,5.73,0,0,0,3.91-3.3c-.83-.68-2.82-.9-4.95-.18a10.05,10.05,0,0,0-2.83,1.55,12.88,12.88,0,0,0,.69-1.26l1.59-3.28a1.42,1.42,0,0,1,.08-.18,5.81,5.81,0,0,0,4.79,0c2.17-.82,3.68-2.38,3.87-3.47-.88-.62-2.83-.69-5,.11a8.32,8.32,0,0,0-2.82,1.71c.73-1.47,1.46-2.94,2.07-4.46h0l.09-.25s0,0,0,0h0v0a5.66,5.66,0,0,0,4.72-.35c2.07-1,3.37-2.68,3.53-3.76-.9-.56-2.92-.53-5,.45a8.06,8.06,0,0,0-2.64,1.95c.62-1.67,1.24-3.33,1.83-5A6,6,0,0,0,382.18,575.52Z"/><path class="cls-33" d="M274,650.31v-.59l-.33,0a6.65,6.65,0,0,0-1.95-4.39c-1.49-1.69-3.22-2.41-4.19-2.24a5.76,5.76,0,0,0,1.69,4.63,7.59,7.59,0,0,0,2.56,1.91l-5-.24h-.19a6.23,6.23,0,0,0-1.67-4.4c-1.4-1.6-3.05-2.57-4-2.49a6,6,0,0,0,1.38,4.8,6.2,6.2,0,0,0,2.44,2l-1.55-.08c-1.1-.1-2.18-.3-3.27-.46h0l-.26,0h-.08a6.47,6.47,0,0,0-1.36-4.57c-1.27-1.82-2.9-2.7-3.88-2.63a5.55,5.55,0,0,0,1.08,4.75,7.17,7.17,0,0,0,2.32,2.16l-5-.76-.19,0a6.66,6.66,0,0,0-1.06-4.65c-1.14-2-2.68-3-3.66-3a5.76,5.76,0,0,0,.75,4.89,7.75,7.75,0,0,0,2.13,2.39c-1.67-.41-3.33-.88-5-1.29h0a6.17,6.17,0,0,0-.77-4.64,8.19,8.19,0,0,0-1.77-2.24,3.31,3.31,0,0,0-1.69-1c-.53.92-.59,2.91.4,5a6.53,6.53,0,0,0,2.09,2.45c-1.71-.46-3.39-1-5.06-1.63a6.48,6.48,0,0,0-.43-4.75c-.89-2-2.31-3.23-3.29-3.35a5.57,5.57,0,0,0,.13,4.87,7.28,7.28,0,0,0,1.85,2.59c-1.53-.57-3.07-1.16-4.62-1.7l-.27-.11a6.71,6.71,0,0,0-.13-4.76c-.73-2.14-2-3.48-3-3.7a5.8,5.8,0,0,0-.22,4.94,7.87,7.87,0,0,0,1.62,2.76c-1.51-.71-3-1.48-4.53-2.18l-.17-.09a6.25,6.25,0,0,0,.15-4.7c-.67-2-1.84-3.52-2.76-3.84-.7.8-1.14,2.74-.58,5a6.32,6.32,0,0,0,1.5,2.76l-1.4-.67c-1-.5-1.91-1.11-2.85-1.68h0l-.29-.17a6.46,6.46,0,0,0,.49-4.74c-.47-2.17-1.63-3.61-2.57-3.92a5.59,5.59,0,0,0-.83,4.8,7.3,7.3,0,0,0,1.31,2.89l-4.31-2.62-.16-.12a6.65,6.65,0,0,0,.82-4.71c-.3-2.24-1.33-3.8-2.23-4.2a5.72,5.72,0,0,0-1.17,4.79,7.74,7.74,0,0,0,1,3l-3.87-2.88h0l-.28-.2a6.23,6.23,0,0,0,1.07-4.58c-.27-2.11-1.09-3.86-2-4.32-.84.64-1.65,2.45-1.53,4.75a6.09,6.09,0,0,0,.91,3l-1.13-.84c-.93-.78-1.8-1.62-2.7-2.42l-.14-.13a6.46,6.46,0,0,0,1.4-4.55c0-2.21-.91-3.85-1.77-4.33a5.52,5.52,0,0,0-1.74,4.54,7.13,7.13,0,0,0,.72,3.07l-3.74-3.42-.09-.09a6.62,6.62,0,0,0,1.73-4.48c.14-2.25-.58-4-1.38-4.54a5.71,5.71,0,0,0-2.08,4.47,7.59,7.59,0,0,0,.46,3.15l-3.38-3.71-.14-.15a6.16,6.16,0,0,0,1.93-4.27c.17-2.14-.28-4-1.05-4.64-.95.47-2.1,2.09-2.42,4.36a6.08,6.08,0,0,0,.28,3.15c-.35-.38-.69-.76-1-1.16l-2.17-2.9h0v0a6.35,6.35,0,0,0,2.25-4.18c.38-2.18-.17-3.94-.9-4.59a5.5,5.5,0,0,0-2.59,4.12,7.11,7.11,0,0,0,.13,3.16c-1-1.34-2-2.69-3-4.07l-.1-.17a6.58,6.58,0,0,0,2.57-4.06c.56-2.17.19-4-.49-4.71a5.7,5.7,0,0,0-2.9,4,7.38,7.38,0,0,0-.15,3.2l-2.53-4.17h0l-.17-.29a6.15,6.15,0,0,0,2.71-3.81c.64-2.1.52-4-.11-4.77a5.88,5.88,0,0,0-3.21,3.81,6.28,6.28,0,0,0-.36,3.19c-.24-.41-.48-.82-.69-1.25l-1.57-3.27-.09-.18a6.36,6.36,0,0,0,3-3.65,5.55,5.55,0,0,0,0-4.69,5.57,5.57,0,0,0-3.38,3.55,7.31,7.31,0,0,0-.48,3.1c-.75-1.54-1.52-3.07-2.15-4.66l0-.06a6.6,6.6,0,0,0,3.31-3.47c1-2,1-3.89.43-4.71a5.67,5.67,0,0,0-3.61,3.32,7.27,7.27,0,0,0-.77,3.07c-.6-1.63-1.22-3.25-1.8-4.89a6.12,6.12,0,0,0,3.4-3.2c1.07-1.94,1.31-3.83.84-4.7-1.05.07-2.73,1.13-3.89,3.1a6.45,6.45,0,0,0-1,2.94,46,46,0,0,1-1.29-4.63c-.18.07-.37.12-.56.18.36,1.64.84,3.25,1.36,4.84a9.53,9.53,0,0,0-2.52-2.17c-2-1.13-3.95-1.3-4.9-.8a5.78,5.78,0,0,0,3.18,4,6,6,0,0,0,4.82.62c.59,1.67,1.22,3.33,1.83,5a7.76,7.76,0,0,0-2.63-1.94c-2.08-1-4.1-1-5-.46.16,1.09,1.46,2.78,3.53,3.76a5.58,5.58,0,0,0,4.72.35v0h0v0c0,.09.07.18.1.26h0c.61,1.52,1.34,3,2.07,4.46a8.47,8.47,0,0,0-2.82-1.7c-2.21-.81-4.16-.74-5-.12.19,1.09,1.7,2.65,3.87,3.48a5.84,5.84,0,0,0,4.79,0,1.42,1.42,0,0,0,.08.18l1.58,3.28c.21.43.45.85.7,1.26a10.05,10.05,0,0,0-2.83-1.55c-2.13-.72-4.12-.5-5,.18a5.73,5.73,0,0,0,3.91,3.3,6,6,0,0,0,4.84-.34v0h0l2.72,4.48a7.91,7.91,0,0,0-2.93-1.37c-2.23-.56-4.21-.19-5,.53.37,1,2,2.45,4.19,3a5.6,5.6,0,0,0,4.69-.58l.1.17c1,1.4,2,2.75,3,4.1a8.48,8.48,0,0,0-3.08-1.12c-2.3-.37-4.25.12-5,.89.45,1,2.19,2.26,4.48,2.64a5.82,5.82,0,0,0,4.7-.91c.06.08.12.17.19.25l2,2.68c.34.42.69.81,1,1.21a10.35,10.35,0,0,0-3.11-1c-2.23-.29-4.13.31-4.82,1.14a5.62,5.62,0,0,0,4.5,2.46,6,6,0,0,0,4.67-1.26l.14.14,3.44,3.78a7.86,7.86,0,0,0-3.15-.79c-2.29-.12-4.16.63-4.78,1.49.56.94,2.39,2,4.68,2.14a5.62,5.62,0,0,0,4.49-1.48h0l.09.08.14.15h0l3.64,3.32a8.39,8.39,0,0,0-3.25-.52c-2.32.07-4.15.94-4.71,1.84.64.88,2.58,1.8,4.9,1.73A5.74,5.74,0,0,0,202,623l.15.14c.9.81,1.78,1.65,2.71,2.43l1.17.87a10,10,0,0,0-3.26-.31c-2.25.14-4,1.1-4.5,2a5.5,5.5,0,0,0,4.9,1.52,6,6,0,0,0,4.34-2.14h0c1.42,1,2.82,2.11,4.24,3.15a7.76,7.76,0,0,0-3.26-.18c-2.26.32-4,1.41-4.4,2.38.73.82,2.74,1.53,5,1.21a5.56,5.56,0,0,0,4.13-2.34c.06,0,.11.08.16.11l4.35,2.65a8.12,8.12,0,0,0-3.26.11c-2.26.52-3.89,1.73-4.26,2.72.79.74,2.87,1.27,5.13.76a5.74,5.74,0,0,0,4-2.63h0c1.05.61,2.05,1.31,3.14,1.85l1.44.69a9.57,9.57,0,0,0-3.27.36c-2.17.56-3.7,1.84-4,2.87a5.46,5.46,0,0,0,5.12.51,5.93,5.93,0,0,0,3.83-2.93l.17.08c1.55.72,3.06,1.5,4.61,2.22a7.67,7.67,0,0,0-3.2.45c-2.15.76-3.6,2.15-3.85,3.19.88.66,3,1,5.13.22a5.62,5.62,0,0,0,3.6-3.13h0v0l.26.09,0,0h0c1.54.54,3.07,1.12,4.6,1.69a8.19,8.19,0,0,0-3.17.75c-2.11.94-3.47,2.44-3.65,3.49.93.57,3.07.69,5.19-.25a5.75,5.75,0,0,0,3.38-3.34c1.64.59,3.29,1.14,5,1.6a9.2,9.2,0,0,0-3.06,1c-2,1-3.26,2.53-3.37,3.6a4,4,0,0,0,2.13.43,7.26,7.26,0,0,0,3-.94,6,6,0,0,0,3.18-3.62l.33.08h0c1.6.39,3.18.83,4.78,1.22a7.72,7.72,0,0,0-3,1.07c-2,1.16-3.11,2.82-3.15,3.88,1,.48,3.12.37,5.08-.79a5.57,5.57,0,0,0,2.91-3.76l.2.05,5,.77a8,8,0,0,0-3,1.36c-1.89,1.34-2.93,3.08-2.89,4.14,1,.38,3.14.07,5-1.27a5.74,5.74,0,0,0,2.66-4h0c1.2.17,2.39.4,3.6.52l1.6.08a9.73,9.73,0,0,0-2.88,1.57c-1.79,1.35-2.7,3.12-2.6,4.19a5.43,5.43,0,0,0,4.92-1.48,6,6,0,0,0,2.41-4.19h.19l5.11.25a7.92,7.92,0,0,0-2.79,1.66c-1.69,1.53-2.49,3.38-2.32,4.43,1.06.27,3.12-.26,4.81-1.78a5.58,5.58,0,0,0,2.13-4.22Z"/><path class="cls-34" d="M269.2,604.31a16.91,16.91,0,0,0-5-2.83c.12-.33.24-.66.35-1a18.11,18.11,0,0,0-1-14.82C257.91,575.15,250,566.88,239,561.84c-1.67-.76-3.46-1.24-5.08-1.81a38.31,38.31,0,0,1,17.81,4.23,22.21,22.21,0,0,1,4.9-15.27c-.36,2.1-.84,4.12-1.05,6.17-.64,6.39,1.36,12,5.19,17.05a59.41,59.41,0,0,1,7.05,11.15A28.79,28.79,0,0,1,269.2,604.31Z"/><path class="cls-35" d="M278.09,607c.05.13.11.26.17.39a11,11,0,0,0-.8,1.57l-.06.12a8.17,8.17,0,0,1-3.1.55,11.63,11.63,0,0,1-1.22-.07c0-.06-.05-.13-.08-.2a14.17,14.17,0,0,0-2.62-4,27.55,27.55,0,0,0,1.45-5.27,29.5,29.5,0,0,0-3.06-18.41,50.49,50.49,0,0,0-4.34-7.19,10,10,0,0,1-1.65-8.31c.48-2.43,1-4.87,1.32-7.32.69-4.81-.89-9.09-3.34-13.12-3.32-5.46-7.86-9.79-12.82-13.73-1.19-.94-2.41-1.84-3.56-2.83a56,56,0,0,1,23.48,18.7c2-7.49,1.74-14.71,1-22,.39,1.13.79,2.24,1.16,3.37s.76,2.36,1.1,3.56a51.74,51.74,0,0,1,1.95,18.31,35.55,35.55,0,0,1-3.43,12.55,17.93,17.93,0,0,0-1.35,4.32,2.75,2.75,0,0,0,1.88,3.14,9,9,0,0,0,7.36,0c1.73-.75,2.38-2.16,1.85-4.18a18.92,18.92,0,0,0-1.32-3.47c-3.37-6.82-4-14-3.21-21.45a67.36,67.36,0,0,1,3.92-15.82,4.14,4.14,0,0,1,.28-.5c-.86,7.39-1.1,14.62.88,22.17a54.73,54.73,0,0,1,23.55-18.61c-.81.57-1.63,1.13-2.41,1.73s-1.57,1.25-2.34,1.89a58.3,58.3,0,0,0-10.66,11.19,22.25,22.25,0,0,0-3.62,19.5,22.7,22.7,0,0,1,.68,6.63,7.7,7.7,0,0,1-1.54,3.81c-3.39,4.88-6.2,10-7.41,15.88A27.86,27.86,0,0,0,278.09,607Z"/><path class="cls-36" d="M313.4,560c-2.4,1.06-5.49,2.14-8.33,3.71-7.33,4.06-12.95,10-17.79,16.78a26.87,26.87,0,0,0-4.51,9.22,19.7,19.7,0,0,0,1.12,12.31,14.55,14.55,0,0,0-4.68,3.93c-.59-2-1.14-4-1.53-6.09-1.26-6.41.13-12.55,3.22-18.22a72.69,72.69,0,0,1,5.49-8.45c2.82-3.79,5-7.81,5.75-12.53a24.4,24.4,0,0,0-.75-10.47,5.42,5.42,0,0,1-.23-1.16,21.73,21.73,0,0,1,5,15.18A38,38,0,0,1,313.4,560Z"/><path class="cls-37" d="M284.7,537a3.71,3.71,0,0,0,3.81-3.77,3.84,3.84,0,0,0-3.81-3.82,3.75,3.75,0,0,0-3.77,3.82A3.64,3.64,0,0,0,284.7,537Z"/><path class="cls-38" d="M246.32,559.12a3.64,3.64,0,0,0,3.76-3.79,3.71,3.71,0,0,0-3.78-3.79,3.84,3.84,0,0,0-3.81,3.82A3.76,3.76,0,0,0,246.32,559.12Z"/><path class="cls-39" d="M259.34,533.24a3.71,3.71,0,0,0,3.81,3.78,3.63,3.63,0,0,0,3.76-3.68,3.72,3.72,0,0,0-3.7-3.9A3.87,3.87,0,0,0,259.34,533.24Z"/><path class="cls-40" d="M301.49,551.54a3.7,3.7,0,0,0-3.72,3.84,3.65,3.65,0,0,0,3.8,3.74,3.76,3.76,0,0,0,3.78-3.82A3.82,3.82,0,0,0,301.49,551.54Z"/><path class="cls-41" d="M273.68,508.12a8.14,8.14,0,0,1,.79.93,9.58,9.58,0,0,1,.59.93,10,10,0,0,1,.84,1.87,11.77,11.77,0,0,1,0,7.45,10.9,10.9,0,0,1-.84,1.86c-.18.31-.38.63-.6.94a8.14,8.14,0,0,1-.79.93,6.52,6.52,0,0,1-.79-.93,8.2,8.2,0,0,1-.6-.94,10.18,10.18,0,0,1-.84-1.86,11.24,11.24,0,0,1-.6-3.73,11.13,11.13,0,0,1,1.44-5.59q.27-.47.6-.93A7.24,7.24,0,0,1,273.68,508.12Z"/><path class="cls-42" d="M273.68,491.1a8.21,8.21,0,0,1,.79.94,9.58,9.58,0,0,1,.59.93,10.18,10.18,0,0,1,.84,1.86,11.8,11.8,0,0,1,0,7.46,10.9,10.9,0,0,1-.84,1.86q-.27.47-.6.93a8.14,8.14,0,0,1-.79.93,6.52,6.52,0,0,1-.79-.93,8.1,8.1,0,0,1-.6-.93,10.18,10.18,0,0,1-.84-1.86,11.33,11.33,0,0,1-.6-3.73,11.55,11.55,0,0,1,.6-3.73,11.74,11.74,0,0,1,.84-1.86q.27-.47.6-.93A7.3,7.3,0,0,1,273.68,491.1Z"/><path class="cls-43" d="M286,512.75a8.16,8.16,0,0,0-1.2.19,10.15,10.15,0,0,0-1.06.32,10.88,10.88,0,0,0-1.85.87,11.75,11.75,0,0,0-4.86,5.65,10.65,10.65,0,0,0-.58,2,9.41,9.41,0,0,0-.15,1.1,8.22,8.22,0,0,0,0,1.22,6.14,6.14,0,0,0,1.21-.19,10.16,10.16,0,0,0,1.06-.31,10.53,10.53,0,0,0,1.85-.87,11.42,11.42,0,0,0,2.89-2.44,11.76,11.76,0,0,0,2-3.22,10.65,10.65,0,0,0,.58-2A9.41,9.41,0,0,0,286,514,7,7,0,0,0,286,512.75Z"/><path class="cls-44" d="M314.61,502.12a6.71,6.71,0,0,0-1.21-.16,10.27,10.27,0,0,0-1.11,0,10.8,10.8,0,0,0-2,.3,11.56,11.56,0,0,0-3.46,1.5,11.38,11.38,0,0,0-2.82,2.52,11.19,11.19,0,0,0-1.11,1.71,9.36,9.36,0,0,0-.46,1,7.31,7.31,0,0,0-.36,1.17,6.83,6.83,0,0,0,1.21.16,8.28,8.28,0,0,0,1.11,0,11.41,11.41,0,0,0,2-.3,11.64,11.64,0,0,0,3.47-1.51,11.34,11.34,0,0,0,2.8-2.53,10.52,10.52,0,0,0,1.12-1.71,9.19,9.19,0,0,0,.46-1A7.31,7.31,0,0,0,314.61,502.12Z"/><path class="cls-45" d="M296,498.56a8.3,8.3,0,0,0-1.21.19,10.93,10.93,0,0,0-1.06.32,11.25,11.25,0,0,0-1.85.87A11.84,11.84,0,0,0,287,505.6a10.64,10.64,0,0,0-.57,2,9.13,9.13,0,0,0-.15,1.1,7,7,0,0,0,0,1.22,8.52,8.52,0,0,0,1.21-.19,10.93,10.93,0,0,0,1.06-.32,10.17,10.17,0,0,0,1.85-.87,11.2,11.2,0,0,0,2.88-2.44,11.55,11.55,0,0,0,2-3.22,10.64,10.64,0,0,0,.57-2c.07-.35.12-.72.16-1.1A8.2,8.2,0,0,0,296,498.56Z"/><path class="cls-46" d="M283.18,498.56a7.74,7.74,0,0,0-1,.64c-.31.23-.59.47-.86.71a11.18,11.18,0,0,0-1.36,1.51,11.71,11.71,0,0,0-2.3,7.1,10.44,10.44,0,0,0,.23,2,9.42,9.42,0,0,0,.28,1.07,7,7,0,0,0,.47,1.13,7.74,7.74,0,0,0,1-.64c.31-.23.59-.47.86-.71a11.27,11.27,0,0,0,1.37-1.51,11.93,11.93,0,0,0,2.28-7.1,10.36,10.36,0,0,0-.23-2,8.9,8.9,0,0,0-.28-1.07A7.46,7.46,0,0,0,283.18,498.56Z"/><path class="cls-47" d="M292.35,487.42a7.47,7.47,0,0,0-1.1.52,10.5,10.5,0,0,0-2.46,1.95,11.7,11.7,0,0,0-3.09,6.79,11.55,11.55,0,0,0,0,2c0,.36.09.72.16,1.1a7.54,7.54,0,0,0,.34,1.17,7.14,7.14,0,0,0,1.11-.52,10.5,10.5,0,0,0,2.46-2,11.3,11.3,0,0,0,2.09-3.15,11.61,11.61,0,0,0,1-3.64,10.69,10.69,0,0,0,0-2c0-.36-.08-.72-.15-1.1A7.23,7.23,0,0,0,292.35,487.42Z"/><path class="cls-48" d="M282,482.16a7.13,7.13,0,0,0-1,.73,9.71,9.71,0,0,0-.79.78A10.89,10.89,0,0,0,279,485.3a11.79,11.79,0,0,0-1.66,7.27,10.78,10.78,0,0,0,.41,2,9.39,9.39,0,0,0,.38,1,7,7,0,0,0,.56,1.08,7.13,7.13,0,0,0,1-.73c.29-.25.55-.51.8-.77a11.5,11.5,0,0,0,1.23-1.64,11.7,11.7,0,0,0,1.41-3.5,11.3,11.3,0,0,0-.17-5.77c-.11-.34-.23-.69-.38-1A7,7,0,0,0,282,482.16Z"/><path class="cls-49" d="M309.53,513a6.65,6.65,0,0,0-1.14-.42,9.27,9.27,0,0,0-1.08-.25,12,12,0,0,0-2-.15,11.69,11.69,0,0,0-3.71.71,11.47,11.47,0,0,0-3.3,1.84,10.82,10.82,0,0,0-1.46,1.42,10.34,10.34,0,0,0-.67.89,7.55,7.55,0,0,0-.6,1.06,7.7,7.7,0,0,0,1.14.43q.56.15,1.08.24a10.33,10.33,0,0,0,2,.15,11.42,11.42,0,0,0,3.71-.71,11.41,11.41,0,0,0,4.76-3.27c.23-.27.45-.57.67-.88A7.55,7.55,0,0,0,309.53,513Z"/><path class="cls-50" d="M299.25,508.37a6.56,6.56,0,0,0-1.22-.09,9.73,9.73,0,0,0-1.1.06,10.26,10.26,0,0,0-2,.42,11.8,11.8,0,0,0-6,4.37,10.55,10.55,0,0,0-1,1.78,9.59,9.59,0,0,0-.4,1,6.69,6.69,0,0,0-.29,1.19,7.55,7.55,0,0,0,1.22.09,9.73,9.73,0,0,0,1.1-.06,10.52,10.52,0,0,0,2-.42,11.75,11.75,0,0,0,6-4.39,10.78,10.78,0,0,0,1-1.77c.14-.32.28-.67.4-1A7.83,7.83,0,0,0,299.25,508.37Z"/><path class="cls-51" d="M306.65,494.56a7.35,7.35,0,0,0-1.21.17,8.2,8.2,0,0,0-1.06.3,11,11,0,0,0-1.87.83,11.8,11.8,0,0,0-2.93,2.38,11.42,11.42,0,0,0-2,3.19,10.34,10.34,0,0,0-.61,1.95,7.52,7.52,0,0,0-.17,1.09,7,7,0,0,0,0,1.22,7.35,7.35,0,0,0,1.21-.17c.37-.08.73-.18,1.07-.29a10.52,10.52,0,0,0,1.86-.84,11.7,11.7,0,0,0,4.95-5.57,10.59,10.59,0,0,0,.62-1.95c.07-.35.13-.71.17-1.09A7,7,0,0,0,306.65,494.56Z"/><path class="cls-52" d="M304.4,484.23a7.82,7.82,0,0,0-1.18.3,10.52,10.52,0,0,0-1,.41,11.14,11.14,0,0,0-1.76,1,11.83,11.83,0,0,0-4.34,6.06,10.52,10.52,0,0,0-.4,2,8,8,0,0,0-.05,1.11,6.51,6.51,0,0,0,.1,1.21,6.37,6.37,0,0,0,1.18-.29c.37-.13.71-.26,1-.41a11.14,11.14,0,0,0,1.76-1,11.5,11.5,0,0,0,2.66-2.69,11.85,11.85,0,0,0,1.67-3.38,11.35,11.35,0,0,0,.4-2c0-.35.05-.72.05-1.1A6.61,6.61,0,0,0,304.4,484.23Z"/><path class="cls-53" d="M292.76,475a7.25,7.25,0,0,0-1.12.49c-.33.19-.65.38-.94.58a10.75,10.75,0,0,0-1.56,1.32A11.7,11.7,0,0,0,287,480.5a11.52,11.52,0,0,0-1.08,3.62,10.66,10.66,0,0,0-.05,2.05c0,.35.07.72.14,1.1a7.67,7.67,0,0,0,.31,1.18,7.13,7.13,0,0,0,1.11-.5,8,8,0,0,0,1-.58,10.1,10.1,0,0,0,1.56-1.31,11.33,11.33,0,0,0,2.16-3.1,11.31,11.31,0,0,0,1.13-5.66,10.67,10.67,0,0,0-.14-1.1A7.05,7.05,0,0,0,292.76,475Z"/><path class="cls-54" d="M274.2,473.94a7,7,0,0,0-.86.87,10.75,10.75,0,0,0-.66.89,10.13,10.13,0,0,0-1,1.79,11.78,11.78,0,0,0-.55,7.44,10.48,10.48,0,0,0,1.23,2.89,7.47,7.47,0,0,0,.72,1,7.79,7.79,0,0,0,.86-.87,10.36,10.36,0,0,0,.67-.89,11.27,11.27,0,0,0,1-1.8,11.49,11.49,0,0,0,.87-3.67,11.79,11.79,0,0,0-.34-3.76,9.9,9.9,0,0,0-.7-1.92,9.41,9.41,0,0,0-.53-1A7.29,7.29,0,0,0,274.2,473.94Z"/><path class="cls-55" d="M319.1,490.51a7,7,0,0,0-1.22,0c-.38,0-.74.09-1.09.16a10.34,10.34,0,0,0-2,.61,11.24,11.24,0,0,0-3.2,2,11.59,11.59,0,0,0-2.41,2.91,11.29,11.29,0,0,0-.84,1.86,11.14,11.14,0,0,0-.31,1.07,7.35,7.35,0,0,0-.17,1.21,8.14,8.14,0,0,0,1.22,0,9.37,9.37,0,0,0,1.1-.17,9.85,9.85,0,0,0,1.95-.6,11.7,11.7,0,0,0,5.59-4.93,10.84,10.84,0,0,0,.85-1.85,8.84,8.84,0,0,0,.3-1.07A6.16,6.16,0,0,0,319.1,490.51Z"/><path class="cls-56" d="M325.42,505.82a8,8,0,0,0-1.16-.4,9,9,0,0,0-1.08-.22,10.21,10.21,0,0,0-2-.11,11.63,11.63,0,0,0-3.7.78,11.38,11.38,0,0,0-3.26,1.91,10.91,10.91,0,0,0-1.43,1.45,8.61,8.61,0,0,0-.65.9,7.67,7.67,0,0,0-.59,1.07,7,7,0,0,0,1.16.4,9.09,9.09,0,0,0,1.08.23,12,12,0,0,0,2,.11,11.82,11.82,0,0,0,6.95-2.7,10.48,10.48,0,0,0,1.44-1.46,10.78,10.78,0,0,0,.65-.89A8.29,8.29,0,0,0,325.42,505.82Z"/><path class="cls-57" d="M261.5,512.75a8.16,8.16,0,0,1,1.2.19,9.47,9.47,0,0,1,1.06.32,10.53,10.53,0,0,1,1.85.87,11.75,11.75,0,0,1,4.86,5.65,10.65,10.65,0,0,1,.58,2,9.41,9.41,0,0,1,.15,1.1,7.05,7.05,0,0,1,0,1.22,6.14,6.14,0,0,1-1.21-.19,10.16,10.16,0,0,1-1.06-.31,10.53,10.53,0,0,1-1.85-.87,11.42,11.42,0,0,1-2.89-2.44,11.76,11.76,0,0,1-2-3.22,10.65,10.65,0,0,1-.58-2,9.41,9.41,0,0,1-.15-1.1A7,7,0,0,1,261.5,512.75Z"/><path class="cls-58" d="M232.85,502.12a6.83,6.83,0,0,1,1.21-.16,10.27,10.27,0,0,1,1.11,0,10.8,10.8,0,0,1,2,.3,11.56,11.56,0,0,1,3.46,1.5,11.38,11.38,0,0,1,2.82,2.52,10.48,10.48,0,0,1,1.11,1.71,9.36,9.36,0,0,1,.46,1,7.31,7.31,0,0,1,.36,1.17,6.83,6.83,0,0,1-1.21.16,8.27,8.27,0,0,1-1.11,0,11.06,11.06,0,0,1-5.48-1.81,11.21,11.21,0,0,1-2.81-2.53,10.52,10.52,0,0,1-1.12-1.71,9.19,9.19,0,0,1-.46-1A7.31,7.31,0,0,1,232.85,502.12Z"/><path class="cls-59" d="M225.61,516.61a8,8,0,0,1,1.1-.54,9.09,9.09,0,0,1,1-.35,10.65,10.65,0,0,1,2-.37,11.48,11.48,0,0,1,3.76.31,11.34,11.34,0,0,1,3.47,1.47,10.43,10.43,0,0,1,1.61,1.27,9.74,9.74,0,0,1,.76.8,7.36,7.36,0,0,1,.72,1,8,8,0,0,1-1.1.54c-.36.14-.7.26-1.05.36a11.56,11.56,0,0,1-2,.37,11.44,11.44,0,0,1-3.76-.32,11.62,11.62,0,0,1-3.47-1.48,11,11,0,0,1-1.61-1.26c-.26-.25-.51-.52-.76-.81A7.23,7.23,0,0,1,225.61,516.61Z"/><path class="cls-60" d="M251.51,498.56a8.16,8.16,0,0,1,1.2.19,10.78,10.78,0,0,1,2.91,1.19,11.84,11.84,0,0,1,4.86,5.66,10.64,10.64,0,0,1,.57,2,9.13,9.13,0,0,1,.15,1.1,7,7,0,0,1,0,1.22,8.52,8.52,0,0,1-1.21-.19,10.93,10.93,0,0,1-1.06-.32,10.17,10.17,0,0,1-1.85-.87,11.37,11.37,0,0,1-2.88-2.44,11.55,11.55,0,0,1-2-3.22,10.64,10.64,0,0,1-.57-2c-.07-.35-.12-.72-.16-1.1A8.27,8.27,0,0,1,251.51,498.56Z"/><path class="cls-61" d="M264.29,498.56a8.28,8.28,0,0,1,1,.64c.31.23.59.47.86.71a11.06,11.06,0,0,1,3.09,4.87,11.61,11.61,0,0,1,.57,3.74,11.24,11.24,0,0,1-.22,2c-.08.35-.17.7-.29,1.07a7,7,0,0,1-.47,1.13,9.25,9.25,0,0,1-1-.64c-.31-.23-.59-.47-.86-.71a12,12,0,0,1-1.37-1.51,11.93,11.93,0,0,1-2.28-7.1,10.36,10.36,0,0,1,.23-2,8.9,8.9,0,0,1,.28-1.07A6.63,6.63,0,0,1,264.29,498.56Z"/><path class="cls-62" d="M255.11,487.42a7.47,7.47,0,0,1,1.1.52,10.5,10.5,0,0,1,2.46,1.95,11.7,11.7,0,0,1,3.09,6.79,10.67,10.67,0,0,1,0,2c0,.36-.09.72-.16,1.1a7.54,7.54,0,0,1-.34,1.17,7.14,7.14,0,0,1-1.11-.52,10.5,10.5,0,0,1-2.46-2,11.3,11.3,0,0,1-2.09-3.15,11.61,11.61,0,0,1-1-3.64,10.69,10.69,0,0,1,0-2,8.84,8.84,0,0,1,.16-1.1A6.28,6.28,0,0,1,255.11,487.42Z"/><path class="cls-63" d="M265.46,482.16a7.13,7.13,0,0,1,1,.73,8.33,8.33,0,0,1,.79.78,10.89,10.89,0,0,1,1.23,1.63,11.79,11.79,0,0,1,1.66,7.27,10.78,10.78,0,0,1-.41,2,9.39,9.39,0,0,1-.38,1,7,7,0,0,1-.56,1.08,7.13,7.13,0,0,1-1-.73,9.65,9.65,0,0,1-.79-.77,10.88,10.88,0,0,1-1.24-1.64,11.7,11.7,0,0,1-1.41-3.5,11.52,11.52,0,0,1-.23-3.77,10.62,10.62,0,0,1,.41-2,9.29,9.29,0,0,1,.37-1A8,8,0,0,1,265.46,482.16Z"/><path class="cls-64" d="M237.93,513a6.65,6.65,0,0,1,1.14-.42,9.27,9.27,0,0,1,1.08-.25,12,12,0,0,1,2-.15,11.69,11.69,0,0,1,3.71.71,11.47,11.47,0,0,1,3.3,1.84,10.82,10.82,0,0,1,1.46,1.42,10.34,10.34,0,0,1,.67.89,7.57,7.57,0,0,1,.61,1.06,7.8,7.8,0,0,1-1.15.43q-.56.15-1.08.24a10.28,10.28,0,0,1-2,.15,11.42,11.42,0,0,1-3.71-.71,11.7,11.7,0,0,1-3.29-1.85A11.5,11.5,0,0,1,239.2,515c-.23-.27-.45-.57-.67-.88A7.55,7.55,0,0,1,237.93,513Z"/><path class="cls-65" d="M230.5,525.85a6.36,6.36,0,0,1,.71-.54l.71-.39a8.1,8.1,0,0,1,1.41-.53,8.61,8.61,0,0,1,2.75-.27,8.4,8.4,0,0,1,2.7.62,7.67,7.67,0,0,1,1.32.7,6.87,6.87,0,0,1,.66.48,6.14,6.14,0,0,1,.64.62,4.83,4.83,0,0,1-.72.54,6.24,6.24,0,0,1-.71.39,8.1,8.1,0,0,1-4.15.8,8.67,8.67,0,0,1-2.7-.62,9,9,0,0,1-1.33-.7l-.65-.48A5.29,5.29,0,0,1,230.5,525.85Z"/><path class="cls-66" d="M248.21,508.37a6.56,6.56,0,0,1,1.22-.09,9.73,9.73,0,0,1,1.1.06,10.26,10.26,0,0,1,2,.42,11.8,11.8,0,0,1,6,4.37,10.55,10.55,0,0,1,1,1.78,7.87,7.87,0,0,1,.4,1,6.69,6.69,0,0,1,.29,1.19,7.47,7.47,0,0,1-1.22.09,9.73,9.73,0,0,1-1.1-.06,10.26,10.26,0,0,1-2-.42,11.72,11.72,0,0,1-6-4.39,10.78,10.78,0,0,1-1-1.77c-.14-.32-.28-.67-.4-1A7.83,7.83,0,0,1,248.21,508.37Z"/><path class="cls-67" d="M244.44,522.3a6.73,6.73,0,0,1,1-.66,10.07,10.07,0,0,1,1-.47,10.81,10.81,0,0,1,1.95-.59,11.76,11.76,0,0,1,3.78-.11,11.38,11.38,0,0,1,3.61,1.09,10.15,10.15,0,0,1,1.74,1.08,7.92,7.92,0,0,1,.85.72,8.15,8.15,0,0,1,.82.9,7.19,7.19,0,0,1-1,.67c-.34.18-.67.33-1,.47a10,10,0,0,1-2,.58,11.48,11.48,0,0,1-3.78.11,11.66,11.66,0,0,1-3.61-1.1,10.15,10.15,0,0,1-1.74-1.08,9,9,0,0,1-.84-.71A7.2,7.2,0,0,1,244.44,522.3Z"/><path class="cls-68" d="M240.81,494.56a7.35,7.35,0,0,1,1.21.17,8.84,8.84,0,0,1,1.07.3,11.27,11.27,0,0,1,1.86.83,11.8,11.8,0,0,1,2.93,2.38,11.42,11.42,0,0,1,2,3.19,9.66,9.66,0,0,1,.61,1.95,9.18,9.18,0,0,1,.18,1.09,8.16,8.16,0,0,1,0,1.22,7.35,7.35,0,0,1-1.21-.17c-.37-.08-.73-.18-1.07-.29a10.52,10.52,0,0,1-1.86-.84,11.7,11.7,0,0,1-5-5.57,10.57,10.57,0,0,1-.61-1.95,9.18,9.18,0,0,1-.18-1.09A8.11,8.11,0,0,1,240.81,494.56Z"/><path class="cls-69" d="M243.06,484.23a7.82,7.82,0,0,1,1.18.3,10.52,10.52,0,0,1,1,.41,10.71,10.71,0,0,1,1.76,1,11.83,11.83,0,0,1,4.34,6.06,10.52,10.52,0,0,1,.4,2,9.79,9.79,0,0,1,.06,1.11,7.55,7.55,0,0,1-.11,1.21,6.37,6.37,0,0,1-1.18-.29,11,11,0,0,1-1-.41,10.81,10.81,0,0,1-1.77-1,11.46,11.46,0,0,1-2.65-2.69,11.62,11.62,0,0,1-1.68-3.38,12.33,12.33,0,0,1-.4-2c0-.35,0-.72,0-1.1A6.61,6.61,0,0,1,243.06,484.23Z"/><path class="cls-70" d="M254.7,475a7.25,7.25,0,0,1,1.12.49c.33.19.65.38.94.58a10.75,10.75,0,0,1,1.56,1.32,11.7,11.7,0,0,1,2.17,3.09,11.52,11.52,0,0,1,1.08,3.62,10.66,10.66,0,0,1,.05,2.05,9,9,0,0,1-.14,1.1,7.67,7.67,0,0,1-.31,1.18,7.13,7.13,0,0,1-1.11-.5,8.9,8.9,0,0,1-.95-.58,10.1,10.1,0,0,1-1.56-1.31,11.81,11.81,0,0,1-3.23-6.72,11.43,11.43,0,0,1-.06-2,10.67,10.67,0,0,1,.14-1.1A8.18,8.18,0,0,1,254.7,475Z"/><path class="cls-71" d="M228.36,490.51a7,7,0,0,1,1.22,0c.38,0,.74.09,1.09.16a10.34,10.34,0,0,1,2,.61,11.44,11.44,0,0,1,3.21,2,11.77,11.77,0,0,1,2.4,2.91,10.52,10.52,0,0,1,.84,1.86,11.14,11.14,0,0,1,.31,1.07,7.35,7.35,0,0,1,.17,1.21,8.16,8.16,0,0,1-1.22,0,9.2,9.2,0,0,1-1.09-.17,10,10,0,0,1-2-.6,11.14,11.14,0,0,1-3.19-2,11.43,11.43,0,0,1-2.4-2.92,10.84,10.84,0,0,1-.85-1.85c-.11-.34-.22-.7-.3-1.07A6.16,6.16,0,0,1,228.36,490.51Z"/><path class="cls-72" d="M222.05,505.82a7.52,7.52,0,0,1,1.15-.4,9,9,0,0,1,1.08-.22,10.21,10.21,0,0,1,2-.11,11.63,11.63,0,0,1,3.7.78,11.38,11.38,0,0,1,3.26,1.91,10.91,10.91,0,0,1,1.43,1.45,10.44,10.44,0,0,1,.66.9,8.86,8.86,0,0,1,.58,1.07,6.67,6.67,0,0,1-1.16.4,9.09,9.09,0,0,1-1.08.23,12,12,0,0,1-2,.11,11.82,11.82,0,0,1-6.95-2.7,10.48,10.48,0,0,1-1.44-1.46,10.78,10.78,0,0,1-.65-.89A7.21,7.21,0,0,1,222.05,505.82Z"/><path class="cls-73" d="M216.69,494a8.2,8.2,0,0,1,1.2-.21,8.4,8.4,0,0,1,1.11-.05,10.27,10.27,0,0,1,2,.21,11.71,11.71,0,0,1,6.46,3.72,11,11,0,0,1,1.19,1.66,9.16,9.16,0,0,1,.5,1,6.72,6.72,0,0,1,.41,1.15,7,7,0,0,1-1.2.22,10.54,10.54,0,0,1-1.11.05,10.19,10.19,0,0,1-2-.21,11.38,11.38,0,0,1-3.53-1.34,11.83,11.83,0,0,1-2.92-2.4,10.88,10.88,0,0,1-1.19-1.65q-.27-.47-.51-1A7.7,7.7,0,0,1,216.69,494Z"/><path class="cls-74" d="M231.29,479.45a8,8,0,0,1,1.2.24,8.09,8.09,0,0,1,1,.36,10.71,10.71,0,0,1,1.82.93,11.73,11.73,0,0,1,2.8,2.53A11.54,11.54,0,0,1,240,486.8a10.82,10.82,0,0,1,.5,2,9.49,9.49,0,0,1,.12,1.1,8.52,8.52,0,0,1,0,1.22,6.91,6.91,0,0,1-1.2-.23,9.94,9.94,0,0,1-1.05-.35,10.38,10.38,0,0,1-1.82-.94,11.52,11.52,0,0,1-2.8-2.53,11.82,11.82,0,0,1-1.85-3.3,11.58,11.58,0,0,1-.51-2c-.05-.36-.09-.72-.11-1.11A7.25,7.25,0,0,1,231.29,479.45Z"/><path class="cls-75" d="M243.62,470.73a6.72,6.72,0,0,1,1.15.41,9.16,9.16,0,0,1,1,.5,10.46,10.46,0,0,1,1.66,1.18,11.44,11.44,0,0,1,2.41,2.91,11.63,11.63,0,0,1,1.37,3.52,11,11,0,0,1,.22,2,10.54,10.54,0,0,1,0,1.11,8.32,8.32,0,0,1-.21,1.21,8.27,8.27,0,0,1-1.16-.41,9.16,9.16,0,0,1-1-.5,10.94,10.94,0,0,1-1.66-1.18,11.88,11.88,0,0,1-3.76-6.44,10.18,10.18,0,0,1-.22-2,10.48,10.48,0,0,1,0-1.11A8.2,8.2,0,0,1,243.62,470.73Z"/><path class="cls-76" d="M263,463.35a8.42,8.42,0,0,1,.92.81q.39.42.72.84a10.81,10.81,0,0,1,1.1,1.72,11.76,11.76,0,0,1,1.08,7.38,10.75,10.75,0,0,1-.56,2,9,9,0,0,1-.46,1,7.63,7.63,0,0,1-.65,1,8.3,8.3,0,0,1-.92-.81c-.26-.28-.5-.55-.72-.84a10.81,10.81,0,0,1-1.1-1.72,11.16,11.16,0,0,1-1.13-3.6,11.45,11.45,0,0,1,.06-3.78,10.75,10.75,0,0,1,.56-2,9,9,0,0,1,.46-1A8.62,8.62,0,0,1,263,463.35Z"/><path class="cls-77" d="M209,511.13a8.76,8.76,0,0,1,1.08-.57c.36-.15.7-.27,1-.38a10.78,10.78,0,0,1,2-.41,11.34,11.34,0,0,1,3.78.21,11.49,11.49,0,0,1,3.5,1.39A10.32,10.32,0,0,1,222,512.6a9.57,9.57,0,0,1,.78.78,6.44,6.44,0,0,1,.74,1,8.1,8.1,0,0,1-1.08.57,9.39,9.39,0,0,1-1,.38,10.66,10.66,0,0,1-2,.42,11.81,11.81,0,0,1-7.28-1.62,10.71,10.71,0,0,1-1.64-1.22c-.26-.24-.52-.5-.78-.79A7.93,7.93,0,0,1,209,511.13Z"/><path class="cls-78" d="M213.34,522.5a7.3,7.3,0,0,1,.92-.8,9.75,9.75,0,0,1,.92-.61,10.28,10.28,0,0,1,1.85-.87,11.61,11.61,0,0,1,3.72-.68,11.47,11.47,0,0,1,3.73.54,10.5,10.5,0,0,1,1.88.8,9.82,9.82,0,0,1,.95.59,7.78,7.78,0,0,1,.94.77,6.76,6.76,0,0,1-.92.81,10.29,10.29,0,0,1-2.77,1.49,11.86,11.86,0,0,1-7.45.12,10.82,10.82,0,0,1-1.88-.8,9.7,9.7,0,0,1-.94-.59A7.13,7.13,0,0,1,213.34,522.5Z"/><path class="cls-79" d="M204.33,501.89a7.73,7.73,0,0,1,1.11-.51q.54-.19,1.05-.33a11.53,11.53,0,0,1,2-.31,11.72,11.72,0,0,1,3.76.41,11.54,11.54,0,0,1,3.43,1.57,10.49,10.49,0,0,1,1.57,1.31,8.56,8.56,0,0,1,.74.83,7.41,7.41,0,0,1,.69,1,8.27,8.27,0,0,1-1.11.51,9.18,9.18,0,0,1-1.06.33,9.71,9.71,0,0,1-2,.31,11.74,11.74,0,0,1-7.18-2,11,11,0,0,1-1.57-1.3,9.93,9.93,0,0,1-.74-.83A6.61,6.61,0,0,1,204.33,501.89Z"/><path class="cls-80" d="M321.74,516.61a7.34,7.34,0,0,0-1.09-.54,9.23,9.23,0,0,0-1-.35,10.69,10.69,0,0,0-2-.37,11.94,11.94,0,0,0-7.24,1.78,10.36,10.36,0,0,0-1.6,1.27,8.3,8.3,0,0,0-.76.8,7.36,7.36,0,0,0-.72,1,8,8,0,0,0,1.1.54c.35.14.7.26,1,.36a11,11,0,0,0,5.78,0,11.73,11.73,0,0,0,3.47-1.48,11.54,11.54,0,0,0,1.61-1.26c.26-.25.51-.52.76-.81A7.2,7.2,0,0,0,321.74,516.61Z"/><path class="cls-81" d="M315.43,525.81a5.47,5.47,0,0,0-.79-.58c-.27-.17-.53-.31-.78-.44a9.19,9.19,0,0,0-1.55-.58,9.53,9.53,0,0,0-3-.3,9.42,9.42,0,0,0-3,.68,8.54,8.54,0,0,0-2.18,1.3,5.7,5.7,0,0,0-.71.69,6.34,6.34,0,0,0,.79.58,7.68,7.68,0,0,0,.78.44,9.09,9.09,0,0,0,1.54.58,9.26,9.26,0,0,0,3,.29,9.55,9.55,0,0,0,3-.68,8.54,8.54,0,0,0,2.18-1.3A6.37,6.37,0,0,0,315.43,525.81Z"/><path class="cls-82" d="M302.92,522.3a6.34,6.34,0,0,0-1-.66,9.93,9.93,0,0,0-1-.47,10.67,10.67,0,0,0-2-.59,11.69,11.69,0,0,0-3.77-.11,11.43,11.43,0,0,0-3.62,1.09,10.15,10.15,0,0,0-1.74,1.08,9,9,0,0,0-.84.72,7.27,7.27,0,0,0-.82.9,7.19,7.19,0,0,0,1,.67c.34.18.67.33,1,.47a10.1,10.1,0,0,0,2,.58,11.42,11.42,0,0,0,3.77.11,11.72,11.72,0,0,0,3.62-1.1,10.15,10.15,0,0,0,1.74-1.08,10.56,10.56,0,0,0,.84-.71A8.07,8.07,0,0,0,302.92,522.3Z"/><path class="cls-83" d="M330.67,494a8.2,8.2,0,0,0-1.2-.21,8.4,8.4,0,0,0-1.11-.05,10.19,10.19,0,0,0-2,.21,11.52,11.52,0,0,0-3.53,1.33,11.65,11.65,0,0,0-2.93,2.39,11,11,0,0,0-1.19,1.66q-.27.46-.51,1a7.7,7.7,0,0,0-.41,1.15,7.12,7.12,0,0,0,1.2.22,10.66,10.66,0,0,0,1.11.05,10.29,10.29,0,0,0,2-.21,11.32,11.32,0,0,0,3.52-1.34,11.47,11.47,0,0,0,2.92-2.4,10.28,10.28,0,0,0,1.2-1.65,9.16,9.16,0,0,0,.5-1A6.72,6.72,0,0,0,330.67,494Z"/><path class="cls-84" d="M316.06,479.45a8.22,8.22,0,0,0-1.2.24,8.49,8.49,0,0,0-1,.36A10.35,10.35,0,0,0,312,481a11.36,11.36,0,0,0-2.8,2.53,11.54,11.54,0,0,0-1.86,3.29,10.82,10.82,0,0,0-.51,2c-.05.35-.09.72-.11,1.1a6.35,6.35,0,0,0,0,1.22,6.91,6.91,0,0,0,1.2-.23,9.94,9.94,0,0,0,1.05-.35,11.13,11.13,0,0,0,1.82-.94,11.29,11.29,0,0,0,2.79-2.53,11.57,11.57,0,0,0,1.85-3.3,10.72,10.72,0,0,0,.51-2,9.67,9.67,0,0,0,.12-1.11A8.56,8.56,0,0,0,316.06,479.45Z"/><path class="cls-85" d="M303.74,470.73a7.17,7.17,0,0,0-1.16.41,9,9,0,0,0-1,.5,11,11,0,0,0-1.67,1.18,11.65,11.65,0,0,0-2.41,2.91,11.36,11.36,0,0,0-1.36,3.52,11,11,0,0,0-.22,2,8.4,8.4,0,0,0,.05,1.11,7.16,7.16,0,0,0,.21,1.21,7.7,7.7,0,0,0,1.15-.41,9.16,9.16,0,0,0,1-.5,11,11,0,0,0,1.67-1.18,11.47,11.47,0,0,0,2.4-2.92,11.26,11.26,0,0,0,1.36-3.52,11,11,0,0,0,.22-2,10.54,10.54,0,0,0-.05-1.11A8.11,8.11,0,0,0,303.74,470.73Z"/><path class="cls-86" d="M284.37,463.35a9.3,9.3,0,0,0-.91.81,10.94,10.94,0,0,0-.73.84,10.81,10.81,0,0,0-1.1,1.72,12,12,0,0,0-1.14,3.6,11.45,11.45,0,0,0,.06,3.78,10.75,10.75,0,0,0,.56,2c.13.34.29.67.46,1a8.76,8.76,0,0,0,.65,1,7.48,7.48,0,0,0,.92-.81,9.32,9.32,0,0,0,.73-.84,10.81,10.81,0,0,0,1.1-1.72,11.67,11.67,0,0,0,1.13-3.6,11.45,11.45,0,0,0-.07-3.78,10.75,10.75,0,0,0-.56-2c-.13-.34-.28-.67-.45-1A7.63,7.63,0,0,0,284.37,463.35Z"/><path class="cls-87" d="M338.39,511.13a8.1,8.1,0,0,0-1.08-.57c-.35-.15-.7-.27-1-.38a10.62,10.62,0,0,0-2-.41,11.28,11.28,0,0,0-3.77.21,11.54,11.54,0,0,0-3.51,1.39,10.79,10.79,0,0,0-1.64,1.23q-.39.36-.78.78a7.13,7.13,0,0,0-.73,1,7.53,7.53,0,0,0,1.08.57,8.71,8.71,0,0,0,1,.38,10.5,10.5,0,0,0,2,.42,11.76,11.76,0,0,0,7.27-1.62,10.71,10.71,0,0,0,1.64-1.22,8.33,8.33,0,0,0,.78-.79A6.33,6.33,0,0,0,338.39,511.13Z"/><path class="cls-88" d="M334,522.5a6.66,6.66,0,0,0-.92-.8,8.61,8.61,0,0,0-.92-.61,10,10,0,0,0-1.85-.87,11.68,11.68,0,0,0-7.45-.14,10,10,0,0,0-2.82,1.39,7.07,7.07,0,0,0-.94.77,7.36,7.36,0,0,0,.91.81c.31.23.62.43.92.62a11.39,11.39,0,0,0,1.85.87,11.9,11.9,0,0,0,7.46.12,10.73,10.73,0,0,0,1.87-.8,9.82,9.82,0,0,0,.95-.59A7.07,7.07,0,0,0,334,522.5Z"/><path class="cls-89" d="M333.31,555.31a6.45,6.45,0,0,0-.71-1c-.25-.29-.5-.56-.76-.81a10.77,10.77,0,0,0-1.6-1.26,11.9,11.9,0,0,0-3.47-1.5,11.48,11.48,0,0,0-3.76-.32,10.37,10.37,0,0,0-2,.36,8.69,8.69,0,0,0-1.05.36,7,7,0,0,0-1.1.54,7.87,7.87,0,0,0,.71,1,9.91,9.91,0,0,0,.76.81,11.68,11.68,0,0,0,8.84,3.07,10.65,10.65,0,0,0,2-.36c.34-.1.69-.21,1.05-.35A8.45,8.45,0,0,0,333.31,555.31Z"/><path class="cls-90" d="M312,532a7,7,0,0,0-1.19-.25,10.85,10.85,0,0,0-1.1-.09,10.38,10.38,0,0,0-2,.14,11.73,11.73,0,0,0-6.58,3.51,10.37,10.37,0,0,0-1.25,1.62,9.83,9.83,0,0,0-.54,1,7.4,7.4,0,0,0-.44,1.13,6.24,6.24,0,0,0,1.19.26,10.81,10.81,0,0,0,1.11.09,10.44,10.44,0,0,0,2-.14,11.68,11.68,0,0,0,6.57-3.52,11,11,0,0,0,1.24-1.62,8.84,8.84,0,0,0,.54-1A6.6,6.6,0,0,0,312,532Z"/><path class="cls-91" d="M328.77,529a6.81,6.81,0,0,0-1.14-.44c-.37-.11-.72-.2-1.07-.27a11.23,11.23,0,0,0-2-.19,11.87,11.87,0,0,0-7.06,2.4,10.82,10.82,0,0,0-2.18,2.27,6.93,6.93,0,0,0-.62,1.05,7.8,7.8,0,0,0,1.13.45,9.37,9.37,0,0,0,1.08.26,10.34,10.34,0,0,0,2,.2,11.77,11.77,0,0,0,3.73-.64,11.55,11.55,0,0,0,3.33-1.78,10.74,10.74,0,0,0,1.49-1.39,10.15,10.15,0,0,0,.69-.87A8.57,8.57,0,0,0,328.77,529Z"/><path class="cls-92" d="M318.32,539a9.56,9.56,0,0,0-1.2-.19c-.38,0-.75,0-1.11,0a10.94,10.94,0,0,0-2,.25,11.6,11.6,0,0,0-3.5,1.42,11.27,11.27,0,0,0-2.87,2.45,11.06,11.06,0,0,0-1.16,1.68c-.17.31-.33.65-.48,1a8.29,8.29,0,0,0-.39,1.16,7,7,0,0,0,1.21.19,10.42,10.42,0,0,0,1.11,0,10.94,10.94,0,0,0,2-.25,11.87,11.87,0,0,0,3.5-1.42,11.47,11.47,0,0,0,2.86-2.46,11.06,11.06,0,0,0,1.16-1.68c.17-.32.34-.65.49-1A7.89,7.89,0,0,0,318.32,539Z"/><path class="cls-93" d="M319.52,546.54a4.31,4.31,0,0,0-.83-.13,6.71,6.71,0,0,0-.77,0,7.77,7.77,0,0,0-1.4.17,8.31,8.31,0,0,0-2.42,1,8.18,8.18,0,0,0-2,1.7,7.66,7.66,0,0,0-.8,1.16,7.32,7.32,0,0,0-.33.69,5.77,5.77,0,0,0-.27.8,5.45,5.45,0,0,0,.84.14c.26,0,.52,0,.77,0a7.88,7.88,0,0,0,1.4-.18,7.8,7.8,0,0,0,2.42-1,8,8,0,0,0,2-1.7,7.66,7.66,0,0,0,.8-1.16,7.32,7.32,0,0,0,.33-.69A4.42,4.42,0,0,0,319.52,546.54Z"/><path class="cls-94" d="M333.36,544.33a5.86,5.86,0,0,0-.95-.76,9.68,9.68,0,0,0-1-.58,11,11,0,0,0-1.88-.78,11.71,11.71,0,0,0-7.46.2,11,11,0,0,0-1.83.89,8.73,8.73,0,0,0-.92.62,8.42,8.42,0,0,0-.91.82,7.83,7.83,0,0,0,1,.77c.32.21.64.4.95.57a10.85,10.85,0,0,0,1.89.79,11.79,11.79,0,0,0,3.74.5,11.57,11.57,0,0,0,3.71-.72,10.7,10.7,0,0,0,1.84-.89,9.9,9.9,0,0,0,.92-.62A8.22,8.22,0,0,0,333.36,544.33Z"/><path class="cls-95" d="M339.34,535.61a7.48,7.48,0,0,0-1-.65c-.34-.18-.68-.33-1-.47a11.45,11.45,0,0,0-2-.58,11.69,11.69,0,0,0-3.77-.1,11.53,11.53,0,0,0-3.62,1.1,11.19,11.19,0,0,0-1.73,1.08c-.28.22-.57.46-.84.72a7.39,7.39,0,0,0-.82.91,7.09,7.09,0,0,0,1,.66,9.93,9.93,0,0,0,1,.47,11.09,11.09,0,0,0,2,.58,11.46,11.46,0,0,0,3.78.09,11.66,11.66,0,0,0,3.61-1.1,10.32,10.32,0,0,0,1.73-1.08c.29-.22.57-.46.85-.72A7.35,7.35,0,0,0,339.34,535.61Z"/><path class="cls-96" d="M344.84,550.63a7.16,7.16,0,0,0-.85-.88c-.29-.25-.58-.47-.87-.68a11,11,0,0,0-1.78-1,11.73,11.73,0,0,0-7.42-.71A10.75,10.75,0,0,0,332,548a9.31,9.31,0,0,0-1,.51,7.31,7.31,0,0,0-1,.7,9,9,0,0,0,.85.88,10.32,10.32,0,0,0,.87.68,11,11,0,0,0,1.78,1,11.27,11.27,0,0,0,3.65,1,11.49,11.49,0,0,0,3.77-.25,10.84,10.84,0,0,0,1.94-.66,10.24,10.24,0,0,0,1-.51A7.2,7.2,0,0,0,344.84,550.63Z"/><path class="cls-97" d="M338,565.71a7.14,7.14,0,0,0-.51-1.11,7.86,7.86,0,0,0-.58-.94,10.75,10.75,0,0,0-1.32-1.56,11.81,11.81,0,0,0-6.72-3.23,10.58,10.58,0,0,0-2,0c-.36,0-.73.08-1.1.14a8.35,8.35,0,0,0-1.18.32,7.13,7.13,0,0,0,.49,1.11,11,11,0,0,0,.59,1A11.25,11.25,0,0,0,327,562.9a11.85,11.85,0,0,0,6.73,3.21,10.66,10.66,0,0,0,2.05,0,10.85,10.85,0,0,0,1.09-.14A7.49,7.49,0,0,0,338,565.71Z"/><path class="cls-98" d="M327.65,570.43a7.18,7.18,0,0,0-.36-1.16,9.36,9.36,0,0,0-.46-1,10.48,10.48,0,0,0-1.11-1.71,11.67,11.67,0,0,0-6.26-4,10.79,10.79,0,0,0-2-.31,10.27,10.27,0,0,0-1.11,0,6.83,6.83,0,0,0-1.21.16,7,7,0,0,0,.35,1.17,9.36,9.36,0,0,0,.46,1,10.58,10.58,0,0,0,1.11,1.72,11.86,11.86,0,0,0,6.27,4,10.79,10.79,0,0,0,2,.31,10.27,10.27,0,0,0,1.11,0A6.83,6.83,0,0,0,327.65,570.43Z"/><path class="cls-99" d="M350.22,561.45a6.79,6.79,0,0,0-.67-1,9.91,9.91,0,0,0-.72-.84,11.1,11.1,0,0,0-1.54-1.33,11.71,11.71,0,0,0-7.14-2.15,11.29,11.29,0,0,0-2,.26c-.34.09-.7.19-1.06.31a8.13,8.13,0,0,0-1.12.49,6.76,6.76,0,0,0,.66,1q.36.45.72.84a10.62,10.62,0,0,0,1.55,1.34A11.7,11.7,0,0,0,346,562.5a10.46,10.46,0,0,0,2-.26,9,9,0,0,0,1.06-.31A8,8,0,0,0,350.22,561.45Z"/><path class="cls-100" d="M350.81,540.83a6.77,6.77,0,0,0-1-.71,9.29,9.29,0,0,0-1-.52,11.05,11.05,0,0,0-1.92-.68,11.84,11.84,0,0,0-3.77-.31,11.42,11.42,0,0,0-3.66.9,10.57,10.57,0,0,0-1.79,1,10.77,10.77,0,0,0-.88.67,8.92,8.92,0,0,0-.87.87,7.42,7.42,0,0,0,1,.71c.32.2.65.37,1,.53a10.86,10.86,0,0,0,1.93.68,11.47,11.47,0,0,0,3.76.3,11.84,11.84,0,0,0,3.67-.91,11,11,0,0,0,1.79-1,10.25,10.25,0,0,0,.88-.67A7,7,0,0,0,350.81,540.83Z"/><path class="cls-101" d="M348.72,525.88a6.64,6.64,0,0,0-1.09-.56,9.39,9.39,0,0,0-1-.38,11.42,11.42,0,0,0-2-.4,11.8,11.8,0,0,0-3.77.24,11.57,11.57,0,0,0-3.5,1.42,10.73,10.73,0,0,0-1.63,1.23c-.26.24-.52.51-.77.79a8.65,8.65,0,0,0-.74,1,8.85,8.85,0,0,0,1.09.57c.35.15.7.27,1,.38a11.11,11.11,0,0,0,5.77.15,11.83,11.83,0,0,0,3.5-1.42,11.51,11.51,0,0,0,1.63-1.24c.26-.24.52-.5.78-.79A7.67,7.67,0,0,0,348.72,525.88Z"/><path class="cls-102" d="M352.77,516.74a7,7,0,0,0-1.08-.56c-.35-.15-.7-.27-1-.38a11.53,11.53,0,0,0-2-.4,11.84,11.84,0,0,0-3.77.24,11.41,11.41,0,0,0-3.49,1.42,10.25,10.25,0,0,0-1.63,1.23,9.86,9.86,0,0,0-.78.8,7.13,7.13,0,0,0-.73,1,6.64,6.64,0,0,0,1.09.56,9.39,9.39,0,0,0,1,.38,11.08,11.08,0,0,0,5.77.15,11.57,11.57,0,0,0,3.5-1.42,12,12,0,0,0,1.63-1.23c.26-.25.52-.51.77-.79A7.8,7.8,0,0,0,352.77,516.74Z"/><path class="cls-103" d="M345.47,500.85a7.37,7.37,0,0,0-1.13-.45,8.9,8.9,0,0,0-1.07-.28,10.37,10.37,0,0,0-2-.21,11.73,11.73,0,0,0-7.09,2.32,10.72,10.72,0,0,0-1.51,1.38,10.37,10.37,0,0,0-.69.86,6.84,6.84,0,0,0-.64,1,6.89,6.89,0,0,0,1.13.46,9.42,9.42,0,0,0,1.07.28,11.34,11.34,0,0,0,2,.22,11.52,11.52,0,0,0,3.73-.6,11.65,11.65,0,0,0,3.35-1.74,10.72,10.72,0,0,0,1.51-1.38,8.65,8.65,0,0,0,.69-.86A6.13,6.13,0,0,0,345.47,500.85Z"/><path class="cls-104" d="M210.25,518.79a8.92,8.92,0,0,0-.95-.77c-.32-.21-.63-.4-1-.58a10.45,10.45,0,0,0-1.88-.79,11.68,11.68,0,0,0-7.45.14,11,11,0,0,0-1.85.87c-.3.19-.61.39-.92.62a8.28,8.28,0,0,0-.91.81,7.24,7.24,0,0,0,.95.78,9.56,9.56,0,0,0,.94.58,11.16,11.16,0,0,0,1.88.8,11.86,11.86,0,0,0,7.45-.16,10.66,10.66,0,0,0,1.85-.87c.31-.19.61-.39.92-.62A7.42,7.42,0,0,0,210.25,518.79Z"/><path class="cls-105" d="M350.68,572.6a6.31,6.31,0,0,0-.28-1,8.55,8.55,0,0,0-.36-.86,8.77,8.77,0,0,0-.9-1.46,10,10,0,0,0-5.17-3.53,8.89,8.89,0,0,0-1.69-.29,7,7,0,0,0-.93,0,6.46,6.46,0,0,0-1,.11,6.13,6.13,0,0,0,.28,1c.11.3.23.59.36.86a8.77,8.77,0,0,0,.9,1.46,9.68,9.68,0,0,0,2.3,2.18,10,10,0,0,0,2.87,1.34,8.89,8.89,0,0,0,1.69.29,7.11,7.11,0,0,0,.93,0A6.34,6.34,0,0,0,350.68,572.6Z"/><path class="cls-106" d="M359,553.7a6.18,6.18,0,0,0-.58-.84,8.4,8.4,0,0,0-.62-.69,8.26,8.26,0,0,0-1.33-1.09,9.87,9.87,0,0,0-6-1.66,9.52,9.52,0,0,0-1.7.27c-.29.08-.58.17-.88.28a6,6,0,0,0-.93.44,6.18,6.18,0,0,0,.58.84,7.18,7.18,0,0,0,.62.7,9.42,9.42,0,0,0,1.32,1.09,9.91,9.91,0,0,0,6,1.64,9.52,9.52,0,0,0,1.7-.27,8.11,8.11,0,0,0,.88-.28A5.45,5.45,0,0,0,359,553.7Z"/><path class="cls-107" d="M321.07,559.93a4.84,4.84,0,0,0-.2-.73,6,6,0,0,0-.27-.63,6.79,6.79,0,0,0-.67-1.08,7,7,0,0,0-1.7-1.61,6.9,6.9,0,0,0-2.12-1,7.73,7.73,0,0,0-1.25-.22c-.22,0-.45,0-.68,0a4.18,4.18,0,0,0-.76.08,4.84,4.84,0,0,0,.2.73,6,6,0,0,0,.27.63,7,7,0,0,0,.66,1.08,7.22,7.22,0,0,0,1.71,1.61,7.1,7.1,0,0,0,2.12,1,6.15,6.15,0,0,0,1.25.22,5.2,5.2,0,0,0,.69,0A4.08,4.08,0,0,0,321.07,559.93Z"/><path class="cls-108" d="M247.44,539.9a5.71,5.71,0,0,1,.89-.09,7.06,7.06,0,0,1,.8,0,8.33,8.33,0,0,1,1.47.27,8.68,8.68,0,0,1,4.51,3.07,8.23,8.23,0,0,1,.77,1.27c.12.24.22.49.32.75a5.13,5.13,0,0,1,.23.86,4.61,4.61,0,0,1-.88.09,7.18,7.18,0,0,1-.81,0,7.62,7.62,0,0,1-1.48-.26,8.51,8.51,0,0,1-2.49-1.17,8.6,8.6,0,0,1-2-1.91,8,8,0,0,1-.78-1.27c-.11-.24-.22-.49-.31-.75A4.86,4.86,0,0,1,247.44,539.9Z"/><path class="cls-109" d="M217.86,557.16a6.45,6.45,0,0,1,.71-1,9.91,9.91,0,0,1,.76-.81,11,11,0,0,1,5.07-2.76,11.2,11.2,0,0,1,3.76-.32,9.67,9.67,0,0,1,2,.36,8.62,8.62,0,0,1,1.05.35,8,8,0,0,1,1.1.54,7.33,7.33,0,0,1-.71,1c-.25.29-.5.56-.76.81a10.77,10.77,0,0,1-1.6,1.26,11.61,11.61,0,0,1-3.47,1.49,11.8,11.8,0,0,1-3.77.32,11.51,11.51,0,0,1-2-.36,10.07,10.07,0,0,1-1.05-.36A6.79,6.79,0,0,1,217.86,557.16Z"/><path class="cls-110" d="M230.8,550.42a5.74,5.74,0,0,1,.47-.65c.16-.19.32-.36.49-.53a7.62,7.62,0,0,1,1-.82,7.53,7.53,0,0,1,2.26-1,7.32,7.32,0,0,1,2.44-.22,7,7,0,0,1,1.3.23,6.81,6.81,0,0,1,.68.23,4.64,4.64,0,0,1,.71.35,4.94,4.94,0,0,1-.46.65c-.17.19-.33.37-.5.53a6.64,6.64,0,0,1-1,.83,7.39,7.39,0,0,1-2.26,1,7.59,7.59,0,0,1-2.44.22,7.91,7.91,0,0,1-1.3-.23c-.22-.07-.45-.14-.68-.23A5.8,5.8,0,0,1,230.8,550.42Z"/><path class="cls-111" d="M229.66,559a5.69,5.69,0,0,1,.3-.74c.11-.22.23-.43.35-.63a8.05,8.05,0,0,1,.82-1.06,7.69,7.69,0,0,1,4.27-2.29,7,7,0,0,1,1.32-.08,4.34,4.34,0,0,1,.71.06,3.83,3.83,0,0,1,.77.17,4.23,4.23,0,0,1-.29.74,6.15,6.15,0,0,1-.35.63,6.92,6.92,0,0,1-.82,1.06,7.49,7.49,0,0,1-2,1.49,7.58,7.58,0,0,1-2.32.79,7.08,7.08,0,0,1-1.32.09l-.72-.06A4.89,4.89,0,0,1,229.66,559Z"/><path class="cls-112" d="M228.05,541.13a6.94,6.94,0,0,1,1-.74,10.67,10.67,0,0,1,.95-.56,11.1,11.1,0,0,1,1.91-.75,11.52,11.52,0,0,1,3.75-.43,11.22,11.22,0,0,1,5.52,1.69,10.14,10.14,0,0,1,.9.65,6.8,6.8,0,0,1,.89.83,7.85,7.85,0,0,1-1,.75c-.33.21-.65.39-1,.56a11.88,11.88,0,0,1-1.9.75,11.87,11.87,0,0,1-7.45-.36,10.73,10.73,0,0,1-1.82-.92,8.85,8.85,0,0,1-.91-.64A6.8,6.8,0,0,1,228.05,541.13Z"/><path class="cls-113" d="M239.48,533.09a5.83,5.83,0,0,1,.71-.19,5.31,5.31,0,0,1,.67-.08,7.19,7.19,0,0,1,1.23,0,7.15,7.15,0,0,1,4.06,1.93,6.71,6.71,0,0,1,.8.93c.12.18.24.37.35.57a3.87,3.87,0,0,1,.3.68,5,5,0,0,1-1.37.27,7.15,7.15,0,0,1-1.23,0,6.94,6.94,0,0,1-2.19-.64,7,7,0,0,1-1.87-1.29,6.71,6.71,0,0,1-.8-.94c-.12-.18-.24-.37-.35-.57A4.64,4.64,0,0,1,239.48,533.09Z"/><path class="cls-114" d="M222.4,530.87a6.81,6.81,0,0,1,1.14-.44,9.32,9.32,0,0,1,1.07-.27,11.23,11.23,0,0,1,2-.19,11.87,11.87,0,0,1,7.06,2.4,10.78,10.78,0,0,1,1.49,1.4,7.77,7.77,0,0,1,.69.87,6.93,6.93,0,0,1,.62,1.05,6.72,6.72,0,0,1-1.13.44,7.75,7.75,0,0,1-1.08.27,9.63,9.63,0,0,1-2,.19,11.48,11.48,0,0,1-3.72-.63,11.8,11.8,0,0,1-3.33-1.78,10.25,10.25,0,0,1-1.49-1.4,8.65,8.65,0,0,1-.69-.86A7.48,7.48,0,0,1,222.4,530.87Z"/><path class="cls-115" d="M217.8,546.17a8,8,0,0,1,1-.76,10.38,10.38,0,0,1,1-.57,11,11,0,0,1,1.88-.78,11.58,11.58,0,0,1,3.75-.51,11.23,11.23,0,0,1,3.7.71,10,10,0,0,1,1.84.89,9.9,9.9,0,0,1,.92.62,7.48,7.48,0,0,1,.91.82,7.2,7.2,0,0,1-1,.77c-.31.21-.63.4-.94.57a10.85,10.85,0,0,1-1.89.79,11.87,11.87,0,0,1-7.45-.22,10.7,10.7,0,0,1-1.84-.89,9.9,9.9,0,0,1-.92-.62A8.31,8.31,0,0,1,217.8,546.17Z"/><path class="cls-116" d="M211.82,537.46a7.56,7.56,0,0,1,1-.65,10.07,10.07,0,0,1,1-.47,10.62,10.62,0,0,1,2-.58,11.69,11.69,0,0,1,3.77-.1,11.28,11.28,0,0,1,3.62,1.1,10.48,10.48,0,0,1,1.73,1.08,9,9,0,0,1,.84.72,7.39,7.39,0,0,1,.82.91,8.05,8.05,0,0,1-1,.66c-.34.18-.67.33-1,.47a11.62,11.62,0,0,1-1.95.58,11.46,11.46,0,0,1-3.78.09,11.66,11.66,0,0,1-3.61-1.1,11,11,0,0,1-1.73-1.08c-.29-.22-.57-.46-.85-.72A8.3,8.3,0,0,1,211.82,537.46Z"/><path class="cls-117" d="M206.33,552.47a7.82,7.82,0,0,1,.85-.87,10.32,10.32,0,0,1,.87-.68,11,11,0,0,1,1.78-1,11.73,11.73,0,0,1,7.42-.71,10,10,0,0,1,1.93.66,7.76,7.76,0,0,1,1,.51,6.52,6.52,0,0,1,1,.7,7.84,7.84,0,0,1-.85.87,10.49,10.49,0,0,1-.87.69,11,11,0,0,1-1.78,1,11.52,11.52,0,0,1-3.66,1,11.16,11.16,0,0,1-5.7-.91c-.32-.15-.65-.32-1-.51A7.31,7.31,0,0,1,206.33,552.47Z"/><path class="cls-118" d="M189.76,552a7.88,7.88,0,0,1,.86-.87,10.32,10.32,0,0,1,.87-.68,10.63,10.63,0,0,1,1.78-1,11.73,11.73,0,0,1,7.42-.71,10.26,10.26,0,0,1,1.93.66,8.48,8.48,0,0,1,1,.51,6.52,6.52,0,0,1,1,.7,7.09,7.09,0,0,1-.86.87,8,8,0,0,1-.87.69,10.55,10.55,0,0,1-1.77,1,11.52,11.52,0,0,1-3.66,1,11.16,11.16,0,0,1-5.7-.91c-.32-.15-.65-.32-1-.51A7.38,7.38,0,0,1,189.76,552Z"/><path class="cls-119" d="M191.46,535.29a7,7,0,0,1,1-.75,10.5,10.5,0,0,1,.95-.55,11.1,11.1,0,0,1,1.91-.75,11.52,11.52,0,0,1,3.75-.43,11,11,0,0,1,5.52,1.7,10,10,0,0,1,.9.64,6.91,6.91,0,0,1,.89.84,6.94,6.94,0,0,1-1,.74,9.54,9.54,0,0,1-1,.56,10.7,10.7,0,0,1-1.9.75,11.52,11.52,0,0,1-3.75.43,11.79,11.79,0,0,1-3.69-.79,11.2,11.2,0,0,1-1.83-.92c-.3-.19-.6-.41-.9-.64A8.52,8.52,0,0,1,191.46,535.29Z"/><path class="cls-120" d="M213.14,567.56a7.68,7.68,0,0,1,.5-1.11,11,11,0,0,1,.59-1,11.31,11.31,0,0,1,1.32-1.56,11.74,11.74,0,0,1,3.1-2.15,11.51,11.51,0,0,1,3.62-1.07,10.58,10.58,0,0,1,2-.05,11,11,0,0,1,1.1.14,7.12,7.12,0,0,1,1.18.31,7.25,7.25,0,0,1-.49,1.12,11,11,0,0,1-.59,1,10.65,10.65,0,0,1-1.32,1.56,11.58,11.58,0,0,1-3.1,2.15,11.76,11.76,0,0,1-3.62,1.06,11.59,11.59,0,0,1-2.05,0c-.35,0-.72-.07-1.1-.13A7.67,7.67,0,0,1,213.14,567.56Z"/><path class="cls-121" d="M223.52,572.28a7.31,7.31,0,0,1,.36-1.17,9.19,9.19,0,0,1,.46-1,10.58,10.58,0,0,1,1.11-1.72,11.82,11.82,0,0,1,6.26-4,11.69,11.69,0,0,1,2-.3,10.27,10.27,0,0,1,1.11,0,6.83,6.83,0,0,1,1.21.16,8.52,8.52,0,0,1-.35,1.17c-.14.36-.3.69-.46,1a10.48,10.48,0,0,1-1.11,1.71,11.39,11.39,0,0,1-2.81,2.53,11.26,11.26,0,0,1-5.48,1.82,10.27,10.27,0,0,1-1.11,0A6.83,6.83,0,0,1,223.52,572.28Z"/><path class="cls-122" d="M201,563.29a7.2,7.2,0,0,1,.67-1,9.91,9.91,0,0,1,.72-.84,10.55,10.55,0,0,1,1.54-1.34,11.89,11.89,0,0,1,7.14-2.15,11.33,11.33,0,0,1,2,.27,9.6,9.6,0,0,1,1.06.31,8.13,8.13,0,0,1,1.12.49,8.32,8.32,0,0,1-.66,1q-.36.45-.72.84a10.62,10.62,0,0,1-1.55,1.34,11.87,11.87,0,0,1-7.14,2.13,10.49,10.49,0,0,1-2-.27,8.92,8.92,0,0,1-1.06-.3A7.08,7.08,0,0,1,201,563.29Z"/><path class="cls-123" d="M200.36,542.68a6.77,6.77,0,0,1,1-.71,9.29,9.29,0,0,1,1-.52,10.77,10.77,0,0,1,1.92-.68,11.27,11.27,0,0,1,3.77-.31,11.42,11.42,0,0,1,3.66.9,10.57,10.57,0,0,1,1.79,1,8.9,8.9,0,0,1,.88.67,7.93,7.93,0,0,1,.87.87,7.42,7.42,0,0,1-1,.71,9.17,9.17,0,0,1-1,.52,10.18,10.18,0,0,1-1.93.69,11.47,11.47,0,0,1-3.76.3,11.84,11.84,0,0,1-3.67-.91,11,11,0,0,1-1.79-1,10.25,10.25,0,0,1-.88-.67A7,7,0,0,1,200.36,542.68Z"/><path class="cls-124" d="M202.45,527.72a8.68,8.68,0,0,1,1.09-.56c.35-.14.7-.27,1-.37a10.57,10.57,0,0,1,2-.4,11.26,11.26,0,0,1,3.77.24,10.93,10.93,0,0,1,5.13,2.65,9.65,9.65,0,0,1,.77.79,7.13,7.13,0,0,1,.73,1,8.1,8.1,0,0,1-1.08.57,9.29,9.29,0,0,1-1,.37,9.93,9.93,0,0,1-2,.4,11.21,11.21,0,0,1-3.76-.24,11.6,11.6,0,0,1-3.5-1.43,10.73,10.73,0,0,1-1.63-1.23c-.26-.24-.52-.5-.78-.79A7.13,7.13,0,0,1,202.45,527.72Z"/><path class="cls-125" d="M323,587.64a6.15,6.15,0,0,0-4.77,4.76,14.47,14.47,0,0,1-2.66,5.86,38.66,38.66,0,0,1-3.1,3.3,21.11,21.11,0,0,1-9.16,5.44,11.31,11.31,0,0,1-5.7.19l.65-.59a13.57,13.57,0,0,0,3.77-5.33,5.88,5.88,0,0,0-1.4-6.46c-1-.79-1.64-.59-2.05.59a9.25,9.25,0,0,1-.83,1.87,18.13,18.13,0,0,1-9.72,7.38,10.85,10.85,0,0,0-6.82,6,4.35,4.35,0,0,0-.34,1.2c-4.73,3.35-11.17,1.21-11.17,1.21a3.89,3.89,0,0,0-.35-2,10.82,10.82,0,0,0-6.9-5.86,18.12,18.12,0,0,1-9.79-7.28,8.9,8.9,0,0,1-.86-1.85c-.43-1.19-1.08-1.38-2.06-.57a5.89,5.89,0,0,0-1.33,6.47,13.61,13.61,0,0,0,3.83,5.29c.2.16.4.34.67.58a11.25,11.25,0,0,1-5.71-.13,21.08,21.08,0,0,1-9.22-5.33,38.64,38.64,0,0,1-3.14-3.26,14.47,14.47,0,0,1-2.72-5.83,6.16,6.16,0,0,0-4.12-4.51,49.33,49.33,0,0,0,70.44,30h0a49,49,0,0,0,7.42-4.8h0a50.24,50.24,0,0,0,7.62-7.39,49,49,0,0,0,9.76-18.95A1.28,1.28,0,0,0,323,587.64Z"/><path class="cls-126" d="M304.32,605.44c4.46-1.81,8.21-4.49,10.67-8.72a16.93,16.93,0,0,0,1.26-2.65c.34-.93-.23-1.57-1.23-1.48a3.18,3.18,0,0,0-.86.21,5.31,5.31,0,0,0-3,3.33,17.57,17.57,0,0,1-4.65,6.75c-1.18,1-2.41,2-3.61,3l0,.12C303.39,605.8,303.86,605.63,304.32,605.44Z"/><path class="cls-127" d="M235.3,597.52a20.72,20.72,0,0,0,10.77,8.6c.46.19.94.35,1.4.52l0-.11c-1.21-1-2.46-1.93-3.64-2.95a17.53,17.53,0,0,1-4.74-6.69,5.28,5.28,0,0,0-3-3.3,3.24,3.24,0,0,0-.86-.19c-1-.08-1.57.56-1.21,1.49A17.26,17.26,0,0,0,235.3,597.52Z"/><path class="cls-128" d="M215.1,476.49a3.21,3.21,0,0,1-2.11-5.63,93.31,93.31,0,0,1,122.23,0,3.21,3.21,0,0,1-4.21,4.85,86.88,86.88,0,0,0-113.81,0A3.24,3.24,0,0,1,215.1,476.49Z"/><path class="cls-129" d="M367.87,541.36c-6,126.37-184.13,122.71-187.42-.84a93.64,93.64,0,0,0,37.36,70.62c43.55,33,104,20.53,132.87-20.89h0a93.23,93.23,0,0,0,17.08-49.73A3.86,3.86,0,0,1,367.87,541.36Z"/><polygon class="cls-130" points="203.71 480.64 204.66 483.56 207.73 483.56 205.25 485.36 206.19 488.28 203.71 486.47 201.23 488.28 202.18 485.36 199.69 483.56 202.76 483.56 203.71 480.64"/><polygon class="cls-131" points="191.8 498.93 192.75 501.85 195.82 501.85 193.34 503.65 194.28 506.57 191.8 504.77 189.32 506.57 190.27 503.65 187.78 501.85 190.85 501.85 191.8 498.93"/><polygon class="cls-132" points="184.56 521.36 185.5 524.28 188.57 524.28 186.09 526.09 187.04 529 184.56 527.2 182.07 529 183.02 526.09 180.54 524.28 183.61 524.28 184.56 521.36"/><polygon class="cls-133" points="343.08 480.37 342.14 483.29 339.07 483.29 341.55 485.09 340.6 488.01 343.08 486.21 345.57 488.01 344.62 485.09 347.1 483.29 344.03 483.29 343.08 480.37"/><polygon class="cls-134" points="355.39 499.46 354.44 502.38 351.37 502.38 353.86 504.18 352.91 507.1 355.39 505.3 357.87 507.1 356.92 504.18 359.41 502.38 356.34 502.38 355.39 499.46"/><polygon class="cls-135" points="361.97 522.17 361.02 525.09 357.95 525.09 360.43 526.89 359.48 529.81 361.97 528.01 364.45 529.81 363.5 526.89 365.98 525.09 362.91 525.09 361.97 522.17"/><path class="cls-136" d="M273.73,667.57a127.57,127.57,0,1,1,0-255.14c70.34,0,127.58,57.23,127.58,127.57S344.07,667.57,273.73,667.57Zm0-253A125.4,125.4,0,1,0,399.13,540,125.54,125.54,0,0,0,273.73,414.6Z"/></g></g></svg>