<svg width="41" height="41" viewBox="0 0 41 41" fill="none" xmlns="http://www.w3.org/2000/svg">
<path d="M18.3375 2.68267C14.9342 3.10708 11.635 4.52446 9.05645 6.68657C8.23965 7.35923 6.79024 8.8647 6.21367 9.64146C2.1457 15.0627 1.43301 22.2377 4.37188 28.2676C4.65215 28.8522 4.88438 29.4208 4.88438 29.5329C4.88438 29.645 4.45195 31.1745 3.92344 32.9282C3.39492 34.6819 2.9625 36.1954 2.9625 36.2995C2.9625 37.1643 3.83535 38.0372 4.7002 38.0372C4.79629 38.0372 6.31777 37.6047 8.07949 37.0762C9.84121 36.5477 11.3707 36.1153 11.4748 36.1153C11.5869 36.1153 12.1475 36.3475 12.732 36.6278C17.2885 38.846 22.6137 39.0221 27.3063 37.0922C31.134 35.5227 34.3932 32.5758 36.3391 28.9083C38.7734 24.3358 39.0857 18.7704 37.1879 13.9657C36.7395 12.8206 36.4832 12.3081 35.8506 11.251C34.8096 9.52134 33.3201 7.80767 31.7506 6.54243C29.068 4.38033 25.7848 3.027 22.3254 2.65064C21.3004 2.53853 19.3865 2.55454 18.3375 2.68267ZM23.1502 10.4663C23.6547 10.6905 24.1512 11.1549 24.4074 11.6434C24.5916 12.0038 24.6236 12.1399 24.6156 12.7725C24.6156 13.4772 24.5996 13.5333 23.959 15.2069C23.5986 16.1438 23.3023 16.9446 23.3023 16.9846C23.3023 17.0247 23.9029 17.0567 24.6477 17.0567C26.6576 17.0567 27.2662 17.2329 28.1391 18.0176C28.4434 18.3059 28.6756 18.6102 28.8758 19.0106C29.3402 19.9555 29.3322 20.2518 28.7557 23.7032C28.3313 26.2176 28.2271 26.6981 28.0189 27.1305C27.5625 28.0674 26.5855 28.7961 25.5285 28.9883C25.2322 29.0444 23.0781 29.0684 19.4025 29.0524L13.733 29.0284L13.2926 28.8202C12.7641 28.5639 12.3076 28.1315 12.0273 27.587L11.8111 27.1866V23.503V19.8194L12.0033 19.419C12.2596 18.9145 12.748 18.426 13.2525 18.1698C13.6209 17.9936 13.757 17.9776 15.0223 17.9536L16.3916 17.9215L18.2174 14.6383C19.2264 12.8286 20.1473 11.227 20.2754 11.0829C20.9561 10.3061 22.1973 10.0418 23.1502 10.4663Z" fill="white"/>
<path d="M21.6451 12.1559C21.549 12.2279 20.6361 13.7895 19.6191 15.6152L17.7773 18.9385V23.1186V27.3066H21.5811C25.1926 27.3066 25.4088 27.2986 25.6971 27.1545C26.0895 26.9463 26.4738 26.5059 26.5859 26.1295C26.634 25.9613 26.8662 24.616 27.1145 23.1426C27.6109 20.1477 27.6109 20.0035 27.1305 19.4189C26.658 18.8504 26.5059 18.8184 24.0635 18.8184C21.565 18.8184 21.4289 18.7863 21.2287 18.2178C21.1246 17.8975 21.1246 17.8814 22.0535 15.399C22.566 14.0297 22.9824 12.8445 22.9824 12.7725C22.9824 12.5723 22.7582 12.1879 22.59 12.0918C22.3498 11.9637 21.8453 11.9957 21.6451 12.1559Z" fill="white"/>
<path d="M13.9496 19.7393C13.4531 19.9555 13.4451 20.0516 13.4691 23.6311L13.4932 26.8422L13.7574 27.0744C14.0137 27.3066 14.0217 27.3066 15.0147 27.3066H16.0156V23.4629V19.6191H15.1188C14.5182 19.6271 14.1258 19.6672 13.9496 19.7393Z" fill="white"/>
</svg>
