<svg xmlns="http://www.w3.org/2000/svg" xmlns:xlink="http://www.w3.org/1999/xlink" viewBox="0 0 1080 1080"><defs><style>.cls-1{isolation:isolate;}.cls-2{mix-blend-mode:lighten;fill:url(#linear-gradient);}.cls-3{fill:url(#linear-gradient-2);}.cls-4{fill:url(#linear-gradient-3);}</style><linearGradient id="linear-gradient" x1="180.77" y1="540" x2="676.69" y2="540" gradientUnits="userSpaceOnUse"><stop offset="0" stop-color="#4dbeed"/><stop offset="0.49" stop-color="#0d72b9"/><stop offset="1" stop-color="#244f95"/></linearGradient><linearGradient id="linear-gradient-2" x1="558.67" y1="383.87" x2="573.8" y2="658.99" gradientUnits="userSpaceOnUse"><stop offset="0" stop-color="#ffca05"/><stop offset="0.46" stop-color="#f6921e"/><stop offset="1" stop-color="#ef4e23"/></linearGradient><linearGradient id="linear-gradient-3" x1="793.64" y1="378.33" x2="806.02" y2="680.11" gradientUnits="userSpaceOnUse"><stop offset="0" stop-color="#bed630"/><stop offset="0.51" stop-color="#3bb44a"/><stop offset="1" stop-color="#005025"/></linearGradient></defs><g class="cls-1"><g id="Layer_1" data-name="Layer 1"><path class="cls-2" d="M511.72,623.76h-68.6L374.85,444.09c-9-23.56-26.18-32.54-52.35-32.54-26.55,0-43.76,9-53.11,32.54L180.77,668.45h48.61l36.18-91.8h91.82L345.77,540H280l29.4-74.61c2.62-6,6.72-8.59,12.72-8.59s10.08,2.62,12.33,8.59l59.79,158.37,16.51,43.75h101Z"/><path class="cls-3" d="M639.3,540.37c23.56-9.35,36.27-26.92,36.27-56.08,0-41.14-25.05-69.18-84.51-69.18H480c-14.2,0-20.94,6.72-20.94,20.57V600.47h43.38V558.33H593.3c25.8,0,38.89,11.2,38.89,32.52,0,20.57-12.34,32.91-38.89,32.91H542v43.75h50.19c59.46,0,84.51-29.16,84.51-69.55C676.69,568.79,663.23,550.1,639.3,540.37Zm-47.12-18.69H502.44V463c0-3,1.87-4.49,4.86-4.49h85.26c26.92,0,38.51,13.08,38.51,32.91C631.07,512,618.36,521.68,592.18,521.68Z"/><path class="cls-4" d="M797.52,459.22H899.23V415.11H794.54c-66.95,0-93.12,36.64-93.12,87.12V667.51h44.13V567.67H897.74V525.79H745.55V501.86C745.55,478.3,757.52,459.22,797.52,459.22Z"/></g></g></svg>