<svg id="Layer_1" data-name="Layer 1" xmlns="http://www.w3.org/2000/svg" xmlns:xlink="http://www.w3.org/1999/xlink" viewBox="0 0 1080 1080"><defs><style>.cls-1{fill:#fff;}.cls-2{fill:url(#linear-gradient);}.cls-3{fill:url(#linear-gradient-2);}.cls-4{fill:url(#linear-gradient-3);}.cls-5{fill:url(#linear-gradient-4);}.cls-6{fill:url(#linear-gradient-5);}.cls-7{fill:url(#linear-gradient-6);}.cls-8{fill:url(#linear-gradient-7);}.cls-9{fill:url(#linear-gradient-8);}.cls-10{fill:url(#linear-gradient-9);}.cls-11{fill:url(#linear-gradient-10);}.cls-12{fill:url(#linear-gradient-11);}.cls-13{fill:url(#linear-gradient-12);}.cls-14{fill:url(#linear-gradient-13);}.cls-15{fill:url(#linear-gradient-14);}.cls-16{fill:url(#linear-gradient-15);}.cls-17{fill:url(#linear-gradient-16);}.cls-18{fill:url(#linear-gradient-17);}.cls-19{fill:url(#linear-gradient-18);}.cls-20{fill:url(#linear-gradient-19);}.cls-21{fill:url(#linear-gradient-20);}.cls-22{fill:url(#linear-gradient-21);}.cls-23{fill:url(#linear-gradient-22);}.cls-24{fill:url(#linear-gradient-23);}.cls-25{fill:url(#linear-gradient-24);}.cls-26{fill:url(#linear-gradient-25);}.cls-27{fill:url(#linear-gradient-26);}.cls-28{fill:url(#linear-gradient-27);}.cls-29{fill:url(#linear-gradient-28);}.cls-30{fill:url(#linear-gradient-29);}.cls-31{fill:url(#linear-gradient-30);}.cls-32{fill:url(#linear-gradient-31);}.cls-33{fill:url(#linear-gradient-32);}.cls-34{fill:url(#linear-gradient-33);}.cls-35{fill:url(#linear-gradient-34);}.cls-36{fill:url(#linear-gradient-35);}.cls-37{fill:url(#linear-gradient-36);}.cls-38{fill:url(#linear-gradient-37);}.cls-39{fill:url(#linear-gradient-38);}.cls-40{fill:url(#linear-gradient-39);}.cls-41{fill:url(#linear-gradient-40);}.cls-42{fill:url(#linear-gradient-41);}.cls-43{fill:url(#linear-gradient-42);}.cls-44{fill:url(#linear-gradient-43);}.cls-45{fill:url(#linear-gradient-44);}.cls-46{fill:url(#linear-gradient-45);}.cls-47{fill:url(#linear-gradient-46);}.cls-48{fill:url(#linear-gradient-47);}.cls-49{fill:url(#linear-gradient-48);}.cls-50{fill:url(#linear-gradient-49);}.cls-51{fill:url(#linear-gradient-50);}.cls-52{fill:url(#linear-gradient-51);}.cls-53{fill:url(#linear-gradient-52);}.cls-54{fill:url(#linear-gradient-53);}.cls-55{fill:url(#linear-gradient-54);}.cls-56{fill:url(#linear-gradient-55);}.cls-57{fill:url(#linear-gradient-56);}.cls-58{fill:url(#linear-gradient-57);}.cls-59{fill:url(#linear-gradient-58);}.cls-60{fill:url(#linear-gradient-59);}.cls-61{fill:url(#linear-gradient-60);}.cls-62{fill:url(#linear-gradient-61);}.cls-63{fill:url(#linear-gradient-62);}.cls-64{fill:url(#linear-gradient-63);}.cls-65{fill:url(#linear-gradient-64);}.cls-66{fill:url(#linear-gradient-65);}.cls-67{fill:url(#linear-gradient-66);}.cls-68{fill:url(#linear-gradient-67);}.cls-69{fill:url(#linear-gradient-68);}.cls-70{fill:url(#linear-gradient-69);}.cls-71{fill:url(#linear-gradient-70);}.cls-72{fill:url(#linear-gradient-71);}.cls-73{fill:url(#linear-gradient-72);}.cls-74{fill:url(#linear-gradient-73);}.cls-75{fill:url(#linear-gradient-74);}.cls-76{fill:url(#linear-gradient-75);}.cls-77{fill:url(#linear-gradient-76);}.cls-78{fill:url(#linear-gradient-77);}.cls-79{fill:url(#linear-gradient-78);}.cls-80{fill:url(#linear-gradient-79);}.cls-81{fill:url(#linear-gradient-80);}.cls-82{fill:url(#linear-gradient-81);}.cls-83{fill:url(#linear-gradient-82);}.cls-84{fill:url(#linear-gradient-83);}.cls-85{fill:url(#linear-gradient-84);}.cls-86{fill:url(#linear-gradient-85);}.cls-87{fill:url(#linear-gradient-86);}.cls-88{fill:url(#linear-gradient-87);}.cls-89{fill:url(#linear-gradient-88);}.cls-90{fill:url(#linear-gradient-89);}.cls-91{fill:url(#linear-gradient-90);}.cls-92{fill:url(#linear-gradient-91);}.cls-93{fill:url(#linear-gradient-92);}.cls-94{fill:url(#linear-gradient-93);}.cls-95{fill:url(#linear-gradient-94);}.cls-96{fill:url(#linear-gradient-95);}.cls-97{fill:url(#linear-gradient-96);}.cls-98{fill:url(#linear-gradient-97);}.cls-99{fill:url(#linear-gradient-98);}.cls-100{fill:url(#linear-gradient-99);}.cls-101{fill:url(#linear-gradient-100);}.cls-102{fill:url(#linear-gradient-101);}.cls-103{fill:url(#linear-gradient-102);}.cls-104{fill:url(#linear-gradient-103);}.cls-105{fill:url(#linear-gradient-104);}.cls-106{fill:url(#linear-gradient-105);}.cls-107{fill:url(#linear-gradient-106);}.cls-108{fill:url(#linear-gradient-107);}.cls-109{fill:url(#linear-gradient-108);}.cls-110{fill:url(#linear-gradient-109);}.cls-111{fill:url(#linear-gradient-110);}.cls-112{fill:url(#linear-gradient-111);}.cls-113{fill:url(#linear-gradient-112);}.cls-114{fill:url(#linear-gradient-113);}.cls-115{fill:url(#linear-gradient-114);}.cls-116{fill:url(#linear-gradient-115);}.cls-117{fill:url(#linear-gradient-116);}.cls-118{fill:url(#linear-gradient-117);}.cls-119{fill:url(#linear-gradient-118);}.cls-120{fill:url(#linear-gradient-119);}.cls-121{fill:url(#linear-gradient-120);}.cls-122{fill:url(#linear-gradient-121);}.cls-123{fill:url(#linear-gradient-122);}.cls-124{fill:url(#linear-gradient-123);}.cls-125{fill:url(#linear-gradient-124);}.cls-126{fill:url(#linear-gradient-125);}.cls-127{fill:url(#linear-gradient-126);}.cls-128{fill:url(#linear-gradient-127);}.cls-129{fill:url(#linear-gradient-128);}.cls-130{fill:url(#linear-gradient-129);}.cls-131{fill:url(#linear-gradient-130);}.cls-132{fill:url(#linear-gradient-131);}.cls-133{fill:url(#linear-gradient-132);}</style><linearGradient id="linear-gradient" x1="249.31" y1="111.67" x2="247.93" y2="805.11" gradientUnits="userSpaceOnUse"><stop offset="0" stop-color="#4dbeed"/><stop offset="0.49" stop-color="#0d72b9"/><stop offset="1" stop-color="#244f95"/></linearGradient><linearGradient id="linear-gradient-2" x1="246.3" y1="111.66" x2="244.92" y2="805.1" xlink:href="#linear-gradient"/><linearGradient id="linear-gradient-3" x1="249.01" y1="111.67" x2="247.63" y2="805.11" xlink:href="#linear-gradient"/><linearGradient id="linear-gradient-4" x1="255.88" y1="111.68" x2="254.5" y2="805.12" xlink:href="#linear-gradient"/><linearGradient id="linear-gradient-5" x1="266.71" y1="111.7" x2="265.33" y2="805.14" xlink:href="#linear-gradient"/><linearGradient id="linear-gradient-6" x1="299.74" y1="111.77" x2="298.36" y2="805.21" xlink:href="#linear-gradient"/><linearGradient id="linear-gradient-7" x1="320.68" y1="111.81" x2="319.3" y2="805.25" xlink:href="#linear-gradient"/><linearGradient id="linear-gradient-8" x1="342.89" y1="111.85" x2="341.51" y2="805.29" xlink:href="#linear-gradient"/><linearGradient id="linear-gradient-9" x1="374.21" y1="111.92" x2="372.83" y2="805.35" xlink:href="#linear-gradient"/><linearGradient id="linear-gradient-10" x1="403.81" y1="111.98" x2="402.43" y2="805.41" xlink:href="#linear-gradient"/><linearGradient id="linear-gradient-11" x1="424.78" y1="112.02" x2="423.4" y2="805.46" xlink:href="#linear-gradient"/><linearGradient id="linear-gradient-12" x1="468.03" y1="112.1" x2="466.65" y2="805.54" xlink:href="#linear-gradient"/><linearGradient id="linear-gradient-13" x1="505.06" y1="112.19" x2="503.68" y2="805.63" xlink:href="#linear-gradient"/><linearGradient id="linear-gradient-14" x1="542.54" y1="112.25" x2="541.15" y2="805.69" xlink:href="#linear-gradient"/><linearGradient id="linear-gradient-15" x1="570.54" y1="112.31" x2="569.15" y2="805.75" xlink:href="#linear-gradient"/><linearGradient id="linear-gradient-16" x1="600.7" y1="112.37" x2="599.32" y2="805.81" xlink:href="#linear-gradient"/><linearGradient id="linear-gradient-17" x1="636.51" y1="112.44" x2="635.13" y2="805.88" xlink:href="#linear-gradient"/><linearGradient id="linear-gradient-18" x1="691.32" y1="112.55" x2="689.94" y2="805.99" xlink:href="#linear-gradient"/><linearGradient id="linear-gradient-19" x1="721.79" y1="112.61" x2="720.41" y2="806.05" xlink:href="#linear-gradient"/><linearGradient id="linear-gradient-20" x1="755.31" y1="112.68" x2="753.93" y2="806.11" xlink:href="#linear-gradient"/><linearGradient id="linear-gradient-21" x1="781.22" y1="112.73" x2="779.83" y2="806.17" xlink:href="#linear-gradient"/><linearGradient id="linear-gradient-22" x1="803.55" y1="112.77" x2="802.16" y2="806.21" xlink:href="#linear-gradient"/><linearGradient id="linear-gradient-23" x1="819.01" y1="112.8" x2="817.63" y2="806.24" xlink:href="#linear-gradient"/><linearGradient id="linear-gradient-24" x1="832.44" y1="112.83" x2="831.06" y2="806.27" xlink:href="#linear-gradient"/><linearGradient id="linear-gradient-25" x1="835.99" y1="112.84" x2="834.6" y2="806.27" xlink:href="#linear-gradient"/><linearGradient id="linear-gradient-26" x1="838.06" y1="112.84" x2="836.68" y2="806.28" xlink:href="#linear-gradient"/><linearGradient id="linear-gradient-27" x1="835.33" y1="112.83" x2="833.95" y2="806.27" xlink:href="#linear-gradient"/><linearGradient id="linear-gradient-28" x1="690.66" y1="577.18" x2="690.66" y2="878.66" gradientUnits="userSpaceOnUse"><stop offset="0" stop-color="#ffca05"/><stop offset="0.46" stop-color="#f6921e"/><stop offset="1" stop-color="#ef4e23"/></linearGradient><linearGradient id="linear-gradient-29" x1="391.04" y1="577.18" x2="391.04" y2="878.66" xlink:href="#linear-gradient-28"/><linearGradient id="linear-gradient-30" x1="432.81" y1="638.65" x2="531.43" y2="638.65" xlink:href="#linear-gradient"/><linearGradient id="linear-gradient-31" x1="461.01" y1="614.59" x2="620.18" y2="614.59" xlink:href="#linear-gradient-28"/><linearGradient id="linear-gradient-32" x1="549.38" y1="641" x2="646.77" y2="641" xlink:href="#linear-gradient"/><linearGradient id="linear-gradient-33" x1="571.3" y1="483.38" x2="567.67" y2="564.71" xlink:href="#linear-gradient"/><linearGradient id="linear-gradient-34" x1="468.26" y1="551.3" x2="464.63" y2="602.07" gradientUnits="userSpaceOnUse"><stop offset="0" stop-color="#bed630"/><stop offset="0.51" stop-color="#3bb44a"/><stop offset="1" stop-color="#005025"/></linearGradient><linearGradient id="linear-gradient-35" x1="513.3" y1="480.79" x2="509.67" y2="562.12" xlink:href="#linear-gradient"/><linearGradient id="linear-gradient-36" x1="611.84" y1="557.55" x2="617.54" y2="601.58" gradientUnits="userSpaceOnUse"><stop offset="0" stop-color="#bed630"/><stop offset="1" stop-color="#005025"/></linearGradient><linearGradient id="linear-gradient-37" x1="532.5" y1="355.19" x2="547" y2="589.85" xlink:href="#linear-gradient-28"/><linearGradient id="linear-gradient-38" x1="535.32" y1="355.01" x2="549.82" y2="589.67" xlink:href="#linear-gradient-28"/><linearGradient id="linear-gradient-39" x1="562.24" y1="375.75" x2="557.58" y2="583.47" xlink:href="#linear-gradient-34"/><linearGradient id="linear-gradient-40" x1="634.76" y1="377.38" x2="630.09" y2="585.1" xlink:href="#linear-gradient-34"/><linearGradient id="linear-gradient-41" x1="579.47" y1="345.82" x2="599.16" y2="610" xlink:href="#linear-gradient"/><linearGradient id="linear-gradient-42" x1="537.25" y1="206.7" x2="573.51" y2="603.49" xlink:href="#linear-gradient-34"/><linearGradient id="linear-gradient-43" x1="582.74" y1="376.21" x2="578.07" y2="583.93" xlink:href="#linear-gradient-34"/><linearGradient id="linear-gradient-44" x1="539.76" y1="206.47" x2="576.02" y2="603.27" xlink:href="#linear-gradient-34"/><linearGradient id="linear-gradient-45" x1="609.87" y1="350.41" x2="624.37" y2="585.06" xlink:href="#linear-gradient-28"/><linearGradient id="linear-gradient-46" x1="568.45" y1="203.85" x2="604.71" y2="600.64" xlink:href="#linear-gradient-34"/><linearGradient id="linear-gradient-47" x1="610.19" y1="350.39" x2="624.69" y2="585.04" xlink:href="#linear-gradient-28"/><linearGradient id="linear-gradient-48" x1="592.21" y1="201.68" x2="628.47" y2="598.47" xlink:href="#linear-gradient-34"/><linearGradient id="linear-gradient-49" x1="580.59" y1="352.22" x2="595.09" y2="586.87" xlink:href="#linear-gradient-28"/><linearGradient id="linear-gradient-50" x1="537.31" y1="348.96" x2="557" y2="613.14" xlink:href="#linear-gradient"/><linearGradient id="linear-gradient-51" x1="626.82" y1="198.52" x2="663.08" y2="595.31" xlink:href="#linear-gradient-34"/><linearGradient id="linear-gradient-52" x1="653.77" y1="347.69" x2="668.27" y2="582.35" xlink:href="#linear-gradient-28"/><linearGradient id="linear-gradient-53" x1="495.35" y1="210.53" x2="531.61" y2="607.32" xlink:href="#linear-gradient-34"/><linearGradient id="linear-gradient-54" x1="441.41" y1="360.82" x2="455.92" y2="595.48" xlink:href="#linear-gradient-28"/><linearGradient id="linear-gradient-55" x1="422.55" y1="361.98" x2="437.06" y2="596.64" xlink:href="#linear-gradient-28"/><linearGradient id="linear-gradient-56" x1="486.47" y1="352.75" x2="506.15" y2="616.93" xlink:href="#linear-gradient"/><linearGradient id="linear-gradient-57" x1="513.64" y1="419.77" x2="525.56" y2="466.4" xlink:href="#linear-gradient-28"/><linearGradient id="linear-gradient-58" x1="479.47" y1="211.98" x2="515.73" y2="608.77" xlink:href="#linear-gradient-34"/><linearGradient id="linear-gradient-59" x1="522.86" y1="374.87" x2="518.19" y2="582.59" xlink:href="#linear-gradient-34"/><linearGradient id="linear-gradient-60" x1="453.61" y1="355.19" x2="473.3" y2="619.38" xlink:href="#linear-gradient"/><linearGradient id="linear-gradient-61" x1="427.45" y1="357.14" x2="447.13" y2="621.33" xlink:href="#linear-gradient"/><linearGradient id="linear-gradient-62" x1="480.85" y1="358.38" x2="495.36" y2="593.04" xlink:href="#linear-gradient-28"/><linearGradient id="linear-gradient-63" x1="455.38" y1="214.18" x2="491.64" y2="610.98" xlink:href="#linear-gradient-34"/><linearGradient id="linear-gradient-64" x1="444.86" y1="215.14" x2="481.12" y2="611.94" xlink:href="#linear-gradient-34"/><linearGradient id="linear-gradient-65" x1="466.21" y1="359.29" x2="480.71" y2="593.94" xlink:href="#linear-gradient-28"/><linearGradient id="linear-gradient-66" x1="495.19" y1="352.1" x2="514.88" y2="616.28" xlink:href="#linear-gradient"/><linearGradient id="linear-gradient-67" x1="428.25" y1="357.08" x2="447.93" y2="621.27" xlink:href="#linear-gradient"/><linearGradient id="linear-gradient-68" x1="398.04" y1="219.42" x2="434.3" y2="616.22" xlink:href="#linear-gradient-34"/><linearGradient id="linear-gradient-69" x1="399.95" y1="363.38" x2="414.45" y2="598.04" xlink:href="#linear-gradient-28"/><linearGradient id="linear-gradient-70" x1="422.27" y1="217.21" x2="458.53" y2="614" xlink:href="#linear-gradient-34"/><linearGradient id="linear-gradient-71" x1="468.38" y1="359.15" x2="482.89" y2="593.81" xlink:href="#linear-gradient-28"/><linearGradient id="linear-gradient-72" x1="500.86" y1="210.03" x2="537.12" y2="606.82" xlink:href="#linear-gradient-34"/><linearGradient id="linear-gradient-73" x1="378.96" y1="364.68" x2="393.46" y2="599.34" xlink:href="#linear-gradient-28"/><linearGradient id="linear-gradient-74" x1="372.77" y1="221.73" x2="409.03" y2="618.53" xlink:href="#linear-gradient-34"/><linearGradient id="linear-gradient-75" x1="352.5" y1="223.58" x2="388.76" y2="620.38" xlink:href="#linear-gradient-34"/><linearGradient id="linear-gradient-76" x1="623.89" y1="198.78" x2="660.15" y2="595.58" xlink:href="#linear-gradient-34"/><linearGradient id="linear-gradient-77" x1="624.14" y1="342.49" x2="643.83" y2="606.67" xlink:href="#linear-gradient"/><linearGradient id="linear-gradient-78" x1="572.05" y1="203.52" x2="608.31" y2="600.31" xlink:href="#linear-gradient-34"/><linearGradient id="linear-gradient-79" x1="669.4" y1="339.12" x2="689.08" y2="603.3" xlink:href="#linear-gradient"/><linearGradient id="linear-gradient-80" x1="638.7" y1="348.62" x2="653.2" y2="583.28" xlink:href="#linear-gradient-28"/><linearGradient id="linear-gradient-81" x1="595.13" y1="201.41" x2="631.39" y2="598.2" xlink:href="#linear-gradient-34"/><linearGradient id="linear-gradient-82" x1="552.2" y1="205.34" x2="588.46" y2="602.13" xlink:href="#linear-gradient-34"/><linearGradient id="linear-gradient-83" x1="669.6" y1="194.61" x2="705.86" y2="591.4" xlink:href="#linear-gradient-34"/><linearGradient id="linear-gradient-84" x1="673.17" y1="346.49" x2="687.68" y2="581.14" xlink:href="#linear-gradient-28"/><linearGradient id="linear-gradient-85" x1="646.23" y1="196.74" x2="682.49" y2="593.54" xlink:href="#linear-gradient-34"/><linearGradient id="linear-gradient-86" x1="614.2" y1="350.14" x2="628.7" y2="584.8" xlink:href="#linear-gradient-28"/><linearGradient id="linear-gradient-87" x1="639.95" y1="197.32" x2="676.21" y2="594.11" xlink:href="#linear-gradient-34"/><linearGradient id="linear-gradient-88" x1="611.1" y1="199.95" x2="647.36" y2="596.75" xlink:href="#linear-gradient-34"/><linearGradient id="linear-gradient-89" x1="638.05" y1="348.66" x2="652.55" y2="583.32" xlink:href="#linear-gradient-28"/><linearGradient id="linear-gradient-90" x1="684.36" y1="378.49" x2="679.7" y2="586.21" xlink:href="#linear-gradient-34"/><linearGradient id="linear-gradient-91" x1="685.29" y1="345.74" x2="699.79" y2="580.4" xlink:href="#linear-gradient-28"/><linearGradient id="linear-gradient-92" x1="694.34" y1="337.26" x2="714.03" y2="601.44" xlink:href="#linear-gradient"/><linearGradient id="linear-gradient-93" x1="679.24" y1="346.12" x2="693.74" y2="580.78" xlink:href="#linear-gradient-28"/><linearGradient id="linear-gradient-94" x1="630.54" y1="198.18" x2="666.8" y2="594.97" xlink:href="#linear-gradient-34"/><linearGradient id="linear-gradient-95" x1="690.19" y1="192.73" x2="726.45" y2="589.52" xlink:href="#linear-gradient-34"/><linearGradient id="linear-gradient-96" x1="695.35" y1="192.25" x2="731.61" y2="589.05" xlink:href="#linear-gradient-34"/><linearGradient id="linear-gradient-97" x1="693.59" y1="192.41" x2="729.85" y2="589.21" xlink:href="#linear-gradient-34"/><linearGradient id="linear-gradient-98" x1="722.27" y1="335.18" x2="741.96" y2="599.36" xlink:href="#linear-gradient"/><linearGradient id="linear-gradient-99" x1="691.36" y1="192.62" x2="727.62" y2="589.41" xlink:href="#linear-gradient-34"/><linearGradient id="linear-gradient-100" x1="340.14" y1="363.65" x2="359.83" y2="627.83" xlink:href="#linear-gradient"/><linearGradient id="linear-gradient-101" x1="716.24" y1="343.83" x2="730.74" y2="578.49" xlink:href="#linear-gradient-28"/><linearGradient id="linear-gradient-102" x1="718.39" y1="190.15" x2="754.65" y2="586.94" xlink:href="#linear-gradient-34"/><linearGradient id="linear-gradient-103" x1="638.86" y1="341.39" x2="658.54" y2="605.58" xlink:href="#linear-gradient"/><linearGradient id="linear-gradient-104" x1="469.66" y1="359.07" x2="484.16" y2="593.73" xlink:href="#linear-gradient-28"/><linearGradient id="linear-gradient-105" x1="413.76" y1="372.42" x2="409.1" y2="580.14" xlink:href="#linear-gradient-34"/><linearGradient id="linear-gradient-106" x1="424.54" y1="361.86" x2="439.05" y2="596.52" xlink:href="#linear-gradient-28"/><linearGradient id="linear-gradient-107" x1="415.98" y1="358" x2="435.66" y2="622.18" xlink:href="#linear-gradient"/><linearGradient id="linear-gradient-108" x1="423.19" y1="357.46" x2="442.87" y2="621.64" xlink:href="#linear-gradient"/><linearGradient id="linear-gradient-109" x1="430.41" y1="216.46" x2="466.67" y2="613.26" xlink:href="#linear-gradient-34"/><linearGradient id="linear-gradient-110" x1="410.99" y1="362.7" x2="425.5" y2="597.36" xlink:href="#linear-gradient-28"/><linearGradient id="linear-gradient-111" x1="378.82" y1="221.18" x2="415.08" y2="617.97" xlink:href="#linear-gradient-34"/><linearGradient id="linear-gradient-112" x1="372.79" y1="455.77" x2="384.7" y2="502.39" xlink:href="#linear-gradient-28"/><linearGradient id="linear-gradient-113" x1="362.92" y1="361.95" x2="382.6" y2="626.14" xlink:href="#linear-gradient"/><linearGradient id="linear-gradient-114" x1="321.48" y1="368.23" x2="335.98" y2="602.89" xlink:href="#linear-gradient-28"/><linearGradient id="linear-gradient-115" x1="326.41" y1="364.67" x2="346.09" y2="628.86" xlink:href="#linear-gradient"/><linearGradient id="linear-gradient-116" x1="380.13" y1="364.61" x2="394.64" y2="599.26" xlink:href="#linear-gradient-28"/><linearGradient id="linear-gradient-117" x1="385.58" y1="220.56" x2="421.84" y2="617.35" xlink:href="#linear-gradient-34"/><linearGradient id="linear-gradient-118" x1="329.39" y1="225.7" x2="365.65" y2="622.49" xlink:href="#linear-gradient-34"/><linearGradient id="linear-gradient-119" x1="332.94" y1="225.37" x2="369.2" y2="622.16" xlink:href="#linear-gradient-34"/><linearGradient id="linear-gradient-120" x1="358.71" y1="365.93" x2="373.21" y2="600.59" xlink:href="#linear-gradient-28"/><linearGradient id="linear-gradient-121" x1="416.77" y1="717.68" x2="673.21" y2="717.68" xlink:href="#linear-gradient"/><linearGradient id="linear-gradient-122" x1="618.51" y1="699.57" x2="654.71" y2="699.57" xlink:href="#linear-gradient"/><linearGradient id="linear-gradient-123" x1="432.82" y1="701.55" x2="469.41" y2="701.55" xlink:href="#linear-gradient"/><linearGradient id="linear-gradient-124" x1="373.54" y1="330.79" x2="708.48" y2="330.79" xlink:href="#linear-gradient-34"/><linearGradient id="linear-gradient-125" x1="288.92" y1="668.11" x2="793.39" y2="668.11" xlink:href="#linear-gradient-34"/><linearGradient id="linear-gradient-126" x1="354.67" y1="293.9" x2="345" y2="583.99" xlink:href="#linear-gradient"/><linearGradient id="linear-gradient-127" x1="324.29" y1="292.89" x2="314.62" y2="582.97" xlink:href="#linear-gradient"/><linearGradient id="linear-gradient-128" x1="306.82" y1="292.31" x2="297.15" y2="582.39" xlink:href="#linear-gradient"/><linearGradient id="linear-gradient-129" x1="729.38" y1="306.39" x2="719.71" y2="596.48" xlink:href="#linear-gradient"/><linearGradient id="linear-gradient-130" x1="764.18" y1="307.55" x2="754.51" y2="597.64" xlink:href="#linear-gradient"/><linearGradient id="linear-gradient-131" x1="783.9" y1="308.21" x2="774.23" y2="598.29" xlink:href="#linear-gradient"/><linearGradient id="linear-gradient-132" x1="528.66" y1="188.33" x2="549.38" y2="830.66" xlink:href="#linear-gradient"/></defs><rect class="cls-1" y="3.61" width="1080" height="1080"/><path class="cls-2" d="M264.17,563.4a7.32,7.32,0,0,1,1.25,3.38,5.27,5.27,0,0,1-.58,3.43,8.64,8.64,0,0,1-3.29,2.78l-3,1.64,1.5,11.71,3.78.82c2.9.61,4.51,2.06,4.8,4.36a6.86,6.86,0,0,1-.34,3.21,3.88,3.88,0,0,1-1.64,2.18,3.3,3.3,0,0,0-1.4-1.31,14.5,14.5,0,0,0-2.82-1l-28.63-7a6.92,6.92,0,0,0-2.52,2.37,5.54,5.54,0,0,1-3.12-4.63,4.76,4.76,0,0,1,.91-3.95,17.94,17.94,0,0,1,4.68-3.16l23.76-12.44q3.48-1.82,4.28-4.17A4.69,4.69,0,0,1,264.17,563.4Zm-9.32,21.82-1-8-12.76,5.47Z"/><path class="cls-3" d="M261,527.31a5.88,5.88,0,0,1,3.57,5.55,6.78,6.78,0,0,1-1,3.71,12.94,12.94,0,0,1-4.05,3.65l-9.72,6.19,0,3.06,9.05-.14c1.87,0,3.09-.62,3.66-1.78a6.18,6.18,0,0,1,2.31,4.75q.08,5.09-6.1,5.19l-26.76.43c-1.77,0-2.95.64-3.56,1.83a6,6,0,0,1-2.36-4.75l-.14-8.62a18.57,18.57,0,0,1,3-10.89A10.84,10.84,0,0,1,244,532.73a13.2,13.2,0,0,1,4.16,5.39l9-6.28A13.05,13.05,0,0,0,261,527.31Zm-29.16,22.4,12.21-.19,0-3a8.55,8.55,0,0,0-1.68-5.54,6.27,6.27,0,0,0-9,.15,8.57,8.57,0,0,0-1.5,5.58Z"/><path class="cls-4" d="M268.25,492.14a7.22,7.22,0,0,1,.36,3.58,5.29,5.29,0,0,1-1.43,3.17,8.49,8.49,0,0,1-3.88,1.86l-3.36.83-1.49,11.7,3.44,1.75q4,2,3.55,5.43a6.81,6.81,0,0,1-1.15,3,3.85,3.85,0,0,1-2.12,1.69,3.36,3.36,0,0,0-1-1.63,14.29,14.29,0,0,0-2.49-1.65l-25.91-14a6.81,6.81,0,0,0-3,1.65,5.49,5.49,0,0,1-1.84-5.26,4.69,4.69,0,0,1,1.87-3.59,18,18,0,0,1,5.32-1.89l26.13-6c2.56-.58,4.29-1.57,5.2-3A4.66,4.66,0,0,1,268.25,492.14ZM253.72,510.9l1-8L241,504.92Z"/><path class="cls-5" d="M247.23,450a4.08,4.08,0,0,1,2.67,2,4.64,4.64,0,0,1,.28,3.54,6.69,6.69,0,0,1-2.33,3.52,5.08,5.08,0,0,0-2-.95,2.93,2.93,0,0,0-2.68.88,7.73,7.73,0,0,0-2.12,3.95,9.21,9.21,0,0,0-.19,4.76,3.1,3.1,0,0,0,2.22,2.47c1.12.3,2.35-.14,3.68-1.31a35.05,35.05,0,0,0,4.14-4.44q2.13-2.69,4.49-5.31a17.4,17.4,0,0,1,5.44-4.1,8.75,8.75,0,0,1,6.19-.64,9.69,9.69,0,0,1,6.78,6.38,18,18,0,0,1,.34,11.22,22.19,22.19,0,0,1-5,9.72q-3.4,3.61-7,2.66a4.32,4.32,0,0,1-3-2.38,5.53,5.53,0,0,1-.31-3.9,6.78,6.78,0,0,1,2.69-3.66,3.64,3.64,0,0,0,2.35,1.91,3.18,3.18,0,0,0,3.1-1.14,10.25,10.25,0,0,0,2.35-4.65,8.63,8.63,0,0,0,0-5.21,4,4,0,0,0-2.87-2.66,4.79,4.79,0,0,0-4.28,1.15,24.66,24.66,0,0,0-4.31,4.39q-2.11,2.7-4.38,5.35a18,18,0,0,1-5.06,4.2,7.39,7.39,0,0,1-5.66.78,9,9,0,0,1-6.45-6.11,18.1,18.1,0,0,1-.14-10.84,20.57,20.57,0,0,1,4.69-9.19Q244,449.11,247.23,450Z"/><path class="cls-6" d="M266.85,446.23,249,438.86q-2.46-1-4,.26a6.07,6.07,0,0,1-.26-5.2,4.89,4.89,0,0,1,2.91-3.1,7.15,7.15,0,0,1,4.75.62l18.64,7.71a6.41,6.41,0,0,0,5.59.07,9.24,9.24,0,0,0,4.16-10,6.44,6.44,0,0,0-4-3.9l-18.92-7.84c-1.63-.67-3-.59-4,.26a6.14,6.14,0,0,1-.23-5.27q2-4.76,7.63-2.41l17.52,7.26q6.19,2.57,8.2,7.58t-1,12.37q-3,7.35-8,9.45T266.85,446.23Z"/><path class="cls-7" d="M301.64,354.14a6.76,6.76,0,0,1,2.85,4.45,10.33,10.33,0,0,1-1,6,14.42,14.42,0,0,1,6.22-3.65,9.33,9.33,0,0,1,3.81-.18,8.79,8.79,0,0,1,3.76,1.59q4,2.85,3.78,8.48t-4.61,11.79q-4.44,6.17-8.31,7.76t-7.88-1.28l-17.5-12.6a10.23,10.23,0,0,0-5.46-2.2A44.12,44.12,0,0,1,284,360.4q4.51-6.28,9.2-7.62A9.34,9.34,0,0,1,301.64,354.14Zm-4,15.7a7.37,7.37,0,0,0,1.61-4.87,5.18,5.18,0,0,0-6.43-4.59,7.82,7.82,0,0,0-4.25,3.28,20.08,20.08,0,0,0-2.72,4.93l8.31,6,3.36-4.57Zm8,13c1.66,1.19,3.77,0,6.34-3.57a10.41,10.41,0,0,0,2.31-6,5,5,0,0,0-2.16-4.3,5.08,5.08,0,0,0-4.78-.69,10.25,10.25,0,0,0-4.94,4.06l-3.86,5.36Z"/><path class="cls-8" d="M312.87,334.47l20.35,18.17q2.1,1.88,3.87,1.22a6.09,6.09,0,0,1-1.45,5,4.84,4.84,0,0,1-3.76,1.94,7.31,7.31,0,0,1-4.32-2.18l-20.39-18.21c-1.34-1.2-2.62-1.57-3.82-1.11a5.9,5.9,0,0,1,1.49-5Q308.29,330.39,312.87,334.47Z"/><path class="cls-9" d="M342.91,305a19.29,19.29,0,0,1,6.33,2.62A31.31,31.31,0,0,1,359.59,319a19.72,19.72,0,0,1,2,6.6,12.9,12.9,0,0,1-1.12,6.77,19.66,19.66,0,0,1-4.86,6.44q-6.4,5.79-13.26,4.61t-12.72-7.66q-5.85-6.47-6.35-13.39t5.91-12.72a19.53,19.53,0,0,1,6.9-4.22A13.09,13.09,0,0,1,342.91,305Zm9.91,29.43a6.56,6.56,0,0,0,2.05-7.33,20.32,20.32,0,0,0-4.44-7.06c-.48-.54-1-1.09-1.57-1.66a23.46,23.46,0,0,0-9.09-6A7.53,7.53,0,0,0,332,314q-5.85,5.31,2.49,14.51,7,7.74,13.15,7.86A7.27,7.27,0,0,0,352.82,334.39Z"/><path class="cls-10" d="M369.17,314.92l-12-17.9a10.27,10.27,0,0,0-4.35-4,42.19,42.19,0,0,1,10.53-10.33q7.47-5,15-3.82t12.71,8.9q5.18,7.71,3.43,15.13t-9.2,12.44q-5.61,3.78-9.47,3.71C373.21,319,371,317.65,369.17,314.92Zm7.14-4.1c1.2,1.78,3.22,1.71,6.09-.21a10.2,10.2,0,0,0,4.75-7.83q.47-4.95-3.09-10.25t-8.35-6.79a10.46,10.46,0,0,0-9.32,1.56,14,14,0,0,0-3.53,3.5Z"/><path class="cls-11" d="M400.83,267.59l12.7,24.15c.87,1.65,1.94,2.48,3.19,2.48a6,6,0,0,1-3.09,4.16,4.85,4.85,0,0,1-4.2.51,7.25,7.25,0,0,1-3.28-3.56l-12.73-24.19c-.84-1.6-1.9-2.39-3.19-2.38a5.91,5.91,0,0,1,3.15-4.18Q398,262.17,400.83,267.59Z"/><path class="cls-12" d="M431.55,248.8a8.29,8.29,0,0,1,3.68-3,5.13,5.13,0,0,1,3.89-.22,4.2,4.2,0,0,1,2.39,2.46,10.82,10.82,0,0,1,.69,4.2L442,278.44a17.74,17.74,0,0,1-.76,6,5.7,5.7,0,0,1-3.37,2.76,8.62,8.62,0,0,1-2.34.66,3.31,3.31,0,0,1-2-.48,8.82,8.82,0,0,1-1.83-1.34c-.52-.5-1.3-1.35-2.34-2.53l-18.63-21.07a6.39,6.39,0,0,0-3.93-2.39,7.35,7.35,0,0,1,4-4.38,5.07,5.07,0,0,1,3.76-.14,10.84,10.84,0,0,1,4,3.28L435.38,279l-1.05-23.72a16.13,16.13,0,0,0-.76-4.54A3.46,3.46,0,0,0,431.55,248.8Z"/><path class="cls-13" d="M469.44,269.19l8.1-2.08a10.83,10.83,0,0,0,5.83-3.64,4.9,4.9,0,0,1,1.83,7.13,7.74,7.74,0,0,1-4.5,2.57L469.78,276q-5,1.29-7.93-.27c-1.93-1-3.3-3.13-4.1-6.25L452,247.1c-.44-1.71-1.31-2.72-2.6-3a5.92,5.92,0,0,1,4-3.39l16.82-4.32c2.65-.67,4.63-.82,5.95-.42a3.42,3.42,0,0,1,2.49,2.6,4.34,4.34,0,0,1-.75,3.79,18.19,18.19,0,0,0-6.58.67l-11.23,2.88,1.94,7.55,6.95-1.78A14.08,14.08,0,0,1,475,251a3.08,3.08,0,0,1,2.43,2.46,4.1,4.1,0,0,1-.77,3.71,23.47,23.47,0,0,0-6.5,1l-6.39,1.63,1.68,6.55Q466.32,270,469.44,269.19Z"/><path class="cls-14" d="M522.67,263.89a5.88,5.88,0,0,1-5.14,4.15,6.79,6.79,0,0,1-3.79-.57,12.9,12.9,0,0,1-4.07-3.63l-7.2-9-3,.38,1.12,9c.23,1.86.95,3,2.16,3.45a6.15,6.15,0,0,1-4.47,2.81q-5.06.63-5.82-5.51l-3.31-26.56c-.22-1.75-.95-2.86-2.2-3.34a6,6,0,0,1,4.46-2.86l8.57-1.06a18.61,18.61,0,0,1,11.14,1.77,10.83,10.83,0,0,1,4.37,14.7,13.28,13.28,0,0,1-4.91,4.72l7.21,8.27A12.94,12.94,0,0,0,522.67,263.89Zm-25.42-26.57,1.51,12.11,2.94-.36a8.62,8.62,0,0,0,5.33-2.26,6.3,6.3,0,0,0-1.12-9,8.57,8.57,0,0,0-5.72-.88Z"/><path class="cls-15" d="M556.84,235.87a4.12,4.12,0,0,1-1.28,3.07,4.63,4.63,0,0,1-3.37,1.12,6.74,6.74,0,0,1-4-1.42,4.88,4.88,0,0,0,.44-2.15,2.9,2.9,0,0,0-1.49-2.39,7.73,7.73,0,0,0-4.35-1.11,9.38,9.38,0,0,0-4.67,1,3.15,3.15,0,0,0-1.86,2.76c0,1.16.7,2.24,2.16,3.25a33.3,33.3,0,0,0,5.3,2.95q3.12,1.43,6.24,3.09a17.32,17.32,0,0,1,5.29,4.29,8.77,8.77,0,0,1,2.11,5.86,9.7,9.7,0,0,1-4.57,8.11,18,18,0,0,1-10.81,3,22.1,22.1,0,0,1-10.64-2.54q-4.33-2.43-4.27-6.17a4.31,4.31,0,0,1,1.59-3.46,5.52,5.52,0,0,1,3.71-1.24,6.79,6.79,0,0,1,4.21,1.73,3.6,3.6,0,0,0-1.29,2.74,3.15,3.15,0,0,0,1.85,2.73,10.12,10.12,0,0,0,5.08,1.17,8.63,8.63,0,0,0,5.06-1.21,4.06,4.06,0,0,0,1.9-3.43,4.85,4.85,0,0,0-2.15-3.88,25.22,25.22,0,0,0-5.3-3.13q-3.12-1.4-6.24-3a18,18,0,0,1-5.29-3.9,7.45,7.45,0,0,1-2.13-5.31,9,9,0,0,1,4.39-7.73A18.16,18.16,0,0,1,543,228a20.53,20.53,0,0,1,10,2.35Q556.89,232.53,556.84,235.87Z"/><path class="cls-16" d="M575.66,235.94,573,263.1c-.19,1.86.24,3.14,1.29,3.83a6,6,0,0,1-4.87,1.77,4.84,4.84,0,0,1-3.79-1.88,7.3,7.3,0,0,1-.78-4.78l2.65-27.21c.18-1.79-.28-3-1.36-3.73a5.94,5.94,0,0,1,4.93-1.77Q576.25,229.84,575.66,235.94Z"/><path class="cls-17" d="M593,232.59l18.48,3.55q4.89.95,4.14,4.87a4.93,4.93,0,0,1-1.85,2.72,15.65,15.65,0,0,0-5.84-2.08l-4-.78-5.06,26.34c-.35,1.84,0,3.15,1,4a6.19,6.19,0,0,1-5.12,1.29q-5-1-3.83-7l5-26.08-6.43-1.23q-4.89-.94-4.14-4.88a5,5,0,0,1,1.84-2.71A16,16,0,0,0,593,232.59Z"/><path class="cls-18" d="M630.64,280.87a9.87,9.87,0,0,1-4.25-.43,4.29,4.29,0,0,1-2.89-2.56,7.16,7.16,0,0,1,.19-4.8L627,262.85l-4.34-18a4.18,4.18,0,0,0-2.39-3.11c1.7-2.37,3.79-3.15,6.26-2.36a4.93,4.93,0,0,1,2.86,2.25,16.4,16.4,0,0,1,1.65,4.48l2.7,11.18,7.84-5.41a5.46,5.46,0,0,0,2.28-2.7,4,4,0,0,0-.33-3.06,10.6,10.6,0,0,1,4.86.25,5.72,5.72,0,0,1,3.14,2.21,3.87,3.87,0,0,1,.41,3.51,7.38,7.38,0,0,1-3.2,3.67l-14,9.49-3.62,11.12A9.26,9.26,0,0,0,630.64,280.87Z"/><path class="cls-19" d="M690.88,266.09l15.59,9q3.42,2,4.29,3.54a3.13,3.13,0,0,1-.08,3.22,4.24,4.24,0,0,1-3.1,2,18,18,0,0,0-5.18-4.12l-10-5.78-4.59,8L694,285.5a16,16,0,0,1,4.73,3.6,2.56,2.56,0,0,1,.27,3,3.42,3.42,0,0,1-2.88,1.67,28.14,28.14,0,0,0-5.42-3.72L685,286.79l-6,10.41q-1.41,2.43-.4,4a5.9,5.9,0,0,1-5.21-.42q-4.43-2.55-1.34-7.9l13.34-23.2c.89-1.54,1-2.87.26-4A5.94,5.94,0,0,1,690.88,266.09Z"/><path class="cls-20" d="M740.35,305.76a19.28,19.28,0,0,1-1.43,6.7,28.47,28.47,0,0,1-3.93,6.68,29,29,0,0,1-5.45,5.54,19.78,19.78,0,0,1-6.13,3.16,12.88,12.88,0,0,1-6.87.1,19.42,19.42,0,0,1-7.2-3.63q-6.84-5.25-6.9-12.22t5.25-13.88q5.32-6.91,12-8.64t13.57,3.54a19.31,19.31,0,0,1,5.39,6A13,13,0,0,1,740.35,305.76Zm-27.18,15a6.59,6.59,0,0,0,7.59.71,20.45,20.45,0,0,0,6.15-5.63c.44-.58.89-1.19,1.35-1.84a23.33,23.33,0,0,0,4.28-10,7.53,7.53,0,0,0-3-7.38q-6.27-4.82-13.83,5-6.37,8.28-5.38,14.34A7.3,7.3,0,0,0,713.17,320.77Z"/><path class="cls-21" d="M738.31,329.61l13.77-13.5c1.25-1.23,1.7-2.49,1.32-3.77a6.07,6.07,0,0,1,4.88,1.79A4.89,4.89,0,0,1,760,318a7.25,7.25,0,0,1-2.43,4.13l-14.4,14.12a6.43,6.43,0,0,0-2.25,5.12,9.23,9.23,0,0,0,7.6,7.75,6.44,6.44,0,0,0,5.17-2.15l14.62-14.34q1.89-1.86,1.32-3.77a6.12,6.12,0,0,1,4.94,1.85q3.6,3.66-.77,8L760.25,352c-3.19,3.12-6.58,4.65-10.18,4.56s-7.26-2-11-5.8-5.57-7.47-5.57-11.06S735.12,332.74,738.31,329.61Z"/><path class="cls-22" d="M759.88,364,782,347.86c1.45-1.06,2.08-2.22,1.88-3.5a6.9,6.9,0,0,1,5.11,3.22q2.7,3.69.63,8.62l-10.78,25.61L797,368.52c1.46-1.06,2.09-2.23,1.89-3.5a5.9,5.9,0,0,1,4.59,2.51c2,2.79,1.42,5.4-1.89,7.81l-22,16.07a8,8,0,0,0-3,3.41,6.62,6.62,0,0,1-4-2.89,8.5,8.5,0,0,1-1.7-5.46,24.09,24.09,0,0,1,2.09-7.76l8.76-20.54-17.26,12.59q-2.26,1.65-2,3.52a6.05,6.05,0,0,1-4.56-2.47,4.8,4.8,0,0,1-1.11-4.07A7.28,7.28,0,0,1,759.88,364Z"/><path class="cls-23" d="M787.72,398.31l19.14-9.94a10.29,10.29,0,0,0,4.42-3.89,42.21,42.21,0,0,1,9.09,11.62q4.14,8,2.11,15.33t-10.26,11.64q-8.24,4.28-15.42,1.72t-11.34-10.54q-3.11-6-2.62-9.83T787.72,398.31Zm3.28,7.55c-1.9,1-2.06,3-.47,6.08a10.17,10.17,0,0,0,7.25,5.6c3.23.68,6.75,0,10.53-1.93s6.34-4.48,7.68-7.54a10.45,10.45,0,0,0-.51-9.43,14,14,0,0,0-3.08-3.9Z"/><path class="cls-24" d="M808.11,467a7.21,7.21,0,0,1-1.93-3,5.32,5.32,0,0,1-.14-3.48,8.6,8.6,0,0,1,2.63-3.4l2.63-2.25-3.91-11.12-3.86,0c-3,0-4.85-1.08-5.62-3.27a6.87,6.87,0,0,1-.32-3.21,3.8,3.8,0,0,1,1.14-2.47,3.31,3.31,0,0,0,1.64,1,14,14,0,0,0,3,.37l29.48.93a7,7,0,0,0,2-2.84,5.51,5.51,0,0,1,4,3.88,4.72,4.72,0,0,1-.07,4,17.61,17.61,0,0,1-3.91,4.08l-20.65,17.11c-2,1.67-3.12,3.32-3.32,5A4.66,4.66,0,0,1,808.11,467Zm4.57-23.28,2.69,7.65,11.34-8Z"/><path class="cls-25" d="M847.72,469.53l3.93,18.4c.69,3.25-.26,5.16-2.87,5.71a4.92,4.92,0,0,1-3.22-.64,15.81,15.81,0,0,0-.37-6.19l-.86-4-26.22,5.61c-1.83.39-2.92,1.2-3.25,2.45a6.13,6.13,0,0,1-3.18-4.21c-.72-3.32,1-5.41,5-6.27l26-5.55-1.37-6.41c-.69-3.25.26-5.16,2.87-5.71a4.86,4.86,0,0,1,3.22.64A15.81,15.81,0,0,0,847.72,469.53Z"/><path class="cls-26" d="M849.12,511.29,822,514.47c-1.86.22-3,.92-3.46,2.09a6.06,6.06,0,0,1-2.77-4.39,4.88,4.88,0,0,1,1-4.1,7.32,7.32,0,0,1,4.5-1.78l27.16-3.19c1.79-.21,2.9-.92,3.36-2.12a5.93,5.93,0,0,1,2.77,4.43Q855.21,510.57,849.12,511.29Z"/><path class="cls-27" d="M851.35,553.08a19.42,19.42,0,0,1-6.13,3,28.87,28.87,0,0,1-7.68,1.09,29.32,29.32,0,0,1-7.73-.84,19.5,19.5,0,0,1-6.28-2.83,12.86,12.86,0,0,1-4.35-5.31,19.51,19.51,0,0,1-1.64-7.9q-.13-8.62,5.28-13T837,522.8q8.73-.15,14.25,4.06t5.67,12.82a19.37,19.37,0,0,1-1.38,8A13,13,0,0,1,851.35,553.08Zm-28.65-12a6.57,6.57,0,0,0,4.16,6.38,20.39,20.39,0,0,0,8.23,1.32c.73,0,1.49,0,2.29-.09a23.48,23.48,0,0,0,10.51-2.87,7.54,7.54,0,0,0,3.88-7q-.12-7.9-12.54-7.7-10.46.17-14.59,4.71A7.29,7.29,0,0,0,822.7,541.12Z"/><path class="cls-28" d="M823.34,566.15l27.08,3.72c1.79.25,3.05-.16,3.79-1.21a6.9,6.9,0,0,1,1.45,5.87q-.63,4.53-5.53,6.64l-25.53,11,22.34,3.07c1.78.25,3-.15,3.78-1.2a5.84,5.84,0,0,1,1.57,5c-.47,3.44-2.72,4.87-6.78,4.32l-27-3.72A8.06,8.06,0,0,0,814,600a6.62,6.62,0,0,1-.85-4.83,8.45,8.45,0,0,1,2.56-5.11,24.34,24.34,0,0,1,6.89-4.14l20.56-8.71L822,574.25c-1.85-.26-3.15.13-3.88,1.14a6,6,0,0,1-1.58-4.93,4.83,4.83,0,0,1,2-3.71A7.22,7.22,0,0,1,823.34,566.15Z"/><path class="cls-29" d="M831.92,635.61c5.5-3,8.33-7.85,8.55-10.79-2.55-1.35-7.91-.89-13.18,2.15a25.86,25.86,0,0,0-6.87,5.92c1.27-3.83,2.42-7.68,3.35-11.61-.52-.15-1-.32-1.5-.49-.86,3.67-1.93,7.27-3.09,10.84a17.6,17.6,0,0,0-2.66-7.79c-3.12-5.31-7.63-8.14-10.48-8.34-1.25,2.33-.61,7.42,2.26,12.65,2.51,4.78,6.33,8,9.13,8.62-1.55,4.4-3.2,8.76-4.81,13.15a20.13,20.13,0,0,0-2.06-8.26c-2.63-5.45-6.9-8.56-9.74-8.94-1.44,2.22-1.47,7.23,1.16,12.67,2.44,5.06,6.17,8.55,8.91,9.35a1.34,1.34,0,0,0-.07.18c-1.67,4.28-3.74,8.39-5.77,12.52a19.27,19.27,0,0,0-1.3-8.35c-2.06-5.52-6.29-9-9.08-9.54-1.45,2.18-2.11,7,.08,12.61,2,5.16,5.43,8.86,8.11,9.84l-.22.48-4.24,8.79c-.55,1.16-1.19,2.27-1.85,3.37a16.89,16.89,0,0,0-1-8.59c-2-5.82-5.89-9.49-8.64-10.23-1.7,2-2,7.17-.3,12.82,1.54,5.21,4.68,9.1,7.3,10.27-.15.26-.32.52-.47.78h0l-6.8,11.2a20.21,20.21,0,0,0-.4-8.61c-1.52-5.87-5.09-9.75-7.81-10.69-1.84,1.9-2.84,6.82-1.32,12.68,1.41,5.45,4.39,9.6,6.92,10.92l-.28.45c-2.56,3.73-5.3,7.34-8,11a19.24,19.24,0,0,0,.35-8.5c-1-5.86-4.32-10-7-11.1-2,1.76-3.46,6.48-2.43,12.36,1,5.46,3.62,9.77,6.06,11.25l0,0h0l-5.85,7.81c-.87,1.08-1.8,2.11-2.73,3.13a16.43,16.43,0,0,0,.75-8.5c-.86-6.11-3.95-10.46-6.5-11.73-2.09,1.63-3.29,6.72-2.84,12.48.5,5.43,2.84,9.86,5.19,11.51l-.36.39-9.11,10a20.45,20.45,0,0,0,1.24-8.49c-.36-6.06-3.12-10.58-5.59-12-2.17,1.52-4.09,6.16-3.74,12.21.34,5.61,2.45,10.26,4.66,12.06l-.24.26L737.55,759a19.54,19.54,0,0,0,2-8.24c.12-6-2.3-10.62-4.69-12.24-2.32,1.31-4.65,5.7-4.77,11.68-.12,5.55,1.66,10.29,3.77,12.22l-.39.36c-2.43,2.16-4.77,4.43-7.27,6.51l-3,2.26a16.49,16.49,0,0,0,2.44-8.13c.33-6.17-1.85-11-4.11-12.79-2.33,1.24-4.53,6-5.26,11.64-.55,5.44.89,10.24,2.87,12.32l-.05,0h0l0,0-.65.49h0c-3.48,2.58-6.94,5.18-10.43,7.75a20.7,20.7,0,0,0,2.81-8.06c.81-6-1-11-3.17-12.89-2.41,1.08-5.19,5.27-6,11.29-.72,5.61.39,10.49,2.21,12.69l-.43.31-11.6,7.05a19.55,19.55,0,0,0,3.52-7.77c1.28-5.85-.2-10.88-2.23-12.93-2.53.85-5.65,4.72-6.92,10.56-1.18,5.44-.36,10.45,1.33,12.75l-.78.48h0c-2.54,1.52-5,3.17-7.67,4.5l-3.77,1.81a17.13,17.13,0,0,0,4-7.44c1.52-6,.32-11.21-1.55-13.36-2.48.85-5.64,4.88-7.45,10.34-1.59,5.24-1.12,10.24.42,12.66l-.47.23c-4.09,1.89-8.11,4-12.2,5.86a20.91,20.91,0,0,0,4.37-7.43c2-5.77,1.14-11-.6-13.28-2.57.59-6.1,4.17-8.07,9.94-1.78,5.4-1.7,10.28-.35,12.81l-.72.31c-4.17,1.45-8.3,3-12.45,4.57a19.48,19.48,0,0,0,5-7c2.4-5.5,1.93-10.73.34-13.13-2.64.34-6.45,3.53-8.84,9-2.23,5.12-2.39,10.2-1.17,12.79-4.49,1.62-9,3.14-13.62,4.38a17.51,17.51,0,0,0,5.63-6.6c2.66-5.6,2.5-11,1.09-13.42a9,9,0,0,0-4.57,2.62,22.81,22.81,0,0,0-4.77,6c-2.59,4.84-3.11,9.84-2.06,12.51h-.06c-4.51,1.1-9,2.36-13.48,3.46a21,21,0,0,0,5.74-6.44c3.06-5.27,3.27-10.57,2-13.14-2.64.08-6.8,2.9-9.86,8.17-2.82,5-3.69,9.78-2.85,12.52l-.51.11-13.43,2A19.39,19.39,0,0,0,591,826c3.43-4.92,4-10.13,2.91-12.8-2.65-.19-7,2.18-10.44,7.09-3.19,4.56-4.35,9.5-3.68,12.28h-.09l-.81.12h0c-2.93.44-5.86,1-8.81,1.25l-4.16.21a16.87,16.87,0,0,0,6.57-5.34c3.71-5,4.6-10.24,3.7-12.94-2.62-.21-7.08,2.4-10.85,6.72-3.48,4.2-5,9-4.48,11.82l-.52,0-13.51.67a20.63,20.63,0,0,0,6.88-5.15c4-4.55,5.28-9.7,4.55-12.47-2.61-.45-7.25,1.48-11.28,6-3.73,4.22-5.52,9-5.23,11.83l-.91,0V837l.92,0c-.32,2.86,1.46,7.51,5.73,11.35,4.56,4.12,10.1,5.54,13,4.81.47-2.83-1.69-7.81-6.26-11.92a20.93,20.93,0,0,0-7.5-4.48l13.75-.67.53,0c-.12,2.85,2,7.47,6.48,11.28,4.87,4.3,10.45,5,13.25,4,.27-2.88-2.19-7.64-7-11.29a26.45,26.45,0,0,0-7.76-4.23l4.3-.22c3.25-.31,6.47-.94,9.71-1.39h0c.07,2.87,2.44,7.28,7.18,10.64,5.09,3.61,10.79,4.45,13.55,3.44.09-2.86-2.7-7.56-7.79-11.17a22,22,0,0,0-8-3.66l13.54-2.07c.18,0,.35-.08.53-.12.23,2.86,2.92,7.28,7.84,10.13,5.28,3.12,11,3.41,13.65,2.12-.1-2.87-3.18-7.32-8.46-10.44a20.47,20.47,0,0,0-8.21-2.89c4.3-1,8.57-2.23,12.86-3.3h0c.3-.06.6-.14.89-.21.45,2.83,3.4,6.93,8.56,9.76a19.45,19.45,0,0,0,8.06,2.52,10.9,10.9,0,0,0,5.73-1.15c-.29-2.88-3.64-7.06-9.07-9.69a25,25,0,0,0-8.24-2.68c4.52-1.23,9-2.71,13.36-4.31.64,2.8,3.83,6.64,9.12,9,5.69,2.54,11.45,2.23,14,.68-.47-2.81-4.13-6.87-9.82-9.4a22.15,22.15,0,0,0-8.51-2c4.11-1.54,8.23-3.1,12.37-4.56h0l.11,0,.7-.25v0l.05,0c.78,2.74,4.3,6.59,9.7,8.41,5.78,2,11.44,1.19,13.8-.59-.66-2.8-4.56-6.55-10.35-8.58a20.32,20.32,0,0,0-8.62-1.22c4.16-1.93,8.24-4,12.4-6l.48-.23c1,2.68,4.68,6.14,10.31,7.9,6.13,2.06,11.59.64,13.78-1.38-.86-2.77-5-6.21-10.81-7.74a25.56,25.56,0,0,0-8.8-1l3.88-1.86c2.92-1.46,5.62-3.33,8.45-5h0l0,0c1.17,2.63,5,5.78,10.72,7.07,6.08,1.38,11.67,0,13.83-2-1-2.67-5.4-5.93-11.48-7.31a22.19,22.19,0,0,0-8.79-.32l11.71-7.11.44-.32c1.31,2.56,5.43,5.52,11.11,6.3,6.08.87,11.47-1,13.44-3.24-1.2-2.61-5.75-5.54-11.84-6.41a20.63,20.63,0,0,0-8.78.49c3.78-2.79,7.54-5.63,11.32-8.42l.13-.1c1.49,2.44,5.79,5.12,11.67,5.76,6.43.85,11.39-1.75,13.2-4.08-1.37-2.54-6.07-5.13-12.12-5.5a27.3,27.3,0,0,0-8.77.85l3.14-2.35c2.51-2.09,4.87-4.37,7.31-6.55l.39-.36c1.65,2.35,6.09,4.7,11.91,4.86,6.24.19,11.46-2.28,13.19-4.65-1.51-2.42-6.44-4.77-12.69-5a22.08,22.08,0,0,0-8.74,1.39l9.79-8.94,0,0,.38-.41.22-.2,0,0,.05,0c1.79,2.25,6.34,4.28,12.08,4,6.15-.32,11.09-3.22,12.6-5.75-1.68-2.33-6.72-4.33-12.87-4A21.05,21.05,0,0,0,752.3,747l9.26-10.17c.12-.13.25-.26.36-.39,1.94,2.1,6.68,3.89,12.58,3.4,6.42-.46,10.74-4,12.11-6.62-1.84-2.22-7-3.85-13-3.06a28.06,28.06,0,0,0-8.37,2.6c1-1.07,1.93-2.13,2.83-3.25l5.4-7.22.51-.68c2.07,2,6.88,3.42,12.64,2.47,6.16-1,10.86-4.42,12.06-7.11-2-2.08-7.21-3.4-13.41-2.39a22.3,22.3,0,0,0-8.28,3c2.75-3.64,5.5-7.28,8.08-11l.28-.45c2.21,1.84,7,3,12.63,1.55,6-1.5,10.28-5.3,11.28-8.07-2.09-2-7.43-2.93-13.42-1.44a21.45,21.45,0,0,0-7.89,3.68l6.87-11.3h0v0l.43-.71h0l0,0c2.3,1.69,7.31,2.53,13,.9,6-1.78,9.73-6,10.54-8.88-2.24-1.82-7.59-2.42-13.34-.48a26.79,26.79,0,0,0-7.6,4.17c.66-1.11,1.3-2.22,1.86-3.38l4.26-8.84c.07-.16.16-.32.23-.48,2.42,1.53,7.42,2,12.9,0,5.82-2.22,9.9-6.42,10.4-9.35-2.36-1.67-7.61-1.87-13.57.3a22.48,22.48,0,0,0-7.58,4.6c2-4,3.92-7.92,5.57-12l0,0,.25-.69a.61.61,0,0,0,.05-.12h0l0,0c2.52,1.38,7.5,1.52,12.71-.94,5.58-2.64,9.06-7.2,9.51-10.12-2.44-1.51-7.87-1.42-13.46,1.22a21.2,21.2,0,0,0-7.1,5.23c1.65-4.49,3.34-9,4.93-13.47C821.5,638.48,826.61,638.33,831.92,635.61Z"/><path class="cls-30" d="M540.85,836.91v-1.58l-.91,0c.29-2.84-1.5-7.62-5.23-11.83-4-4.55-8.67-6.49-11.28-6-.73,2.77.52,7.92,4.55,12.47a20.46,20.46,0,0,0,6.88,5.14l-13.51-.66-.53,0c.5-2.82-1-7.61-4.47-11.82-3.78-4.31-8.23-6.93-10.85-6.71-.91,2.7,0,8,3.7,12.93a16.82,16.82,0,0,0,6.57,5.35l-4.17-.21c-3-.29-5.87-.82-8.8-1.26h0l-.71-.1-.14,0h-.06c.68-2.78-.49-7.72-3.67-12.28-3.42-4.91-7.79-7.29-10.45-7.1-1.08,2.67-.51,7.89,2.92,12.8a19.54,19.54,0,0,0,6.24,5.82l-13.43-2-.51-.11c.83-2.74,0-7.57-2.85-12.53-3.06-5.26-7.22-8.09-9.86-8.17-1.25,2.58-1,7.87,2,13.15a21,21,0,0,0,5.74,6.43c-4.5-1.1-9-2.36-13.48-3.46v0h-.06c1.05-2.67.53-7.68-2.07-12.51a22.26,22.26,0,0,0-4.77-6,8.89,8.89,0,0,0-4.56-2.62c-1.41,2.46-1.57,7.82,1.09,13.41a17.58,17.58,0,0,0,5.62,6.6c-4.6-1.24-9.12-2.75-13.61-4.38,1.22-2.58,1.06-7.67-1.17-12.79-2.39-5.49-6.2-8.69-8.84-9-1.59,2.41-2.06,7.64.33,13.13a19.74,19.74,0,0,0,5,7c-4.14-1.55-8.27-3.12-12.44-4.58-.25-.09-.48-.21-.73-.31,1.36-2.53,1.44-7.4-.35-12.81-2-5.76-5.49-9.35-8.06-9.94-1.74,2.28-2.57,7.51-.6,13.28a21.18,21.18,0,0,0,4.36,7.44c-4.08-1.9-8.1-4-12.19-5.87l-.48-.23c1.54-2.42,2-7.42.42-12.65-1.8-5.46-5-9.49-7.44-10.34-1.87,2.14-3.07,7.36-1.56,13.36a17.4,17.4,0,0,0,4,7.44l-3.76-1.82c-2.65-1.32-5.13-3-7.67-4.5h0l-.78-.47c1.69-2.31,2.51-7.31,1.33-12.75-1.27-5.85-4.4-9.72-6.92-10.56-2,2-3.51,7.08-2.23,12.93a19.62,19.62,0,0,0,3.52,7.77l-11.61-7-.42-.31c1.82-2.2,2.93-7.09,2.2-12.69-.81-6-3.58-10.22-6-11.3-2.15,1.9-4,6.87-3.17,12.9a20.81,20.81,0,0,0,2.8,8c-3.48-2.56-6.94-5.17-10.42-7.74h0l-.73-.55c2-2.07,3.41-6.88,2.87-12.31-.73-5.69-2.93-10.4-5.26-11.64-2.26,1.74-4.44,6.61-4.11,12.78a16.5,16.5,0,0,0,2.44,8.14l-3-2.27c-2.49-2.08-4.83-4.34-7.26-6.51l-.39-.35c2.1-1.94,3.88-6.68,3.77-12.23-.12-6-2.45-10.36-4.77-11.68-2.39,1.62-4.81,6.27-4.69,12.24a19.44,19.44,0,0,0,1.95,8.25l-10.06-9.19-.23-.26c2.21-1.8,4.32-6.44,4.65-12,.36-6.06-1.56-10.7-3.73-12.22-2.48,1.45-5.23,6-5.59,12a20.27,20.27,0,0,0,1.24,8.49l-9.11-10-.36-.39c2.35-1.65,4.69-6.08,5.19-11.51.44-5.76-.75-10.86-2.84-12.49-2.56,1.27-5.64,5.63-6.5,11.73a16.36,16.36,0,0,0,.75,8.51c-.94-1-1.86-2.06-2.73-3.13L309,720.58h0l0,0c2.44-1.49,5.1-5.8,6.05-11.25,1-5.88-.44-10.6-2.42-12.37-2.66,1.12-6,5.24-7,11.1a19.3,19.3,0,0,0,.34,8.51c-2.73-3.62-5.46-7.24-8-11l-.27-.45c2.53-1.32,5.51-5.47,6.92-10.92,1.51-5.86.52-10.77-1.33-12.68-2.71.94-6.29,4.83-7.8,10.69a20.25,20.25,0,0,0-.4,8.62l-6.8-11.21h0l-.48-.78c2.63-1.16,5.77-5.05,7.31-10.26,1.72-5.65,1.4-10.81-.3-12.83-2.75.75-6.63,4.42-8.64,10.23a16.89,16.89,0,0,0-1,8.59c-.66-1.1-1.3-2.21-1.85-3.36l-4.24-8.79c-.07-.17-.15-.32-.23-.48,2.69-1,6.13-4.68,8.12-9.84,2.18-5.57,1.52-10.43.08-12.61-2.79.56-7,4-9.08,9.54a19.25,19.25,0,0,0-1.3,8.35c-2-4.14-4.11-8.25-5.78-12.54l-.06-.16c2.74-.81,6.47-4.29,8.91-9.35,2.62-5.45,2.6-10.45,1.16-12.68-2.85.39-7.11,3.5-9.74,9a20.17,20.17,0,0,0-2.06,8.26c-1.62-4.38-3.28-8.75-4.84-13.15,2.8-.63,6.64-3.82,9.15-8.63,2.88-5.22,3.52-10.32,2.27-12.64-2.85.19-7.37,3-10.48,8.33a17.41,17.41,0,0,0-2.66,7.91A123.56,123.56,0,0,1,259,619.21c-.49.18-1,.34-1.5.49a127,127,0,0,0,3.67,13,26.26,26.26,0,0,0-6.8-5.83c-5.27-3-10.63-3.5-13.18-2.15.22,3,3.05,7.83,8.55,10.79,5.29,2.72,10.38,2.87,13,1.67,1.6,4.5,3.3,9,4.95,13.44a21.38,21.38,0,0,0-7.09-5.22c-5.59-2.63-11-2.72-13.46-1.21.45,2.91,3.92,7.48,9.51,10.11,5.21,2.46,10.18,2.33,12.7.95l0,.05h0s0,.07,0,.11l.25.7h0c1.65,4.09,3.62,8,5.57,12a22.38,22.38,0,0,0-7.59-4.6c-5.95-2.18-11.2-2-13.56-.3.5,2.93,4.58,7.12,10.4,9.34,5.47,2.06,10.48,1.58,12.9,0,.07.16.15.32.23.48l4.26,8.84c.56,1.16,1.2,2.28,1.86,3.38a27,27,0,0,0-7.6-4.16c-5.76-1.95-11.1-1.35-13.34.48.81,2.83,4.49,7.1,10.54,8.88,5.7,1.63,10.72.79,13-.9l0,0h0l7.32,12a21.29,21.29,0,0,0-7.89-3.68c-6-1.5-11.33-.52-13.42,1.43,1,2.78,5.29,6.58,11.28,8.07,5.57,1.4,10.42.3,12.63-1.55l.27.46c2.58,3.75,5.34,7.39,8.08,11a22.31,22.31,0,0,0-8.27-3c-6.2-1-11.45.31-13.41,2.4,1.2,2.68,5.89,6.07,12.06,7.1,5.75,1,10.56-.49,12.64-2.47l.51.69,5.4,7.22c.9,1.11,1.86,2.18,2.83,3.24a28.45,28.45,0,0,0-8.37-2.59c-6-.8-11.14.83-13,3.06,1.37,2.6,5.69,6.16,12.11,6.61,5.9.5,10.64-1.29,12.57-3.4.12.13.25.26.36.4l9.27,10.16a21.22,21.22,0,0,0-8.48-2.12c-6.15-.31-11.2,1.68-12.87,4,1.51,2.53,6.45,5.44,12.59,5.75,5.75.3,10.3-1.74,12.09-4l0,0,0,0,.23.21.37.41,0,0,9.79,9a22.1,22.1,0,0,0-8.74-1.4c-6.25.18-11.19,2.54-12.69,5,1.73,2.37,6.94,4.83,13.19,4.65,5.82-.17,10.25-2.52,11.9-4.86l.4.36c2.44,2.17,4.79,4.45,7.3,6.54l3.15,2.35a27.62,27.62,0,0,0-8.78-.85c-6,.38-10.74,3-12.11,5.51,1.81,2.33,6.77,4.93,13.2,4.07,5.87-.64,10.18-3.31,11.67-5.75l0,0h0c3.82,2.81,7.59,5.67,11.41,8.48a20.79,20.79,0,0,0-8.78-.49c-6.09.87-10.65,3.8-11.84,6.42,2,2.2,7.36,4.11,13.44,3.24,5.68-.78,9.8-3.75,11.11-6.3l.44.32,11.71,7.11a22,22,0,0,0-8.79.31c-6.09,1.38-10.47,4.64-11.48,7.31,2.15,2,7.74,3.42,13.82,2,5.67-1.28,9.56-4.44,10.72-7.06l0,0h0c2.83,1.64,5.53,3.51,8.45,5l3.87,1.87a25.72,25.72,0,0,0-8.79.94c-5.85,1.53-9.95,5-10.81,7.74,2.19,2,7.65,3.45,13.78,1.39,5.63-1.77,9.33-5.23,10.31-7.91l.48.23c4.16,1.93,8.24,4,12.39,6a20.45,20.45,0,0,0-8.61,1.22c-5.79,2-9.69,5.79-10.35,8.58,2.36,1.79,8,2.62,13.8.59,5.4-1.82,8.92-5.67,9.69-8.41l.06,0,0,0,.71.25.1.05h0c4.14,1.45,8.25,3,12.37,4.55a22.15,22.15,0,0,0-8.51,2c-5.7,2.54-9.36,6.59-9.83,9.41,2.5,1.54,8.26,1.85,14-.68,5.29-2.36,8.48-6.2,9.12-9,4.4,1.59,8.84,3.08,13.36,4.31a25,25,0,0,0-8.24,2.67c-5.43,2.64-8.78,6.82-9.07,9.7a10.82,10.82,0,0,0,5.73,1.14,19.45,19.45,0,0,0,8.06-2.52c5.16-2.82,8.11-6.93,8.55-9.75l.9.21h0c4.29,1.06,8.56,2.25,12.85,3.3a20.45,20.45,0,0,0-8.2,2.88c-5.29,3.13-8.37,7.57-8.47,10.45,2.66,1.28,8.38,1,13.65-2.13,4.93-2.84,7.62-7.27,7.85-10.12l.52.12,13.55,2.06a22.06,22.06,0,0,0-8,3.67c-5.09,3.61-7.88,8.31-7.79,11.16,2.76,1,8.46.18,13.55-3.43,4.74-3.36,7.11-7.77,7.17-10.64h.06c3.24.45,6.46,1.07,9.71,1.39l4.3.21A26.92,26.92,0,0,0,508,839.9c-4.81,3.66-7.27,8.42-7,11.3,2.8,1,8.38.3,13.24-4,4.52-3.81,6.61-8.43,6.49-11.29l.53,0,13.74.67a21.11,21.11,0,0,0-7.49,4.48c-4.58,4.12-6.73,9.09-6.27,11.92,2.86.73,8.4-.69,13-4.8,4.27-3.85,6-8.5,5.73-11.36Z"/><path class="cls-31" d="M527.8,713.12a44.37,44.37,0,0,0-13.54-7.63c.33-.88.66-1.77,1-2.67,4.58-13.66,4.19-27.25-2.6-39.88-15.2-28.32-36.54-50.58-66.12-64.15-4.48-2-9.3-3.34-13.68-4.88,16.31.14,32.3,3.23,47.94,11.4-.47-15.71,3.64-29.31,13.21-41.12-1,5.65-2.27,11.1-2.83,16.62-1.75,17.19,3.65,32.38,13.95,45.9,7.21,9.47,14,19.12,19,30A77.51,77.51,0,0,1,527.8,713.12Z"/><path class="cls-32" d="M551.73,720.37c.15.34.29.7.46,1a34.58,34.58,0,0,0-2.16,4.25c0,.09-.09.2-.14.31a21.81,21.81,0,0,1-8.35,1.47,30.61,30.61,0,0,1-3.29-.17c-.06-.18-.14-.35-.21-.54A37.3,37.3,0,0,0,531,716.1a73.9,73.9,0,0,0,3.92-14.19c2.91-17.47-.43-33.94-8.24-49.55A135.07,135.07,0,0,0,515,633c-5.09-7-6.05-14.27-4.45-22.38,1.29-6.55,2.63-13.1,3.56-19.71,1.84-12.94-2.41-24.47-9-35.3-8.93-14.7-21.14-26.37-34.49-37-3.2-2.53-6.49-5-9.58-7.62,25.48,10.7,46.13,27.57,63.19,50.33,5.4-20.15,4.67-39.6,2.8-59.26,1,3,2.12,6,3.12,9.09s2,6.34,3,9.56A139.12,139.12,0,0,1,538.33,570a95.15,95.15,0,0,1-9.24,33.79,49.33,49.33,0,0,0-3.63,11.62c-.77,4,1.47,6.89,5.08,8.46a24.09,24.09,0,0,0,19.79.08c4.66-2,6.42-5.82,5-11.25a51.13,51.13,0,0,0-3.56-9.35c-9.06-18.34-10.66-37.76-8.64-57.73,1.48-14.71,5.62-28.74,10.55-42.57a12.34,12.34,0,0,1,.75-1.35c-2.3,19.88-2.94,39.36,2.38,59.68,17-22.73,37.65-39.68,63.38-50.12-2.16,1.54-4.37,3.05-6.49,4.67s-4.23,3.36-6.3,5.09c-10.73,8.91-20.58,18.64-28.67,30.12-11.31,16.07-14.89,33.31-9.76,52.48a60.53,60.53,0,0,1,1.84,17.84c-.12,3.49-2.07,7.28-4.14,10.27-9.13,13.13-16.71,26.89-20,42.76S545.35,705.62,551.73,720.37Z"/><path class="cls-33" d="M646.77,593.92c-6.44,2.84-14.78,5.76-22.42,10-19.73,10.93-34.85,27-47.87,45.16-5.43,7.58-9.9,15.69-12.14,24.83-2.78,11.39-1.33,22.42,3,33.14a39,39,0,0,0-12.61,10.57c-1.57-5.42-3.06-10.88-4.12-16.39-3.37-17.25.36-33.77,8.68-49.05a194.36,194.36,0,0,1,14.78-22.73c7.6-10.21,13.54-21,15.48-33.73a65.67,65.67,0,0,0-2-28.18,14.71,14.71,0,0,1-.62-3.13c9.72,11.61,13.81,25.16,13.38,40.86A101.89,101.89,0,0,1,646.77,593.92Z"/><path class="cls-34" d="M569.52,532a10,10,0,0,0,10.27-10.13,10.36,10.36,0,0,0-10.25-10.3,10.1,10.1,0,0,0-10.16,10.29A9.78,9.78,0,0,0,569.52,532Z"/><path class="cls-35" d="M466.22,591.46a9.8,9.8,0,0,0,10.12-10.19,10,10,0,0,0-10.18-10.21,10.37,10.37,0,0,0-10.26,10.27A10.12,10.12,0,0,0,466.22,591.46Z"/><path class="cls-36" d="M501.27,521.8A10,10,0,0,0,511.53,532a9.78,9.78,0,0,0,10.12-9.91,10,10,0,0,0-10-10.5A10.43,10.43,0,0,0,501.27,521.8Z"/><path class="cls-37" d="M614.73,571.07a10,10,0,0,0-10,10.34A9.81,9.81,0,0,0,615,591.46a10.13,10.13,0,0,0,10.17-10.27A10.29,10.29,0,0,0,614.73,571.07Z"/><path class="cls-38" d="M539.86,454.18a20.35,20.35,0,0,1,2.12,2.51,27.1,27.1,0,0,1,1.61,2.51,28.87,28.87,0,0,1,2.26,5,31.34,31.34,0,0,1,1.63,10,30.77,30.77,0,0,1-1.61,10,29.21,29.21,0,0,1-2.26,5,27.25,27.25,0,0,1-1.62,2.51,20.47,20.47,0,0,1-2.13,2.51,20.47,20.47,0,0,1-2.13-2.51,27.25,27.25,0,0,1-1.62-2.51,28.4,28.4,0,0,1-2.25-5,30.52,30.52,0,0,1-1.62-10,31.08,31.08,0,0,1,1.64-10,28.81,28.81,0,0,1,2.25-5,29.36,29.36,0,0,1,1.61-2.51A20.35,20.35,0,0,1,539.86,454.18Z"/><path class="cls-39" d="M539.86,408.39A19,19,0,0,1,542,410.9a27,27,0,0,1,1.61,2.5,29.55,29.55,0,0,1,2.26,5,31.34,31.34,0,0,1,1.63,10,30.82,30.82,0,0,1-1.61,10,29.12,29.12,0,0,1-2.26,5A26,26,0,0,1,542,446a19.75,19.75,0,0,1-2.13,2.51,19.75,19.75,0,0,1-2.13-2.51,26,26,0,0,1-1.62-2.51,28.31,28.31,0,0,1-2.25-5,30.57,30.57,0,0,1-1.62-10,31.08,31.08,0,0,1,1.64-10,28.14,28.14,0,0,1,3.86-7.52A19,19,0,0,1,539.86,408.39Z"/><path class="cls-40" d="M572.93,466.65a20.15,20.15,0,0,0-3.24.52,25.87,25.87,0,0,0-2.86.86,28.92,28.92,0,0,0-5,2.34,31.73,31.73,0,0,0-13.08,15.21,28.23,28.23,0,0,0-1.55,5.28,26.73,26.73,0,0,0-.41,3,19,19,0,0,0,0,3.29,19.38,19.38,0,0,0,3.25-.52,28.25,28.25,0,0,0,7.84-3.19,31.73,31.73,0,0,0,13.05-15.24,29.82,29.82,0,0,0,1.55-5.28,24.38,24.38,0,0,0,.41-2.95A19.79,19.79,0,0,0,572.93,466.65Z"/><path class="cls-41" d="M650,438a19.78,19.78,0,0,0-3.25-.43,27.11,27.11,0,0,0-3,0,28.29,28.29,0,0,0-5.43.81,31.8,31.8,0,0,0-16.91,10.82,28.38,28.38,0,0,0-3,4.61,27.07,27.07,0,0,0-1.24,2.71,20.89,20.89,0,0,0-1,3.15,20.1,20.1,0,0,0,3.26.44,27.17,27.17,0,0,0,3,0,29.92,29.92,0,0,0,5.44-.81,31.74,31.74,0,0,0,16.88-10.86,28.72,28.72,0,0,0,3-4.6,25.91,25.91,0,0,0,1.24-2.71A20,20,0,0,0,650,438Z"/><path class="cls-42" d="M599.82,428.45a20.49,20.49,0,0,0-3.24.53,28,28,0,0,0-2.85.85,29.71,29.71,0,0,0-5,2.35,31.82,31.82,0,0,0-13.08,15.22,30,30,0,0,0-1.55,5.27,27.09,27.09,0,0,0-.4,3,20,20,0,0,0,0,3.29,19.22,19.22,0,0,0,3.25-.52,26.05,26.05,0,0,0,2.87-.85,29.17,29.17,0,0,0,5-2.34,30.75,30.75,0,0,0,7.76-6.56,31.5,31.5,0,0,0,5.29-8.68,28.79,28.79,0,0,0,2-8.23A20,20,0,0,0,599.82,428.45Z"/><path class="cls-43" d="M565.43,428.45a19.91,19.91,0,0,0-2.79,1.74,26.05,26.05,0,0,0-2.3,1.89,29.15,29.15,0,0,0-3.69,4.09,31.69,31.69,0,0,0-6.18,19.09,29.26,29.26,0,0,0,.61,5.46,27.56,27.56,0,0,0,.77,2.89,19.86,19.86,0,0,0,1.26,3,21.67,21.67,0,0,0,2.8-1.73,27.67,27.67,0,0,0,2.3-1.9,28,28,0,0,0,3.69-4.08,30.54,30.54,0,0,0,4.62-9.05A31,31,0,0,0,568,439.84a30.1,30.1,0,0,0-.6-5.47,28.07,28.07,0,0,0-.77-2.88A19.67,19.67,0,0,0,565.43,428.45Z"/><path class="cls-44" d="M590.13,398.46a19.52,19.52,0,0,0-3,1.41,26.86,26.86,0,0,0-2.5,1.62,29.29,29.29,0,0,0-4.13,3.63,31.66,31.66,0,0,0-5.64,8.46,31,31,0,0,0-2.67,9.81,29.65,29.65,0,0,0,0,5.5,27,27,0,0,0,.44,2.95,19.55,19.55,0,0,0,.9,3.16,20.11,20.11,0,0,0,3-1.4A25.77,25.77,0,0,0,579,432a28.75,28.75,0,0,0,4.13-3.63,31,31,0,0,0,5.62-8.47,31.36,31.36,0,0,0,2.65-9.81,28.82,28.82,0,0,0,0-5.5,24.41,24.41,0,0,0-.43-2.95A19.47,19.47,0,0,0,590.13,398.46Z"/><path class="cls-45" d="M562.26,384.3a19.61,19.61,0,0,0-2.63,2,29,29,0,0,0-5.43,6.48,31.77,31.77,0,0,0-4.47,19.56,28.32,28.32,0,0,0,1.09,5.39,29.05,29.05,0,0,0,1,2.81,20,20,0,0,0,1.53,2.91,19.37,19.37,0,0,0,2.63-2,28.53,28.53,0,0,0,5.44-6.48,30.58,30.58,0,0,0,3.8-9.42,31.18,31.18,0,0,0,.63-10.15,30,30,0,0,0-1.09-5.39,27.85,27.85,0,0,0-1-2.8A19.39,19.39,0,0,0,562.26,384.3Z"/><path class="cls-46" d="M636.38,467.37a20.15,20.15,0,0,0-3.09-1.13,27.85,27.85,0,0,0-2.9-.66,29.79,29.79,0,0,0-5.49-.4,31.19,31.19,0,0,0-10,1.9A30.79,30.79,0,0,0,606,472a28.43,28.43,0,0,0-3.94,3.84,27,27,0,0,0-1.81,2.38,19.69,19.69,0,0,0-1.62,2.86,20.15,20.15,0,0,0,3.08,1.14,28.61,28.61,0,0,0,2.91.66,29.82,29.82,0,0,0,5.49.41,30.82,30.82,0,0,0,10-1.92,31.23,31.23,0,0,0,8.87-5,30.22,30.22,0,0,0,3.94-3.84,26.28,26.28,0,0,0,1.8-2.37A20.14,20.14,0,0,0,636.38,467.37Z"/><path class="cls-47" d="M608.69,454.85a19.92,19.92,0,0,0-3.27-.24,26.11,26.11,0,0,0-3,.17,29,29,0,0,0-5.38,1.13,31.78,31.78,0,0,0-16.25,11.77,29.77,29.77,0,0,0-2.73,4.78,28.22,28.22,0,0,0-1.08,2.78,20,20,0,0,0-.77,3.2,20.1,20.1,0,0,0,3.28.25,26.11,26.11,0,0,0,3-.17,28.78,28.78,0,0,0,5.38-1.12,30.74,30.74,0,0,0,9.07-4.59,31.27,31.27,0,0,0,7.16-7.22,30.9,30.9,0,0,0,2.73-4.77,26.78,26.78,0,0,0,1.08-2.78A18.85,18.85,0,0,0,608.69,454.85Z"/><path class="cls-48" d="M628.61,417.68a19.57,19.57,0,0,0-3.25.46,29.23,29.23,0,0,0-2.87.81,28.73,28.73,0,0,0-5,2.25,31.15,31.15,0,0,0-7.89,6.4,30.71,30.71,0,0,0-5.46,8.57,28.76,28.76,0,0,0-1.65,5.25,26.38,26.38,0,0,0-.46,2.95,19.65,19.65,0,0,0-.08,3.29,19.54,19.54,0,0,0,3.26-.46,26.26,26.26,0,0,0,2.88-.8,28.71,28.71,0,0,0,5-2.24,31.65,31.65,0,0,0,13.32-15,28.91,28.91,0,0,0,1.65-5.24,29.33,29.33,0,0,0,.47-3A19.53,19.53,0,0,0,628.61,417.68Z"/><path class="cls-49" d="M622.56,389.89a18.93,18.93,0,0,0-3.18.81c-1,.33-1.89.7-2.77,1.1a29.59,29.59,0,0,0-4.75,2.77,31.23,31.23,0,0,0-7.16,7.22,30.73,30.73,0,0,0-4.51,9.1,29,29,0,0,0-1.08,5.4,26,26,0,0,0-.14,3,19.31,19.31,0,0,0,.27,3.28,19.54,19.54,0,0,0,3.19-.81,26.81,26.81,0,0,0,2.78-1.1,29.16,29.16,0,0,0,4.75-2.77,30.79,30.79,0,0,0,7.15-7.22,31.17,31.17,0,0,0,4.49-9.12,29.07,29.07,0,0,0,1.08-5.39,26.19,26.19,0,0,0,.15-3A19,19,0,0,0,622.56,389.89Z"/><path class="cls-50" d="M591.22,365.08a20.94,20.94,0,0,0-3,1.34,28.11,28.11,0,0,0-2.54,1.56,29.65,29.65,0,0,0-4.21,3.55,31.71,31.71,0,0,0-8.73,18.06,29.39,29.39,0,0,0-.14,5.5,28.82,28.82,0,0,0,.37,3,20.35,20.35,0,0,0,.83,3.19,19.48,19.48,0,0,0,3-1.34,28.07,28.07,0,0,0,2.54-1.55,29.15,29.15,0,0,0,4.22-3.54,31.68,31.68,0,0,0,8.68-18.09,28.52,28.52,0,0,0,.15-5.5,29.08,29.08,0,0,0-.36-3A20.16,20.16,0,0,0,591.22,365.08Z"/><path class="cls-51" d="M541.25,362.18a20.1,20.1,0,0,0-2.29,2.35,26.91,26.91,0,0,0-1.79,2.38,29,29,0,0,0-2.61,4.84,31.26,31.26,0,0,0-2.37,9.89,30.71,30.71,0,0,0,.89,10.12,29.13,29.13,0,0,0,1.88,5.17,29.55,29.55,0,0,0,1.43,2.62,19.27,19.27,0,0,0,2,2.65,19.39,19.39,0,0,0,2.3-2.34,27.17,27.17,0,0,0,1.8-2.39,29,29,0,0,0,2.62-4.83,31.72,31.72,0,0,0,1.43-20,29.13,29.13,0,0,0-1.88-5.17,27,27,0,0,0-1.42-2.62A19.78,19.78,0,0,0,541.25,362.18Z"/><path class="cls-52" d="M662.13,406.8a20.78,20.78,0,0,0-3.28.06,29.84,29.84,0,0,0-3,.45,28.74,28.74,0,0,0-5.25,1.62,31.7,31.7,0,0,0-15.09,13.23,29.08,29.08,0,0,0-2.27,5,26.06,26.06,0,0,0-.82,2.87,20.73,20.73,0,0,0-.48,3.26,19.86,19.86,0,0,0,3.3-.06,24.91,24.91,0,0,0,3-.44,29.09,29.09,0,0,0,5.26-1.62,30.65,30.65,0,0,0,8.6-5.41,31.16,31.16,0,0,0,6.45-7.85,28.71,28.71,0,0,0,3.1-7.87A19.5,19.5,0,0,0,662.13,406.8Z"/><path class="cls-53" d="M679.12,448a19.72,19.72,0,0,0-3.1-1.07,27.57,27.57,0,0,0-2.92-.6,29.5,29.5,0,0,0-5.49-.29,31.2,31.2,0,0,0-10,2.1,30.87,30.87,0,0,0-8.77,5.13,28.68,28.68,0,0,0-3.86,3.92,28.22,28.22,0,0,0-1.76,2.41,19.72,19.72,0,0,0-1.57,2.9,20.27,20.27,0,0,0,3.11,1.08,27.57,27.57,0,0,0,2.92.6,28.77,28.77,0,0,0,5.5.29,30.88,30.88,0,0,0,9.94-2.11,31.31,31.31,0,0,0,8.76-5.16,28.6,28.6,0,0,0,3.86-3.91,26.72,26.72,0,0,0,1.76-2.41A19.47,19.47,0,0,0,679.12,448Z"/><path class="cls-54" d="M507.08,466.65a20.33,20.33,0,0,1,3.24.52,26.54,26.54,0,0,1,2.86.86,29.17,29.17,0,0,1,5,2.34,31.68,31.68,0,0,1,13.09,15.21,29.82,29.82,0,0,1,1.55,5.28,29.33,29.33,0,0,1,.41,3,21.17,21.17,0,0,1,0,3.29,19.38,19.38,0,0,1-3.25-.52,28.25,28.25,0,0,1-7.84-3.19,30.75,30.75,0,0,1-7.76-6.56,31.21,31.21,0,0,1-5.29-8.68,28.47,28.47,0,0,1-2-8.23A19.83,19.83,0,0,1,507.08,466.65Z"/><path class="cls-55" d="M430,438a20,20,0,0,1,3.26-.43,26.92,26.92,0,0,1,3,0,28.27,28.27,0,0,1,5.44.81,31.13,31.13,0,0,1,9.33,4,30.7,30.7,0,0,1,7.57,6.78,29.1,29.1,0,0,1,3,4.61,27,27,0,0,1,1.23,2.71,18.82,18.82,0,0,1,1,3.15,19.81,19.81,0,0,1-3.26.44,27,27,0,0,1-3,0,29.92,29.92,0,0,1-5.44-.81,31.74,31.74,0,0,1-16.88-10.86,29.46,29.46,0,0,1-3-4.6c-.44-.86-.86-1.75-1.24-2.71A21.1,21.1,0,0,1,430,438Z"/><path class="cls-56" d="M410.48,477.05a20.12,20.12,0,0,1,2.95-1.46,27.62,27.62,0,0,1,2.82-1,29,29,0,0,1,5.41-1,31.25,31.25,0,0,1,10.13.82,30.89,30.89,0,0,1,9.35,4,29.35,29.35,0,0,1,4.33,3.4,26.75,26.75,0,0,1,2,2.17,21.33,21.33,0,0,1,1.92,2.67,19.27,19.27,0,0,1-2.95,1.47,26.21,26.21,0,0,1-2.82,1,29,29,0,0,1-5.41,1,30.7,30.7,0,0,1-10.13-.84,31.42,31.42,0,0,1-9.35-4,29.81,29.81,0,0,1-4.32-3.4,28.33,28.33,0,0,1-2-2.16A20.26,20.26,0,0,1,410.48,477.05Z"/><path class="cls-57" d="M480.18,428.45a20.3,20.3,0,0,1,3.24.53,29,29,0,0,1,2.86.85,29.6,29.6,0,0,1,5,2.35,31.17,31.17,0,0,1,7.78,6.55,30.8,30.8,0,0,1,5.3,8.67,28.35,28.35,0,0,1,1.55,5.27,29.74,29.74,0,0,1,.41,3,20,20,0,0,1,0,3.29,19.38,19.38,0,0,1-3.25-.52,26.53,26.53,0,0,1-2.86-.85,28.92,28.92,0,0,1-5-2.34,31.1,31.1,0,0,1-7.76-6.56,31.47,31.47,0,0,1-5.28-8.68,29,29,0,0,1-1.56-5.28,29.53,29.53,0,0,1-.41-2.95A20,20,0,0,1,480.18,428.45Z"/><path class="cls-58" d="M514.58,428.45a20.51,20.51,0,0,1,2.79,1.74,27.6,27.6,0,0,1,2.3,1.89,29.06,29.06,0,0,1,3.68,4.09,31.78,31.78,0,0,1,6.19,19.09,29.26,29.26,0,0,1-.61,5.46,27.56,27.56,0,0,1-.77,2.89,20.92,20.92,0,0,1-1.26,3,21,21,0,0,1-2.8-1.73,27.85,27.85,0,0,1-2.31-1.9,28.54,28.54,0,0,1-3.69-4.08,31.61,31.61,0,0,1-6.13-19.1,28.42,28.42,0,0,1,.6-5.47c.2-.94.45-1.9.76-2.88A20.82,20.82,0,0,1,514.58,428.45Z"/><path class="cls-59" d="M489.88,398.46a19.85,19.85,0,0,1,3,1.41,25.77,25.77,0,0,1,2.51,1.62,29.2,29.2,0,0,1,4.12,3.63,31.19,31.19,0,0,1,5.64,8.46,30.72,30.72,0,0,1,2.68,9.81,28.83,28.83,0,0,1,0,5.5,26.92,26.92,0,0,1-.43,2.95,20.71,20.71,0,0,1-.91,3.16,19.51,19.51,0,0,1-3-1.4A25.77,25.77,0,0,1,501,432a28.75,28.75,0,0,1-4.13-3.63,30.78,30.78,0,0,1-5.62-8.47,31.37,31.37,0,0,1-2.66-9.81,29.66,29.66,0,0,1,0-5.5,29.16,29.16,0,0,1,.43-2.95A19.55,19.55,0,0,1,489.88,398.46Z"/><path class="cls-60" d="M517.75,384.3a20.14,20.14,0,0,1,2.62,2,26.41,26.41,0,0,1,2.13,2.09,29.55,29.55,0,0,1,3.31,4.39,31.77,31.77,0,0,1,4.47,19.56,29.16,29.16,0,0,1-1.1,5.39,26.62,26.62,0,0,1-1,2.81,19,19,0,0,1-1.52,2.91,18.77,18.77,0,0,1-2.63-2,26.57,26.57,0,0,1-2.14-2.09,29.55,29.55,0,0,1-3.31-4.39,31.66,31.66,0,0,1-4.42-19.57,29.08,29.08,0,0,1,1.08-5.39,28,28,0,0,1,1-2.8A19.39,19.39,0,0,1,517.75,384.3Z"/><path class="cls-61" d="M443.63,467.37a20.44,20.44,0,0,1,3.08-1.13,27.45,27.45,0,0,1,2.91-.66,29.79,29.79,0,0,1,5.49-.4A31.86,31.86,0,0,1,474,472a29.59,29.59,0,0,1,3.94,3.84,26.91,26.91,0,0,1,1.8,2.38,19.7,19.7,0,0,1,1.63,2.86,20.24,20.24,0,0,1-3.09,1.14,27.45,27.45,0,0,1-2.91.66,29.72,29.72,0,0,1-5.48.41A31.77,31.77,0,0,1,451,476.43a29,29,0,0,1-3.94-3.84,26.35,26.35,0,0,1-1.81-2.37A20.12,20.12,0,0,1,443.63,467.37Z"/><path class="cls-62" d="M423.63,501.9a14.73,14.73,0,0,1,1.93-1.43,21.55,21.55,0,0,1,1.91-1.06,21.19,21.19,0,0,1,3.77-1.41,23.18,23.18,0,0,1,14.68.91,22,22,0,0,1,3.57,1.89c.58.39,1.17.82,1.75,1.3a13.61,13.61,0,0,1,1.74,1.68,14.84,14.84,0,0,1-1.93,1.44,21.15,21.15,0,0,1-5.69,2.48,23.16,23.16,0,0,1-14.67-.95,21.15,21.15,0,0,1-3.57-1.88c-.59-.39-1.17-.82-1.76-1.3A14.13,14.13,0,0,1,423.63,501.9Z"/><path class="cls-63" d="M471.31,454.85a20.12,20.12,0,0,1,3.28-.24,25.8,25.8,0,0,1,3,.17,29.06,29.06,0,0,1,5.39,1.13,31.7,31.7,0,0,1,16.24,11.77,29,29,0,0,1,2.73,4.78,25.93,25.93,0,0,1,1.08,2.78,20,20,0,0,1,.78,3.2,20.26,20.26,0,0,1-3.28.25,25.85,25.85,0,0,1-3-.17,29.06,29.06,0,0,1-5.39-1.12,31.72,31.72,0,0,1-16.22-11.81,29,29,0,0,1-3.82-7.55A21,21,0,0,1,471.31,454.85Z"/><path class="cls-64" d="M461.15,492.34a20.28,20.28,0,0,1,2.77-1.77,28.33,28.33,0,0,1,2.7-1.26,28.63,28.63,0,0,1,5.27-1.57,31.79,31.79,0,0,1,19.89,2.62,29.62,29.62,0,0,1,4.67,2.9,28.64,28.64,0,0,1,2.28,1.94,20.42,20.42,0,0,1,2.2,2.44,19.47,19.47,0,0,1-2.77,1.78,25.24,25.24,0,0,1-2.7,1.27,27.92,27.92,0,0,1-5.27,1.58,31.67,31.67,0,0,1-19.88-2.67,28.55,28.55,0,0,1-4.68-2.9,28.2,28.2,0,0,1-2.27-1.92A20.46,20.46,0,0,1,461.15,492.34Z"/><path class="cls-65" d="M451.39,417.68a19.57,19.57,0,0,1,3.25.46,29.44,29.44,0,0,1,2.88.81,28.63,28.63,0,0,1,5,2.25,31.64,31.64,0,0,1,13.36,15,28.36,28.36,0,0,1,2.11,8.2,19.7,19.7,0,0,1,.07,3.29,19.84,19.84,0,0,1-3.26-.46,26.71,26.71,0,0,1-2.87-.8,28.38,28.38,0,0,1-5-2.24,31.74,31.74,0,0,1-13.33-15,30.57,30.57,0,0,1-1.65-5.24,26.75,26.75,0,0,1-.46-3A20.59,20.59,0,0,1,451.39,417.68Z"/><path class="cls-66" d="M457.44,389.89a18.45,18.45,0,0,1,3.18.81,28,28,0,0,1,2.77,1.1,29.16,29.16,0,0,1,4.75,2.77,31.73,31.73,0,0,1,11.68,16.32,29,29,0,0,1,1.08,5.4,26,26,0,0,1,.14,3,19.37,19.37,0,0,1-.28,3.28,19.8,19.8,0,0,1-3.19-.81,25.77,25.77,0,0,1-2.77-1.1,28.74,28.74,0,0,1-4.75-2.77,30.79,30.79,0,0,1-7.15-7.22,31.19,31.19,0,0,1-4.5-9.12,29.07,29.07,0,0,1-1.08-5.39,28.71,28.71,0,0,1-.15-3A21.28,21.28,0,0,1,457.44,389.89Z"/><path class="cls-67" d="M488.79,365.08a21.45,21.45,0,0,1,3,1.34,29.58,29.58,0,0,1,2.54,1.56,29,29,0,0,1,4.2,3.55,31.71,31.71,0,0,1,8.73,18.06,28,28,0,0,1-.22,8.46,20.35,20.35,0,0,1-.83,3.19,18.66,18.66,0,0,1-3-1.34,28.26,28.26,0,0,1-2.55-1.55,29.6,29.6,0,0,1-4.21-3.54,31.78,31.78,0,0,1-8.69-18.09,29.36,29.36,0,0,1-.14-5.5,26.5,26.5,0,0,1,.36-3A20.16,20.16,0,0,1,488.79,365.08Z"/><path class="cls-68" d="M417.87,406.8a20.91,20.91,0,0,1,3.29.06,29.19,29.19,0,0,1,2.94.45,28.84,28.84,0,0,1,5.26,1.62,31.74,31.74,0,0,1,15.08,13.23,29.1,29.1,0,0,1,2.28,5,26.07,26.07,0,0,1,.81,2.87,18.63,18.63,0,0,1,.48,3.26,19.74,19.74,0,0,1-3.29-.06,24.31,24.31,0,0,1-3-.44,28.84,28.84,0,0,1-5.26-1.62,30.5,30.5,0,0,1-8.6-5.41,31,31,0,0,1-6.45-7.85,28.36,28.36,0,0,1-2.28-5,26.52,26.52,0,0,1-.82-2.86A19.47,19.47,0,0,1,417.87,406.8Z"/><path class="cls-69" d="M400.88,448a20.18,20.18,0,0,1,3.11-1.07,26.58,26.58,0,0,1,2.92-.6,29.45,29.45,0,0,1,5.49-.29,31.26,31.26,0,0,1,10,2.1,30.87,30.87,0,0,1,8.77,5.13,29.88,29.88,0,0,1,3.86,3.92,28.15,28.15,0,0,1,1.75,2.41,19.72,19.72,0,0,1,1.57,2.9,19.56,19.56,0,0,1-3.11,1.08,27.07,27.07,0,0,1-2.92.6,28.66,28.66,0,0,1-5.49.29,31.59,31.59,0,0,1-18.7-7.27,28.42,28.42,0,0,1-5.63-6.32A20.44,20.44,0,0,1,400.88,448Z"/><path class="cls-70" d="M386.46,416.22a19.47,19.47,0,0,1,3.24-.58,27.54,27.54,0,0,1,3-.14,29.8,29.8,0,0,1,5.47.56,31.75,31.75,0,0,1,17.38,10,29.2,29.2,0,0,1,3.22,4.47,28.55,28.55,0,0,1,1.36,2.65,21.15,21.15,0,0,1,1.1,3.1,19.54,19.54,0,0,1-3.24.59,27.79,27.79,0,0,1-3,.15,29.89,29.89,0,0,1-5.47-.56,31.76,31.76,0,0,1-17.36-10.07,29.56,29.56,0,0,1-3.21-4.46,26.34,26.34,0,0,1-1.37-2.65A21,21,0,0,1,386.46,416.22Z"/><path class="cls-71" d="M425.78,377a18.73,18.73,0,0,1,3.22.64,25.2,25.2,0,0,1,2.82.95,29.14,29.14,0,0,1,4.89,2.51,31.31,31.31,0,0,1,7.55,6.82,30.82,30.82,0,0,1,5,8.85,28.87,28.87,0,0,1,1.37,5.33,27.63,27.63,0,0,1,.3,3,19.52,19.52,0,0,1-.1,3.29,19.67,19.67,0,0,1-3.23-.63c-1-.28-1.93-.6-2.83-.95a29.93,29.93,0,0,1-4.89-2.51,31.78,31.78,0,0,1-12.51-15.7,29.8,29.8,0,0,1-1.37-5.32,27.63,27.63,0,0,1-.3-3A19.32,19.32,0,0,1,425.78,377Z"/><path class="cls-72" d="M459,353.55a19.93,19.93,0,0,1,3.09,1.09,27.52,27.52,0,0,1,2.66,1.35,28.51,28.51,0,0,1,4.48,3.19,31.25,31.25,0,0,1,6.49,7.83,30.81,30.81,0,0,1,3.67,9.47,28.21,28.21,0,0,1,.59,5.47,27.66,27.66,0,0,1-.13,3,18.27,18.27,0,0,1-.57,3.24,19.7,19.7,0,0,1-3.1-1.08,28.93,28.93,0,0,1-2.67-1.35,28.51,28.51,0,0,1-4.48-3.19,30.82,30.82,0,0,1-6.47-7.84,31.21,31.21,0,0,1-3.66-9.48,29.85,29.85,0,0,1-.59-5.47,27.77,27.77,0,0,1,.13-3A19.23,19.23,0,0,1,459,353.55Z"/><path class="cls-73" d="M511.08,333.69a20.59,20.59,0,0,1,2.46,2.18,28.71,28.71,0,0,1,4.9,6.89,31.74,31.74,0,0,1,2.92,19.85,28.74,28.74,0,0,1-1.51,5.29,29.53,29.53,0,0,1-1.24,2.72,20.76,20.76,0,0,1-1.75,2.78,19.83,19.83,0,0,1-2.47-2.17,26.71,26.71,0,0,1-2-2.25,29.13,29.13,0,0,1-3-4.64,30.74,30.74,0,0,1-3-9.69,31.07,31.07,0,0,1,.17-10.17,28.74,28.74,0,0,1,1.51-5.29,29.24,29.24,0,0,1,1.23-2.71A20.11,20.11,0,0,1,511.08,333.69Z"/><path class="cls-74" d="M365.67,462.3a19.06,19.06,0,0,1,2.91-1.53,26.59,26.59,0,0,1,2.8-1,30,30,0,0,1,5.38-1.12,31.19,31.19,0,0,1,10.15.58,30.86,30.86,0,0,1,9.45,3.75,28.68,28.68,0,0,1,4.41,3.29,26.34,26.34,0,0,1,2.1,2.12,20.14,20.14,0,0,1,2,2.62,20.09,20.09,0,0,1-2.91,1.54,25.79,25.79,0,0,1-2.8,1,28.35,28.35,0,0,1-5.38,1.12,30.65,30.65,0,0,1-10.15-.59,31.22,31.22,0,0,1-9.44-3.77,29.35,29.35,0,0,1-4.41-3.29,27.91,27.91,0,0,1-2.1-2.11A20.75,20.75,0,0,1,365.67,462.3Z"/><path class="cls-75" d="M377.46,492.9a20,20,0,0,1,2.47-2.16,26,26,0,0,1,2.48-1.65,28.22,28.22,0,0,1,5-2.34,31.71,31.71,0,0,1,20.07-.38,29.23,29.23,0,0,1,5.05,2.17,26.89,26.89,0,0,1,2.54,1.57,19.47,19.47,0,0,1,2.54,2.09,19.4,19.4,0,0,1-2.47,2.18,26.15,26.15,0,0,1-2.48,1.66,28.22,28.22,0,0,1-5,2.34,31.8,31.8,0,0,1-20.07.33,30,30,0,0,1-5-2.16A26.89,26.89,0,0,1,380,495,20,20,0,0,1,377.46,492.9Z"/><path class="cls-76" d="M353.19,437.43a19.69,19.69,0,0,1,3-1.38,27.88,27.88,0,0,1,2.84-.88,29.71,29.71,0,0,1,5.44-.84,31.31,31.31,0,0,1,10.1,1.1,30.94,30.94,0,0,1,9.24,4.23,29.66,29.66,0,0,1,4.24,3.51,28.81,28.81,0,0,1,2,2.23,19.87,19.87,0,0,1,1.85,2.72,19.7,19.7,0,0,1-3,1.39,28.43,28.43,0,0,1-8.29,1.73,31.79,31.79,0,0,1-19.33-5.37,28.61,28.61,0,0,1-6.23-5.73A20,20,0,0,1,353.19,437.43Z"/><path class="cls-77" d="M669.24,477.05a20.12,20.12,0,0,0-3-1.46,27.62,27.62,0,0,0-2.82-1,29,29,0,0,0-5.41-1,31.27,31.27,0,0,0-10.13.82,30.89,30.89,0,0,0-9.35,4,29.88,29.88,0,0,0-4.33,3.4,25,25,0,0,0-2,2.17,20.39,20.39,0,0,0-1.93,2.67,19.27,19.27,0,0,0,3,1.47,27,27,0,0,0,2.82,1,29.25,29.25,0,0,0,5.42,1,30.66,30.66,0,0,0,10.12-.84,31.2,31.2,0,0,0,9.35-4,29.88,29.88,0,0,0,4.33-3.4,28.25,28.25,0,0,0,2-2.16A20.26,20.26,0,0,0,669.24,477.05Z"/><path class="cls-78" d="M652.23,501.81a15.93,15.93,0,0,0-2.12-1.58,22.06,22.06,0,0,0-2.1-1.17,24.22,24.22,0,0,0-4.15-1.55,25.5,25.5,0,0,0-16.15,1,23.54,23.54,0,0,0-3.92,2.07,22.3,22.3,0,0,0-1.93,1.43,17.17,17.17,0,0,0-1.91,1.84,15.27,15.27,0,0,0,2.13,1.59,22.06,22.06,0,0,0,2.1,1.17,22.9,22.9,0,0,0,4.15,1.56,25,25,0,0,0,8.15.79,25.31,25.31,0,0,0,8-1.83,24,24,0,0,0,3.92-2.08,21.71,21.71,0,0,0,1.94-1.42A15.4,15.4,0,0,0,652.23,501.81Z"/><path class="cls-79" d="M618.57,492.34a20.21,20.21,0,0,0-2.76-1.77,29.52,29.52,0,0,0-2.7-1.26,29.09,29.09,0,0,0-5.27-1.57,31.83,31.83,0,0,0-19.9,2.62,29.62,29.62,0,0,0-4.67,2.9A26.86,26.86,0,0,0,581,495.2a20.46,20.46,0,0,0-2.21,2.44,19.47,19.47,0,0,0,2.77,1.78,27.21,27.21,0,0,0,2.7,1.27,28.14,28.14,0,0,0,5.27,1.58,31.71,31.71,0,0,0,19.89-2.67,28.9,28.9,0,0,0,4.67-2.9,28.31,28.31,0,0,0,2.28-1.92A20.42,20.42,0,0,0,618.57,492.34Z"/><path class="cls-80" d="M693.26,416.22a19.36,19.36,0,0,0-3.23-.58,27.84,27.84,0,0,0-3-.14,29.89,29.89,0,0,0-5.47.56,31.75,31.75,0,0,0-17.38,10,29.16,29.16,0,0,0-3.21,4.47,26.3,26.3,0,0,0-1.36,2.65,20,20,0,0,0-1.11,3.1,19.54,19.54,0,0,0,3.24.59,27.92,27.92,0,0,0,3,.15,29.89,29.89,0,0,0,5.47-.56,31.76,31.76,0,0,0,17.36-10.07,30.32,30.32,0,0,0,3.22-4.46,28.55,28.55,0,0,0,1.36-2.65A19.91,19.91,0,0,0,693.26,416.22Z"/><path class="cls-81" d="M653.94,377a18.73,18.73,0,0,0-3.22.64,25.2,25.2,0,0,0-2.82.95,29.93,29.93,0,0,0-4.89,2.51,31.78,31.78,0,0,0-12.54,15.67,28.87,28.87,0,0,0-1.37,5.33,27.63,27.63,0,0,0-.3,3,20.63,20.63,0,0,0,.1,3.29,19.67,19.67,0,0,0,3.23-.63,28.24,28.24,0,0,0,7.72-3.46,30.71,30.71,0,0,0,7.53-6.84,31.08,31.08,0,0,0,5-8.86,29,29,0,0,0,1.37-5.32c.15-.95.25-1.94.31-3A20.48,20.48,0,0,0,653.94,377Z"/><path class="cls-82" d="M620.77,353.55a19.69,19.69,0,0,0-3.1,1.09,28.47,28.47,0,0,0-7.14,4.54,31,31,0,0,0-6.48,7.83,30.58,30.58,0,0,0-3.68,9.47,29,29,0,0,0-.59,5.47,27.66,27.66,0,0,0,.13,3,20.29,20.29,0,0,0,.57,3.24,20.2,20.2,0,0,0,3.11-1.08,28.73,28.73,0,0,0,2.66-1.35,28.05,28.05,0,0,0,4.48-3.19,30.82,30.82,0,0,0,6.47-7.84,31.21,31.21,0,0,0,3.66-9.48,29.85,29.85,0,0,0,.59-5.47c0-1,0-1.95-.12-3A21.49,21.49,0,0,0,620.77,353.55Z"/><path class="cls-83" d="M568.64,333.69a20.46,20.46,0,0,0-2.45,2.18,26.71,26.71,0,0,0-2,2.25,28.61,28.61,0,0,0-3,4.64,31.64,31.64,0,0,0-2.91,19.85,28.74,28.74,0,0,0,1.51,5.29,27.09,27.09,0,0,0,1.24,2.72,19.68,19.68,0,0,0,1.74,2.78,18.48,18.48,0,0,0,2.47-2.17,27.81,27.81,0,0,0,4.92-6.89,31,31,0,0,0,3-9.69,31.35,31.35,0,0,0-.18-10.17,28.74,28.74,0,0,0-1.51-5.29,26.82,26.82,0,0,0-1.23-2.71A19.21,19.21,0,0,0,568.64,333.69Z"/><path class="cls-84" d="M714.05,462.3a19.06,19.06,0,0,0-2.91-1.53,25.65,25.65,0,0,0-2.79-1,30.1,30.1,0,0,0-5.39-1.12,31.19,31.19,0,0,0-10.15.58,30.81,30.81,0,0,0-9.44,3.75,28.21,28.21,0,0,0-4.41,3.29,23.4,23.4,0,0,0-2.1,2.12,19.32,19.32,0,0,0-2,2.62,20.09,20.09,0,0,0,2.91,1.54,26.59,26.59,0,0,0,2.8,1,28.51,28.51,0,0,0,5.38,1.12,30.61,30.61,0,0,0,10.15-.59,31.22,31.22,0,0,0,9.44-3.77A29.35,29.35,0,0,0,710,467a26.16,26.16,0,0,0,2.1-2.11A19.84,19.84,0,0,0,714.05,462.3Z"/><path class="cls-85" d="M702.26,492.9a20,20,0,0,0-2.47-2.16,26,26,0,0,0-2.48-1.65,28.22,28.22,0,0,0-5-2.34,31.71,31.71,0,0,0-20.07-.38,29.23,29.23,0,0,0-5,2.17,28.23,28.23,0,0,0-2.54,1.57,20.16,20.16,0,0,0-2.54,2.09,19.4,19.4,0,0,0,2.47,2.18,26.15,26.15,0,0,0,2.48,1.66,28.22,28.22,0,0,0,5,2.34,31.8,31.8,0,0,0,20.07.33,29.61,29.61,0,0,0,5-2.16,26.89,26.89,0,0,0,2.54-1.57A19.36,19.36,0,0,0,702.26,492.9Z"/><path class="cls-86" d="M700.38,581.21a20.62,20.62,0,0,0-1.92-2.67,25,25,0,0,0-2-2.17A29.22,29.22,0,0,0,692.1,573a31.26,31.26,0,0,0-9.33-4,30.73,30.73,0,0,0-10.13-.87,28.17,28.17,0,0,0-5.41,1,28.63,28.63,0,0,0-2.83,1,19.17,19.17,0,0,0-2.95,1.46,19.07,19.07,0,0,0,1.91,2.67,25.36,25.36,0,0,0,2,2.18,29.15,29.15,0,0,0,4.31,3.41,31.63,31.63,0,0,0,19.47,4.85,29,29,0,0,0,5.42-1,29.38,29.38,0,0,0,2.82-1A21,21,0,0,0,700.38,581.21Z"/><path class="cls-87" d="M642.89,518.55a19.88,19.88,0,0,0-3.21-.68,28.25,28.25,0,0,0-3-.24,28.76,28.76,0,0,0-5.49.38,31.69,31.69,0,0,0-17.71,9.44,28.85,28.85,0,0,0-3.35,4.36,24.89,24.89,0,0,0-1.45,2.61,18.76,18.76,0,0,0-1.21,3.06,19.92,19.92,0,0,0,3.22.7,28.25,28.25,0,0,0,3,.24,28.76,28.76,0,0,0,5.49-.38,30.73,30.73,0,0,0,9.61-3.3,31.28,31.28,0,0,0,8.07-6.18,28.66,28.66,0,0,0,3.36-4.35,27.93,27.93,0,0,0,1.46-2.6A20.11,20.11,0,0,0,642.89,518.55Z"/><path class="cls-88" d="M688.14,510.45a19.3,19.3,0,0,0-3-1.19,27.87,27.87,0,0,0-2.9-.72,30,30,0,0,0-5.47-.51,31.72,31.72,0,0,0-19,6.46,29.33,29.33,0,0,0-4,3.76,26.11,26.11,0,0,0-1.85,2.34,20.35,20.35,0,0,0-1.69,2.83,20.61,20.61,0,0,0,3.07,1.2,25.4,25.4,0,0,0,2.89.72,29.16,29.16,0,0,0,5.48.52,31.71,31.71,0,0,0,19-6.5,28.77,28.77,0,0,0,4-3.76,27.93,27.93,0,0,0,1.86-2.33A19.82,19.82,0,0,0,688.14,510.45Z"/><path class="cls-89" d="M660,537.43a20.05,20.05,0,0,0-3.24-.51,27.35,27.35,0,0,0-3-.07,28,28,0,0,0-5.46.68,31.73,31.73,0,0,0-17.15,10.4,28.24,28.24,0,0,0-4.42,7.22,19.14,19.14,0,0,0-1,3.13,20.34,20.34,0,0,0,3.25.51,25.27,25.27,0,0,0,3,.08,28.82,28.82,0,0,0,5.46-.67,30.77,30.77,0,0,0,9.41-3.84,31.11,31.11,0,0,0,7.72-6.61,29.4,29.4,0,0,0,3.12-4.53,29,29,0,0,0,1.3-2.68A19.54,19.54,0,0,0,660,537.43Z"/><path class="cls-90" d="M663.26,557.6a13.77,13.77,0,0,0-2.24-.35,18,18,0,0,0-2.06,0,19.84,19.84,0,0,0-3.78.47,21.71,21.71,0,0,0-6.51,2.63,21.37,21.37,0,0,0-5.35,4.56,20.17,20.17,0,0,0-2.15,3.14,17.83,17.83,0,0,0-.9,1.86,13,13,0,0,0-.72,2.16,13.72,13.72,0,0,0,2.25.35,18,18,0,0,0,2.06.06,19.84,19.84,0,0,0,3.78-.47,21.08,21.08,0,0,0,6.5-2.65,21.4,21.4,0,0,0,5.34-4.57,20.11,20.11,0,0,0,2.16-3.13c.32-.59.62-1.2.9-1.86A14.25,14.25,0,0,0,663.26,557.6Z"/><path class="cls-91" d="M700.52,551.65a19.21,19.21,0,0,0-2.57-2,26.59,26.59,0,0,0-2.55-1.54,30.22,30.22,0,0,0-5.07-2.12,31.13,31.13,0,0,0-10.08-1.35,30.76,30.76,0,0,0-10,1.89,29.27,29.27,0,0,0-5,2.4q-1.23.75-2.46,1.68a21.13,21.13,0,0,0-2.45,2.2,20,20,0,0,0,2.57,2.06,24.83,24.83,0,0,0,2.55,1.55,29.17,29.17,0,0,0,5.08,2.12,31.69,31.69,0,0,0,20.06-.58,29.18,29.18,0,0,0,5-2.4,27.41,27.41,0,0,0,2.46-1.67A20.22,20.22,0,0,0,700.52,551.65Z"/><path class="cls-92" d="M716.62,528.2a20.91,20.91,0,0,0-2.77-1.77,26.09,26.09,0,0,0-2.71-1.25,28,28,0,0,0-5.27-1.56A31.71,31.71,0,0,0,686,526.29a28.54,28.54,0,0,0-4.66,2.92,23.62,23.62,0,0,0-2.27,1.94,19.6,19.6,0,0,0-2.2,2.44,19.47,19.47,0,0,0,2.77,1.78,27.07,27.07,0,0,0,2.7,1.26,29,29,0,0,0,5.28,1.57,31.78,31.78,0,0,0,19.88-2.72,29.69,29.69,0,0,0,4.67-2.91c.76-.59,1.52-1.23,2.27-1.94A20.37,20.37,0,0,0,716.62,528.2Z"/><path class="cls-93" d="M731.42,568.6a19.67,19.67,0,0,0-2.3-2.34A28.34,28.34,0,0,0,722,561.7a31.73,31.73,0,0,0-20-1.92,29.2,29.2,0,0,0-5.21,1.78,26.76,26.76,0,0,0-2.65,1.37,20.19,20.19,0,0,0-2.7,1.89,21.45,21.45,0,0,0,2.3,2.35A27,27,0,0,0,696.1,569a28.93,28.93,0,0,0,4.79,2.72,30.88,30.88,0,0,0,9.83,2.56,31.21,31.21,0,0,0,10.14-.69,28.12,28.12,0,0,0,5.21-1.77,26.63,26.63,0,0,0,2.65-1.36A20.07,20.07,0,0,0,731.42,568.6Z"/><path class="cls-94" d="M713.07,609.21a19.89,19.89,0,0,0-1.35-3,29.42,29.42,0,0,0-1.57-2.53,29,29,0,0,0-3.55-4.2,31.08,31.08,0,0,0-8.35-5.81,30.7,30.7,0,0,0-9.75-2.87,29.39,29.39,0,0,0-5.5-.13,26.66,26.66,0,0,0-3,.38,19.28,19.28,0,0,0-3.18.84,20.94,20.94,0,0,0,1.34,3,28.15,28.15,0,0,0,1.57,2.54,29.65,29.65,0,0,0,3.55,4.21,31.76,31.76,0,0,0,18.11,8.63,28.35,28.35,0,0,0,8.46-.23A21.41,21.41,0,0,0,713.07,609.21Z"/><path class="cls-95" d="M685.13,621.92a19.67,19.67,0,0,0-1-3.14,28.34,28.34,0,0,0-4.23-7.33,31.74,31.74,0,0,0-16.85-10.89,29.06,29.06,0,0,0-5.44-.83,29.61,29.61,0,0,0-3,0,19.75,19.75,0,0,0-3.26.43,19.81,19.81,0,0,0,1,3.15,26.25,26.25,0,0,0,1.23,2.72,28.88,28.88,0,0,0,3,4.62,31.09,31.09,0,0,0,7.55,6.8,31.48,31.48,0,0,0,9.32,4.06,29.19,29.19,0,0,0,5.44.82,26.87,26.87,0,0,0,3,0A19.69,19.69,0,0,0,685.13,621.92Z"/><path class="cls-96" d="M745.89,597.72A21.08,21.08,0,0,0,744.1,595c-.63-.81-1.28-1.56-1.94-2.26a29.36,29.36,0,0,0-4.16-3.6,31.21,31.21,0,0,0-9.14-4.45,30.87,30.87,0,0,0-10.08-1.33,28.29,28.29,0,0,0-8.32,1.55,19.74,19.74,0,0,0-3,1.32,18.78,18.78,0,0,0,1.79,2.76,27.44,27.44,0,0,0,1.94,2.27,29.21,29.21,0,0,0,4.15,3.6,30.7,30.7,0,0,0,9.15,4.43,31.17,31.17,0,0,0,10.08,1.31,29.32,29.32,0,0,0,5.45-.71,28.57,28.57,0,0,0,2.87-.83A18.33,18.33,0,0,0,745.89,597.72Z"/><path class="cls-97" d="M747.49,542.24a19.65,19.65,0,0,0-2.68-1.91,24.9,24.9,0,0,0-2.63-1.4,29,29,0,0,0-5.18-1.84,31.77,31.77,0,0,0-20,1.6,28.72,28.72,0,0,0-7.19,4.47,20.48,20.48,0,0,0-2.33,2.33,19.76,19.76,0,0,0,2.68,1.92,27,27,0,0,0,2.63,1.41,29,29,0,0,0,5.18,1.84A31.7,31.7,0,0,0,738,549a29.08,29.08,0,0,0,4.82-2.65,28.7,28.7,0,0,0,2.37-1.81A20.22,20.22,0,0,0,747.49,542.24Z"/><path class="cls-98" d="M741.85,502a20.28,20.28,0,0,0-2.92-1.5,25.73,25.73,0,0,0-2.81-1,29.08,29.08,0,0,0-5.39-1.08,31.1,31.1,0,0,0-10.14.64,30.68,30.68,0,0,0-9.42,3.82,28.35,28.35,0,0,0-6.47,5.45,19.5,19.5,0,0,0-2,2.64,19,19,0,0,0,2.92,1.52,26.36,26.36,0,0,0,2.8,1,28.57,28.57,0,0,0,5.4,1.09,31.83,31.83,0,0,0,19.55-4.5,29.63,29.63,0,0,0,4.39-3.32c.71-.65,1.4-1.36,2.09-2.13A20.47,20.47,0,0,0,741.85,502Z"/><path class="cls-99" d="M752.76,477.39a19.39,19.39,0,0,0-2.92-1.51,27.85,27.85,0,0,0-2.8-1,29.19,29.19,0,0,0-5.39-1.07,31.77,31.77,0,0,0-19.57,4.45,28.88,28.88,0,0,0-4.38,3.32,28.34,28.34,0,0,0-2.09,2.14,20.37,20.37,0,0,0-2,2.64,21.58,21.58,0,0,0,2.92,1.52,28.93,28.93,0,0,0,2.81,1,28.43,28.43,0,0,0,5.39,1.08,30.79,30.79,0,0,0,10.14-.66,31.2,31.2,0,0,0,9.42-3.84,29.38,29.38,0,0,0,4.39-3.31c.7-.65,1.4-1.36,2.08-2.13A20,20,0,0,0,752.76,477.39Z"/><path class="cls-100" d="M733.11,434.63a20.62,20.62,0,0,0-3-1.23,28.58,28.58,0,0,0-2.89-.74,29.17,29.17,0,0,0-5.47-.58,31.78,31.78,0,0,0-19.07,6.25,29.13,29.13,0,0,0-4.06,3.71,27.82,27.82,0,0,0-1.87,2.32,19.77,19.77,0,0,0-1.72,2.81,19.37,19.37,0,0,0,3,1.24,27.85,27.85,0,0,0,2.88.75,29.36,29.36,0,0,0,5.48.58,31.76,31.76,0,0,0,19.05-6.29,29.13,29.13,0,0,0,4.06-3.71,25.83,25.83,0,0,0,1.88-2.31A19.1,19.1,0,0,0,733.11,434.63Z"/><path class="cls-101" d="M369.12,482.92a19.31,19.31,0,0,0-2.55-2.07,28.07,28.07,0,0,0-2.54-1.56,29.19,29.19,0,0,0-5.06-2.15,31.12,31.12,0,0,0-10.07-1.44,30.75,30.75,0,0,0-10,1.82,28.35,28.35,0,0,0-5,2.36,24.5,24.5,0,0,0-2.48,1.67,19.35,19.35,0,0,0-2.46,2.18,20.26,20.26,0,0,0,2.55,2.08,26.75,26.75,0,0,0,2.54,1.56,28.49,28.49,0,0,0,5.06,2.16,31.78,31.78,0,0,0,20.06-.43,29,29,0,0,0,5-2.35,29.78,29.78,0,0,0,2.48-1.66A20.8,20.8,0,0,0,369.12,482.92Z"/><path class="cls-102" d="M747.13,627.76a17.08,17.08,0,0,0-.74-2.66c-.3-.81-.63-1.57-1-2.3a24.84,24.84,0,0,0-2.42-3.93,26.58,26.58,0,0,0-13.91-9.49,24,24,0,0,0-4.55-.81c-.8-.06-1.64-.08-2.5-.06a17.28,17.28,0,0,0-2.75.29,16.93,16.93,0,0,0,.73,2.67c.3.81.63,1.58,1,2.3a23.55,23.55,0,0,0,2.42,3.94,25.8,25.8,0,0,0,6.19,5.86,26.27,26.27,0,0,0,7.74,3.6,24.85,24.85,0,0,0,4.54.81,22.88,22.88,0,0,0,2.5.06A16.13,16.13,0,0,0,747.13,627.76Z"/><path class="cls-103" d="M769.58,576.87A17,17,0,0,0,768,574.6c-.55-.67-1.11-1.28-1.68-1.85a24.55,24.55,0,0,0-3.56-2.94,26.51,26.51,0,0,0-7.77-3.54,25.9,25.9,0,0,0-8.48-.9,24.17,24.17,0,0,0-6.95,1.47,17.43,17.43,0,0,0-2.5,1.18,17.81,17.81,0,0,0,1.56,2.28,21.67,21.67,0,0,0,1.68,1.86,23.94,23.94,0,0,0,3.56,2.93,26.52,26.52,0,0,0,16.25,4.41,25,25,0,0,0,4.56-.71,23.4,23.4,0,0,0,2.39-.75A15.89,15.89,0,0,0,769.58,576.87Z"/><path class="cls-104" d="M667.43,593.65a13,13,0,0,0-.55-2c-.22-.6-.46-1.16-.72-1.7a18.53,18.53,0,0,0-1.79-2.91,19.82,19.82,0,0,0-10.29-7,18.38,18.38,0,0,0-3.36-.59c-.59-.05-1.21-.06-1.85-.05a13.94,13.94,0,0,0-2,.22,12.78,12.78,0,0,0,.54,2q.33.9.72,1.71a18.53,18.53,0,0,0,1.79,2.91,19.66,19.66,0,0,0,10.3,7,18.53,18.53,0,0,0,3.36.6c.6,0,1.21.06,1.85,0A12.68,12.68,0,0,0,667.43,593.65Z"/><path class="cls-105" d="M469.23,539.73a14.77,14.77,0,0,1,2.39-.24c.75,0,1.48,0,2.18.06a22,22,0,0,1,3.95.71,23,23,0,0,1,6.73,3.15,22.51,22.51,0,0,1,5.39,5.12A21.33,21.33,0,0,1,492,552a20.56,20.56,0,0,1,.84,2,15.25,15.25,0,0,1,.64,2.32,15.06,15.06,0,0,1-2.4.25,19.5,19.5,0,0,1-2.18-.06,21.38,21.38,0,0,1-4-.71,23.09,23.09,0,0,1-12.09-8.29,20.64,20.64,0,0,1-2.1-3.43,20.37,20.37,0,0,1-.85-2A15.58,15.58,0,0,1,469.23,539.73Z"/><path class="cls-106" d="M389.61,586.18a18.88,18.88,0,0,1,1.92-2.67,28.31,28.31,0,0,1,2-2.17,28.63,28.63,0,0,1,4.32-3.4,31.7,31.7,0,0,1,19.46-4.9,29.8,29.8,0,0,1,5.41,1,28.63,28.63,0,0,1,2.83,1,21.18,21.18,0,0,1,3,1.46,20.76,20.76,0,0,1-1.92,2.68,26.74,26.74,0,0,1-2,2.18,28.63,28.63,0,0,1-4.32,3.4,30.67,30.67,0,0,1-9.34,4,31.25,31.25,0,0,1-10.13.85,29.8,29.8,0,0,1-5.41-1,28.52,28.52,0,0,1-2.83-1A19.94,19.94,0,0,1,389.61,586.18Z"/><path class="cls-107" d="M424.45,568.05a13.68,13.68,0,0,1,1.25-1.74c.44-.52.88-1,1.33-1.43a20.34,20.34,0,0,1,2.81-2.23A20.68,20.68,0,0,1,435.9,560a19.94,19.94,0,0,1,6.57-.59A18.78,18.78,0,0,1,446,560a18,18,0,0,1,1.83.62,12.92,12.92,0,0,1,1.91.94,13.82,13.82,0,0,1-1.25,1.75,18.39,18.39,0,0,1-4.14,3.66,20.54,20.54,0,0,1-12.63,3.22,18.78,18.78,0,0,1-3.51-.62,18,18,0,0,1-1.83-.62A12.82,12.82,0,0,1,424.45,568.05Z"/><path class="cls-108" d="M421.38,591a14.72,14.72,0,0,1,.8-2c.3-.6.62-1.17.95-1.7a19.34,19.34,0,0,1,2.2-2.83,20.3,20.3,0,0,1,5.25-4,19.9,19.9,0,0,1,6.24-2.15,18.66,18.66,0,0,1,5.48-.07,13.8,13.8,0,0,1,2.08.46,12.26,12.26,0,0,1-.8,2,15.3,15.3,0,0,1-.95,1.7,18.73,18.73,0,0,1-2.19,2.84,20.56,20.56,0,0,1-11.51,6.14,19.42,19.42,0,0,1-3.55.24,18.63,18.63,0,0,1-1.92-.16A12.67,12.67,0,0,1,421.38,591Z"/><path class="cls-109" d="M417,543a19.55,19.55,0,0,1,2.61-2,26.3,26.3,0,0,1,2.58-1.49,28.83,28.83,0,0,1,5.11-2,31.77,31.77,0,0,1,20.05.91,28.94,28.94,0,0,1,4.9,2.48,27.14,27.14,0,0,1,2.43,1.73,20,20,0,0,1,2.41,2.25,19.6,19.6,0,0,1-2.6,2,28.17,28.17,0,0,1-7.7,3.52,31.55,31.55,0,0,1-20-.95,29,29,0,0,1-4.91-2.48,28,28,0,0,1-2.43-1.73A19.65,19.65,0,0,1,417,543Z"/><path class="cls-110" d="M447.82,521.4a11.76,11.76,0,0,1,1.91-.5,14.23,14.23,0,0,1,1.78-.23,16.59,16.59,0,0,1,3.32.07,19.17,19.17,0,0,1,10.94,5.17,18,18,0,0,1,2.15,2.53,15.94,15.94,0,0,1,.94,1.53,12.16,12.16,0,0,1,.82,1.81,11.94,11.94,0,0,1-1.92.51,16.38,16.38,0,0,1-1.78.23,17.39,17.39,0,0,1-3.32-.06,18.62,18.62,0,0,1-5.88-1.72,18.92,18.92,0,0,1-5-3.48,18.58,18.58,0,0,1-2.15-2.53,17.13,17.13,0,0,1-.95-1.52A12.16,12.16,0,0,1,447.82,521.4Z"/><path class="cls-111" d="M401.84,515.42a20.42,20.42,0,0,1,3.06-1.19,27.77,27.77,0,0,1,2.9-.71,29.05,29.05,0,0,1,5.47-.52,31.41,31.41,0,0,1,10,1.69,31.09,31.09,0,0,1,9,4.77,29.33,29.33,0,0,1,4,3.76c.63.72,1.25,1.5,1.85,2.34a19.4,19.4,0,0,1,1.68,2.83,19.2,19.2,0,0,1-3.06,1.21,28.34,28.34,0,0,1-2.89.72,29.2,29.2,0,0,1-5.48.51,31.71,31.71,0,0,1-19-6.5,29.29,29.29,0,0,1-4-3.75,28.11,28.11,0,0,1-1.86-2.34A20.22,20.22,0,0,1,401.84,515.42Z"/><path class="cls-112" d="M389.47,556.62a20.7,20.7,0,0,1,2.56-2,27.89,27.89,0,0,1,2.55-1.54,29.11,29.11,0,0,1,5.08-2.11,31.38,31.38,0,0,1,10.08-1.36,31,31,0,0,1,10,1.89,28.82,28.82,0,0,1,4.95,2.4,25.08,25.08,0,0,1,2.46,1.69,18.77,18.77,0,0,1,2.45,2.2A19.92,19.92,0,0,1,427,559.8a28,28,0,0,1-2.56,1.54,28.33,28.33,0,0,1-5.07,2.12,31.69,31.69,0,0,1-20.06-.58,28.76,28.76,0,0,1-4.95-2.39,28.38,28.38,0,0,1-2.47-1.68A20.94,20.94,0,0,1,389.47,556.62Z"/><path class="cls-113" d="M373.37,533.17a19.26,19.26,0,0,1,2.77-1.76,27.07,27.07,0,0,1,2.7-1.26,29.71,29.71,0,0,1,5.28-1.56,31.06,31.06,0,0,1,10.16-.27,30.52,30.52,0,0,1,9.72,2.95,27.88,27.88,0,0,1,4.67,2.91,26.59,26.59,0,0,1,2.27,1.94,19.79,19.79,0,0,1,2.2,2.45,19.37,19.37,0,0,1-2.77,1.77,26.33,26.33,0,0,1-2.71,1.27,29.61,29.61,0,0,1-5.27,1.56,30.79,30.79,0,0,1-10.16.25,31.35,31.35,0,0,1-9.72-3,29.69,29.69,0,0,1-4.67-2.91,28.05,28.05,0,0,1-2.27-1.93A21.31,21.31,0,0,1,373.37,533.17Z"/><path class="cls-114" d="M358.57,573.58a19.05,19.05,0,0,1,2.3-2.35,25.8,25.8,0,0,1,2.34-1.84,30,30,0,0,1,4.78-2.72,31.59,31.59,0,0,1,9.84-2.58,30.66,30.66,0,0,1,10.14.67,28.37,28.37,0,0,1,5.21,1.77c.87.4,1.75.85,2.64,1.37a19.83,19.83,0,0,1,2.7,1.89,19.87,19.87,0,0,1-2.29,2.36,27.37,27.37,0,0,1-2.35,1.84,28.16,28.16,0,0,1-4.78,2.72,30.62,30.62,0,0,1-9.83,2.56,31.28,31.28,0,0,1-10.15-.68,29.58,29.58,0,0,1-5.2-1.77,29.09,29.09,0,0,1-2.65-1.37A20.25,20.25,0,0,1,358.57,573.58Z"/><path class="cls-115" d="M314,572.18a19.05,19.05,0,0,1,2.3-2.35,27.27,27.27,0,0,1,2.34-1.84,29.67,29.67,0,0,1,4.79-2.72,31.46,31.46,0,0,1,9.83-2.58,30.66,30.66,0,0,1,10.14.67,28.37,28.37,0,0,1,5.21,1.77c.87.4,1.76.85,2.65,1.37a20.4,20.4,0,0,1,2.69,1.89,19.87,19.87,0,0,1-2.29,2.36,27.37,27.37,0,0,1-2.35,1.84,28.16,28.16,0,0,1-4.78,2.72,30.62,30.62,0,0,1-9.83,2.56,31.2,31.2,0,0,1-10.14-.68,29.68,29.68,0,0,1-5.21-1.77,29.09,29.09,0,0,1-2.65-1.37A20.25,20.25,0,0,1,314,572.18Z"/><path class="cls-116" d="M318.55,527.31a18.93,18.93,0,0,1,2.61-2,26.3,26.3,0,0,1,2.58-1.49,29.14,29.14,0,0,1,5.11-2,31.36,31.36,0,0,1,10.1-1.16,30.81,30.81,0,0,1,9.95,2.09,28.28,28.28,0,0,1,4.9,2.49,25.26,25.26,0,0,1,2.43,1.73,19.89,19.89,0,0,1,2.41,2.25,19.67,19.67,0,0,1-2.61,2,28.63,28.63,0,0,1-2.58,1.5,28.92,28.92,0,0,1-5.12,2,31,31,0,0,1-10.1,1.14,31.32,31.32,0,0,1-9.94-2.11,29,29,0,0,1-4.9-2.49,23.62,23.62,0,0,1-2.43-1.73A20.47,20.47,0,0,1,318.55,527.31Z"/><path class="cls-117" d="M376.92,614.18a20.35,20.35,0,0,1,1.35-3,27.13,27.13,0,0,1,1.57-2.53,29.55,29.55,0,0,1,3.55-4.2,31.68,31.68,0,0,1,18.09-8.68,29.41,29.41,0,0,1,5.5-.13,28.91,28.91,0,0,1,3,.38,19.64,19.64,0,0,1,3.19.84,20.48,20.48,0,0,1-1.35,3,27.26,27.26,0,0,1-1.56,2.54,29.55,29.55,0,0,1-3.55,4.2,31.75,31.75,0,0,1-18.12,8.64,29.3,29.3,0,0,1-5.49.13,28.82,28.82,0,0,1-3-.37A20.24,20.24,0,0,1,376.92,614.18Z"/><path class="cls-118" d="M404.86,626.89a20,20,0,0,1,1-3.14,27,27,0,0,1,1.23-2.71,29.48,29.48,0,0,1,3-4.61,31.18,31.18,0,0,1,7.55-6.82,30.68,30.68,0,0,1,9.3-4.08,28.38,28.38,0,0,1,5.44-.82,24.85,24.85,0,0,1,3,0,18.86,18.86,0,0,1,3.26.43,19.81,19.81,0,0,1-.95,3.15c-.38,1-.79,1.86-1.23,2.72a29.48,29.48,0,0,1-3,4.61,31.74,31.74,0,0,1-16.88,10.86,29.08,29.08,0,0,1-5.43.83,27.1,27.1,0,0,1-3,0A19.71,19.71,0,0,1,404.86,626.89Z"/><path class="cls-119" d="M344.1,602.7a19.5,19.5,0,0,1,1.79-2.75,29.5,29.5,0,0,1,1.94-2.27,30,30,0,0,1,4.16-3.6,31.46,31.46,0,0,1,9.14-4.45,31.11,31.11,0,0,1,10.07-1.33,29.57,29.57,0,0,1,5.46.72,27.67,27.67,0,0,1,2.86.83,20.87,20.87,0,0,1,3,1.32,19.94,19.94,0,0,1-1.79,2.76,27.72,27.72,0,0,1-1.94,2.27,29.45,29.45,0,0,1-4.16,3.61,31.68,31.68,0,0,1-19.22,5.74,29.57,29.57,0,0,1-5.46-.72c-.93-.22-1.89-.49-2.86-.82A20.22,20.22,0,0,1,344.1,602.7Z"/><path class="cls-120" d="M342.5,547.21a19.58,19.58,0,0,1,2.67-1.91,28.09,28.09,0,0,1,2.63-1.4,29.09,29.09,0,0,1,5.19-1.84,31.77,31.77,0,0,1,20,1.6,29.9,29.9,0,0,1,4.82,2.66,26.81,26.81,0,0,1,2.37,1.82,20.31,20.31,0,0,1,2.32,2.32,18.86,18.86,0,0,1-2.67,1.92,25,25,0,0,1-2.63,1.41,29.33,29.33,0,0,1-5.18,1.85A31.86,31.86,0,0,1,352,554a29.15,29.15,0,0,1-4.82-2.66,27.44,27.44,0,0,1-2.37-1.8A21.2,21.2,0,0,1,342.5,547.21Z"/><path class="cls-121" d="M348.14,507a19.88,19.88,0,0,1,2.92-1.51,28.77,28.77,0,0,1,2.8-1,29.17,29.17,0,0,1,5.4-1.08,31.68,31.68,0,0,1,19.56,4.46,29.46,29.46,0,0,1,4.39,3.32,26.49,26.49,0,0,1,2.08,2.14,19.37,19.37,0,0,1,2,2.63,19.51,19.51,0,0,1-2.92,1.52,26.62,26.62,0,0,1-2.81,1,29.08,29.08,0,0,1-5.39,1.08,30.83,30.83,0,0,1-10.14-.66,31.45,31.45,0,0,1-9.42-3.84,29.39,29.39,0,0,1-4.38-3.32,26.41,26.41,0,0,1-2.09-2.13A20.11,20.11,0,0,1,348.14,507Z"/><path class="cls-122" d="M672.49,668.22c-6.9,1.6-11.11,6.19-12.85,12.81-1.51,5.73-3.3,11.22-7.14,15.78a101.84,101.84,0,0,1-8.36,8.89c-7.13,6.66-15,12.16-24.65,14.63-5,1.28-10,1.87-15.35.53.73-.67,1.24-1.14,1.77-1.6a36.65,36.65,0,0,0,10.14-14.34c2.43-6.12.72-13.76-3.78-17.38-2.66-2.15-4.41-1.6-5.51,1.59a25.1,25.1,0,0,1-2.24,5c-6.23,9.88-15.33,16.05-26.15,19.89-8.25,2.92-14.83,7.73-18.38,16a11.11,11.11,0,0,0-.89,3.22c-12.75,9-30.07,3.25-30.07,3.25a10.48,10.48,0,0,0-1-5.36c-3.65-8.25-10.27-13-18.55-15.8-10.88-3.71-20.06-9.77-26.38-19.58a24.54,24.54,0,0,1-2.3-5c-1.15-3.18-2.9-3.7-5.55-1.53-4.45,3.68-6.05,11.35-3.56,17.43A36.39,36.39,0,0,0,482,720.9c.54.45,1.06.92,1.78,1.57-5.35,1.4-10.36.88-15.35-.34-9.67-2.36-17.61-7.77-24.82-14.35a103.29,103.29,0,0,1-8.46-8.79c-3.88-4.51-5.75-10-7.32-15.69-1.64-6-5.29-10.26-11.09-12.14a132.84,132.84,0,0,0,189.61,80.78,0,0,0,0,0,0,0s0,0,0,0h0a131.93,131.93,0,0,0,20-12.91h0a134.47,134.47,0,0,0,20.51-19.9,131.81,131.81,0,0,0,26.27-51A4.48,4.48,0,0,0,672.49,668.22Z"/><path class="cls-123" d="M622.35,716.16c12-4.88,22.09-12.09,28.71-23.49a45.43,45.43,0,0,0,3.38-7.12c.93-2.51-.61-4.23-3.3-4a9.24,9.24,0,0,0-2.31.54c-4.27,1.56-6.46,5-8.07,9a47.26,47.26,0,0,1-12.53,18.17c-3.16,2.76-6.48,5.36-9.72,8l.08.31C619.84,717.11,621.11,716.66,622.35,716.16Z"/><path class="cls-124" d="M436.57,694.83c6.75,11.33,16.94,18.42,29,23.16,1.25.49,2.52.92,3.78,1.38,0-.1.05-.2.08-.3-3.28-2.64-6.62-5.2-9.82-7.92a47.3,47.3,0,0,1-12.74-18c-1.65-3.92-3.89-7.36-8.17-8.87a9.18,9.18,0,0,0-2.32-.52c-2.69-.21-4.21,1.52-3.25,4A45.46,45.46,0,0,0,436.57,694.83Z"/><path class="cls-125" d="M382.19,369.06a8.64,8.64,0,0,1-5.67-15.17,251.14,251.14,0,0,1,329,0,8.64,8.64,0,0,1-11.33,13.05,233.86,233.86,0,0,0-306.34,0A8.59,8.59,0,0,1,382.19,369.06Z"/><path class="cls-126" d="M793.39,543.65C777.21,883.82,297.77,874,288.92,541.4c3.77,76.29,40.26,144.31,100.57,190.08,117.22,88.69,279.82,55.27,357.64-56.21,0,0,0,0,0,0a250.74,250.74,0,0,0,46-133.85A9.83,9.83,0,0,1,793.39,543.65Z"/><polygon class="cls-127" points="351.53 380.21 354.08 388.07 362.34 388.07 355.66 392.92 358.21 400.77 351.53 395.92 344.85 400.77 347.4 392.92 340.72 388.07 348.98 388.07 351.53 380.21"/><polygon class="cls-128" points="319.47 429.45 322.02 437.31 330.28 437.31 323.6 442.16 326.15 450.02 319.47 445.16 312.79 450.02 315.34 442.16 308.66 437.31 316.92 437.31 319.47 429.45"/><polygon class="cls-129" points="299.97 489.84 302.52 497.69 310.78 497.69 304.1 502.55 306.65 510.4 299.97 505.55 293.29 510.4 295.84 502.55 289.16 497.69 297.42 497.69 299.97 489.84"/><polygon class="cls-130" points="726.68 379.5 724.13 387.36 715.87 387.36 722.55 392.21 720 400.06 726.68 395.21 733.36 400.06 730.81 392.21 737.49 387.36 729.23 387.36 726.68 379.5"/><polygon class="cls-131" points="759.81 430.88 757.25 438.73 749 438.73 755.68 443.58 753.12 451.44 759.81 446.58 766.49 451.44 763.93 443.58 770.62 438.73 762.36 438.73 759.81 430.88"/><polygon class="cls-132" points="777.51 492.01 774.96 499.86 766.7 499.86 773.38 504.71 770.83 512.57 777.51 507.71 784.19 512.57 781.64 504.71 788.32 499.86 780.06 499.86 777.51 492.01"/><path class="cls-133" d="M540,883.39c-189.35,0-343.4-154-343.4-343.39s154-343.39,343.4-343.39S883.4,350.65,883.4,540,729.35,883.39,540,883.39Zm0-680.94c-186.13,0-337.55,151.43-337.55,337.55S353.87,877.55,540,877.55,877.54,726.12,877.54,540,726.12,202.45,540,202.45Z"/></svg>