<svg width="1764" height="687" viewBox="0 0 1764 687" fill="none" xmlns="http://www.w3.org/2000/svg">
<g filter="url(#filter0_d_139_95)">
<path d="M1043 285C1043 268.431 1056.43 255 1073 255H1708C1724.57 255 1738 268.431 1738 285V559C1738 575.569 1724.57 589 1708 589H1043V285Z" fill="white"/>
</g>
<path d="M208 499L52 589.067V408.933L208 499Z" fill="url(#paint0_linear_139_95)"/>
<g filter="url(#filter1_d_139_95)">
<path d="M448.248 255L1079 255V422V589H132L448.248 255Z" fill="white"/>
</g>
<g opacity="0.04">
<mask id="mask0_139_95" style="mask-type:alpha" maskUnits="userSpaceOnUse" x="170" y="255" width="908" height="334">
<path d="M438.372 264.374C444.038 258.39 451.916 255 460.157 255L1048 255C1064.57 255 1078 268.431 1078 285V422V559C1078 575.569 1064.57 589 1048 589H200.72C174.386 589 160.83 557.496 178.936 538.374L438.372 264.374Z" fill="#ECECEC"/>
</mask>
<g mask="url(#mask0_139_95)">
<path d="M998.954 452.458C999.172 452.456 999.39 452.453 999.614 452.451C1004.56 452.407 1009.32 452.482 1014.18 453.517C1014.44 453.572 1014.7 453.626 1014.97 453.683C1018.41 454.431 1021.72 455.443 1024.98 456.764C1025.16 456.833 1025.33 456.901 1025.51 456.972C1028.29 458.089 1030.98 459.44 1033.53 461.011C1033.7 461.113 1033.88 461.216 1034.05 461.321C1034.54 461.76 1034.54 461.76 1034.66 462.357C1034.66 462.594 1034.66 462.83 1034.66 463.073C1034.66 463.342 1034.66 463.611 1034.66 463.888C1034.64 465.134 1034.61 466.38 1034.57 467.626C1034.55 468.277 1034.54 468.928 1034.54 469.58C1034.55 473.041 1034.41 475.686 1031.93 478.29C1030.91 479.248 1029.87 480.15 1028.75 480.995C1027.81 480.636 1027.1 480.24 1026.3 479.621C1017.23 472.954 1005.87 469.557 994.637 471.15C983.505 472.876 973.587 478.757 966.861 487.748C960.08 497.217 957.385 508.655 959.277 520.15C960.843 528.791 964.897 536.343 970.946 542.697C971.139 542.902 971.332 543.107 971.531 543.319C979.568 551.603 990.989 555.465 1002.36 555.687C1013.52 555.732 1024.01 550.97 1032.02 543.446C1032.3 543.19 1032.3 543.19 1032.58 542.929C1039.62 536.217 1044.46 525.981 1044.88 516.282C1044.97 508.329 1044.14 501.288 1040.06 494.235C1039.97 494.069 1039.87 493.903 1039.78 493.732C1038.5 491.537 1037.07 489.573 1035.38 487.682C1034.84 487.058 1034.45 486.447 1034.03 485.742C1035.75 483.459 1037.61 481.103 1040.55 480.533C1042.45 480.309 1044.35 480.31 1046.27 480.324C1046.94 480.314 1047.61 480.297 1048.28 480.28C1049.9 480.245 1051.51 480.235 1053.13 480.246C1054.44 482.287 1055.63 484.333 1056.67 486.522C1056.86 486.928 1056.86 486.928 1057.06 487.343C1059.06 491.597 1060.45 495.886 1061.43 500.48C1061.48 500.727 1061.54 500.974 1061.59 501.228C1063.17 508.851 1063.07 517.36 1061.43 524.961C1061.35 525.339 1061.35 525.339 1061.27 525.724C1058.42 539.057 1050.57 551.912 1039.56 560.183C1039.42 560.291 1039.28 560.399 1039.13 560.51C1029.41 567.851 1017.33 572.871 1004.99 572.983C1004.76 572.985 1004.54 572.988 1004.31 572.99C999.3 573.034 994.465 572.972 989.545 571.924C989.165 571.846 989.165 571.846 988.778 571.766C975.394 568.939 962.384 561.143 954.106 550.191C953.923 549.951 953.923 549.951 953.736 549.706C948.117 542.289 944.235 534.05 942.293 524.961C942.239 524.714 942.186 524.467 942.131 524.213C940.553 516.596 940.645 508.074 942.293 500.48C942.348 500.222 942.403 499.963 942.46 499.697C945.879 484.125 955.486 470.871 968.694 461.996C977.682 456.316 988.225 452.559 998.954 452.458Z" fill="black"/>
<path d="M1023.22 485.991C1022.86 486.842 1022.38 487.393 1021.72 488.044C1021.51 488.249 1021.31 488.454 1021.09 488.665C1020.87 488.884 1020.65 489.103 1020.42 489.329C1020.19 489.554 1019.96 489.78 1019.73 490.013C1019.12 490.612 1018.52 491.21 1017.91 491.807C1017.29 492.417 1016.67 493.029 1016.06 493.641C1014.84 494.839 1013.63 496.036 1012.42 497.233C1011.47 496.861 1010.56 496.444 1009.64 495.999C1005.08 493.912 1000.05 493.701 995.316 495.422C990.325 497.51 986.757 500.864 984.628 505.811C982.815 510.399 982.84 515.408 984.77 519.965C987.068 524.972 990.738 528.218 995.829 530.207C1000.53 531.812 1005.48 531.371 1009.96 529.341C1014.84 526.889 1018 523.024 1019.72 517.925C1020.91 513.618 1020.72 508.691 1018.53 504.716C1018.26 504.246 1017.98 503.781 1017.69 503.322C1017.44 502.728 1017.44 502.728 1017.61 502.26C1018.01 501.627 1018.46 501.155 1019 500.63C1019.21 500.415 1019.43 500.2 1019.65 499.978C1019.89 499.748 1020.12 499.518 1020.36 499.282C1020.6 499.042 1020.84 498.803 1021.08 498.564C1021.72 497.935 1022.36 497.308 1022.99 496.681C1023.64 496.041 1024.29 495.399 1024.94 494.757C1026.21 493.499 1027.48 492.243 1028.75 490.987C1033.77 494.928 1036.73 501.993 1037.71 508.14C1037.89 509.721 1037.89 511.303 1037.88 512.892C1037.88 513.157 1037.88 513.157 1037.88 513.426C1037.84 522.924 1033.95 531.421 1027.42 538.282C1026.34 539.345 1025.2 540.29 1023.98 541.198C1023.74 541.38 1023.5 541.561 1023.25 541.749C1016.89 546.321 1009.84 548.499 1002.02 548.505C1001.73 548.505 1001.73 548.505 1001.43 548.505C998.652 548.502 996.019 548.403 993.315 547.693C993.151 547.654 992.986 547.615 992.816 547.575C988.494 546.554 984.299 544.601 980.748 541.948C980.539 541.792 980.33 541.637 980.115 541.476C979.474 540.982 978.853 540.471 978.235 539.949C977.994 539.747 977.753 539.544 977.505 539.335C975.556 537.652 973.956 535.787 972.454 533.704C972.354 533.565 972.254 533.427 972.151 533.284C968.754 528.491 966.476 522.821 965.919 516.967C965.903 516.809 965.886 516.651 965.869 516.488C964.972 507.465 967.423 498.077 973.208 490.987C974.09 489.95 975.025 488.968 975.973 487.99C976.147 487.798 976.321 487.607 976.5 487.409C981.444 482.136 988.768 479.067 995.829 477.998C996.043 477.965 996.256 477.933 996.477 477.899C1006.02 476.721 1015.74 480.196 1023.22 485.991Z" fill="black"/>
<path d="M1055.64 445C1056.39 445.399 1056.95 445.955 1057.54 446.547C1057.67 446.679 1057.81 446.812 1057.95 446.948C1058.39 447.386 1058.84 447.827 1059.28 448.268C1059.59 448.573 1059.9 448.879 1060.21 449.184C1060.86 449.824 1061.5 450.465 1062.15 451.107C1062.97 451.931 1063.81 452.751 1064.64 453.569C1065.28 454.198 1065.92 454.83 1066.55 455.463C1066.86 455.766 1067.16 456.068 1067.47 456.37C1067.9 456.791 1068.33 457.216 1068.75 457.642C1068.88 457.766 1069.01 457.891 1069.14 458.019C1069.97 458.861 1069.97 458.861 1070 459.518C1069.6 460.223 1069.1 460.721 1068.53 461.291C1068.4 461.415 1068.28 461.539 1068.15 461.666C1067.74 462.075 1067.33 462.481 1066.91 462.887C1066.63 463.171 1066.34 463.454 1066.05 463.738C1065.46 464.332 1064.86 464.925 1064.26 465.516C1063.48 466.276 1062.71 467.037 1061.95 467.8C1061.36 468.385 1060.77 468.97 1060.18 469.554C1059.89 469.835 1059.61 470.116 1059.32 470.396C1058.93 470.788 1058.53 471.179 1058.13 471.57C1057.91 471.792 1057.68 472.015 1057.45 472.245C1056.66 472.983 1056.19 473.041 1055.13 473.099C1054.73 473.121 1054.73 473.121 1054.32 473.144C1054.03 473.159 1053.74 473.174 1053.45 473.19C1053.15 473.206 1052.85 473.222 1052.55 473.239C1051.92 473.273 1051.29 473.307 1050.66 473.341C1049.7 473.391 1048.74 473.444 1047.78 473.497C1047.17 473.53 1046.56 473.563 1045.95 473.596C1045.67 473.611 1045.38 473.627 1045.09 473.643C1043.74 473.714 1042.41 473.77 1041.07 473.751C1041.14 471.843 1041.21 469.936 1041.3 468.028C1041.31 467.669 1041.33 467.309 1041.35 466.949C1041.4 465.769 1041.45 464.589 1041.51 463.409C1041.53 463.019 1041.55 462.628 1041.57 462.238C1041.59 461.684 1041.62 461.131 1041.65 460.578C1041.67 460.098 1041.67 460.098 1041.7 459.608C1041.92 458.126 1042.77 457.263 1043.8 456.221C1043.92 456.099 1044.04 455.976 1044.17 455.85C1044.57 455.449 1044.97 455.05 1045.37 454.651C1045.64 454.372 1045.92 454.093 1046.2 453.814C1046.78 453.232 1047.37 452.65 1047.95 452.069C1048.7 451.324 1049.44 450.574 1050.19 449.824C1050.76 449.247 1051.33 448.674 1051.91 448.101C1052.19 447.826 1052.46 447.549 1052.73 447.272C1053.12 446.886 1053.5 446.503 1053.89 446.122C1054.22 445.794 1054.22 445.794 1054.55 445.459C1055.15 445.023 1055.15 445.023 1055.64 445Z" fill="black"/>
<path d="M1006.89 502.478C1005.5 504.162 1003.95 505.678 1002.39 507.209C1002.12 507.478 1001.85 507.747 1001.58 508.016C1000.92 508.669 1000.26 509.321 999.599 509.973C1000.62 511.194 1001.7 512.339 1002.83 513.454C1002.98 513.601 1003.13 513.748 1003.29 513.9C1003.65 514.257 1004.01 514.613 1004.37 514.969C1006.07 513.588 1007.59 512.047 1009.13 510.503C1009.4 510.233 1009.67 509.963 1009.95 509.693C1010.6 509.038 1011.26 508.381 1011.91 507.724C1013.19 508.887 1013.29 510.571 1013.41 512.216C1013.46 515.747 1012.2 518.627 1009.76 521.166C1007.46 523.23 1004.68 524.203 1001.61 524.211C998.061 524.011 995.196 522.583 992.813 519.965C990.767 517.231 990.044 514.233 990.441 510.863C991.007 507.735 992.702 505.032 995.326 503.202C996.616 502.424 997.853 501.759 999.347 501.479C999.505 501.446 999.662 501.414 999.824 501.38C1002.16 500.991 1004.82 501.33 1006.89 502.478Z" fill="black"/>
<path d="M510.954 245.458C511.172 245.456 511.39 245.453 511.614 245.451C516.556 245.407 521.324 245.482 526.177 246.517C526.437 246.572 526.697 246.626 526.966 246.683C530.413 247.431 533.718 248.443 536.984 249.764C537.156 249.833 537.328 249.901 537.506 249.972C540.288 251.089 542.977 252.44 545.53 254.011C545.703 254.113 545.876 254.216 546.054 254.321C546.535 254.76 546.535 254.76 546.661 255.357C546.661 255.594 546.66 255.83 546.66 256.073C546.661 256.342 546.662 256.611 546.663 256.888C546.638 258.134 546.611 259.38 546.565 260.626C546.545 261.277 546.536 261.928 546.538 262.58C546.546 266.041 546.412 268.686 543.93 271.29C542.914 272.248 541.867 273.15 540.754 273.995C539.809 273.636 539.104 273.24 538.304 272.621C529.23 265.954 517.866 262.557 506.637 264.15C495.505 265.876 485.587 271.757 478.861 280.748C472.08 290.217 469.385 301.655 471.277 313.15C472.843 321.791 476.897 329.343 482.946 335.697C483.139 335.902 483.332 336.107 483.531 336.319C491.568 344.603 502.989 348.465 514.364 348.687C525.516 348.732 536.007 343.97 544.022 336.446C544.299 336.19 544.299 336.19 544.582 335.929C551.623 329.217 556.461 318.981 556.881 309.282C556.968 301.329 556.138 294.288 552.065 287.235C551.97 287.069 551.874 286.903 551.776 286.732C550.499 284.537 549.075 282.573 547.377 280.682C546.844 280.058 546.445 279.447 546.033 278.742C547.751 276.459 549.609 274.103 552.545 273.533C554.451 273.309 556.353 273.31 558.27 273.324C558.938 273.314 559.607 273.297 560.275 273.28C561.895 273.245 563.514 273.235 565.134 273.246C566.44 275.287 567.627 277.333 568.669 279.522C568.863 279.928 568.863 279.928 569.06 280.343C571.061 284.597 572.447 288.886 573.429 293.48C573.482 293.727 573.536 293.974 573.591 294.228C575.17 301.851 575.068 310.36 573.429 317.961C573.35 318.339 573.35 318.339 573.27 318.724C570.418 332.057 562.572 344.912 551.562 353.183C551.42 353.291 551.278 353.399 551.131 353.51C541.413 360.851 529.328 365.871 516.989 365.983C516.765 365.985 516.541 365.988 516.31 365.99C511.3 366.034 506.465 365.972 501.545 364.924C501.165 364.846 501.165 364.846 500.778 364.766C487.394 361.939 474.384 354.143 466.106 343.191C465.923 342.951 465.923 342.951 465.736 342.706C460.117 335.289 456.235 327.05 454.293 317.961C454.239 317.714 454.186 317.467 454.131 317.213C452.553 309.596 452.645 301.074 454.293 293.48C454.348 293.222 454.403 292.963 454.46 292.697C457.879 277.125 467.486 263.871 480.694 254.996C489.682 249.316 500.225 245.559 510.954 245.458Z" fill="black"/>
<path d="M535.225 278.991C534.855 279.842 534.378 280.393 533.719 281.044C533.513 281.249 533.307 281.454 533.094 281.665C532.871 281.884 532.648 282.103 532.419 282.329C532.191 282.554 531.963 282.78 531.728 283.013C531.123 283.612 530.517 284.21 529.911 284.807C529.291 285.417 528.674 286.029 528.056 286.641C526.844 287.839 525.631 289.036 524.417 290.233C523.467 289.861 522.555 289.444 521.637 288.999C517.079 286.912 512.048 286.701 507.316 288.422C502.325 290.51 498.757 293.864 496.628 298.811C494.815 303.399 494.84 308.408 496.77 312.965C499.068 317.972 502.738 321.218 507.829 323.207C512.53 324.812 517.476 324.371 521.958 322.341C526.84 319.889 529.999 316.024 531.722 310.925C532.911 306.618 532.721 301.691 530.534 297.716C530.26 297.246 529.98 296.781 529.689 296.322C529.444 295.728 529.444 295.728 529.614 295.26C530.01 294.627 530.464 294.155 530.996 293.63C531.212 293.415 531.429 293.2 531.651 292.978C531.885 292.748 532.119 292.518 532.36 292.282C532.602 292.042 532.843 291.803 533.085 291.564C533.719 290.935 534.355 290.308 534.991 289.681C535.641 289.041 536.289 288.399 536.937 287.757C538.208 286.499 539.481 285.243 540.754 283.987C545.775 287.928 548.734 294.993 549.707 301.14C549.889 302.721 549.89 304.303 549.881 305.892C549.881 306.157 549.881 306.157 549.88 306.426C549.838 315.924 545.945 324.421 539.424 331.282C538.34 332.345 537.196 333.29 535.979 334.198C535.737 334.38 535.495 334.561 535.246 334.749C528.893 339.321 521.839 341.499 514.018 341.505C513.729 341.505 513.729 341.505 513.435 341.505C510.652 341.502 508.019 341.403 505.315 340.693C505.151 340.654 504.986 340.615 504.816 340.575C500.494 339.554 496.299 337.601 492.748 334.948C492.539 334.792 492.33 334.637 492.115 334.476C491.474 333.982 490.853 333.471 490.235 332.949C489.994 332.747 489.753 332.544 489.505 332.335C487.556 330.652 485.956 328.787 484.454 326.704C484.354 326.565 484.254 326.427 484.151 326.284C480.754 321.491 478.476 315.821 477.919 309.967C477.903 309.809 477.886 309.651 477.869 309.488C476.972 300.465 479.423 291.077 485.208 283.987C486.09 282.95 487.025 281.968 487.973 280.99C488.147 280.798 488.321 280.607 488.5 280.409C493.444 275.136 500.768 272.067 507.829 270.998C508.043 270.965 508.256 270.933 508.477 270.899C518.019 269.721 527.742 273.196 535.225 278.991Z" fill="black"/>
<path d="M567.64 238C568.386 238.399 568.946 238.955 569.538 239.547C569.673 239.679 569.808 239.812 569.948 239.948C570.394 240.386 570.838 240.827 571.282 241.268C571.591 241.573 571.9 241.879 572.209 242.184C572.856 242.824 573.502 243.465 574.146 244.107C574.974 244.931 575.806 245.751 576.64 246.569C577.279 247.198 577.916 247.83 578.551 248.463C578.857 248.766 579.164 249.068 579.472 249.37C579.901 249.791 580.326 250.216 580.75 250.642C580.878 250.766 581.007 250.891 581.139 251.019C581.967 251.861 581.967 251.861 582 252.518C581.605 253.223 581.101 253.721 580.526 254.291C580.401 254.415 580.277 254.539 580.149 254.666C579.739 255.075 579.325 255.481 578.912 255.887C578.626 256.171 578.34 256.454 578.055 256.738C577.456 257.332 576.856 257.925 576.255 258.516C575.484 259.276 574.715 260.037 573.947 260.8C573.357 261.385 572.766 261.97 572.175 262.554C571.891 262.835 571.608 263.116 571.324 263.396C570.928 263.788 570.531 264.179 570.134 264.57C569.908 264.792 569.683 265.015 569.45 265.245C568.655 265.983 568.19 266.041 567.127 266.099C566.728 266.121 566.728 266.121 566.321 266.144C566.032 266.159 565.743 266.174 565.446 266.19C565.149 266.206 564.853 266.222 564.548 266.239C563.919 266.273 563.29 266.307 562.662 266.341C561.703 266.391 560.743 266.444 559.784 266.497C559.174 266.53 558.563 266.563 557.953 266.596C557.666 266.611 557.38 266.627 557.085 266.643C555.745 266.714 554.412 266.77 553.07 266.751C553.136 264.843 553.214 262.936 553.298 261.028C553.314 260.669 553.33 260.309 553.345 259.949C553.397 258.769 553.452 257.589 553.512 256.409C553.532 256.019 553.55 255.628 553.567 255.238C553.591 254.684 553.62 254.131 553.649 253.578C553.673 253.098 553.673 253.098 553.696 252.608C553.92 251.126 554.766 250.263 555.801 249.221C555.922 249.099 556.044 248.976 556.168 248.85C556.566 248.449 556.966 248.05 557.365 247.651C557.644 247.372 557.922 247.093 558.2 246.814C558.782 246.232 559.365 245.65 559.949 245.069C560.698 244.324 561.442 243.574 562.186 242.824C562.759 242.247 563.334 241.674 563.91 241.101C564.186 240.826 564.461 240.549 564.735 240.272C565.117 239.886 565.502 239.503 565.889 239.122C566.218 238.794 566.218 238.794 566.552 238.459C567.145 238.023 567.145 238.023 567.64 238Z" fill="black"/>
<path d="M518.888 295.478C517.499 297.162 515.948 298.678 514.395 300.209C514.123 300.478 513.852 300.747 513.58 301.016C512.92 301.669 512.26 302.321 511.599 302.973C512.621 304.194 513.696 305.339 514.835 306.454C514.984 306.601 515.133 306.748 515.286 306.9C515.648 307.257 516.011 307.613 516.374 307.969C518.069 306.588 519.593 305.047 521.134 303.503C521.404 303.233 521.675 302.963 521.946 302.693C522.603 302.038 523.259 301.381 523.915 300.724C525.189 301.887 525.292 303.571 525.412 305.216C525.462 308.747 524.202 311.627 521.758 314.166C519.464 316.23 516.683 317.203 513.61 317.211C510.061 317.011 507.196 315.583 504.813 312.965C502.767 310.231 502.044 307.233 502.441 303.863C503.007 300.735 504.702 298.032 507.326 296.202C508.616 295.424 509.853 294.759 511.347 294.479C511.505 294.446 511.662 294.414 511.824 294.38C514.164 293.991 516.822 294.33 518.888 295.478Z" fill="black"/>
<path d="M567.954 537.458C568.172 537.456 568.39 537.453 568.614 537.451C573.556 537.407 578.324 537.482 583.177 538.517C583.437 538.572 583.697 538.626 583.966 538.683C587.413 539.431 590.718 540.443 593.984 541.764C594.156 541.833 594.328 541.901 594.506 541.972C597.288 543.089 599.977 544.44 602.53 546.011C602.703 546.113 602.876 546.216 603.054 546.321C603.535 546.76 603.535 546.76 603.661 547.357C603.661 547.594 603.66 547.83 603.66 548.073C603.661 548.342 603.662 548.611 603.663 548.888C603.638 550.134 603.611 551.38 603.565 552.626C603.545 553.277 603.536 553.928 603.538 554.58C603.546 558.041 603.412 560.686 600.93 563.29C599.914 564.248 598.867 565.15 597.754 565.995C596.809 565.636 596.104 565.24 595.304 564.621C586.23 557.954 574.866 554.557 563.637 556.15C552.505 557.876 542.587 563.757 535.861 572.748C529.08 582.217 526.385 593.655 528.277 605.15C529.843 613.791 533.897 621.343 539.946 627.697C540.139 627.902 540.332 628.107 540.531 628.319C548.568 636.603 559.989 640.465 571.364 640.687C582.516 640.732 593.007 635.97 601.022 628.446C601.299 628.19 601.299 628.19 601.582 627.929C608.623 621.217 613.461 610.981 613.881 601.282C613.968 593.329 613.138 586.288 609.065 579.235C608.97 579.069 608.874 578.903 608.776 578.732C607.499 576.537 606.075 574.573 604.377 572.682C603.844 572.058 603.445 571.447 603.033 570.742C604.751 568.459 606.609 566.103 609.545 565.533C611.451 565.309 613.353 565.31 615.27 565.324C615.938 565.314 616.607 565.297 617.275 565.28C618.895 565.245 620.514 565.235 622.134 565.246C623.44 567.287 624.627 569.333 625.669 571.522C625.863 571.928 625.863 571.928 626.06 572.343C628.061 576.597 629.447 580.886 630.429 585.48C630.482 585.727 630.536 585.974 630.591 586.228C632.17 593.851 632.068 602.36 630.429 609.961C630.35 610.339 630.35 610.339 630.27 610.724C627.418 624.057 619.572 636.912 608.562 645.183C608.42 645.291 608.278 645.399 608.131 645.51C598.413 652.851 586.328 657.871 573.989 657.983C573.765 657.985 573.541 657.988 573.31 657.99C568.3 658.034 563.465 657.972 558.545 656.924C558.165 656.846 558.165 656.846 557.778 656.766C544.394 653.939 531.384 646.143 523.106 635.191C522.923 634.951 522.923 634.951 522.736 634.706C517.117 627.289 513.235 619.05 511.293 609.961C511.239 609.714 511.186 609.467 511.131 609.213C509.553 601.596 509.645 593.074 511.293 585.48C511.348 585.222 511.403 584.963 511.46 584.697C514.879 569.125 524.486 555.871 537.694 546.996C546.682 541.316 557.225 537.559 567.954 537.458Z" fill="black"/>
<path d="M592.225 570.991C591.855 571.842 591.378 572.393 590.719 573.044C590.513 573.249 590.307 573.454 590.094 573.665C589.871 573.884 589.648 574.103 589.419 574.329C589.191 574.554 588.963 574.78 588.728 575.013C588.123 575.612 587.517 576.21 586.911 576.807C586.291 577.417 585.674 578.029 585.056 578.641C583.844 579.839 582.631 581.036 581.417 582.233C580.467 581.861 579.555 581.444 578.637 580.999C574.079 578.912 569.048 578.701 564.316 580.422C559.325 582.51 555.757 585.864 553.628 590.811C551.815 595.399 551.84 600.408 553.77 604.965C556.068 609.972 559.738 613.218 564.829 615.207C569.53 616.812 574.476 616.371 578.958 614.341C583.84 611.889 586.999 608.024 588.722 602.925C589.911 598.618 589.721 593.691 587.534 589.716C587.26 589.246 586.98 588.781 586.689 588.322C586.444 587.728 586.444 587.728 586.614 587.26C587.01 586.627 587.464 586.155 587.996 585.63C588.212 585.415 588.429 585.2 588.651 584.978C588.885 584.748 589.119 584.518 589.36 584.282C589.602 584.042 589.843 583.803 590.085 583.564C590.719 582.935 591.355 582.308 591.991 581.681C592.641 581.041 593.289 580.399 593.937 579.757C595.208 578.499 596.481 577.243 597.754 575.987C602.775 579.928 605.734 586.993 606.707 593.14C606.889 594.721 606.89 596.303 606.881 597.892C606.881 598.157 606.881 598.157 606.88 598.426C606.838 607.924 602.945 616.421 596.424 623.282C595.34 624.345 594.196 625.29 592.979 626.198C592.737 626.38 592.495 626.561 592.246 626.749C585.893 631.321 578.839 633.499 571.018 633.505C570.729 633.505 570.729 633.505 570.435 633.505C567.652 633.502 565.019 633.403 562.315 632.693C562.151 632.654 561.986 632.615 561.816 632.575C557.494 631.554 553.299 629.601 549.748 626.948C549.539 626.792 549.33 626.637 549.115 626.476C548.474 625.982 547.853 625.471 547.235 624.949C546.994 624.747 546.753 624.544 546.505 624.335C544.556 622.652 542.956 620.787 541.454 618.704C541.354 618.565 541.254 618.427 541.151 618.284C537.754 613.491 535.476 607.821 534.919 601.967C534.903 601.809 534.886 601.651 534.869 601.488C533.972 592.465 536.423 583.077 542.208 575.987C543.09 574.95 544.025 573.968 544.973 572.99C545.147 572.798 545.321 572.607 545.5 572.409C550.444 567.136 557.768 564.067 564.829 562.998C565.043 562.965 565.256 562.933 565.477 562.899C575.019 561.721 584.742 565.196 592.225 570.991Z" fill="black"/>
<path d="M624.64 530C625.386 530.399 625.946 530.955 626.538 531.547C626.673 531.679 626.808 531.812 626.948 531.948C627.394 532.386 627.838 532.827 628.282 533.268C628.591 533.573 628.9 533.879 629.209 534.184C629.856 534.824 630.502 535.465 631.146 536.107C631.974 536.931 632.806 537.751 633.64 538.569C634.279 539.198 634.916 539.83 635.551 540.463C635.857 540.766 636.164 541.068 636.472 541.37C636.901 541.791 637.326 542.216 637.75 542.642C637.878 542.766 638.007 542.891 638.139 543.019C638.967 543.861 638.967 543.861 639 544.518C638.605 545.223 638.101 545.721 637.526 546.291C637.401 546.415 637.277 546.539 637.149 546.666C636.739 547.075 636.325 547.481 635.912 547.887C635.626 548.171 635.34 548.454 635.055 548.738C634.456 549.332 633.856 549.925 633.255 550.516C632.484 551.276 631.715 552.037 630.947 552.8C630.357 553.385 629.766 553.97 629.175 554.554C628.891 554.835 628.608 555.116 628.324 555.396C627.928 555.788 627.531 556.179 627.134 556.57C626.908 556.792 626.683 557.015 626.45 557.245C625.655 557.983 625.19 558.041 624.127 558.099C623.728 558.121 623.728 558.121 623.321 558.144C623.032 558.159 622.743 558.174 622.446 558.19C622.149 558.206 621.853 558.222 621.548 558.239C620.919 558.273 620.29 558.307 619.662 558.341C618.703 558.391 617.743 558.444 616.784 558.497C616.174 558.53 615.563 558.563 614.953 558.596C614.666 558.611 614.38 558.627 614.085 558.643C612.745 558.714 611.412 558.77 610.07 558.751C610.136 556.843 610.214 554.936 610.298 553.028C610.314 552.669 610.33 552.309 610.345 551.949C610.397 550.769 610.452 549.589 610.512 548.409C610.532 548.019 610.55 547.628 610.567 547.238C610.591 546.684 610.62 546.131 610.649 545.578C610.673 545.098 610.673 545.098 610.696 544.608C610.92 543.126 611.766 542.263 612.801 541.221C612.922 541.099 613.044 540.976 613.168 540.85C613.566 540.449 613.966 540.05 614.365 539.651C614.644 539.372 614.922 539.093 615.2 538.814C615.782 538.232 616.365 537.65 616.949 537.069C617.698 536.324 618.442 535.574 619.186 534.824C619.759 534.247 620.334 533.674 620.91 533.101C621.186 532.826 621.461 532.549 621.735 532.272C622.117 531.886 622.502 531.503 622.889 531.122C623.218 530.794 623.218 530.794 623.552 530.459C624.145 530.023 624.145 530.023 624.64 530Z" fill="black"/>
<path d="M575.888 587.478C574.499 589.162 572.948 590.678 571.395 592.209C571.123 592.478 570.852 592.747 570.58 593.016C569.92 593.669 569.26 594.321 568.599 594.973C569.621 596.194 570.696 597.339 571.835 598.454C571.984 598.601 572.133 598.748 572.286 598.9C572.648 599.257 573.011 599.613 573.374 599.969C575.069 598.588 576.593 597.047 578.134 595.503C578.404 595.233 578.675 594.963 578.946 594.693C579.603 594.038 580.259 593.381 580.915 592.724C582.189 593.887 582.292 595.571 582.412 597.216C582.462 600.747 581.202 603.627 578.758 606.166C576.464 608.23 573.683 609.203 570.61 609.211C567.061 609.011 564.196 607.583 561.813 604.965C559.767 602.231 559.044 599.233 559.441 595.863C560.007 592.735 561.702 590.032 564.326 588.202C565.616 587.424 566.853 586.759 568.347 586.479C568.505 586.446 568.662 586.414 568.824 586.38C571.164 585.991 573.822 586.33 575.888 587.478Z" fill="black"/>
<path d="M850.69 184.314C851.166 184.309 851.643 184.304 852.134 184.298C862.937 184.202 873.359 184.366 883.967 186.63C884.537 186.75 885.106 186.87 885.692 186.994C893.228 188.629 900.453 190.843 907.594 193.734C907.97 193.884 908.346 194.034 908.733 194.188C914.816 196.632 920.695 199.586 926.275 203.024C926.653 203.248 927.031 203.472 927.42 203.703C928.472 204.663 928.472 204.663 928.748 205.969C928.747 206.486 928.746 207.003 928.745 207.535C928.747 208.123 928.75 208.711 928.752 209.317C928.697 212.044 928.637 214.769 928.538 217.494C928.495 218.918 928.474 220.344 928.478 221.769C928.496 229.339 928.204 235.126 922.778 240.822C920.555 242.917 918.268 244.89 915.835 246.74C913.768 245.954 912.228 245.087 910.478 243.734C890.641 229.149 865.799 221.719 841.253 225.203C816.918 228.978 795.237 241.843 780.533 261.511C765.711 282.225 759.819 307.246 763.955 332.39C767.378 351.294 776.239 367.812 789.463 381.712C789.885 382.161 790.307 382.61 790.742 383.072C808.311 401.193 833.279 409.641 858.144 410.127C882.524 410.226 905.457 399.81 922.978 383.352C923.585 382.792 923.585 382.792 924.203 382.22C939.594 367.536 950.17 345.146 951.088 323.929C951.279 306.533 949.465 291.131 940.56 275.701C940.352 275.338 940.144 274.975 939.929 274.601C937.137 269.8 934.024 265.504 930.312 261.368C929.147 260.001 928.275 258.664 927.373 257.122C931.129 252.13 935.191 246.975 941.61 245.729C945.777 245.239 949.935 245.242 954.124 245.271C955.586 245.25 957.047 245.212 958.508 245.176C962.05 245.098 965.589 245.076 969.131 245.1C971.986 249.566 974.58 254.04 976.858 258.83C977.281 259.718 977.281 259.718 977.713 260.625C982.086 269.93 985.118 279.313 987.263 289.362C987.38 289.902 987.497 290.442 987.618 290.999C991.07 307.675 990.847 326.288 987.263 342.914C987.091 343.741 987.091 343.741 986.915 344.583C980.682 373.75 963.529 401.871 939.461 419.964C939.151 420.199 938.84 420.435 938.52 420.678C917.275 436.736 890.856 447.718 863.883 447.963C863.393 447.968 862.904 447.973 862.399 447.979C851.447 448.074 840.877 447.94 830.122 445.647C829.291 445.475 829.291 445.475 828.444 445.301C799.187 439.116 770.747 422.062 752.651 398.106C752.251 397.58 752.251 397.58 751.842 397.044C739.559 380.819 731.071 362.798 726.827 342.914C726.71 342.374 726.592 341.835 726.472 341.278C723.022 324.615 723.223 305.974 726.827 289.362C726.947 288.797 727.068 288.232 727.192 287.65C734.665 253.586 755.667 224.594 784.54 205.18C804.188 192.753 827.235 184.534 850.69 184.314Z" fill="black"/>
<path d="M903.747 257.669C902.939 259.528 901.896 260.735 900.456 262.159C900.005 262.607 899.554 263.056 899.089 263.518C898.602 263.997 898.115 264.475 897.613 264.969C897.115 265.463 896.616 265.957 896.103 266.466C894.781 267.777 893.456 269.084 892.13 270.39C890.777 271.725 889.426 273.063 888.075 274.401C885.427 277.023 882.775 279.642 880.121 282.259C878.044 281.445 876.051 280.533 874.043 279.561C864.08 274.996 853.081 274.535 842.738 278.299C831.827 282.866 824.027 290.202 819.374 301.024C815.41 311.061 815.465 322.018 819.683 331.985C824.706 342.938 832.731 350.039 843.858 354.39C854.136 357.9 864.947 356.937 874.745 352.496C885.417 347.133 892.324 338.678 896.09 327.524C898.689 318.102 898.274 307.324 893.493 298.629C892.895 297.601 892.281 296.583 891.647 295.578C891.11 294.281 891.11 294.281 891.483 293.257C892.348 291.872 893.34 290.84 894.503 289.69C894.976 289.219 895.449 288.749 895.936 288.265C896.447 287.762 896.958 287.259 897.485 286.741C898.013 286.218 898.541 285.694 899.069 285.17C900.456 283.795 901.846 282.423 903.237 281.052C904.657 279.651 906.073 278.247 907.49 276.843C910.269 274.092 913.051 271.343 915.835 268.597C926.81 277.218 933.278 292.671 935.405 306.119C935.803 309.577 935.806 313.038 935.787 316.514C935.785 317.092 935.785 317.092 935.784 317.683C935.693 338.459 927.182 357.046 912.927 372.055C910.558 374.381 908.056 376.447 905.396 378.434C904.867 378.831 904.339 379.228 903.795 379.637C889.905 389.639 874.486 394.404 857.388 394.417C856.757 394.418 856.757 394.418 856.113 394.418C850.03 394.41 844.275 394.195 838.364 392.641C838.004 392.556 837.644 392.471 837.273 392.383C827.824 390.149 818.654 385.878 810.892 380.073C810.435 379.733 809.978 379.392 809.507 379.042C808.107 377.96 806.748 376.844 805.397 375.701C804.871 375.258 804.345 374.815 803.802 374.359C799.542 370.677 796.044 366.597 792.76 362.04C792.541 361.737 792.322 361.433 792.097 361.121C784.673 350.638 779.693 338.234 778.474 325.428C778.438 325.082 778.402 324.736 778.365 324.379C776.405 304.641 781.762 284.107 794.408 268.597C796.336 266.327 798.38 264.18 800.452 262.04C800.832 261.621 801.213 261.202 801.605 260.77C812.413 249.234 828.422 242.522 843.858 240.182C844.326 240.111 844.793 240.04 845.275 239.967C866.135 237.39 887.389 244.991 903.747 257.669Z" fill="black"/>
<path d="M974.608 168C976.239 168.873 977.463 170.089 978.757 171.384C979.053 171.674 979.349 171.963 979.654 172.262C980.63 173.22 981.6 174.184 982.569 175.149C983.244 175.816 983.92 176.484 984.596 177.152C986.011 178.552 987.422 179.954 988.832 181.359C990.641 183.162 992.46 184.955 994.283 186.745C995.68 188.121 997.071 189.503 998.461 190.887C999.129 191.551 999.8 192.212 1000.47 192.872C1001.41 193.793 1002.34 194.722 1003.27 195.654C1003.55 195.926 1003.83 196.198 1004.12 196.479C1005.93 198.322 1005.93 198.322 1006 199.758C1005.14 201.299 1004.04 202.39 1002.78 203.636C1002.51 203.907 1002.23 204.178 1001.95 204.458C1001.06 205.352 1000.15 206.24 999.25 207.129C998.625 207.749 998 208.369 997.375 208.99C996.066 210.289 994.755 211.585 993.441 212.88C991.755 214.541 990.074 216.207 988.395 217.874C987.105 219.155 985.814 220.434 984.522 221.712C983.902 222.326 983.282 222.94 982.662 223.555C981.796 224.412 980.929 225.267 980.061 226.121C979.567 226.608 979.074 227.096 978.565 227.598C976.828 229.214 975.811 229.339 973.487 229.466C972.614 229.515 972.614 229.515 971.724 229.565C971.093 229.598 970.462 229.631 969.812 229.665C969.164 229.701 968.516 229.736 967.848 229.773C966.474 229.848 965.1 229.922 963.726 229.995C961.629 230.106 959.532 230.221 957.435 230.337C956.1 230.409 954.766 230.481 953.431 230.553C952.806 230.587 952.18 230.621 951.535 230.657C948.605 230.811 945.692 230.934 942.758 230.893C942.903 226.719 943.072 222.547 943.257 218.375C943.292 217.588 943.326 216.801 943.36 216.014C943.472 213.432 943.593 210.851 943.724 208.27C943.767 207.416 943.806 206.562 943.843 205.708C943.897 204.497 943.959 203.287 944.024 202.076C944.075 201.026 944.075 201.026 944.127 199.955C944.616 196.714 946.464 194.826 948.729 192.547C948.993 192.279 949.258 192.011 949.531 191.735C950.4 190.857 951.274 189.984 952.148 189.111C952.756 188.501 953.364 187.891 953.973 187.281C955.245 186.006 956.52 184.735 957.796 183.464C959.432 181.833 961.06 180.194 962.686 178.552C963.937 177.291 965.195 176.036 966.454 174.783C967.058 174.181 967.658 173.576 968.257 172.97C969.092 172.125 969.935 171.288 970.781 170.454C971.499 169.736 971.499 169.736 972.231 169.004C973.527 168.051 973.527 168.051 974.608 168Z" fill="black"/>
<path d="M868.034 293.734C864.997 297.418 861.608 300.732 858.212 304.082C857.618 304.67 857.025 305.258 856.431 305.847C854.989 307.275 853.545 308.702 852.1 310.128C854.335 312.8 856.685 315.304 859.174 317.744C859.5 318.065 859.825 318.387 860.161 318.718C860.953 319.499 861.746 320.278 862.539 321.056C866.243 318.037 869.576 314.666 872.944 311.289C873.535 310.698 874.127 310.107 874.718 309.517C876.154 308.083 877.589 306.647 879.022 305.209C881.808 307.753 882.033 311.437 882.296 315.035C882.406 322.759 879.651 329.059 874.309 334.613C869.293 339.127 863.214 341.257 856.495 341.275C848.737 340.837 842.476 337.713 837.265 331.985C832.793 326.005 831.212 319.446 832.079 312.074C833.318 305.233 837.022 299.32 842.759 295.316C845.579 293.615 848.283 292.161 851.55 291.548C851.894 291.476 852.237 291.405 852.591 291.331C857.708 290.481 863.517 291.223 868.034 293.734Z" fill="black"/>
</g>
</g>
<g opacity="0.04">
<mask id="mask1_139_95" style="mask-type:alpha" maskUnits="userSpaceOnUse" x="830" y="255" width="908" height="334">
<path d="M1098.37 579.626C1104.04 585.61 1111.92 589 1120.16 589L1708 589C1724.57 589 1738 575.569 1738 559V422V285C1738 268.431 1724.57 255 1708 255H860.72C834.386 255 820.83 286.504 838.936 305.626L1098.37 579.626Z" fill="#ECECEC"/>
</mask>
<g mask="url(#mask1_139_95)">
<path d="M1658.95 391.542C1659.17 391.544 1659.39 391.547 1659.61 391.549C1664.56 391.593 1669.32 391.518 1674.18 390.483C1674.44 390.428 1674.7 390.374 1674.97 390.317C1678.41 389.569 1681.72 388.557 1684.98 387.236C1685.16 387.167 1685.33 387.099 1685.51 387.028C1688.29 385.911 1690.98 384.56 1693.53 382.989C1693.7 382.887 1693.88 382.784 1694.05 382.679C1694.54 382.24 1694.54 382.24 1694.66 381.643C1694.66 381.406 1694.66 381.17 1694.66 380.927C1694.66 380.658 1694.66 380.389 1694.66 380.112C1694.64 378.866 1694.61 377.62 1694.57 376.374C1694.55 375.723 1694.54 375.072 1694.54 374.42C1694.55 370.959 1694.41 368.314 1691.93 365.71C1690.91 364.752 1689.87 363.85 1688.75 363.005C1687.81 363.364 1687.1 363.76 1686.3 364.379C1677.23 371.046 1665.87 374.443 1654.64 372.85C1643.51 371.124 1633.59 365.243 1626.86 356.252C1620.08 346.783 1617.39 335.345 1619.28 323.85C1620.84 315.209 1624.9 307.657 1630.95 301.303C1631.14 301.098 1631.33 300.893 1631.53 300.681C1639.57 292.397 1650.99 288.535 1662.36 288.313C1673.52 288.268 1684.01 293.03 1692.02 300.554C1692.3 300.81 1692.3 300.81 1692.58 301.071C1699.62 307.783 1704.46 318.019 1704.88 327.718C1704.97 335.671 1704.14 342.712 1700.06 349.765C1699.97 349.931 1699.87 350.097 1699.78 350.268C1698.5 352.463 1697.07 354.427 1695.38 356.318C1694.84 356.942 1694.45 357.553 1694.03 358.258C1695.75 360.541 1697.61 362.897 1700.55 363.467C1702.45 363.691 1704.35 363.69 1706.27 363.676C1706.94 363.686 1707.61 363.703 1708.28 363.72C1709.9 363.755 1711.51 363.765 1713.13 363.754C1714.44 361.713 1715.63 359.667 1716.67 357.478C1716.86 357.072 1716.86 357.072 1717.06 356.657C1719.06 352.403 1720.45 348.114 1721.43 343.52C1721.48 343.273 1721.54 343.026 1721.59 342.772C1723.17 335.149 1723.07 326.64 1721.43 319.039C1721.35 318.661 1721.35 318.661 1721.27 318.276C1718.42 304.943 1710.57 292.088 1699.56 283.817C1699.42 283.709 1699.28 283.601 1699.13 283.49C1689.41 276.149 1677.33 271.129 1664.99 271.017C1664.76 271.015 1664.54 271.012 1664.31 271.01C1659.3 270.966 1654.46 271.028 1649.55 272.076C1649.17 272.154 1649.17 272.154 1648.78 272.234C1635.39 275.061 1622.38 282.857 1614.11 293.809C1613.92 294.049 1613.92 294.049 1613.74 294.294C1608.12 301.711 1604.23 309.95 1602.29 319.039C1602.24 319.286 1602.19 319.533 1602.13 319.787C1600.55 327.404 1600.64 335.926 1602.29 343.52C1602.35 343.778 1602.4 344.037 1602.46 344.303C1605.88 359.875 1615.49 373.129 1628.69 382.004C1637.68 387.684 1648.22 391.441 1658.95 391.542Z" fill="black"/>
<path d="M1683.22 358.009C1682.86 357.158 1682.38 356.607 1681.72 355.956C1681.51 355.751 1681.31 355.546 1681.09 355.335C1680.87 355.116 1680.65 354.897 1680.42 354.671C1680.19 354.446 1679.96 354.22 1679.73 353.987C1679.12 353.388 1678.52 352.79 1677.91 352.193C1677.29 351.583 1676.67 350.971 1676.06 350.359C1674.84 349.161 1673.63 347.964 1672.42 346.767C1671.47 347.139 1670.56 347.556 1669.64 348.001C1665.08 350.088 1660.05 350.299 1655.32 348.578C1650.33 346.49 1646.76 343.136 1644.63 338.189C1642.82 333.601 1642.84 328.592 1644.77 324.035C1647.07 319.028 1650.74 315.782 1655.83 313.793C1660.53 312.188 1665.48 312.629 1669.96 314.659C1674.84 317.111 1678 320.976 1679.72 326.075C1680.91 330.382 1680.72 335.309 1678.53 339.284C1678.26 339.754 1677.98 340.219 1677.69 340.678C1677.44 341.272 1677.44 341.272 1677.61 341.74C1678.01 342.373 1678.46 342.845 1679 343.37C1679.21 343.585 1679.43 343.8 1679.65 344.022C1679.89 344.252 1680.12 344.482 1680.36 344.718C1680.6 344.958 1680.84 345.197 1681.08 345.436C1681.72 346.065 1682.36 346.692 1682.99 347.319C1683.64 347.959 1684.29 348.601 1684.94 349.243C1686.21 350.501 1687.48 351.757 1688.75 353.013C1693.77 349.072 1696.73 342.007 1697.71 335.86C1697.89 334.279 1697.89 332.697 1697.88 331.108C1697.88 330.843 1697.88 330.843 1697.88 330.574C1697.84 321.076 1693.95 312.579 1687.42 305.718C1686.34 304.655 1685.2 303.71 1683.98 302.802C1683.74 302.62 1683.5 302.439 1683.25 302.251C1676.89 297.679 1669.84 295.501 1662.02 295.495C1661.73 295.495 1661.73 295.495 1661.43 295.495C1658.65 295.498 1656.02 295.597 1653.32 296.307C1653.15 296.346 1652.99 296.385 1652.82 296.425C1648.49 297.446 1644.3 299.399 1640.75 302.052C1640.54 302.208 1640.33 302.363 1640.11 302.524C1639.47 303.018 1638.85 303.529 1638.23 304.051C1637.99 304.253 1637.75 304.456 1637.51 304.665C1635.56 306.348 1633.96 308.213 1632.45 310.296C1632.35 310.435 1632.25 310.573 1632.15 310.716C1628.75 315.509 1626.48 321.179 1625.92 327.033C1625.9 327.191 1625.89 327.349 1625.87 327.512C1624.97 336.535 1627.42 345.923 1633.21 353.013C1634.09 354.05 1635.03 355.032 1635.97 356.01C1636.15 356.202 1636.32 356.393 1636.5 356.591C1641.44 361.864 1648.77 364.933 1655.83 366.002C1656.04 366.035 1656.26 366.067 1656.48 366.101C1666.02 367.279 1675.74 363.804 1683.22 358.009Z" fill="black"/>
<path d="M1715.64 399C1716.39 398.601 1716.95 398.045 1717.54 397.453C1717.67 397.321 1717.81 397.188 1717.95 397.052C1718.39 396.614 1718.84 396.173 1719.28 395.732C1719.59 395.427 1719.9 395.121 1720.21 394.816C1720.86 394.176 1721.5 393.535 1722.15 392.893C1722.97 392.069 1723.81 391.249 1724.64 390.431C1725.28 389.802 1725.92 389.17 1726.55 388.537C1726.86 388.234 1727.16 387.932 1727.47 387.63C1727.9 387.209 1728.33 386.784 1728.75 386.358C1728.88 386.234 1729.01 386.109 1729.14 385.981C1729.97 385.139 1729.97 385.139 1730 384.482C1729.6 383.777 1729.1 383.279 1728.53 382.709C1728.4 382.585 1728.28 382.461 1728.15 382.334C1727.74 381.925 1727.33 381.519 1726.91 381.113C1726.63 380.829 1726.34 380.546 1726.05 380.262C1725.46 379.668 1724.86 379.075 1724.26 378.484C1723.48 377.724 1722.71 376.963 1721.95 376.2C1721.36 375.615 1720.77 375.03 1720.18 374.446C1719.89 374.165 1719.61 373.884 1719.32 373.604C1718.93 373.212 1718.53 372.821 1718.13 372.43C1717.91 372.208 1717.68 371.985 1717.45 371.755C1716.66 371.017 1716.19 370.959 1715.13 370.901C1714.73 370.879 1714.73 370.879 1714.32 370.856C1714.03 370.841 1713.74 370.826 1713.45 370.81C1713.15 370.794 1712.85 370.778 1712.55 370.761C1711.92 370.727 1711.29 370.693 1710.66 370.659C1709.7 370.609 1708.74 370.556 1707.78 370.503C1707.17 370.47 1706.56 370.437 1705.95 370.404C1705.67 370.389 1705.38 370.373 1705.09 370.357C1703.74 370.286 1702.41 370.23 1701.07 370.249C1701.14 372.157 1701.21 374.064 1701.3 375.972C1701.31 376.331 1701.33 376.691 1701.35 377.051C1701.4 378.231 1701.45 379.411 1701.51 380.591C1701.53 380.981 1701.55 381.372 1701.57 381.762C1701.59 382.316 1701.62 382.869 1701.65 383.422C1701.67 383.902 1701.67 383.902 1701.7 384.392C1701.92 385.874 1702.77 386.737 1703.8 387.779C1703.92 387.901 1704.04 388.024 1704.17 388.15C1704.57 388.551 1704.97 388.95 1705.37 389.349C1705.64 389.628 1705.92 389.907 1706.2 390.186C1706.78 390.768 1707.37 391.35 1707.95 391.931C1708.7 392.676 1709.44 393.426 1710.19 394.176C1710.76 394.753 1711.33 395.326 1711.91 395.899C1712.19 396.174 1712.46 396.451 1712.73 396.728C1713.12 397.114 1713.5 397.497 1713.89 397.878C1714.22 398.206 1714.22 398.206 1714.55 398.541C1715.15 398.977 1715.15 398.977 1715.64 399Z" fill="black"/>
<path d="M1666.89 341.522C1665.5 339.838 1663.95 338.322 1662.39 336.791C1662.12 336.522 1661.85 336.253 1661.58 335.984C1660.92 335.331 1660.26 334.679 1659.6 334.027C1660.62 332.806 1661.7 331.661 1662.83 330.546C1662.98 330.399 1663.13 330.252 1663.29 330.1C1663.65 329.743 1664.01 329.387 1664.37 329.031C1666.07 330.412 1667.59 331.953 1669.13 333.497C1669.4 333.767 1669.67 334.037 1669.95 334.307C1670.6 334.962 1671.26 335.619 1671.91 336.276C1673.19 335.113 1673.29 333.429 1673.41 331.784C1673.46 328.253 1672.2 325.373 1669.76 322.834C1667.46 320.77 1664.68 319.797 1661.61 319.789C1658.06 319.989 1655.2 321.417 1652.81 324.035C1650.77 326.769 1650.04 329.767 1650.44 333.137C1651.01 336.265 1652.7 338.968 1655.33 340.798C1656.62 341.576 1657.85 342.241 1659.35 342.521C1659.5 342.554 1659.66 342.586 1659.82 342.62C1662.16 343.009 1664.82 342.67 1666.89 341.522Z" fill="black"/>
<path d="M1170.95 598.542C1171.17 598.544 1171.39 598.547 1171.61 598.549C1176.56 598.593 1181.32 598.518 1186.18 597.483C1186.44 597.428 1186.7 597.374 1186.97 597.317C1190.41 596.569 1193.72 595.557 1196.98 594.236C1197.16 594.167 1197.33 594.099 1197.51 594.028C1200.29 592.911 1202.98 591.56 1205.53 589.989C1205.7 589.887 1205.88 589.784 1206.05 589.679C1206.54 589.24 1206.54 589.24 1206.66 588.643C1206.66 588.406 1206.66 588.17 1206.66 587.927C1206.66 587.658 1206.66 587.389 1206.66 587.112C1206.64 585.866 1206.61 584.62 1206.57 583.374C1206.55 582.723 1206.54 582.072 1206.54 581.42C1206.55 577.959 1206.41 575.314 1203.93 572.71C1202.91 571.752 1201.87 570.85 1200.75 570.005C1199.81 570.364 1199.1 570.76 1198.3 571.379C1189.23 578.046 1177.87 581.443 1166.64 579.85C1155.51 578.124 1145.59 572.243 1138.86 563.252C1132.08 553.783 1129.39 542.345 1131.28 530.85C1132.84 522.209 1136.9 514.657 1142.95 508.303C1143.14 508.098 1143.33 507.893 1143.53 507.681C1151.57 499.397 1162.99 495.535 1174.36 495.313C1185.52 495.268 1196.01 500.03 1204.02 507.554C1204.3 507.81 1204.3 507.81 1204.58 508.071C1211.62 514.783 1216.46 525.019 1216.88 534.718C1216.97 542.671 1216.14 549.712 1212.06 556.765C1211.97 556.931 1211.87 557.097 1211.78 557.268C1210.5 559.463 1209.07 561.427 1207.38 563.318C1206.84 563.942 1206.45 564.553 1206.03 565.258C1207.75 567.541 1209.61 569.897 1212.55 570.467C1214.45 570.691 1216.35 570.69 1218.27 570.676C1218.94 570.686 1219.61 570.703 1220.28 570.72C1221.9 570.755 1223.51 570.765 1225.13 570.754C1226.44 568.713 1227.63 566.667 1228.67 564.478C1228.86 564.072 1228.86 564.072 1229.06 563.657C1231.06 559.403 1232.45 555.114 1233.43 550.52C1233.48 550.273 1233.54 550.026 1233.59 549.772C1235.17 542.149 1235.07 533.64 1233.43 526.039C1233.35 525.661 1233.35 525.661 1233.27 525.276C1230.42 511.943 1222.57 499.088 1211.56 490.817C1211.42 490.709 1211.28 490.601 1211.13 490.49C1201.41 483.149 1189.33 478.129 1176.99 478.017C1176.76 478.015 1176.54 478.012 1176.31 478.01C1171.3 477.966 1166.46 478.028 1161.55 479.076C1161.17 479.154 1161.17 479.154 1160.78 479.234C1147.39 482.061 1134.38 489.857 1126.11 500.809C1125.92 501.049 1125.92 501.049 1125.74 501.294C1120.12 508.711 1116.23 516.95 1114.29 526.039C1114.24 526.286 1114.19 526.533 1114.13 526.787C1112.55 534.404 1112.64 542.926 1114.29 550.52C1114.35 550.778 1114.4 551.037 1114.46 551.303C1117.88 566.875 1127.49 580.129 1140.69 589.004C1149.68 594.684 1160.22 598.441 1170.95 598.542Z" fill="black"/>
<path d="M1195.22 565.009C1194.86 564.158 1194.38 563.607 1193.72 562.956C1193.51 562.751 1193.31 562.546 1193.09 562.335C1192.87 562.116 1192.65 561.897 1192.42 561.671C1192.19 561.446 1191.96 561.22 1191.73 560.987C1191.12 560.388 1190.52 559.79 1189.91 559.193C1189.29 558.583 1188.67 557.971 1188.06 557.359C1186.84 556.161 1185.63 554.964 1184.42 553.767C1183.47 554.139 1182.56 554.556 1181.64 555.001C1177.08 557.088 1172.05 557.299 1167.32 555.578C1162.33 553.49 1158.76 550.136 1156.63 545.189C1154.82 540.601 1154.84 535.592 1156.77 531.035C1159.07 526.028 1162.74 522.782 1167.83 520.793C1172.53 519.188 1177.48 519.629 1181.96 521.659C1186.84 524.111 1190 527.976 1191.72 533.075C1192.91 537.382 1192.72 542.309 1190.53 546.284C1190.26 546.754 1189.98 547.219 1189.69 547.678C1189.44 548.272 1189.44 548.272 1189.61 548.74C1190.01 549.373 1190.46 549.845 1191 550.37C1191.21 550.585 1191.43 550.8 1191.65 551.022C1191.89 551.252 1192.12 551.482 1192.36 551.718C1192.6 551.958 1192.84 552.197 1193.08 552.436C1193.72 553.065 1194.36 553.692 1194.99 554.319C1195.64 554.959 1196.29 555.601 1196.94 556.243C1198.21 557.501 1199.48 558.757 1200.75 560.013C1205.77 556.072 1208.73 549.007 1209.71 542.86C1209.89 541.279 1209.89 539.697 1209.88 538.108C1209.88 537.843 1209.88 537.843 1209.88 537.574C1209.84 528.076 1205.95 519.579 1199.42 512.718C1198.34 511.655 1197.2 510.71 1195.98 509.802C1195.74 509.62 1195.5 509.439 1195.25 509.251C1188.89 504.679 1181.84 502.501 1174.02 502.495C1173.73 502.495 1173.73 502.495 1173.43 502.495C1170.65 502.498 1168.02 502.597 1165.32 503.307C1165.15 503.346 1164.99 503.385 1164.82 503.425C1160.49 504.446 1156.3 506.399 1152.75 509.052C1152.54 509.208 1152.33 509.363 1152.11 509.524C1151.47 510.018 1150.85 510.529 1150.23 511.051C1149.99 511.253 1149.75 511.456 1149.51 511.665C1147.56 513.348 1145.96 515.213 1144.45 517.296C1144.35 517.435 1144.25 517.573 1144.15 517.716C1140.75 522.509 1138.48 528.179 1137.92 534.033C1137.9 534.191 1137.89 534.349 1137.87 534.512C1136.97 543.535 1139.42 552.923 1145.21 560.013C1146.09 561.05 1147.03 562.032 1147.97 563.01C1148.15 563.202 1148.32 563.393 1148.5 563.591C1153.44 568.864 1160.77 571.933 1167.83 573.002C1168.04 573.035 1168.26 573.067 1168.48 573.101C1178.02 574.279 1187.74 570.804 1195.22 565.009Z" fill="black"/>
<path d="M1227.64 606C1228.39 605.601 1228.95 605.045 1229.54 604.453C1229.67 604.321 1229.81 604.188 1229.95 604.052C1230.39 603.614 1230.84 603.173 1231.28 602.732C1231.59 602.427 1231.9 602.121 1232.21 601.816C1232.86 601.176 1233.5 600.535 1234.15 599.893C1234.97 599.069 1235.81 598.249 1236.64 597.431C1237.28 596.802 1237.92 596.17 1238.55 595.537C1238.86 595.234 1239.16 594.932 1239.47 594.63C1239.9 594.209 1240.33 593.784 1240.75 593.358C1240.88 593.234 1241.01 593.109 1241.14 592.981C1241.97 592.139 1241.97 592.139 1242 591.482C1241.6 590.777 1241.1 590.279 1240.53 589.709C1240.4 589.585 1240.28 589.461 1240.15 589.334C1239.74 588.925 1239.33 588.519 1238.91 588.113C1238.63 587.829 1238.34 587.546 1238.05 587.262C1237.46 586.668 1236.86 586.075 1236.26 585.484C1235.48 584.724 1234.71 583.963 1233.95 583.2C1233.36 582.615 1232.77 582.03 1232.18 581.446C1231.89 581.165 1231.61 580.884 1231.32 580.604C1230.93 580.212 1230.53 579.821 1230.13 579.43C1229.91 579.208 1229.68 578.985 1229.45 578.755C1228.66 578.017 1228.19 577.959 1227.13 577.901C1226.73 577.879 1226.73 577.879 1226.32 577.856C1226.03 577.841 1225.74 577.826 1225.45 577.81C1225.15 577.794 1224.85 577.778 1224.55 577.761C1223.92 577.727 1223.29 577.693 1222.66 577.659C1221.7 577.609 1220.74 577.556 1219.78 577.503C1219.17 577.47 1218.56 577.437 1217.95 577.404C1217.67 577.389 1217.38 577.373 1217.09 577.357C1215.74 577.286 1214.41 577.23 1213.07 577.249C1213.14 579.157 1213.21 581.064 1213.3 582.972C1213.31 583.331 1213.33 583.691 1213.35 584.051C1213.4 585.231 1213.45 586.411 1213.51 587.591C1213.53 587.981 1213.55 588.372 1213.57 588.762C1213.59 589.316 1213.62 589.869 1213.65 590.422C1213.67 590.902 1213.67 590.902 1213.7 591.392C1213.92 592.874 1214.77 593.737 1215.8 594.779C1215.92 594.901 1216.04 595.024 1216.17 595.15C1216.57 595.551 1216.97 595.95 1217.37 596.349C1217.64 596.628 1217.92 596.907 1218.2 597.186C1218.78 597.768 1219.37 598.35 1219.95 598.931C1220.7 599.676 1221.44 600.426 1222.19 601.176C1222.76 601.753 1223.33 602.326 1223.91 602.899C1224.19 603.174 1224.46 603.451 1224.73 603.728C1225.12 604.114 1225.5 604.497 1225.89 604.878C1226.22 605.206 1226.22 605.206 1226.55 605.541C1227.15 605.977 1227.15 605.977 1227.64 606Z" fill="black"/>
<path d="M1178.89 548.522C1177.5 546.838 1175.95 545.322 1174.39 543.791C1174.12 543.522 1173.85 543.253 1173.58 542.984C1172.92 542.331 1172.26 541.679 1171.6 541.027C1172.62 539.806 1173.7 538.661 1174.83 537.546C1174.98 537.399 1175.13 537.252 1175.29 537.1C1175.65 536.743 1176.01 536.387 1176.37 536.031C1178.07 537.412 1179.59 538.953 1181.13 540.497C1181.4 540.767 1181.67 541.037 1181.95 541.307C1182.6 541.962 1183.26 542.619 1183.91 543.276C1185.19 542.113 1185.29 540.429 1185.41 538.784C1185.46 535.253 1184.2 532.373 1181.76 529.834C1179.46 527.77 1176.68 526.797 1173.61 526.789C1170.06 526.989 1167.2 528.417 1164.81 531.035C1162.77 533.769 1162.04 536.767 1162.44 540.137C1163.01 543.265 1164.7 545.968 1167.33 547.798C1168.62 548.576 1169.85 549.241 1171.35 549.521C1171.5 549.554 1171.66 549.586 1171.82 549.62C1174.16 550.009 1176.82 549.67 1178.89 548.522Z" fill="black"/>
<path d="M1227.95 306.542C1228.17 306.544 1228.39 306.547 1228.61 306.549C1233.56 306.593 1238.32 306.518 1243.18 305.483C1243.44 305.428 1243.7 305.374 1243.97 305.317C1247.41 304.569 1250.72 303.557 1253.98 302.236C1254.16 302.167 1254.33 302.099 1254.51 302.028C1257.29 300.911 1259.98 299.56 1262.53 297.989C1262.7 297.887 1262.88 297.784 1263.05 297.679C1263.54 297.24 1263.54 297.24 1263.66 296.643C1263.66 296.406 1263.66 296.17 1263.66 295.927C1263.66 295.658 1263.66 295.389 1263.66 295.112C1263.64 293.866 1263.61 292.62 1263.57 291.374C1263.55 290.723 1263.54 290.072 1263.54 289.42C1263.55 285.959 1263.41 283.314 1260.93 280.71C1259.91 279.752 1258.87 278.85 1257.75 278.005C1256.81 278.364 1256.1 278.76 1255.3 279.379C1246.23 286.046 1234.87 289.443 1223.64 287.85C1212.51 286.124 1202.59 280.243 1195.86 271.252C1189.08 261.783 1186.39 250.345 1188.28 238.85C1189.84 230.209 1193.9 222.657 1199.95 216.303C1200.14 216.098 1200.33 215.893 1200.53 215.681C1208.57 207.397 1219.99 203.535 1231.36 203.313C1242.52 203.268 1253.01 208.03 1261.02 215.554C1261.3 215.81 1261.3 215.81 1261.58 216.071C1268.62 222.783 1273.46 233.019 1273.88 242.718C1273.97 250.671 1273.14 257.712 1269.06 264.765C1268.97 264.931 1268.87 265.097 1268.78 265.268C1267.5 267.463 1266.07 269.427 1264.38 271.318C1263.84 271.942 1263.45 272.553 1263.03 273.258C1264.75 275.541 1266.61 277.897 1269.55 278.467C1271.45 278.691 1273.35 278.69 1275.27 278.676C1275.94 278.686 1276.61 278.703 1277.28 278.72C1278.9 278.755 1280.51 278.765 1282.13 278.754C1283.44 276.713 1284.63 274.667 1285.67 272.478C1285.86 272.072 1285.86 272.072 1286.06 271.657C1288.06 267.403 1289.45 263.114 1290.43 258.52C1290.48 258.273 1290.54 258.026 1290.59 257.772C1292.17 250.149 1292.07 241.64 1290.43 234.039C1290.35 233.661 1290.35 233.661 1290.27 233.276C1287.42 219.943 1279.57 207.088 1268.56 198.817C1268.42 198.709 1268.28 198.601 1268.13 198.49C1258.41 191.149 1246.33 186.129 1233.99 186.017C1233.76 186.015 1233.54 186.012 1233.31 186.01C1228.3 185.966 1223.46 186.028 1218.55 187.076C1218.17 187.154 1218.17 187.154 1217.78 187.234C1204.39 190.061 1191.38 197.857 1183.11 208.809C1182.92 209.049 1182.92 209.049 1182.74 209.294C1177.12 216.711 1173.23 224.95 1171.29 234.039C1171.24 234.286 1171.19 234.533 1171.13 234.787C1169.55 242.404 1169.64 250.926 1171.29 258.52C1171.35 258.778 1171.4 259.037 1171.46 259.303C1174.88 274.875 1184.49 288.129 1197.69 297.004C1206.68 302.684 1217.22 306.441 1227.95 306.542Z" fill="black"/>
<path d="M1252.22 273.009C1251.86 272.158 1251.38 271.607 1250.72 270.956C1250.51 270.751 1250.31 270.546 1250.09 270.335C1249.87 270.116 1249.65 269.897 1249.42 269.671C1249.19 269.446 1248.96 269.22 1248.73 268.987C1248.12 268.388 1247.52 267.79 1246.91 267.193C1246.29 266.583 1245.67 265.971 1245.06 265.359C1243.84 264.161 1242.63 262.964 1241.42 261.767C1240.47 262.139 1239.56 262.556 1238.64 263.001C1234.08 265.088 1229.05 265.299 1224.32 263.578C1219.33 261.49 1215.76 258.136 1213.63 253.189C1211.82 248.601 1211.84 243.592 1213.77 239.035C1216.07 234.028 1219.74 230.782 1224.83 228.793C1229.53 227.188 1234.48 227.629 1238.96 229.659C1243.84 232.111 1247 235.976 1248.72 241.075C1249.91 245.382 1249.72 250.309 1247.53 254.284C1247.26 254.754 1246.98 255.219 1246.69 255.678C1246.44 256.272 1246.44 256.272 1246.61 256.74C1247.01 257.373 1247.46 257.845 1248 258.37C1248.21 258.585 1248.43 258.8 1248.65 259.022C1248.89 259.252 1249.12 259.482 1249.36 259.718C1249.6 259.958 1249.84 260.197 1250.08 260.436C1250.72 261.065 1251.36 261.692 1251.99 262.319C1252.64 262.959 1253.29 263.601 1253.94 264.243C1255.21 265.501 1256.48 266.757 1257.75 268.013C1262.77 264.072 1265.73 257.007 1266.71 250.86C1266.89 249.279 1266.89 247.697 1266.88 246.108C1266.88 245.843 1266.88 245.843 1266.88 245.574C1266.84 236.076 1262.95 227.579 1256.42 220.718C1255.34 219.655 1254.2 218.71 1252.98 217.802C1252.74 217.62 1252.5 217.439 1252.25 217.251C1245.89 212.679 1238.84 210.501 1231.02 210.495C1230.73 210.495 1230.73 210.495 1230.43 210.495C1227.65 210.498 1225.02 210.597 1222.32 211.307C1222.15 211.346 1221.99 211.385 1221.82 211.425C1217.49 212.446 1213.3 214.399 1209.75 217.052C1209.54 217.208 1209.33 217.363 1209.11 217.524C1208.47 218.018 1207.85 218.529 1207.23 219.051C1206.99 219.253 1206.75 219.456 1206.51 219.665C1204.56 221.348 1202.96 223.213 1201.45 225.296C1201.35 225.435 1201.25 225.573 1201.15 225.716C1197.75 230.509 1195.48 236.179 1194.92 242.033C1194.9 242.191 1194.89 242.349 1194.87 242.512C1193.97 251.535 1196.42 260.923 1202.21 268.013C1203.09 269.05 1204.03 270.032 1204.97 271.01C1205.15 271.202 1205.32 271.393 1205.5 271.591C1210.44 276.864 1217.77 279.933 1224.83 281.002C1225.04 281.035 1225.26 281.067 1225.48 281.101C1235.02 282.279 1244.74 278.804 1252.22 273.009Z" fill="black"/>
<path d="M1284.64 314C1285.39 313.601 1285.95 313.045 1286.54 312.453C1286.67 312.321 1286.81 312.188 1286.95 312.052C1287.39 311.614 1287.84 311.173 1288.28 310.732C1288.59 310.427 1288.9 310.121 1289.21 309.816C1289.86 309.176 1290.5 308.535 1291.15 307.893C1291.97 307.069 1292.81 306.249 1293.64 305.431C1294.28 304.802 1294.92 304.17 1295.55 303.537C1295.86 303.234 1296.16 302.932 1296.47 302.63C1296.9 302.209 1297.33 301.784 1297.75 301.358C1297.88 301.234 1298.01 301.109 1298.14 300.981C1298.97 300.139 1298.97 300.139 1299 299.482C1298.6 298.777 1298.1 298.279 1297.53 297.709C1297.4 297.585 1297.28 297.461 1297.15 297.334C1296.74 296.925 1296.33 296.519 1295.91 296.113C1295.63 295.829 1295.34 295.546 1295.05 295.262C1294.46 294.668 1293.86 294.075 1293.26 293.484C1292.48 292.724 1291.71 291.963 1290.95 291.2C1290.36 290.615 1289.77 290.03 1289.18 289.446C1288.89 289.165 1288.61 288.884 1288.32 288.604C1287.93 288.212 1287.53 287.821 1287.13 287.43C1286.91 287.208 1286.68 286.985 1286.45 286.755C1285.66 286.017 1285.19 285.959 1284.13 285.901C1283.73 285.879 1283.73 285.879 1283.32 285.856C1283.03 285.841 1282.74 285.826 1282.45 285.81C1282.15 285.794 1281.85 285.778 1281.55 285.761C1280.92 285.727 1280.29 285.693 1279.66 285.659C1278.7 285.609 1277.74 285.556 1276.78 285.503C1276.17 285.47 1275.56 285.437 1274.95 285.404C1274.67 285.389 1274.38 285.373 1274.09 285.357C1272.74 285.286 1271.41 285.23 1270.07 285.249C1270.14 287.157 1270.21 289.064 1270.3 290.972C1270.31 291.331 1270.33 291.691 1270.35 292.051C1270.4 293.231 1270.45 294.411 1270.51 295.591C1270.53 295.981 1270.55 296.372 1270.57 296.762C1270.59 297.316 1270.62 297.869 1270.65 298.422C1270.67 298.902 1270.67 298.902 1270.7 299.392C1270.92 300.874 1271.77 301.737 1272.8 302.779C1272.92 302.901 1273.04 303.024 1273.17 303.15C1273.57 303.551 1273.97 303.95 1274.37 304.349C1274.64 304.628 1274.92 304.907 1275.2 305.186C1275.78 305.768 1276.37 306.35 1276.95 306.931C1277.7 307.676 1278.44 308.426 1279.19 309.176C1279.76 309.753 1280.33 310.326 1280.91 310.899C1281.19 311.174 1281.46 311.451 1281.73 311.728C1282.12 312.114 1282.5 312.497 1282.89 312.878C1283.22 313.206 1283.22 313.206 1283.55 313.541C1284.15 313.977 1284.15 313.977 1284.64 314Z" fill="black"/>
<path d="M1235.89 256.522C1234.5 254.838 1232.95 253.322 1231.39 251.791C1231.12 251.522 1230.85 251.253 1230.58 250.984C1229.92 250.331 1229.26 249.679 1228.6 249.027C1229.62 247.806 1230.7 246.661 1231.83 245.546C1231.98 245.399 1232.13 245.252 1232.29 245.1C1232.65 244.743 1233.01 244.387 1233.37 244.031C1235.07 245.412 1236.59 246.953 1238.13 248.497C1238.4 248.767 1238.67 249.037 1238.95 249.307C1239.6 249.962 1240.26 250.619 1240.91 251.276C1242.19 250.113 1242.29 248.429 1242.41 246.784C1242.46 243.253 1241.2 240.373 1238.76 237.834C1236.46 235.77 1233.68 234.797 1230.61 234.789C1227.06 234.989 1224.2 236.417 1221.81 239.035C1219.77 241.769 1219.04 244.767 1219.44 248.137C1220.01 251.265 1221.7 253.968 1224.33 255.798C1225.62 256.576 1226.85 257.241 1228.35 257.521C1228.5 257.554 1228.66 257.586 1228.82 257.62C1231.16 258.009 1233.82 257.67 1235.89 256.522Z" fill="black"/>
<path d="M1510.69 659.686C1511.17 659.691 1511.64 659.696 1512.13 659.702C1522.94 659.798 1533.36 659.634 1543.97 657.37C1544.54 657.25 1545.11 657.13 1545.69 657.006C1553.23 655.371 1560.45 653.157 1567.59 650.266C1567.97 650.116 1568.35 649.966 1568.73 649.812C1574.82 647.368 1580.69 644.414 1586.27 640.976C1586.65 640.752 1587.03 640.528 1587.42 640.297C1588.47 639.337 1588.47 639.337 1588.75 638.031C1588.75 637.514 1588.75 636.997 1588.74 636.465C1588.75 635.877 1588.75 635.289 1588.75 634.683C1588.7 631.956 1588.64 629.231 1588.54 626.506C1588.49 625.082 1588.47 623.656 1588.48 622.231C1588.5 614.661 1588.2 608.874 1582.78 603.178C1580.56 601.083 1578.27 599.11 1575.84 597.26C1573.77 598.046 1572.23 598.913 1570.48 600.266C1550.64 614.851 1525.8 622.281 1501.25 618.797C1476.92 615.022 1455.24 602.157 1440.53 582.489C1425.71 561.775 1419.82 536.754 1423.96 511.61C1427.38 492.706 1436.24 476.188 1449.46 462.288C1449.89 461.839 1450.31 461.39 1450.74 460.928C1468.31 442.807 1493.28 434.359 1518.14 433.873C1542.52 433.774 1565.46 444.19 1582.98 460.648C1583.58 461.208 1583.58 461.208 1584.2 461.78C1599.59 476.464 1610.17 498.854 1611.09 520.071C1611.28 537.467 1609.46 552.869 1600.56 568.299C1600.35 568.662 1600.14 569.025 1599.93 569.399C1597.14 574.2 1594.02 578.496 1590.31 582.632C1589.15 583.999 1588.28 585.336 1587.37 586.878C1591.13 591.87 1595.19 597.025 1601.61 598.271C1605.78 598.761 1609.94 598.758 1614.12 598.729C1615.59 598.75 1617.05 598.788 1618.51 598.824C1622.05 598.902 1625.59 598.924 1629.13 598.9C1631.99 594.434 1634.58 589.96 1636.86 585.17C1637.28 584.282 1637.28 584.282 1637.71 583.375C1642.09 574.07 1645.12 564.687 1647.26 554.638C1647.38 554.098 1647.5 553.558 1647.62 553.001C1651.07 536.325 1650.85 517.712 1647.26 501.086C1647.09 500.259 1647.09 500.259 1646.91 499.417C1640.68 470.25 1623.53 442.129 1599.46 424.036C1599.15 423.801 1598.84 423.565 1598.52 423.322C1577.28 407.264 1550.86 396.282 1523.88 396.037C1523.39 396.032 1522.9 396.027 1522.4 396.021C1511.45 395.926 1500.88 396.06 1490.12 398.353C1489.29 398.525 1489.29 398.525 1488.44 398.699C1459.19 404.884 1430.75 421.938 1412.65 445.894C1412.25 446.42 1412.25 446.42 1411.84 446.956C1399.56 463.181 1391.07 481.202 1386.83 501.086C1386.71 501.626 1386.59 502.165 1386.47 502.722C1383.02 519.385 1383.22 538.026 1386.83 554.638C1386.95 555.203 1387.07 555.768 1387.19 556.35C1394.67 590.414 1415.67 619.406 1444.54 638.82C1464.19 651.247 1487.24 659.466 1510.69 659.686Z" fill="black"/>
<path d="M1563.75 586.331C1562.94 584.472 1561.9 583.265 1560.46 581.841C1560 581.393 1559.55 580.944 1559.09 580.482C1558.6 580.003 1558.12 579.525 1557.61 579.031C1557.11 578.537 1556.62 578.043 1556.1 577.534C1554.78 576.223 1553.46 574.916 1552.13 573.61C1550.78 572.275 1549.43 570.937 1548.08 569.599C1545.43 566.977 1542.78 564.358 1540.12 561.741C1538.04 562.555 1536.05 563.467 1534.04 564.439C1524.08 569.004 1513.08 569.465 1502.74 565.701C1491.83 561.134 1484.03 553.798 1479.37 542.976C1475.41 532.939 1475.46 521.982 1479.68 512.015C1484.71 501.062 1492.73 493.961 1503.86 489.61C1514.14 486.1 1524.95 487.063 1534.74 491.504C1545.42 496.867 1552.32 505.322 1556.09 516.476C1558.69 525.898 1558.27 536.676 1553.49 545.371C1552.9 546.399 1552.28 547.417 1551.65 548.422C1551.11 549.719 1551.11 549.719 1551.48 550.743C1552.35 552.128 1553.34 553.16 1554.5 554.31C1554.98 554.781 1555.45 555.251 1555.94 555.735C1556.45 556.238 1556.96 556.741 1557.48 557.259C1558.01 557.782 1558.54 558.306 1559.07 558.83C1560.46 560.205 1561.85 561.577 1563.24 562.948C1564.66 564.349 1566.07 565.753 1567.49 567.157C1570.27 569.908 1573.05 572.657 1575.84 575.403C1586.81 566.782 1593.28 551.329 1595.41 537.881C1595.8 534.423 1595.81 530.962 1595.79 527.486C1595.79 526.908 1595.79 526.908 1595.78 526.317C1595.69 505.541 1587.18 486.954 1572.93 471.945C1570.56 469.619 1568.06 467.553 1565.4 465.566C1564.87 465.169 1564.34 464.772 1563.79 464.363C1549.9 454.361 1534.49 449.596 1517.39 449.583C1516.76 449.582 1516.76 449.582 1516.11 449.582C1510.03 449.59 1504.28 449.805 1498.36 451.359C1498 451.444 1497.64 451.529 1497.27 451.617C1487.82 453.851 1478.65 458.122 1470.89 463.927C1470.43 464.267 1469.98 464.608 1469.51 464.958C1468.11 466.04 1466.75 467.156 1465.4 468.299C1464.87 468.742 1464.34 469.185 1463.8 469.641C1459.54 473.323 1456.04 477.403 1452.76 481.96C1452.54 482.263 1452.32 482.567 1452.1 482.879C1444.67 493.362 1439.69 505.766 1438.47 518.572C1438.44 518.918 1438.4 519.264 1438.37 519.621C1436.4 539.359 1441.76 559.893 1454.41 575.403C1456.34 577.673 1458.38 579.82 1460.45 581.96C1460.83 582.379 1461.21 582.798 1461.6 583.23C1472.41 594.766 1488.42 601.478 1503.86 603.818C1504.33 603.889 1504.79 603.96 1505.27 604.033C1526.13 606.61 1547.39 599.009 1563.75 586.331Z" fill="black"/>
<path d="M1634.61 676C1636.24 675.127 1637.46 673.911 1638.76 672.616C1639.05 672.326 1639.35 672.037 1639.65 671.738C1640.63 670.78 1641.6 669.816 1642.57 668.851C1643.24 668.184 1643.92 667.516 1644.6 666.848C1646.01 665.448 1647.42 664.046 1648.83 662.641C1650.64 660.838 1652.46 659.045 1654.28 657.255C1655.68 655.879 1657.07 654.497 1658.46 653.113C1659.13 652.449 1659.8 651.788 1660.47 651.128C1661.41 650.207 1662.34 649.278 1663.27 648.346C1663.55 648.074 1663.83 647.802 1664.12 647.521C1665.93 645.678 1665.93 645.678 1666 644.242C1665.14 642.701 1664.04 641.61 1662.78 640.364C1662.51 640.093 1662.23 639.822 1661.95 639.542C1661.06 638.648 1660.15 637.76 1659.25 636.871C1658.62 636.251 1658 635.631 1657.38 635.01C1656.07 633.711 1654.75 632.415 1653.44 631.12C1651.76 629.459 1650.07 627.793 1648.4 626.126C1647.11 624.845 1645.81 623.566 1644.52 622.288C1643.9 621.674 1643.28 621.06 1642.66 620.445C1641.8 619.588 1640.93 618.733 1640.06 617.879C1639.57 617.392 1639.07 616.904 1638.57 616.402C1636.83 614.786 1635.81 614.661 1633.49 614.534C1632.61 614.485 1632.61 614.485 1631.72 614.435C1631.09 614.402 1630.46 614.369 1629.81 614.335C1629.16 614.299 1628.52 614.264 1627.85 614.227C1626.47 614.152 1625.1 614.078 1623.73 614.005C1621.63 613.894 1619.53 613.779 1617.44 613.663C1616.1 613.591 1614.77 613.519 1613.43 613.447C1612.81 613.413 1612.18 613.379 1611.54 613.343C1608.6 613.189 1605.69 613.066 1602.76 613.107C1602.9 617.281 1603.07 621.453 1603.26 625.625C1603.29 626.412 1603.33 627.199 1603.36 627.986C1603.47 630.568 1603.59 633.149 1603.72 635.73C1603.77 636.584 1603.81 637.438 1603.84 638.292C1603.9 639.503 1603.96 640.713 1604.02 641.924C1604.08 642.974 1604.08 642.974 1604.13 644.045C1604.62 647.286 1606.46 649.174 1608.73 651.453C1608.99 651.721 1609.26 651.989 1609.53 652.265C1610.4 653.143 1611.27 654.016 1612.15 654.889C1612.76 655.499 1613.36 656.109 1613.97 656.719C1615.24 657.994 1616.52 659.265 1617.8 660.536C1619.43 662.167 1621.06 663.806 1622.69 665.448C1623.94 666.709 1625.19 667.964 1626.45 669.217C1627.06 669.819 1627.66 670.424 1628.26 671.03C1629.09 671.875 1629.94 672.712 1630.78 673.546C1631.5 674.264 1631.5 674.264 1632.23 674.996C1633.53 675.949 1633.53 675.949 1634.61 676Z" fill="black"/>
<path d="M1528.03 550.266C1525 546.582 1521.61 543.268 1518.21 539.918C1517.62 539.33 1517.02 538.742 1516.43 538.153C1514.99 536.725 1513.54 535.298 1512.1 533.872C1514.34 531.2 1516.68 528.696 1519.17 526.256C1519.5 525.935 1519.83 525.613 1520.16 525.282C1520.95 524.501 1521.75 523.722 1522.54 522.944C1526.24 525.963 1529.58 529.334 1532.94 532.711C1533.54 533.302 1534.13 533.893 1534.72 534.483C1536.15 535.917 1537.59 537.353 1539.02 538.791C1541.81 536.247 1542.03 532.563 1542.3 528.965C1542.41 521.241 1539.65 514.941 1534.31 509.387C1529.29 504.873 1523.21 502.743 1516.5 502.725C1508.74 503.163 1502.48 506.287 1497.26 512.015C1492.79 517.995 1491.21 524.554 1492.08 531.926C1493.32 538.767 1497.02 544.68 1502.76 548.684C1505.58 550.385 1508.28 551.839 1511.55 552.452C1511.89 552.524 1512.24 552.595 1512.59 552.669C1517.71 553.519 1523.52 552.777 1528.03 550.266Z" fill="black"/>
</g>
</g>
<path d="M597.577 97.8497L778.17 97.8493L232.708 589.111L52.0001 589.111L597.577 97.8497Z" fill="url(#paint1_linear_139_95)"/>
<defs>
<filter id="filter0_d_139_95" x="1039" y="251" width="725" height="364" filterUnits="userSpaceOnUse" color-interpolation-filters="sRGB">
<feFlood flood-opacity="0" result="BackgroundImageFix"/>
<feColorMatrix in="SourceAlpha" type="matrix" values="0 0 0 0 0 0 0 0 0 0 0 0 0 0 0 0 0 0 127 0" result="hardAlpha"/>
<feOffset dx="11" dy="11"/>
<feGaussianBlur stdDeviation="7.5"/>
<feComposite in2="hardAlpha" operator="out"/>
<feColorMatrix type="matrix" values="0 0 0 0 0 0 0 0 0 0 0 0 0 0 0 0 0 0 0.25 0"/>
<feBlend mode="normal" in2="BackgroundImageFix" result="effect1_dropShadow_139_95"/>
<feBlend mode="normal" in="SourceGraphic" in2="effect1_dropShadow_139_95" result="shape"/>
</filter>
<filter id="filter1_d_139_95" x="93" y="251" width="986" height="364" filterUnits="userSpaceOnUse" color-interpolation-filters="sRGB">
<feFlood flood-opacity="0" result="BackgroundImageFix"/>
<feColorMatrix in="SourceAlpha" type="matrix" values="0 0 0 0 0 0 0 0 0 0 0 0 0 0 0 0 0 0 127 0" result="hardAlpha"/>
<feOffset dx="-24" dy="11"/>
<feGaussianBlur stdDeviation="7.5"/>
<feComposite in2="hardAlpha" operator="out"/>
<feColorMatrix type="matrix" values="0 0 0 0 0 0 0 0 0 0 0 0 0 0 0 0 0 0 0.25 0"/>
<feBlend mode="normal" in2="BackgroundImageFix" result="effect1_dropShadow_139_95"/>
<feBlend mode="normal" in="SourceGraphic" in2="effect1_dropShadow_139_95" result="shape"/>
</filter>
<linearGradient id="paint0_linear_139_95" x1="104" y1="395" x2="104" y2="603" gradientUnits="userSpaceOnUse">
<stop stop-color="#1565C0"/>
<stop offset="1" stop-color="#545454"/>
</linearGradient>
<linearGradient id="paint1_linear_139_95" x1="887.5" y1="-0.000273626" x2="-8.50009" y2="608.5" gradientUnits="userSpaceOnUse">
<stop offset="0.259593" stop-color="#B92B27"/>
<stop offset="0.932901" stop-color="#1565C0"/>
</linearGradient>
</defs>
</svg>
