<svg width="1764" height="687" viewBox="0 0 1764 687" fill="none" xmlns="http://www.w3.org/2000/svg">
<path d="M208 499L52 589.067V408.933L208 499Z" fill="url(#paint0_linear_139_96)"/>
<g filter="url(#filter0_d_139_96)">
<path d="M448.248 255L1079 255V422V589H132L448.248 255Z" fill="white"/>
</g>
<g opacity="0.04">
<mask id="mask0_139_96" style="mask-type:alpha" maskUnits="userSpaceOnUse" x="171" y="255" width="908" height="334">
<path d="M439.372 264.374C445.038 258.39 452.916 255 461.157 255L1049 255C1065.57 255 1079 268.431 1079 285V422V559C1079 575.569 1065.57 589 1049 589H201.72C175.386 589 161.83 557.496 179.936 538.374L439.372 264.374Z" fill="white"/>
</mask>
<g mask="url(#mask0_139_96)">
<path d="M1010.87 493.38C1011.27 493.694 1011.67 494.01 1012.07 494.329C1012.33 494.516 1012.33 494.516 1012.59 494.706C1017.56 498.391 1020.7 504.482 1021.49 510.234C1021.94 516.509 1021.17 522.551 1017.11 527.779C1016.69 528.345 1016.69 528.345 1016.78 529.273C1017.5 530.187 1018.39 530.967 1019.25 531.773C1019.48 532.002 1019.71 532.232 1019.94 532.468C1021.11 533.646 1021.11 533.646 1022.66 534.138C1023.27 534.013 1023.8 533.839 1024.37 533.61C1027.41 532.982 1030.57 533.312 1033.3 534.725C1036.33 536.582 1038.83 539.19 1041.4 541.556C1041.8 541.926 1042.2 542.296 1042.6 542.666C1043.65 543.631 1044.69 544.598 1045.74 545.564C1046.81 546.554 1047.88 547.542 1048.96 548.531C1051.05 550.465 1053.15 552.4 1055.25 554.336C1054.82 555.342 1054.02 556.014 1053.2 556.758C1053.04 556.902 1052.89 557.045 1052.73 557.193C1052.21 557.667 1051.7 558.138 1051.18 558.609C1050.82 558.938 1050.47 559.266 1050.11 559.594C1049.17 560.457 1048.23 561.319 1047.29 562.18C1046.33 563.06 1045.37 563.941 1044.41 564.822C1042.53 566.549 1040.64 568.275 1038.76 570C1037.99 569.678 1037.44 569.325 1036.83 568.775C1036.66 568.622 1036.5 568.47 1036.32 568.313C1036.14 568.145 1035.96 567.978 1035.77 567.806C1035.58 567.629 1035.38 567.453 1035.18 567.271C1034.54 566.687 1033.9 566.1 1033.26 565.513C1032.81 565.105 1032.37 564.697 1031.92 564.288C1030.98 563.431 1030.05 562.572 1029.11 561.712C1027.92 560.616 1026.72 559.524 1025.52 558.433C1024.59 557.59 1023.67 556.744 1022.75 555.897C1022.31 555.493 1021.87 555.091 1021.43 554.689C1016.99 550.663 1016.99 550.663 1015.99 548.07C1015.88 547.773 1015.76 547.476 1015.64 547.17C1015.44 546.231 1015.38 545.349 1015.39 544.395C1015.38 544.229 1015.38 544.064 1015.37 543.893C1015.37 542.3 1015.77 541.286 1016.25 539.635C1014.35 537.886 1012.45 536.136 1010.5 534.333C1009.55 534.89 1008.6 535.447 1007.62 536.02C1004.07 537.728 999.881 539.069 995.841 539.153C995.567 539.162 995.292 539.172 995.009 539.181C986.987 539.329 980.174 536.709 974.382 531.682C974.221 531.549 974.06 531.417 973.893 531.28C968.956 527.047 966.552 520.496 966.28 514.437C966.114 507.216 969.1 500.687 974.454 495.444C984.145 486.839 1000.14 485.58 1010.87 493.38ZM984.85 506.86C982.844 509.356 981.959 512.146 982.364 515.235C982.944 518.062 984.594 520.724 987.135 522.408C989.934 524.094 992.762 524.824 996.09 524.341C999.091 523.743 1001.53 522.353 1003.43 520.115C1005.43 517.122 1006.15 514.004 1005.31 510.542C1004.21 507.705 1002.2 505.489 999.303 504.104C994.144 501.862 988.697 503.045 984.85 506.86Z" fill="black"/>
<path d="M966.008 494.329C965.903 494.455 965.798 494.582 965.69 494.712C960.31 501.463 958.014 509.977 959.29 518.269C960.692 526.491 965.263 534.289 972.597 539.307C980.805 544.732 990.29 546.878 1000.29 545.4C1001.99 545.126 1003.62 544.704 1005.26 544.214C1005.77 544.073 1006.29 543.932 1006.8 543.792C1007.16 543.692 1007.52 543.592 1007.88 543.491C1007.92 543.932 1007.92 543.932 1007.96 544.382C1008.17 546.556 1008.45 548.542 1009.24 550.608C1009.45 551.203 1009.45 551.203 1009.45 551.926C1006.49 552.529 1003.57 553.072 1000.55 553.372C1000.3 553.399 1000.04 553.426 999.774 553.454C986.964 554.588 974.114 551.704 962.606 546.624C962.283 546.483 962.283 546.483 961.955 546.34C953.192 542.495 944.989 537.306 937.85 531.248C937.506 530.958 937.159 530.67 936.803 530.392C935.165 529.106 933.652 527.71 932.134 526.307C931.675 525.883 931.215 525.46 930.754 525.038C930.458 524.765 930.162 524.492 929.865 524.218C929.73 524.094 929.594 523.97 929.455 523.842C927.022 521.587 927.022 521.587 927 520.815C927.358 520.219 927.783 519.77 928.29 519.271C928.609 518.955 928.609 518.955 928.934 518.632C929.279 518.293 929.279 518.293 929.631 517.946C929.87 517.705 930.107 517.464 930.345 517.222C932.266 515.267 934.222 513.364 936.399 511.647C937.046 511.129 937.671 510.591 938.3 510.053C939.82 508.778 941.418 507.613 943.048 506.46C943.476 506.155 943.901 505.846 944.325 505.536C950.398 501.134 957.192 497.503 964.173 494.472C964.449 494.351 964.449 494.351 964.73 494.229C965.223 494.088 965.223 494.088 966.008 494.329Z" fill="black"/>
<path d="M1022.01 494.088C1022.94 494.232 1023.72 494.46 1024.57 494.831C1024.81 494.934 1025.05 495.038 1025.3 495.145C1025.55 495.259 1025.81 495.372 1026.07 495.489C1026.33 495.607 1026.6 495.725 1026.87 495.846C1034.25 499.164 1041.14 503.413 1047.4 508.306C1047.68 508.525 1047.96 508.744 1048.25 508.962C1052.33 512.132 1056.42 515.485 1059.86 519.251C1060.21 519.648 1060.21 519.648 1060.68 519.97C1061 520.356 1061 520.356 1061 520.924C1060.67 521.746 1060.19 522.209 1059.53 522.841C1059.2 523.16 1059.2 523.16 1058.87 523.486C1058.75 523.6 1058.63 523.715 1058.51 523.833C1058.09 524.249 1057.69 524.678 1057.28 525.11C1056.15 526.315 1054.92 527.438 1053.69 528.565C1053.47 528.772 1053.25 528.979 1053.02 529.192C1051.11 530.944 1049.13 532.558 1047 534.077C1046.76 534.256 1046.76 534.256 1046.5 534.437C1046.1 534.725 1045.7 535.011 1045.3 535.297C1044.43 534.949 1043.88 534.514 1043.22 533.879C1043.03 533.693 1042.84 533.507 1042.64 533.316C1042.43 533.12 1042.23 532.924 1042.02 532.722C1040.35 531.156 1038.82 529.776 1036.67 528.791C1036.31 528.623 1036.31 528.623 1035.95 528.453C1032.89 527.084 1029.81 526.688 1026.46 526.381C1026.5 526.249 1026.55 526.117 1026.6 525.981C1027.01 524.723 1027.41 523.461 1027.79 522.193C1027.87 521.913 1027.95 521.633 1028.04 521.344C1028.72 518.81 1028.92 516.334 1028.91 513.729C1028.91 513.559 1028.91 513.39 1028.91 513.216C1028.88 506.27 1026.46 499.723 1022.01 494.088Z" fill="black"/>
<path d="M939.576 477.941C939.962 478.41 939.962 478.41 940.414 479.073C940.667 479.44 940.667 479.44 940.925 479.815C941.106 480.081 941.287 480.348 941.473 480.622C941.66 480.895 941.847 481.168 942.035 481.441C942.42 482.003 942.805 482.566 943.189 483.129C943.733 483.924 944.284 484.715 944.836 485.504C945.086 485.862 945.086 485.862 945.341 486.227C945.657 486.679 945.973 487.131 946.29 487.582C946.433 487.787 946.575 487.992 946.722 488.202C946.846 488.38 946.97 488.557 947.098 488.74C947.448 489.301 947.704 489.867 947.95 490.473C947.105 490.98 946.26 491.487 945.415 491.994C945.057 492.209 945.057 492.209 944.692 492.429C944.46 492.568 944.228 492.707 943.989 492.85C943.777 492.977 943.564 493.105 943.345 493.236C941.486 494.329 941.486 494.329 940.884 494.329C940.441 493.714 940.03 493.097 939.625 492.461C938.538 490.786 937.418 489.137 936.256 487.506C934.973 485.702 933.721 483.884 932.51 482.038C933.757 481.066 935.117 480.266 936.485 479.448C936.724 479.303 936.963 479.157 937.21 479.008C937.438 478.871 937.667 478.734 937.902 478.593C938.111 478.468 938.319 478.343 938.533 478.214C939.053 477.941 939.053 477.941 939.576 477.941Z" fill="black"/>
<path d="M1048.44 477.941C1049.9 478.441 1051.13 479.186 1052.43 479.96C1052.68 480.099 1052.92 480.238 1053.17 480.381C1053.51 480.586 1053.51 480.586 1053.86 480.794C1054.07 480.917 1054.28 481.04 1054.5 481.167C1054.99 481.556 1054.99 481.556 1055.23 482.01C1055.25 482.753 1054.94 483.12 1054.49 483.737C1054.24 484.098 1054.24 484.098 1053.98 484.467C1053.79 484.724 1053.61 484.981 1053.42 485.246C1053.13 485.65 1052.84 486.053 1052.55 486.457C1052.26 486.875 1051.96 487.291 1051.66 487.708C1051.07 488.523 1050.5 489.345 1049.93 490.167C1049.57 490.671 1049.22 491.174 1048.87 491.678C1048.7 491.917 1048.54 492.155 1048.36 492.401C1048.21 492.62 1048.06 492.838 1047.9 493.064C1047.76 493.256 1047.63 493.449 1047.49 493.647C1047.13 494.088 1047.13 494.088 1046.61 494.329C1045.93 493.98 1045.28 493.619 1044.63 493.229C1044.44 493.119 1044.26 493.008 1044.06 492.894C1042.72 492.103 1041.38 491.301 1040.07 490.473C1040.51 489.298 1041.21 488.317 1041.93 487.28C1042.07 487.085 1042.2 486.891 1042.34 486.69C1042.8 486.022 1043.27 485.356 1043.73 484.689C1044.01 484.289 1044.29 483.888 1044.57 483.488C1047.69 478.975 1047.69 478.975 1048.44 477.941Z" fill="black"/>
<path d="M1020.96 466.615C1023.66 467.201 1026.23 468.123 1028.82 469.025C1028.3 470.848 1027.7 472.631 1027.04 474.412C1026.95 474.66 1026.85 474.908 1026.76 475.163C1026.47 475.944 1026.18 476.724 1025.89 477.505C1025.69 478.038 1025.49 478.572 1025.29 479.105C1024.81 480.405 1024.33 481.704 1023.84 483.002C1023.39 482.891 1022.94 482.78 1022.49 482.668C1022.24 482.606 1021.99 482.544 1021.73 482.48C1020.56 482.173 1019.43 481.787 1018.3 481.391C1018.07 481.313 1017.85 481.236 1017.62 481.157C1017.08 480.97 1016.53 480.782 1015.99 480.592C1016.68 477.983 1017.68 475.461 1018.63 472.926C1018.79 472.474 1018.96 472.022 1019.13 471.571C1019.37 470.935 1019.61 470.299 1019.84 469.663C1020.22 468.649 1020.6 467.633 1020.96 466.615Z" fill="black"/>
<path d="M967.054 466.615C967.704 468.366 968.352 470.117 968.999 471.869C969.3 472.682 969.601 473.495 969.902 474.308C970.249 475.242 970.594 476.177 970.939 477.111C971.102 477.55 971.102 477.55 971.269 477.998C971.368 478.268 971.468 478.538 971.57 478.817C971.659 479.055 971.747 479.294 971.838 479.54C972.027 480.11 972.027 480.11 972.027 480.592C968.27 481.785 968.27 481.785 964.437 483.002C963.943 482.319 963.7 481.782 963.418 481.01C963.323 480.751 963.228 480.492 963.13 480.226C962.978 479.806 962.978 479.806 962.823 479.379C962.719 479.092 962.614 478.806 962.507 478.51C962.286 477.904 962.067 477.298 961.848 476.691C961.566 475.913 961.282 475.135 960.997 474.358C960.726 473.617 960.458 472.876 960.19 472.134C960.087 471.854 959.984 471.574 959.879 471.286C959.74 470.899 959.74 470.899 959.598 470.504C959.515 470.276 959.432 470.048 959.347 469.813C959.203 469.266 959.203 469.266 959.465 468.784C959.975 468.591 960.495 468.421 961.018 468.262C961.491 468.118 961.491 468.118 961.974 467.97C962.14 467.921 962.305 467.872 962.475 467.821C962.979 467.67 963.483 467.516 963.986 467.362C966.454 466.615 966.454 466.615 967.054 466.615Z" fill="black"/>
<path d="M989.822 463C992.5 463 995.177 463 997.935 463C997.935 467.851 997.935 472.702 997.935 477.7C995.258 477.7 992.581 477.7 989.822 477.7C989.822 472.849 989.822 467.998 989.822 463Z" fill="black"/>
<path d="M995.318 509.993C996.585 510.555 997.334 511.232 997.935 512.403C998.136 513.668 998.1 514.706 997.542 515.882C996.536 516.832 995.595 517.407 994.132 517.511C992.99 517.457 992.275 517.275 991.278 516.741C990.333 515.722 989.782 514.698 989.847 513.331C990.111 512.11 990.706 511.348 991.654 510.475C992.821 509.816 993.988 509.838 995.318 509.993Z" fill="black"/>
<path d="M549.873 304.38C550.273 304.694 550.671 305.01 551.067 305.329C551.326 305.516 551.326 305.516 551.59 305.706C556.564 309.391 559.699 315.482 560.488 321.234C560.941 327.509 560.168 333.551 556.114 338.779C555.689 339.345 555.689 339.345 555.777 340.273C556.501 341.187 557.387 341.967 558.247 342.773C558.477 343.002 558.707 343.232 558.944 343.468C560.105 344.646 560.105 344.646 561.664 345.138C562.271 345.013 562.798 344.839 563.367 344.61C566.408 343.982 569.569 344.312 572.297 345.725C575.335 347.582 577.835 350.19 580.396 352.556C580.797 352.926 581.198 353.296 581.599 353.666C582.647 354.631 583.694 355.598 584.74 356.564C585.812 357.554 586.884 358.542 587.956 359.531C590.054 361.465 592.151 363.4 594.247 365.336C593.819 366.342 593.018 367.014 592.199 367.758C592.043 367.902 591.888 368.045 591.727 368.193C591.213 368.667 590.697 369.138 590.181 369.609C589.823 369.938 589.466 370.266 589.109 370.594C588.17 371.457 587.229 372.319 586.288 373.18C585.327 374.06 584.368 374.941 583.409 375.822C581.528 377.549 579.645 379.275 577.76 381C576.985 380.678 576.436 380.325 575.833 379.775C575.664 379.622 575.496 379.47 575.322 379.313C575.14 379.145 574.957 378.978 574.77 378.806C574.576 378.629 574.381 378.453 574.181 378.271C573.539 377.687 572.898 377.1 572.258 376.513C571.812 376.105 571.365 375.697 570.919 375.288C569.982 374.431 569.046 373.572 568.111 372.712C566.918 371.616 565.719 370.524 564.519 369.433C563.594 368.59 562.673 367.744 561.752 366.897C561.312 366.493 560.871 366.091 560.428 365.689C555.992 361.663 555.992 361.663 554.992 359.07C554.875 358.773 554.758 358.476 554.638 358.17C554.436 357.231 554.382 356.349 554.387 355.395C554.383 355.229 554.379 355.064 554.374 354.893C554.373 353.3 554.765 352.286 555.254 350.635C553.354 348.886 551.454 347.136 549.497 345.333C548.547 345.89 547.597 346.447 546.618 347.02C543.066 348.728 538.881 350.069 534.841 350.153C534.567 350.162 534.292 350.172 534.009 350.181C525.987 350.329 519.174 347.709 513.382 342.682C513.221 342.549 513.06 342.417 512.893 342.28C507.956 338.047 505.552 331.496 505.28 325.437C505.114 318.216 508.1 311.687 513.454 306.444C523.145 297.839 539.142 296.58 549.873 304.38ZM523.85 317.86C521.844 320.356 520.959 323.146 521.364 326.235C521.944 329.062 523.594 331.724 526.135 333.408C528.934 335.094 531.762 335.824 535.09 335.341C538.091 334.743 540.533 333.353 542.431 331.115C544.433 328.122 545.15 325.004 544.306 321.542C543.211 318.705 541.204 316.489 538.303 315.104C533.144 312.862 527.697 314.045 523.85 317.86Z" fill="black"/>
<path d="M505.008 305.329C504.903 305.455 504.798 305.582 504.69 305.712C499.31 312.463 497.014 320.977 498.29 329.269C499.692 337.491 504.263 345.289 511.597 350.307C519.805 355.732 529.29 357.878 539.289 356.4C540.991 356.126 542.619 355.704 544.263 355.214C544.775 355.073 545.287 354.932 545.8 354.792C546.16 354.692 546.52 354.592 546.88 354.491C546.918 354.932 546.918 354.932 546.957 355.382C547.165 357.556 547.447 359.542 548.239 361.608C548.45 362.203 548.45 362.203 548.45 362.926C545.493 363.529 542.566 364.072 539.552 364.372C539.295 364.399 539.039 364.426 538.774 364.454C525.964 365.588 513.114 362.704 501.606 357.624C501.283 357.483 501.283 357.483 500.955 357.34C492.192 353.495 483.989 348.306 476.85 342.248C476.506 341.958 476.159 341.67 475.803 341.392C474.165 340.106 472.652 338.71 471.134 337.307C470.675 336.883 470.215 336.46 469.754 336.038C469.458 335.765 469.162 335.492 468.865 335.218C468.73 335.094 468.594 334.97 468.455 334.842C466.022 332.587 466.022 332.587 466 331.815C466.358 331.219 466.783 330.77 467.29 330.271C467.609 329.955 467.609 329.955 467.934 329.632C468.279 329.293 468.279 329.293 468.631 328.946C468.87 328.705 469.107 328.464 469.345 328.222C471.266 326.267 473.222 324.364 475.399 322.647C476.046 322.129 476.671 321.591 477.3 321.053C478.82 319.778 480.418 318.613 482.048 317.46C482.476 317.155 482.901 316.846 483.325 316.536C489.398 312.134 496.192 308.503 503.173 305.472C503.449 305.351 503.449 305.351 503.73 305.229C504.223 305.088 504.223 305.088 505.008 305.329Z" fill="black"/>
<path d="M561.011 305.088C561.942 305.232 562.718 305.46 563.571 305.831C563.81 305.934 564.049 306.038 564.296 306.145C564.551 306.259 564.805 306.372 565.068 306.489C565.334 306.607 565.6 306.725 565.874 306.846C573.248 310.164 580.144 314.413 586.396 319.306C586.679 319.525 586.963 319.744 587.246 319.962C591.327 323.132 595.415 326.485 598.862 330.251C599.212 330.648 599.212 330.648 599.676 330.97C600.005 331.356 600.005 331.356 599.999 331.924C599.669 332.746 599.19 333.209 598.533 333.841C598.204 334.16 598.204 334.16 597.868 334.486C597.749 334.6 597.631 334.715 597.508 334.833C597.088 335.249 596.687 335.678 596.285 336.11C595.146 337.315 593.922 338.438 592.693 339.565C592.47 339.772 592.246 339.979 592.015 340.192C590.11 341.944 588.131 343.558 586.004 345.077C585.756 345.256 585.756 345.256 585.503 345.437C585.103 345.725 584.703 346.011 584.303 346.297C583.427 345.949 582.879 345.514 582.224 344.879C582.03 344.693 581.836 344.507 581.635 344.316C581.431 344.12 581.226 343.924 581.015 343.722C579.346 342.156 577.816 340.776 575.667 339.791C575.314 339.623 575.314 339.623 574.954 339.453C571.891 338.084 568.808 337.688 565.46 337.381C565.505 337.249 565.549 337.117 565.595 336.981C566.013 335.723 566.407 334.461 566.785 333.193C566.869 332.913 566.953 332.633 567.04 332.344C567.718 329.81 567.922 327.334 567.914 324.729C567.914 324.559 567.913 324.39 567.913 324.216C567.882 317.27 565.457 310.723 561.011 305.088Z" fill="black"/>
<path d="M478.576 288.941C478.962 289.41 478.962 289.41 479.414 290.073C479.667 290.44 479.667 290.44 479.925 290.815C480.106 291.081 480.287 291.348 480.473 291.622C480.66 291.895 480.847 292.168 481.035 292.441C481.42 293.003 481.805 293.566 482.189 294.129C482.733 294.924 483.284 295.715 483.836 296.504C484.086 296.862 484.086 296.862 484.341 297.227C484.657 297.679 484.973 298.131 485.29 298.582C485.433 298.787 485.575 298.992 485.722 299.202C485.846 299.38 485.97 299.557 486.098 299.74C486.448 300.301 486.704 300.867 486.95 301.473C486.105 301.98 485.26 302.487 484.415 302.994C484.057 303.209 484.057 303.209 483.692 303.429C483.46 303.568 483.228 303.707 482.989 303.85C482.777 303.977 482.564 304.105 482.345 304.236C480.486 305.329 480.486 305.329 479.884 305.329C479.441 304.714 479.03 304.097 478.625 303.461C477.538 301.786 476.418 300.137 475.256 298.506C473.973 296.702 472.721 294.884 471.51 293.038C472.757 292.066 474.117 291.266 475.485 290.448C475.724 290.303 475.963 290.157 476.21 290.008C476.438 289.871 476.667 289.734 476.902 289.593C477.111 289.468 477.319 289.343 477.533 289.214C478.053 288.941 478.053 288.941 478.576 288.941Z" fill="black"/>
<path d="M587.443 288.941C588.901 289.441 590.132 290.186 591.434 290.96C591.676 291.099 591.917 291.238 592.166 291.381C592.51 291.586 592.51 291.586 592.861 291.794C593.071 291.917 593.28 292.04 593.496 292.167C593.986 292.556 593.986 292.556 594.234 293.01C594.254 293.753 593.937 294.12 593.495 294.737C593.24 295.098 593.24 295.098 592.98 295.467C592.794 295.724 592.608 295.981 592.415 296.246C592.129 296.65 591.842 297.053 591.555 297.457C591.257 297.875 590.958 298.291 590.659 298.708C590.074 299.523 589.499 300.345 588.925 301.167C588.573 301.671 588.221 302.174 587.868 302.678C587.702 302.917 587.536 303.155 587.364 303.401C587.21 303.62 587.056 303.838 586.897 304.064C586.762 304.256 586.627 304.449 586.488 304.647C586.135 305.088 586.135 305.088 585.611 305.329C584.93 304.98 584.284 304.619 583.632 304.229C583.444 304.119 583.256 304.008 583.062 303.894C581.719 303.103 580.385 302.301 579.069 301.473C579.506 300.298 580.209 299.317 580.933 298.28C581.068 298.085 581.203 297.891 581.342 297.69C581.804 297.022 582.268 296.356 582.733 295.689C583.01 295.289 583.288 294.888 583.566 294.488C586.695 289.975 586.695 289.975 587.443 288.941Z" fill="black"/>
<path d="M559.965 277.615C562.663 278.201 565.228 279.123 567.816 280.025C567.3 281.848 566.704 283.631 566.038 285.412C565.946 285.66 565.854 285.908 565.76 286.163C565.47 286.944 565.179 287.724 564.888 288.505C564.69 289.038 564.491 289.572 564.293 290.105C563.811 291.405 563.328 292.704 562.843 294.002C562.392 293.891 561.941 293.78 561.49 293.668C561.238 293.606 560.987 293.544 560.728 293.48C559.562 293.173 558.432 292.787 557.299 292.391C557.074 292.313 556.85 292.236 556.619 292.157C556.077 291.97 555.534 291.782 554.992 291.592C555.683 288.983 556.675 286.461 557.626 283.926C557.794 283.474 557.963 283.022 558.131 282.571C558.368 281.935 558.606 281.299 558.843 280.663C559.223 279.649 559.599 278.633 559.965 277.615Z" fill="black"/>
<path d="M506.054 277.615C506.704 279.366 507.352 281.117 507.999 282.869C508.3 283.682 508.601 284.495 508.902 285.308C509.249 286.242 509.594 287.177 509.939 288.111C510.102 288.55 510.102 288.55 510.269 288.998C510.368 289.268 510.468 289.538 510.57 289.817C510.659 290.055 510.747 290.294 510.838 290.54C511.027 291.11 511.027 291.11 511.027 291.592C507.27 292.785 507.27 292.785 503.437 294.002C502.943 293.319 502.7 292.782 502.418 292.01C502.323 291.751 502.228 291.492 502.13 291.226C501.978 290.806 501.978 290.806 501.823 290.379C501.719 290.092 501.614 289.806 501.507 289.51C501.286 288.904 501.067 288.298 500.848 287.691C500.566 286.913 500.282 286.135 499.997 285.358C499.726 284.617 499.458 283.876 499.19 283.134C499.087 282.854 498.984 282.574 498.879 282.286C498.74 281.899 498.74 281.899 498.598 281.504C498.515 281.276 498.432 281.048 498.347 280.813C498.203 280.266 498.203 280.266 498.465 279.784C498.975 279.591 499.495 279.421 500.018 279.262C500.491 279.118 500.491 279.118 500.974 278.97C501.14 278.921 501.305 278.872 501.475 278.821C501.979 278.67 502.483 278.516 502.986 278.362C505.454 277.615 505.454 277.615 506.054 277.615Z" fill="black"/>
<path d="M528.822 274C531.5 274 534.177 274 536.935 274C536.935 278.851 536.935 283.702 536.935 288.7C534.258 288.7 531.581 288.7 528.822 288.7C528.822 283.849 528.822 278.998 528.822 274Z" fill="black"/>
<path d="M534.318 320.993C535.585 321.555 536.334 322.232 536.935 323.403C537.136 324.668 537.1 325.706 536.542 326.882C535.536 327.832 534.595 328.407 533.132 328.511C531.99 328.457 531.275 328.275 530.278 327.741C529.333 326.722 528.782 325.698 528.847 324.331C529.111 323.11 529.706 322.348 530.654 321.475C531.821 320.816 532.988 320.838 534.318 320.993Z" fill="black"/>
<path d="M520.873 560.38C521.273 560.694 521.671 561.01 522.067 561.329C522.326 561.516 522.326 561.516 522.59 561.706C527.564 565.391 530.699 571.482 531.488 577.234C531.941 583.509 531.168 589.551 527.114 594.779C526.689 595.345 526.689 595.345 526.777 596.273C527.501 597.187 528.387 597.967 529.247 598.773C529.477 599.002 529.707 599.232 529.944 599.468C531.105 600.646 531.105 600.646 532.664 601.138C533.271 601.013 533.798 600.839 534.367 600.61C537.408 599.982 540.569 600.312 543.297 601.725C546.335 603.582 548.835 606.19 551.396 608.556C551.797 608.926 552.198 609.296 552.599 609.666C553.647 610.631 554.694 611.598 555.74 612.564C556.812 613.554 557.884 614.542 558.956 615.531C561.054 617.465 563.151 619.4 565.247 621.336C564.819 622.342 564.018 623.014 563.199 623.758C563.043 623.902 562.888 624.045 562.727 624.193C562.213 624.667 561.697 625.138 561.181 625.609C560.823 625.938 560.466 626.266 560.109 626.594C559.17 627.457 558.229 628.319 557.288 629.18C556.327 630.06 555.368 630.941 554.409 631.822C552.528 633.549 550.645 635.275 548.76 637C547.985 636.678 547.436 636.325 546.833 635.775C546.664 635.622 546.496 635.47 546.322 635.313C546.14 635.145 545.957 634.978 545.77 634.806C545.576 634.629 545.381 634.453 545.181 634.271C544.539 633.687 543.898 633.1 543.258 632.513C542.812 632.105 542.365 631.697 541.919 631.288C540.982 630.431 540.046 629.572 539.111 628.712C537.918 627.616 536.719 626.524 535.519 625.433C534.594 624.59 533.673 623.744 532.752 622.897C532.312 622.493 531.871 622.091 531.428 621.689C526.992 617.663 526.992 617.663 525.992 615.07C525.875 614.773 525.758 614.476 525.638 614.17C525.436 613.231 525.382 612.349 525.387 611.395C525.383 611.229 525.379 611.064 525.374 610.893C525.373 609.3 525.765 608.286 526.254 606.635C524.354 604.886 522.454 603.136 520.497 601.333C519.547 601.89 518.597 602.447 517.618 603.02C514.066 604.728 509.881 606.069 505.841 606.153C505.567 606.162 505.292 606.172 505.009 606.181C496.987 606.329 490.174 603.709 484.382 598.682C484.221 598.549 484.06 598.417 483.893 598.28C478.956 594.047 476.552 587.496 476.28 581.437C476.114 574.216 479.1 567.687 484.454 562.444C494.145 553.839 510.142 552.58 520.873 560.38ZM494.85 573.86C492.844 576.356 491.959 579.146 492.364 582.235C492.944 585.062 494.594 587.724 497.135 589.408C499.934 591.094 502.762 591.824 506.09 591.341C509.091 590.743 511.533 589.353 513.431 587.115C515.433 584.122 516.15 581.004 515.306 577.542C514.211 574.705 512.204 572.489 509.303 571.104C504.144 568.862 498.697 570.045 494.85 573.86Z" fill="black"/>
<path d="M476.008 561.329C475.903 561.455 475.798 561.582 475.69 561.712C470.31 568.463 468.014 576.977 469.29 585.269C470.692 593.491 475.263 601.289 482.597 606.307C490.805 611.732 500.29 613.878 510.289 612.4C511.991 612.126 513.619 611.704 515.263 611.214C515.775 611.073 516.287 610.932 516.8 610.792C517.16 610.692 517.52 610.592 517.88 610.491C517.918 610.932 517.918 610.932 517.957 611.382C518.165 613.556 518.447 615.542 519.239 617.608C519.45 618.203 519.45 618.203 519.45 618.926C516.493 619.529 513.566 620.072 510.552 620.372C510.295 620.399 510.039 620.426 509.774 620.454C496.964 621.588 484.114 618.704 472.606 613.624C472.283 613.483 472.283 613.483 471.955 613.34C463.192 609.495 454.989 604.306 447.85 598.248C447.506 597.958 447.159 597.67 446.803 597.392C445.165 596.106 443.652 594.71 442.134 593.307C441.675 592.883 441.215 592.46 440.754 592.038C440.458 591.765 440.162 591.492 439.865 591.218C439.73 591.094 439.594 590.97 439.455 590.842C437.022 588.587 437.022 588.587 437 587.815C437.358 587.219 437.783 586.77 438.29 586.271C438.609 585.955 438.609 585.955 438.934 585.632C439.279 585.293 439.279 585.293 439.631 584.946C439.87 584.705 440.107 584.464 440.345 584.222C442.266 582.267 444.222 580.364 446.399 578.647C447.046 578.129 447.671 577.591 448.3 577.053C449.82 575.778 451.418 574.613 453.048 573.46C453.476 573.155 453.901 572.846 454.325 572.536C460.398 568.134 467.192 564.503 474.173 561.472C474.449 561.351 474.449 561.351 474.73 561.229C475.223 561.088 475.223 561.088 476.008 561.329Z" fill="black"/>
<path d="M532.011 561.088C532.942 561.232 533.718 561.46 534.571 561.831C534.81 561.934 535.049 562.038 535.296 562.145C535.551 562.259 535.805 562.372 536.068 562.489C536.334 562.607 536.6 562.725 536.874 562.846C544.248 566.164 551.144 570.413 557.396 575.306C557.679 575.525 557.963 575.744 558.246 575.962C562.327 579.132 566.415 582.485 569.862 586.251C570.212 586.648 570.212 586.648 570.676 586.97C571.005 587.356 571.005 587.356 570.999 587.924C570.669 588.746 570.19 589.209 569.533 589.841C569.204 590.16 569.204 590.16 568.868 590.486C568.749 590.6 568.631 590.715 568.508 590.833C568.088 591.249 567.687 591.678 567.285 592.11C566.146 593.315 564.922 594.438 563.693 595.565C563.47 595.772 563.246 595.979 563.015 596.192C561.11 597.944 559.131 599.558 557.004 601.077C556.756 601.256 556.756 601.256 556.503 601.437C556.103 601.725 555.703 602.011 555.303 602.297C554.427 601.949 553.879 601.514 553.224 600.879C553.03 600.693 552.836 600.507 552.635 600.316C552.431 600.12 552.226 599.924 552.015 599.722C550.346 598.156 548.816 596.776 546.667 595.791C546.314 595.623 546.314 595.623 545.954 595.453C542.891 594.084 539.808 593.688 536.46 593.381C536.505 593.249 536.549 593.117 536.595 592.981C537.013 591.723 537.407 590.461 537.785 589.193C537.869 588.913 537.953 588.633 538.04 588.344C538.718 585.81 538.922 583.334 538.914 580.729C538.914 580.559 538.913 580.39 538.913 580.216C538.882 573.27 536.457 566.723 532.011 561.088Z" fill="black"/>
<path d="M449.576 544.941C449.962 545.41 449.962 545.41 450.414 546.073C450.667 546.44 450.667 546.44 450.925 546.815C451.106 547.081 451.287 547.348 451.473 547.622C451.66 547.895 451.847 548.168 452.035 548.441C452.42 549.003 452.805 549.566 453.189 550.129C453.733 550.924 454.284 551.715 454.836 552.504C455.086 552.862 455.086 552.862 455.341 553.227C455.657 553.679 455.973 554.131 456.29 554.582C456.433 554.787 456.575 554.992 456.722 555.202C456.846 555.38 456.97 555.557 457.098 555.74C457.448 556.301 457.704 556.867 457.95 557.473C457.105 557.98 456.26 558.487 455.415 558.994C455.057 559.209 455.057 559.209 454.692 559.429C454.46 559.568 454.228 559.707 453.989 559.85C453.777 559.977 453.564 560.105 453.345 560.236C451.486 561.329 451.486 561.329 450.884 561.329C450.441 560.714 450.03 560.097 449.625 559.461C448.538 557.786 447.418 556.137 446.256 554.506C444.973 552.702 443.721 550.884 442.51 549.038C443.757 548.066 445.117 547.266 446.485 546.448C446.724 546.303 446.963 546.157 447.21 546.008C447.438 545.871 447.667 545.734 447.902 545.593C448.111 545.468 448.319 545.343 448.533 545.214C449.053 544.941 449.053 544.941 449.576 544.941Z" fill="black"/>
<path d="M558.443 544.941C559.901 545.441 561.132 546.186 562.434 546.96C562.676 547.099 562.917 547.238 563.166 547.381C563.51 547.586 563.51 547.586 563.861 547.794C564.071 547.917 564.28 548.04 564.496 548.167C564.986 548.556 564.986 548.556 565.234 549.01C565.254 549.753 564.937 550.12 564.495 550.737C564.24 551.098 564.24 551.098 563.98 551.467C563.794 551.724 563.608 551.981 563.415 552.246C563.129 552.65 562.842 553.053 562.555 553.457C562.257 553.875 561.958 554.291 561.659 554.708C561.074 555.523 560.499 556.345 559.925 557.167C559.573 557.671 559.221 558.174 558.868 558.678C558.702 558.917 558.536 559.155 558.364 559.401C558.21 559.62 558.056 559.838 557.897 560.064C557.762 560.256 557.627 560.449 557.488 560.647C557.135 561.088 557.135 561.088 556.611 561.329C555.93 560.98 555.284 560.619 554.632 560.229C554.444 560.119 554.256 560.008 554.062 559.894C552.719 559.103 551.385 558.301 550.069 557.473C550.506 556.298 551.209 555.317 551.933 554.28C552.068 554.085 552.203 553.891 552.342 553.69C552.804 553.022 553.268 552.356 553.733 551.689C554.01 551.289 554.288 550.888 554.566 550.488C557.695 545.975 557.695 545.975 558.443 544.941Z" fill="black"/>
<path d="M530.965 533.615C533.663 534.201 536.228 535.123 538.816 536.025C538.3 537.848 537.704 539.631 537.038 541.412C536.946 541.66 536.854 541.908 536.76 542.163C536.47 542.944 536.179 543.724 535.888 544.505C535.69 545.038 535.491 545.572 535.293 546.105C534.811 547.405 534.328 548.704 533.843 550.002C533.392 549.891 532.941 549.78 532.49 549.668C532.238 549.606 531.987 549.544 531.728 549.48C530.562 549.173 529.432 548.787 528.299 548.391C528.074 548.313 527.85 548.236 527.619 548.157C527.077 547.97 526.534 547.782 525.992 547.592C526.683 544.983 527.675 542.461 528.626 539.926C528.794 539.474 528.963 539.022 529.131 538.571C529.368 537.935 529.606 537.299 529.843 536.663C530.223 535.649 530.599 534.633 530.965 533.615Z" fill="black"/>
<path d="M477.054 533.615C477.704 535.366 478.352 537.117 478.999 538.869C479.3 539.682 479.601 540.495 479.902 541.308C480.249 542.242 480.594 543.177 480.939 544.111C481.102 544.55 481.102 544.55 481.269 544.998C481.368 545.268 481.468 545.538 481.57 545.817C481.659 546.055 481.747 546.294 481.838 546.54C482.027 547.11 482.027 547.11 482.027 547.592C478.27 548.785 478.27 548.785 474.437 550.002C473.943 549.319 473.7 548.782 473.418 548.01C473.323 547.751 473.228 547.492 473.13 547.226C472.978 546.806 472.978 546.806 472.823 546.379C472.719 546.092 472.614 545.806 472.507 545.51C472.286 544.904 472.067 544.298 471.848 543.691C471.566 542.913 471.282 542.135 470.997 541.358C470.726 540.617 470.458 539.876 470.19 539.134C470.087 538.854 469.984 538.574 469.879 538.286C469.74 537.899 469.74 537.899 469.598 537.504C469.515 537.276 469.432 537.048 469.347 536.813C469.203 536.266 469.203 536.266 469.465 535.784C469.975 535.591 470.495 535.421 471.018 535.262C471.491 535.118 471.491 535.118 471.974 534.97C472.14 534.921 472.305 534.872 472.475 534.821C472.979 534.67 473.483 534.516 473.986 534.362C476.454 533.615 476.454 533.615 477.054 533.615Z" fill="black"/>
<path d="M499.822 530C502.5 530 505.177 530 507.935 530C507.935 534.851 507.935 539.702 507.935 544.7C505.258 544.7 502.581 544.7 499.822 544.7C499.822 539.849 499.822 534.998 499.822 530Z" fill="black"/>
<path d="M505.318 576.993C506.585 577.555 507.334 578.232 507.935 579.403C508.136 580.668 508.1 581.706 507.542 582.882C506.536 583.832 505.595 584.407 504.132 584.511C502.99 584.457 502.275 584.275 501.278 583.741C500.333 582.722 499.782 581.698 499.847 580.331C500.111 579.11 500.706 578.348 501.654 577.475C502.821 576.816 503.988 576.838 505.318 576.993Z" fill="black"/>
<path d="M878.782 230.845C879.701 231.568 880.617 232.295 881.527 233.027C882.122 233.457 882.122 233.457 882.73 233.895C894.163 242.366 901.367 256.37 903.181 269.595C904.222 284.02 902.447 297.912 893.127 309.93C892.152 311.232 892.152 311.232 892.354 313.365C894.018 315.466 896.054 317.261 898.031 319.113C898.559 319.641 899.088 320.169 899.632 320.713C902.301 323.419 902.301 323.419 905.884 324.55C907.279 324.264 908.491 323.864 909.798 323.338C916.788 321.893 924.053 322.651 930.325 325.9C937.307 330.169 943.053 336.165 948.939 341.606C949.861 342.457 950.783 343.307 951.705 344.156C954.113 346.377 956.52 348.599 958.926 350.821C961.389 353.095 963.853 355.368 966.318 357.64C971.139 362.088 975.959 366.536 980.777 370.986C979.793 373.3 977.952 374.845 976.07 376.557C975.712 376.887 975.353 377.217 974.985 377.557C973.803 378.645 972.617 379.728 971.43 380.812C970.609 381.567 969.788 382.321 968.968 383.076C966.809 385.06 964.646 387.042 962.483 389.022C960.275 391.044 958.071 393.069 955.866 395.094C951.541 399.066 947.213 403.034 942.882 407C941.101 406.26 939.839 405.447 938.452 404.184C938.064 403.833 937.677 403.482 937.277 403.12C936.858 402.736 936.44 402.352 936.008 401.955C935.562 401.55 935.115 401.144 934.656 400.726C933.179 399.382 931.707 398.034 930.236 396.685C929.209 395.746 928.183 394.807 927.157 393.868C925.003 391.896 922.853 389.922 920.704 387.946C917.96 385.425 915.205 382.914 912.447 380.406C910.321 378.468 908.203 376.523 906.088 374.576C905.076 373.648 904.062 372.722 903.044 371.8C892.846 362.542 892.846 362.542 890.55 356.581C890.28 355.898 890.011 355.215 889.734 354.512C889.272 352.354 889.148 350.326 889.159 348.132C889.149 347.751 889.139 347.37 889.129 346.978C889.126 343.316 890.027 340.985 891.151 337.189C886.784 333.167 882.417 329.144 877.918 325C875.734 326.28 873.551 327.56 871.301 328.878C863.137 332.804 853.518 335.889 844.233 336.081C843.601 336.103 842.97 336.124 842.32 336.146C823.88 336.486 808.222 330.462 794.908 318.905C794.537 318.6 794.167 318.294 793.785 317.979C782.435 308.248 776.91 293.188 776.284 279.256C775.903 262.654 782.768 247.645 795.072 235.592C817.349 215.808 854.118 212.913 878.782 230.845ZM818.969 261.838C814.358 267.575 812.323 273.991 813.254 281.091C814.587 287.59 818.38 293.711 824.22 297.583C830.653 301.458 837.154 303.137 844.804 302.026C851.701 300.651 857.316 297.456 861.677 292.311C866.278 285.431 867.926 278.261 865.986 270.302C863.471 263.78 858.858 258.685 852.189 255.501C840.331 250.347 827.81 253.065 818.969 261.838Z" fill="black"/>
<path d="M775.659 233.027C775.418 233.318 775.177 233.608 774.929 233.908C762.564 249.429 757.287 269.004 760.219 288.067C763.441 306.97 773.949 324.899 790.805 336.435C809.672 348.907 831.472 353.84 854.456 350.443C858.368 349.813 862.108 348.842 865.887 347.716C867.065 347.391 868.242 347.068 869.421 346.747C870.248 346.516 871.076 346.285 871.902 346.054C871.991 347.069 871.991 347.069 872.081 348.104C872.559 353.1 873.207 357.667 875.028 362.416C875.512 363.784 875.512 363.784 875.512 365.446C868.716 366.834 861.988 368.082 855.06 368.77C854.47 368.832 853.88 368.895 853.272 368.959C823.828 371.567 794.292 364.937 767.84 353.257C767.099 352.933 767.099 352.933 766.344 352.603C746.203 343.764 727.348 331.835 710.94 317.906C710.147 317.24 709.35 316.578 708.533 315.939C704.767 312.982 701.29 309.773 697.8 306.546C696.745 305.572 695.688 304.6 694.629 303.629C693.948 303.001 693.267 302.373 692.586 301.745C692.275 301.459 691.963 301.173 691.642 300.879C686.05 295.695 686.05 295.695 686 293.921C686.824 292.549 687.8 291.517 688.965 290.372C689.698 289.644 689.698 289.644 690.446 288.902C691.239 288.121 691.239 288.121 692.048 287.324C692.596 286.771 693.143 286.216 693.688 285.66C698.105 281.166 702.599 276.79 707.603 272.843C709.09 271.651 710.528 270.415 711.973 269.179C715.466 266.246 719.14 263.569 722.886 260.918C723.871 260.217 724.848 259.507 725.822 258.793C739.78 248.673 755.396 240.324 771.442 233.356C772.076 233.079 772.076 233.079 772.723 232.797C773.855 232.473 773.855 232.473 775.659 233.027Z" fill="black"/>
<path d="M904.385 232.473C906.524 232.804 908.308 233.329 910.268 234.181C910.818 234.419 911.367 234.658 911.934 234.904C912.519 235.165 913.105 235.425 913.708 235.693C914.32 235.965 914.931 236.236 915.561 236.516C932.51 244.143 948.36 253.913 962.732 265.162C963.383 265.665 964.034 266.168 964.685 266.671C974.065 273.957 983.462 281.666 991.384 290.324C992.189 291.238 992.189 291.238 993.254 291.978C994.011 292.865 994.011 292.865 993.997 294.17C993.239 296.061 992.139 297.125 990.627 298.579C989.871 299.312 989.871 299.312 989.1 300.061C988.827 300.324 988.554 300.588 988.273 300.859C987.307 301.816 986.385 302.803 985.46 303.794C982.843 306.565 980.031 309.147 977.206 311.737C976.691 312.213 976.177 312.689 975.647 313.18C971.267 317.208 966.718 320.918 961.83 324.411C961.26 324.821 961.26 324.821 960.678 325.239C959.76 325.899 958.84 326.558 957.92 327.216C955.906 326.415 954.647 325.415 953.143 323.955C952.696 323.528 952.249 323.101 951.788 322.661C951.318 322.21 950.848 321.759 950.363 321.295C946.526 317.694 943.011 314.522 938.07 312.257C937.259 311.872 937.259 311.872 936.432 311.48C929.39 308.333 922.304 307.422 914.61 306.716C914.713 306.413 914.815 306.109 914.921 305.796C915.88 302.906 916.786 300.004 917.656 297.09C917.849 296.445 918.042 295.801 918.241 295.137C919.799 289.312 920.27 283.619 920.25 277.628C920.249 277.24 920.249 276.851 920.248 276.45C920.177 260.48 914.603 245.429 904.385 232.473Z" fill="black"/>
<path d="M714.906 195.351C715.792 196.429 715.792 196.429 716.833 197.953C717.414 198.797 717.414 198.797 718.007 199.659C718.423 200.271 718.839 200.884 719.267 201.515C719.697 202.143 720.127 202.77 720.557 203.398C721.444 204.69 722.328 205.984 723.211 207.278C724.461 209.106 725.727 210.924 726.997 212.739C727.572 213.562 727.572 213.562 728.157 214.401C728.883 215.44 729.61 216.479 730.339 217.516C730.666 217.987 730.993 218.457 731.33 218.942C731.615 219.35 731.901 219.758 732.195 220.178C732.999 221.469 733.589 222.77 734.154 224.162C732.213 225.329 730.27 226.494 728.327 227.66C727.504 228.154 727.504 228.154 726.665 228.658C726.132 228.978 725.599 229.298 725.049 229.627C724.561 229.92 724.073 230.213 723.57 230.515C719.296 233.027 719.296 233.027 717.913 233.027C716.895 231.613 715.949 230.196 715.019 228.733C712.521 224.882 709.945 221.091 707.274 217.34C704.325 213.192 701.448 209.014 698.665 204.77C701.53 202.535 704.657 200.695 707.8 198.814C708.351 198.481 708.901 198.147 709.467 197.803C709.993 197.489 710.518 197.174 711.059 196.849C711.538 196.561 712.017 196.274 712.51 195.977C713.703 195.351 713.703 195.351 714.906 195.351Z" fill="black"/>
<path d="M965.138 195.351C968.489 196.501 971.318 198.214 974.311 199.992C974.866 200.312 975.422 200.631 975.994 200.961C976.784 201.43 976.784 201.43 977.591 201.909C978.073 202.192 978.555 202.475 979.051 202.767C980.176 203.662 980.176 203.662 980.746 204.705C980.792 206.413 980.063 207.258 979.048 208.677C978.463 209.507 978.463 209.507 977.865 210.353C977.437 210.945 977.008 211.536 976.567 212.146C975.907 213.074 975.248 214.001 974.589 214.929C973.905 215.889 973.217 216.847 972.53 217.805C971.185 219.68 969.863 221.568 968.545 223.459C967.735 224.617 966.925 225.775 966.115 226.932C965.733 227.481 965.351 228.03 964.957 228.595C964.603 229.098 964.248 229.6 963.883 230.118C963.573 230.561 963.262 231.004 962.943 231.46C962.13 232.473 962.13 232.473 960.927 233.027C959.362 232.225 957.878 231.396 956.378 230.499C955.946 230.245 955.513 229.991 955.067 229.729C951.982 227.91 948.914 226.066 945.889 224.162C946.894 221.461 948.51 219.206 950.175 216.821C950.485 216.373 950.795 215.926 951.114 215.465C952.177 213.93 953.244 212.398 954.311 210.865C954.949 209.944 955.588 209.024 956.226 208.103C963.418 197.728 963.418 197.728 965.138 195.351Z" fill="black"/>
<path d="M901.978 169.311C908.18 170.659 914.077 172.778 920.024 174.851C918.839 179.042 917.469 183.143 915.938 187.237C915.727 187.807 915.516 188.376 915.298 188.963C914.632 190.758 913.963 192.553 913.295 194.347C912.839 195.574 912.383 196.801 911.928 198.027C910.819 201.014 909.708 204.001 908.595 206.986C907.558 206.732 906.52 206.476 905.483 206.219C904.906 206.076 904.328 205.933 903.733 205.787C901.052 205.08 898.456 204.192 895.85 203.281C895.335 203.104 894.82 202.926 894.289 202.743C893.042 202.313 891.795 201.881 890.55 201.446C892.136 195.447 894.418 189.65 896.602 183.82C896.99 182.782 897.377 181.743 897.764 180.705C898.309 179.242 898.855 177.78 899.401 176.319C900.274 173.987 901.137 171.653 901.978 169.311Z" fill="black"/>
<path d="M778.065 169.311C779.558 173.336 781.048 177.363 782.536 181.39C783.227 183.259 783.918 185.129 784.611 186.998C785.408 189.146 786.201 191.294 786.994 193.442C787.369 194.452 787.369 194.452 787.752 195.482C787.981 196.103 788.209 196.724 788.445 197.364C788.648 197.913 788.851 198.461 789.06 199.027C789.494 200.338 789.494 200.338 789.494 201.446C780.859 204.189 780.859 204.189 772.05 206.986C770.913 205.415 770.355 204.181 769.707 202.407C769.488 201.811 769.27 201.216 769.045 200.603C768.696 199.639 768.696 199.639 768.34 198.656C768.1 197.997 767.86 197.338 767.613 196.659C767.106 195.265 766.601 193.872 766.097 192.477C765.451 190.688 764.798 188.9 764.143 187.113C763.52 185.41 762.904 183.705 762.287 182C762.051 181.356 761.815 180.713 761.572 180.05C761.252 179.16 761.252 179.16 760.926 178.251C760.736 177.727 760.546 177.203 760.35 176.663C760.02 175.405 760.02 175.405 760.621 174.297C761.792 173.854 762.988 173.463 764.19 173.098C765.279 172.766 765.279 172.766 766.389 172.427C766.768 172.314 767.148 172.2 767.54 172.083C768.699 171.736 769.856 171.383 771.013 171.029C776.685 169.311 776.685 169.311 778.065 169.311Z" fill="black"/>
<path d="M830.398 161C836.551 161 842.705 161 849.045 161C849.045 172.153 849.045 183.306 849.045 194.797C842.891 194.797 836.738 194.797 830.398 194.797C830.398 183.644 830.398 172.491 830.398 161Z" fill="black"/>
<path d="M843.03 269.041C845.942 270.332 847.663 271.889 849.045 274.581C849.506 277.489 849.424 279.874 848.142 282.58C845.83 284.763 843.666 286.085 840.304 286.324C837.679 286.201 836.036 285.783 833.744 284.554C831.57 282.211 830.305 279.858 830.454 276.715C831.062 273.906 832.43 272.155 834.608 270.149C837.289 268.634 839.973 268.684 843.03 269.041Z" fill="black"/>
</g>
</g>
<path d="M597.576 97.8497L778.17 97.8493L232.708 589.111L51.9996 589.111L597.576 97.8497Z" fill="url(#paint1_linear_139_96)"/>
<g filter="url(#filter1_d_139_96)">
<path d="M1043 285C1043 268.431 1056.43 255 1073 255H1708C1724.57 255 1738 268.431 1738 285V559C1738 575.569 1724.57 589 1708 589H1043V285Z" fill="white"/>
</g>
<g opacity="0.04">
<mask id="mask1_139_96" style="mask-type:alpha" maskUnits="userSpaceOnUse" x="830" y="255" width="908" height="334">
<path d="M1098.37 579.626C1104.04 585.61 1111.92 589 1120.16 589L1708 589C1724.57 589 1738 575.569 1738 559V422V285C1738 268.431 1724.57 255 1708 255H860.72C834.386 255 820.83 286.504 838.936 305.626L1098.37 579.626Z" fill="#ECECEC"/>
</mask>
<g mask="url(#mask1_139_96)">
<path d="M1658.95 391.542C1659.17 391.544 1659.39 391.547 1659.61 391.549C1664.56 391.593 1669.32 391.518 1674.18 390.483C1674.44 390.428 1674.7 390.374 1674.97 390.317C1678.41 389.569 1681.72 388.557 1684.98 387.236C1685.16 387.167 1685.33 387.099 1685.51 387.028C1688.29 385.911 1690.98 384.56 1693.53 382.989C1693.7 382.887 1693.88 382.784 1694.05 382.679C1694.54 382.24 1694.54 382.24 1694.66 381.643C1694.66 381.406 1694.66 381.17 1694.66 380.927C1694.66 380.658 1694.66 380.389 1694.66 380.112C1694.64 378.866 1694.61 377.62 1694.57 376.374C1694.55 375.723 1694.54 375.072 1694.54 374.42C1694.55 370.959 1694.41 368.314 1691.93 365.71C1690.91 364.752 1689.87 363.85 1688.75 363.005C1687.81 363.364 1687.1 363.76 1686.3 364.379C1677.23 371.046 1665.87 374.443 1654.64 372.85C1643.51 371.124 1633.59 365.243 1626.86 356.252C1620.08 346.783 1617.39 335.345 1619.28 323.85C1620.84 315.209 1624.9 307.657 1630.95 301.303C1631.14 301.098 1631.33 300.893 1631.53 300.681C1639.57 292.397 1650.99 288.535 1662.36 288.313C1673.52 288.268 1684.01 293.03 1692.02 300.554C1692.3 300.81 1692.3 300.81 1692.58 301.071C1699.62 307.783 1704.46 318.019 1704.88 327.718C1704.97 335.671 1704.14 342.712 1700.06 349.765C1699.97 349.931 1699.87 350.097 1699.78 350.268C1698.5 352.463 1697.07 354.427 1695.38 356.318C1694.84 356.942 1694.45 357.553 1694.03 358.258C1695.75 360.541 1697.61 362.897 1700.55 363.467C1702.45 363.691 1704.35 363.69 1706.27 363.676C1706.94 363.686 1707.61 363.703 1708.28 363.72C1709.9 363.755 1711.51 363.765 1713.13 363.754C1714.44 361.713 1715.63 359.667 1716.67 357.478C1716.86 357.072 1716.86 357.072 1717.06 356.657C1719.06 352.403 1720.45 348.114 1721.43 343.52C1721.48 343.273 1721.54 343.026 1721.59 342.772C1723.17 335.149 1723.07 326.64 1721.43 319.039C1721.35 318.661 1721.35 318.661 1721.27 318.276C1718.42 304.943 1710.57 292.088 1699.56 283.817C1699.42 283.709 1699.28 283.601 1699.13 283.49C1689.41 276.149 1677.33 271.129 1664.99 271.017C1664.76 271.015 1664.54 271.012 1664.31 271.01C1659.3 270.966 1654.46 271.028 1649.55 272.076C1649.17 272.154 1649.17 272.154 1648.78 272.234C1635.39 275.061 1622.38 282.857 1614.11 293.809C1613.92 294.049 1613.92 294.049 1613.74 294.294C1608.12 301.711 1604.23 309.95 1602.29 319.039C1602.24 319.286 1602.19 319.533 1602.13 319.787C1600.55 327.404 1600.64 335.926 1602.29 343.52C1602.35 343.778 1602.4 344.037 1602.46 344.303C1605.88 359.875 1615.49 373.129 1628.69 382.004C1637.68 387.684 1648.22 391.441 1658.95 391.542Z" fill="black"/>
<path d="M1683.22 358.009C1682.86 357.158 1682.38 356.607 1681.72 355.956C1681.51 355.751 1681.31 355.546 1681.09 355.335C1680.87 355.116 1680.65 354.897 1680.42 354.671C1680.19 354.446 1679.96 354.22 1679.73 353.987C1679.12 353.388 1678.52 352.79 1677.91 352.193C1677.29 351.583 1676.67 350.971 1676.06 350.359C1674.84 349.161 1673.63 347.964 1672.42 346.767C1671.47 347.139 1670.56 347.556 1669.64 348.001C1665.08 350.088 1660.05 350.299 1655.32 348.578C1650.33 346.49 1646.76 343.136 1644.63 338.189C1642.82 333.601 1642.84 328.592 1644.77 324.035C1647.07 319.028 1650.74 315.782 1655.83 313.793C1660.53 312.188 1665.48 312.629 1669.96 314.659C1674.84 317.111 1678 320.976 1679.72 326.075C1680.91 330.382 1680.72 335.309 1678.53 339.284C1678.26 339.754 1677.98 340.219 1677.69 340.678C1677.44 341.272 1677.44 341.272 1677.61 341.74C1678.01 342.373 1678.46 342.845 1679 343.37C1679.21 343.585 1679.43 343.8 1679.65 344.022C1679.89 344.252 1680.12 344.482 1680.36 344.718C1680.6 344.958 1680.84 345.197 1681.08 345.436C1681.72 346.065 1682.36 346.692 1682.99 347.319C1683.64 347.959 1684.29 348.601 1684.94 349.243C1686.21 350.501 1687.48 351.757 1688.75 353.013C1693.77 349.072 1696.73 342.007 1697.71 335.86C1697.89 334.279 1697.89 332.697 1697.88 331.108C1697.88 330.843 1697.88 330.843 1697.88 330.574C1697.84 321.076 1693.95 312.579 1687.42 305.718C1686.34 304.655 1685.2 303.71 1683.98 302.802C1683.74 302.62 1683.5 302.439 1683.25 302.251C1676.89 297.679 1669.84 295.501 1662.02 295.495C1661.73 295.495 1661.73 295.495 1661.43 295.495C1658.65 295.498 1656.02 295.597 1653.32 296.307C1653.15 296.346 1652.99 296.385 1652.82 296.425C1648.49 297.446 1644.3 299.399 1640.75 302.052C1640.54 302.208 1640.33 302.363 1640.11 302.524C1639.47 303.018 1638.85 303.529 1638.23 304.051C1637.99 304.253 1637.75 304.456 1637.51 304.665C1635.56 306.348 1633.96 308.213 1632.45 310.296C1632.35 310.435 1632.25 310.573 1632.15 310.716C1628.75 315.509 1626.48 321.179 1625.92 327.033C1625.9 327.191 1625.89 327.349 1625.87 327.512C1624.97 336.535 1627.42 345.923 1633.21 353.013C1634.09 354.05 1635.03 355.032 1635.97 356.01C1636.15 356.202 1636.32 356.393 1636.5 356.591C1641.44 361.864 1648.77 364.933 1655.83 366.002C1656.04 366.035 1656.26 366.067 1656.48 366.101C1666.02 367.279 1675.74 363.804 1683.22 358.009Z" fill="black"/>
<path d="M1715.64 399C1716.39 398.601 1716.95 398.045 1717.54 397.453C1717.67 397.321 1717.81 397.188 1717.95 397.052C1718.39 396.614 1718.84 396.173 1719.28 395.732C1719.59 395.427 1719.9 395.121 1720.21 394.816C1720.86 394.176 1721.5 393.535 1722.15 392.893C1722.97 392.069 1723.81 391.249 1724.64 390.431C1725.28 389.802 1725.92 389.17 1726.55 388.537C1726.86 388.234 1727.16 387.932 1727.47 387.63C1727.9 387.209 1728.33 386.784 1728.75 386.358C1728.88 386.234 1729.01 386.109 1729.14 385.981C1729.97 385.139 1729.97 385.139 1730 384.482C1729.6 383.777 1729.1 383.279 1728.53 382.709C1728.4 382.585 1728.28 382.461 1728.15 382.334C1727.74 381.925 1727.33 381.519 1726.91 381.113C1726.63 380.829 1726.34 380.546 1726.05 380.262C1725.46 379.668 1724.86 379.075 1724.26 378.484C1723.48 377.724 1722.71 376.963 1721.95 376.2C1721.36 375.615 1720.77 375.03 1720.18 374.446C1719.89 374.165 1719.61 373.884 1719.32 373.604C1718.93 373.212 1718.53 372.821 1718.13 372.43C1717.91 372.208 1717.68 371.985 1717.45 371.755C1716.66 371.017 1716.19 370.959 1715.13 370.901C1714.73 370.879 1714.73 370.879 1714.32 370.856C1714.03 370.841 1713.74 370.826 1713.45 370.81C1713.15 370.794 1712.85 370.778 1712.55 370.761C1711.92 370.727 1711.29 370.693 1710.66 370.659C1709.7 370.609 1708.74 370.556 1707.78 370.503C1707.17 370.47 1706.56 370.437 1705.95 370.404C1705.67 370.389 1705.38 370.373 1705.09 370.357C1703.74 370.286 1702.41 370.23 1701.07 370.249C1701.14 372.157 1701.21 374.064 1701.3 375.972C1701.31 376.331 1701.33 376.691 1701.35 377.051C1701.4 378.231 1701.45 379.411 1701.51 380.591C1701.53 380.981 1701.55 381.372 1701.57 381.762C1701.59 382.316 1701.62 382.869 1701.65 383.422C1701.67 383.902 1701.67 383.902 1701.7 384.392C1701.92 385.874 1702.77 386.737 1703.8 387.779C1703.92 387.901 1704.04 388.024 1704.17 388.15C1704.57 388.551 1704.97 388.95 1705.37 389.349C1705.64 389.628 1705.92 389.907 1706.2 390.186C1706.78 390.768 1707.37 391.35 1707.95 391.931C1708.7 392.676 1709.44 393.426 1710.19 394.176C1710.76 394.753 1711.33 395.326 1711.91 395.899C1712.19 396.174 1712.46 396.451 1712.73 396.728C1713.12 397.114 1713.5 397.497 1713.89 397.878C1714.22 398.206 1714.22 398.206 1714.55 398.541C1715.15 398.977 1715.15 398.977 1715.64 399Z" fill="black"/>
<path d="M1666.89 341.522C1665.5 339.838 1663.95 338.322 1662.39 336.791C1662.12 336.522 1661.85 336.253 1661.58 335.984C1660.92 335.331 1660.26 334.679 1659.6 334.027C1660.62 332.806 1661.7 331.661 1662.83 330.546C1662.98 330.399 1663.13 330.252 1663.29 330.1C1663.65 329.743 1664.01 329.387 1664.37 329.031C1666.07 330.412 1667.59 331.953 1669.13 333.497C1669.4 333.767 1669.67 334.037 1669.95 334.307C1670.6 334.962 1671.26 335.619 1671.91 336.276C1673.19 335.113 1673.29 333.429 1673.41 331.784C1673.46 328.253 1672.2 325.373 1669.76 322.834C1667.46 320.77 1664.68 319.797 1661.61 319.789C1658.06 319.989 1655.2 321.417 1652.81 324.035C1650.77 326.769 1650.04 329.767 1650.44 333.137C1651.01 336.265 1652.7 338.968 1655.33 340.798C1656.62 341.576 1657.85 342.241 1659.35 342.521C1659.5 342.554 1659.66 342.586 1659.82 342.62C1662.16 343.009 1664.82 342.67 1666.89 341.522Z" fill="black"/>
<path d="M1170.95 598.542C1171.17 598.544 1171.39 598.547 1171.61 598.549C1176.56 598.593 1181.32 598.518 1186.18 597.483C1186.44 597.428 1186.7 597.374 1186.97 597.317C1190.41 596.569 1193.72 595.557 1196.98 594.236C1197.16 594.167 1197.33 594.099 1197.51 594.028C1200.29 592.911 1202.98 591.56 1205.53 589.989C1205.7 589.887 1205.88 589.784 1206.05 589.679C1206.54 589.24 1206.54 589.24 1206.66 588.643C1206.66 588.406 1206.66 588.17 1206.66 587.927C1206.66 587.658 1206.66 587.389 1206.66 587.112C1206.64 585.866 1206.61 584.62 1206.57 583.374C1206.55 582.723 1206.54 582.072 1206.54 581.42C1206.55 577.959 1206.41 575.314 1203.93 572.71C1202.91 571.752 1201.87 570.85 1200.75 570.005C1199.81 570.364 1199.1 570.76 1198.3 571.379C1189.23 578.046 1177.87 581.443 1166.64 579.85C1155.51 578.124 1145.59 572.243 1138.86 563.252C1132.08 553.783 1129.39 542.345 1131.28 530.85C1132.84 522.209 1136.9 514.657 1142.95 508.303C1143.14 508.098 1143.33 507.893 1143.53 507.681C1151.57 499.397 1162.99 495.535 1174.36 495.313C1185.52 495.268 1196.01 500.03 1204.02 507.554C1204.3 507.81 1204.3 507.81 1204.58 508.071C1211.62 514.783 1216.46 525.019 1216.88 534.718C1216.97 542.671 1216.14 549.712 1212.06 556.765C1211.97 556.931 1211.87 557.097 1211.78 557.268C1210.5 559.463 1209.07 561.427 1207.38 563.318C1206.84 563.942 1206.45 564.553 1206.03 565.258C1207.75 567.541 1209.61 569.897 1212.55 570.467C1214.45 570.691 1216.35 570.69 1218.27 570.676C1218.94 570.686 1219.61 570.703 1220.28 570.72C1221.9 570.755 1223.51 570.765 1225.13 570.754C1226.44 568.713 1227.63 566.667 1228.67 564.478C1228.86 564.072 1228.86 564.072 1229.06 563.657C1231.06 559.403 1232.45 555.114 1233.43 550.52C1233.48 550.273 1233.54 550.026 1233.59 549.772C1235.17 542.149 1235.07 533.64 1233.43 526.039C1233.35 525.661 1233.35 525.661 1233.27 525.276C1230.42 511.943 1222.57 499.088 1211.56 490.817C1211.42 490.709 1211.28 490.601 1211.13 490.49C1201.41 483.149 1189.33 478.129 1176.99 478.017C1176.76 478.015 1176.54 478.012 1176.31 478.01C1171.3 477.966 1166.46 478.028 1161.55 479.076C1161.17 479.154 1161.17 479.154 1160.78 479.234C1147.39 482.061 1134.38 489.857 1126.11 500.809C1125.92 501.049 1125.92 501.049 1125.74 501.294C1120.12 508.711 1116.23 516.95 1114.29 526.039C1114.24 526.286 1114.19 526.533 1114.13 526.787C1112.55 534.404 1112.64 542.926 1114.29 550.52C1114.35 550.778 1114.4 551.037 1114.46 551.303C1117.88 566.875 1127.49 580.129 1140.69 589.004C1149.68 594.684 1160.22 598.441 1170.95 598.542Z" fill="black"/>
<path d="M1195.22 565.009C1194.86 564.158 1194.38 563.607 1193.72 562.956C1193.51 562.751 1193.31 562.546 1193.09 562.335C1192.87 562.116 1192.65 561.897 1192.42 561.671C1192.19 561.446 1191.96 561.22 1191.73 560.987C1191.12 560.388 1190.52 559.79 1189.91 559.193C1189.29 558.583 1188.67 557.971 1188.06 557.359C1186.84 556.161 1185.63 554.964 1184.42 553.767C1183.47 554.139 1182.56 554.556 1181.64 555.001C1177.08 557.088 1172.05 557.299 1167.32 555.578C1162.33 553.49 1158.76 550.136 1156.63 545.189C1154.82 540.601 1154.84 535.592 1156.77 531.035C1159.07 526.028 1162.74 522.782 1167.83 520.793C1172.53 519.188 1177.48 519.629 1181.96 521.659C1186.84 524.111 1190 527.976 1191.72 533.075C1192.91 537.382 1192.72 542.309 1190.53 546.284C1190.26 546.754 1189.98 547.219 1189.69 547.678C1189.44 548.272 1189.44 548.272 1189.61 548.74C1190.01 549.373 1190.46 549.845 1191 550.37C1191.21 550.585 1191.43 550.8 1191.65 551.022C1191.89 551.252 1192.12 551.482 1192.36 551.718C1192.6 551.958 1192.84 552.197 1193.08 552.436C1193.72 553.065 1194.36 553.692 1194.99 554.319C1195.64 554.959 1196.29 555.601 1196.94 556.243C1198.21 557.501 1199.48 558.757 1200.75 560.013C1205.77 556.072 1208.73 549.007 1209.71 542.86C1209.89 541.279 1209.89 539.697 1209.88 538.108C1209.88 537.843 1209.88 537.843 1209.88 537.574C1209.84 528.076 1205.95 519.579 1199.42 512.718C1198.34 511.655 1197.2 510.71 1195.98 509.802C1195.74 509.62 1195.5 509.439 1195.25 509.251C1188.89 504.679 1181.84 502.501 1174.02 502.495C1173.73 502.495 1173.73 502.495 1173.43 502.495C1170.65 502.498 1168.02 502.597 1165.32 503.307C1165.15 503.346 1164.99 503.385 1164.82 503.425C1160.49 504.446 1156.3 506.399 1152.75 509.052C1152.54 509.208 1152.33 509.363 1152.11 509.524C1151.47 510.018 1150.85 510.529 1150.23 511.051C1149.99 511.253 1149.75 511.456 1149.51 511.665C1147.56 513.348 1145.96 515.213 1144.45 517.296C1144.35 517.435 1144.25 517.573 1144.15 517.716C1140.75 522.509 1138.48 528.179 1137.92 534.033C1137.9 534.191 1137.89 534.349 1137.87 534.512C1136.97 543.535 1139.42 552.923 1145.21 560.013C1146.09 561.05 1147.03 562.032 1147.97 563.01C1148.15 563.202 1148.32 563.393 1148.5 563.591C1153.44 568.864 1160.77 571.933 1167.83 573.002C1168.04 573.035 1168.26 573.067 1168.48 573.101C1178.02 574.279 1187.74 570.804 1195.22 565.009Z" fill="black"/>
<path d="M1227.64 606C1228.39 605.601 1228.95 605.045 1229.54 604.453C1229.67 604.321 1229.81 604.188 1229.95 604.052C1230.39 603.614 1230.84 603.173 1231.28 602.732C1231.59 602.427 1231.9 602.121 1232.21 601.816C1232.86 601.176 1233.5 600.535 1234.15 599.893C1234.97 599.069 1235.81 598.249 1236.64 597.431C1237.28 596.802 1237.92 596.17 1238.55 595.537C1238.86 595.234 1239.16 594.932 1239.47 594.63C1239.9 594.209 1240.33 593.784 1240.75 593.358C1240.88 593.234 1241.01 593.109 1241.14 592.981C1241.97 592.139 1241.97 592.139 1242 591.482C1241.6 590.777 1241.1 590.279 1240.53 589.709C1240.4 589.585 1240.28 589.461 1240.15 589.334C1239.74 588.925 1239.33 588.519 1238.91 588.113C1238.63 587.829 1238.34 587.546 1238.05 587.262C1237.46 586.668 1236.86 586.075 1236.26 585.484C1235.48 584.724 1234.71 583.963 1233.95 583.2C1233.36 582.615 1232.77 582.03 1232.18 581.446C1231.89 581.165 1231.61 580.884 1231.32 580.604C1230.93 580.212 1230.53 579.821 1230.13 579.43C1229.91 579.208 1229.68 578.985 1229.45 578.755C1228.66 578.017 1228.19 577.959 1227.13 577.901C1226.73 577.879 1226.73 577.879 1226.32 577.856C1226.03 577.841 1225.74 577.826 1225.45 577.81C1225.15 577.794 1224.85 577.778 1224.55 577.761C1223.92 577.727 1223.29 577.693 1222.66 577.659C1221.7 577.609 1220.74 577.556 1219.78 577.503C1219.17 577.47 1218.56 577.437 1217.95 577.404C1217.67 577.389 1217.38 577.373 1217.09 577.357C1215.74 577.286 1214.41 577.23 1213.07 577.249C1213.14 579.157 1213.21 581.064 1213.3 582.972C1213.31 583.331 1213.33 583.691 1213.35 584.051C1213.4 585.231 1213.45 586.411 1213.51 587.591C1213.53 587.981 1213.55 588.372 1213.57 588.762C1213.59 589.316 1213.62 589.869 1213.65 590.422C1213.67 590.902 1213.67 590.902 1213.7 591.392C1213.92 592.874 1214.77 593.737 1215.8 594.779C1215.92 594.901 1216.04 595.024 1216.17 595.15C1216.57 595.551 1216.97 595.95 1217.37 596.349C1217.64 596.628 1217.92 596.907 1218.2 597.186C1218.78 597.768 1219.37 598.35 1219.95 598.931C1220.7 599.676 1221.44 600.426 1222.19 601.176C1222.76 601.753 1223.33 602.326 1223.91 602.899C1224.19 603.174 1224.46 603.451 1224.73 603.728C1225.12 604.114 1225.5 604.497 1225.89 604.878C1226.22 605.206 1226.22 605.206 1226.55 605.541C1227.15 605.977 1227.15 605.977 1227.64 606Z" fill="black"/>
<path d="M1178.89 548.522C1177.5 546.838 1175.95 545.322 1174.39 543.791C1174.12 543.522 1173.85 543.253 1173.58 542.984C1172.92 542.331 1172.26 541.679 1171.6 541.027C1172.62 539.806 1173.7 538.661 1174.83 537.546C1174.98 537.399 1175.13 537.252 1175.29 537.1C1175.65 536.743 1176.01 536.387 1176.37 536.031C1178.07 537.412 1179.59 538.953 1181.13 540.497C1181.4 540.767 1181.67 541.037 1181.95 541.307C1182.6 541.962 1183.26 542.619 1183.91 543.276C1185.19 542.113 1185.29 540.429 1185.41 538.784C1185.46 535.253 1184.2 532.373 1181.76 529.834C1179.46 527.77 1176.68 526.797 1173.61 526.789C1170.06 526.989 1167.2 528.417 1164.81 531.035C1162.77 533.769 1162.04 536.767 1162.44 540.137C1163.01 543.265 1164.7 545.968 1167.33 547.798C1168.62 548.576 1169.85 549.241 1171.35 549.521C1171.5 549.554 1171.66 549.586 1171.82 549.62C1174.16 550.009 1176.82 549.67 1178.89 548.522Z" fill="black"/>
<path d="M1227.95 306.542C1228.17 306.544 1228.39 306.547 1228.61 306.549C1233.56 306.593 1238.32 306.518 1243.18 305.483C1243.44 305.428 1243.7 305.374 1243.97 305.317C1247.41 304.569 1250.72 303.557 1253.98 302.236C1254.16 302.167 1254.33 302.099 1254.51 302.028C1257.29 300.911 1259.98 299.56 1262.53 297.989C1262.7 297.887 1262.88 297.784 1263.05 297.679C1263.54 297.24 1263.54 297.24 1263.66 296.643C1263.66 296.406 1263.66 296.17 1263.66 295.927C1263.66 295.658 1263.66 295.389 1263.66 295.112C1263.64 293.866 1263.61 292.62 1263.57 291.374C1263.55 290.723 1263.54 290.072 1263.54 289.42C1263.55 285.959 1263.41 283.314 1260.93 280.71C1259.91 279.752 1258.87 278.85 1257.75 278.005C1256.81 278.364 1256.1 278.76 1255.3 279.379C1246.23 286.046 1234.87 289.443 1223.64 287.85C1212.51 286.124 1202.59 280.243 1195.86 271.252C1189.08 261.783 1186.39 250.345 1188.28 238.85C1189.84 230.209 1193.9 222.657 1199.95 216.303C1200.14 216.098 1200.33 215.893 1200.53 215.681C1208.57 207.397 1219.99 203.535 1231.36 203.313C1242.52 203.268 1253.01 208.03 1261.02 215.554C1261.3 215.81 1261.3 215.81 1261.58 216.071C1268.62 222.783 1273.46 233.019 1273.88 242.718C1273.97 250.671 1273.14 257.712 1269.06 264.765C1268.97 264.931 1268.87 265.097 1268.78 265.268C1267.5 267.463 1266.07 269.427 1264.38 271.318C1263.84 271.942 1263.45 272.553 1263.03 273.258C1264.75 275.541 1266.61 277.897 1269.55 278.467C1271.45 278.691 1273.35 278.69 1275.27 278.676C1275.94 278.686 1276.61 278.703 1277.28 278.72C1278.9 278.755 1280.51 278.765 1282.13 278.754C1283.44 276.713 1284.63 274.667 1285.67 272.478C1285.86 272.072 1285.86 272.072 1286.06 271.657C1288.06 267.403 1289.45 263.114 1290.43 258.52C1290.48 258.273 1290.54 258.026 1290.59 257.772C1292.17 250.149 1292.07 241.64 1290.43 234.039C1290.35 233.661 1290.35 233.661 1290.27 233.276C1287.42 219.943 1279.57 207.088 1268.56 198.817C1268.42 198.709 1268.28 198.601 1268.13 198.49C1258.41 191.149 1246.33 186.129 1233.99 186.017C1233.76 186.015 1233.54 186.012 1233.31 186.01C1228.3 185.966 1223.46 186.028 1218.55 187.076C1218.17 187.154 1218.17 187.154 1217.78 187.234C1204.39 190.061 1191.38 197.857 1183.11 208.809C1182.92 209.049 1182.92 209.049 1182.74 209.294C1177.12 216.711 1173.23 224.95 1171.29 234.039C1171.24 234.286 1171.19 234.533 1171.13 234.787C1169.55 242.404 1169.64 250.926 1171.29 258.52C1171.35 258.778 1171.4 259.037 1171.46 259.303C1174.88 274.875 1184.49 288.129 1197.69 297.004C1206.68 302.684 1217.22 306.441 1227.95 306.542Z" fill="black"/>
<path d="M1252.22 273.009C1251.86 272.158 1251.38 271.607 1250.72 270.956C1250.51 270.751 1250.31 270.546 1250.09 270.335C1249.87 270.116 1249.65 269.897 1249.42 269.671C1249.19 269.446 1248.96 269.22 1248.73 268.987C1248.12 268.388 1247.52 267.79 1246.91 267.193C1246.29 266.583 1245.67 265.971 1245.06 265.359C1243.84 264.161 1242.63 262.964 1241.42 261.767C1240.47 262.139 1239.56 262.556 1238.64 263.001C1234.08 265.088 1229.05 265.299 1224.32 263.578C1219.33 261.49 1215.76 258.136 1213.63 253.189C1211.82 248.601 1211.84 243.592 1213.77 239.035C1216.07 234.028 1219.74 230.782 1224.83 228.793C1229.53 227.188 1234.48 227.629 1238.96 229.659C1243.84 232.111 1247 235.976 1248.72 241.075C1249.91 245.382 1249.72 250.309 1247.53 254.284C1247.26 254.754 1246.98 255.219 1246.69 255.678C1246.44 256.272 1246.44 256.272 1246.61 256.74C1247.01 257.373 1247.46 257.845 1248 258.37C1248.21 258.585 1248.43 258.8 1248.65 259.022C1248.89 259.252 1249.12 259.482 1249.36 259.718C1249.6 259.958 1249.84 260.197 1250.08 260.436C1250.72 261.065 1251.36 261.692 1251.99 262.319C1252.64 262.959 1253.29 263.601 1253.94 264.243C1255.21 265.501 1256.48 266.757 1257.75 268.013C1262.77 264.072 1265.73 257.007 1266.71 250.86C1266.89 249.279 1266.89 247.697 1266.88 246.108C1266.88 245.843 1266.88 245.843 1266.88 245.574C1266.84 236.076 1262.95 227.579 1256.42 220.718C1255.34 219.655 1254.2 218.71 1252.98 217.802C1252.74 217.62 1252.5 217.439 1252.25 217.251C1245.89 212.679 1238.84 210.501 1231.02 210.495C1230.73 210.495 1230.73 210.495 1230.43 210.495C1227.65 210.498 1225.02 210.597 1222.32 211.307C1222.15 211.346 1221.99 211.385 1221.82 211.425C1217.49 212.446 1213.3 214.399 1209.75 217.052C1209.54 217.208 1209.33 217.363 1209.11 217.524C1208.47 218.018 1207.85 218.529 1207.23 219.051C1206.99 219.253 1206.75 219.456 1206.51 219.665C1204.56 221.348 1202.96 223.213 1201.45 225.296C1201.35 225.435 1201.25 225.573 1201.15 225.716C1197.75 230.509 1195.48 236.179 1194.92 242.033C1194.9 242.191 1194.89 242.349 1194.87 242.512C1193.97 251.535 1196.42 260.923 1202.21 268.013C1203.09 269.05 1204.03 270.032 1204.97 271.01C1205.15 271.202 1205.32 271.393 1205.5 271.591C1210.44 276.864 1217.77 279.933 1224.83 281.002C1225.04 281.035 1225.26 281.067 1225.48 281.101C1235.02 282.279 1244.74 278.804 1252.22 273.009Z" fill="black"/>
<path d="M1284.64 314C1285.39 313.601 1285.95 313.045 1286.54 312.453C1286.67 312.321 1286.81 312.188 1286.95 312.052C1287.39 311.614 1287.84 311.173 1288.28 310.732C1288.59 310.427 1288.9 310.121 1289.21 309.816C1289.86 309.176 1290.5 308.535 1291.15 307.893C1291.97 307.069 1292.81 306.249 1293.64 305.431C1294.28 304.802 1294.92 304.17 1295.55 303.537C1295.86 303.234 1296.16 302.932 1296.47 302.63C1296.9 302.209 1297.33 301.784 1297.75 301.358C1297.88 301.234 1298.01 301.109 1298.14 300.981C1298.97 300.139 1298.97 300.139 1299 299.482C1298.6 298.777 1298.1 298.279 1297.53 297.709C1297.4 297.585 1297.28 297.461 1297.15 297.334C1296.74 296.925 1296.33 296.519 1295.91 296.113C1295.63 295.829 1295.34 295.546 1295.05 295.262C1294.46 294.668 1293.86 294.075 1293.26 293.484C1292.48 292.724 1291.71 291.963 1290.95 291.2C1290.36 290.615 1289.77 290.03 1289.18 289.446C1288.89 289.165 1288.61 288.884 1288.32 288.604C1287.93 288.212 1287.53 287.821 1287.13 287.43C1286.91 287.208 1286.68 286.985 1286.45 286.755C1285.66 286.017 1285.19 285.959 1284.13 285.901C1283.73 285.879 1283.73 285.879 1283.32 285.856C1283.03 285.841 1282.74 285.826 1282.45 285.81C1282.15 285.794 1281.85 285.778 1281.55 285.761C1280.92 285.727 1280.29 285.693 1279.66 285.659C1278.7 285.609 1277.74 285.556 1276.78 285.503C1276.17 285.47 1275.56 285.437 1274.95 285.404C1274.67 285.389 1274.38 285.373 1274.09 285.357C1272.74 285.286 1271.41 285.23 1270.07 285.249C1270.14 287.157 1270.21 289.064 1270.3 290.972C1270.31 291.331 1270.33 291.691 1270.35 292.051C1270.4 293.231 1270.45 294.411 1270.51 295.591C1270.53 295.981 1270.55 296.372 1270.57 296.762C1270.59 297.316 1270.62 297.869 1270.65 298.422C1270.67 298.902 1270.67 298.902 1270.7 299.392C1270.92 300.874 1271.77 301.737 1272.8 302.779C1272.92 302.901 1273.04 303.024 1273.17 303.15C1273.57 303.551 1273.97 303.95 1274.37 304.349C1274.64 304.628 1274.92 304.907 1275.2 305.186C1275.78 305.768 1276.37 306.35 1276.95 306.931C1277.7 307.676 1278.44 308.426 1279.19 309.176C1279.76 309.753 1280.33 310.326 1280.91 310.899C1281.19 311.174 1281.46 311.451 1281.73 311.728C1282.12 312.114 1282.5 312.497 1282.89 312.878C1283.22 313.206 1283.22 313.206 1283.55 313.541C1284.15 313.977 1284.15 313.977 1284.64 314Z" fill="black"/>
<path d="M1235.89 256.522C1234.5 254.838 1232.95 253.322 1231.39 251.791C1231.12 251.522 1230.85 251.253 1230.58 250.984C1229.92 250.331 1229.26 249.679 1228.6 249.027C1229.62 247.806 1230.7 246.661 1231.83 245.546C1231.98 245.399 1232.13 245.252 1232.29 245.1C1232.65 244.743 1233.01 244.387 1233.37 244.031C1235.07 245.412 1236.59 246.953 1238.13 248.497C1238.4 248.767 1238.67 249.037 1238.95 249.307C1239.6 249.962 1240.26 250.619 1240.91 251.276C1242.19 250.113 1242.29 248.429 1242.41 246.784C1242.46 243.253 1241.2 240.373 1238.76 237.834C1236.46 235.77 1233.68 234.797 1230.61 234.789C1227.06 234.989 1224.2 236.417 1221.81 239.035C1219.77 241.769 1219.04 244.767 1219.44 248.137C1220.01 251.265 1221.7 253.968 1224.33 255.798C1225.62 256.576 1226.85 257.241 1228.35 257.521C1228.5 257.554 1228.66 257.586 1228.82 257.62C1231.16 258.009 1233.82 257.67 1235.89 256.522Z" fill="black"/>
<path d="M1510.69 659.686C1511.17 659.691 1511.64 659.696 1512.13 659.702C1522.94 659.798 1533.36 659.634 1543.97 657.37C1544.54 657.25 1545.11 657.13 1545.69 657.006C1553.23 655.371 1560.45 653.157 1567.59 650.266C1567.97 650.116 1568.35 649.966 1568.73 649.812C1574.82 647.368 1580.69 644.414 1586.27 640.976C1586.65 640.752 1587.03 640.528 1587.42 640.297C1588.47 639.337 1588.47 639.337 1588.75 638.031C1588.75 637.514 1588.75 636.997 1588.74 636.465C1588.75 635.877 1588.75 635.289 1588.75 634.683C1588.7 631.956 1588.64 629.231 1588.54 626.506C1588.49 625.082 1588.47 623.656 1588.48 622.231C1588.5 614.661 1588.2 608.874 1582.78 603.178C1580.56 601.083 1578.27 599.11 1575.84 597.26C1573.77 598.046 1572.23 598.913 1570.48 600.266C1550.64 614.851 1525.8 622.281 1501.25 618.797C1476.92 615.022 1455.24 602.157 1440.53 582.489C1425.71 561.775 1419.82 536.754 1423.96 511.61C1427.38 492.706 1436.24 476.188 1449.46 462.288C1449.89 461.839 1450.31 461.39 1450.74 460.928C1468.31 442.807 1493.28 434.359 1518.14 433.873C1542.52 433.774 1565.46 444.19 1582.98 460.648C1583.58 461.208 1583.58 461.208 1584.2 461.78C1599.59 476.464 1610.17 498.854 1611.09 520.071C1611.28 537.467 1609.46 552.869 1600.56 568.299C1600.35 568.662 1600.14 569.025 1599.93 569.399C1597.14 574.2 1594.02 578.496 1590.31 582.632C1589.15 583.999 1588.28 585.336 1587.37 586.878C1591.13 591.87 1595.19 597.025 1601.61 598.271C1605.78 598.761 1609.94 598.758 1614.12 598.729C1615.59 598.75 1617.05 598.788 1618.51 598.824C1622.05 598.902 1625.59 598.924 1629.13 598.9C1631.99 594.434 1634.58 589.96 1636.86 585.17C1637.28 584.282 1637.28 584.282 1637.71 583.375C1642.09 574.07 1645.12 564.687 1647.26 554.638C1647.38 554.098 1647.5 553.558 1647.62 553.001C1651.07 536.325 1650.85 517.712 1647.26 501.086C1647.09 500.259 1647.09 500.259 1646.91 499.417C1640.68 470.25 1623.53 442.129 1599.46 424.036C1599.15 423.801 1598.84 423.565 1598.52 423.322C1577.28 407.264 1550.86 396.282 1523.88 396.037C1523.39 396.032 1522.9 396.027 1522.4 396.021C1511.45 395.926 1500.88 396.06 1490.12 398.353C1489.29 398.525 1489.29 398.525 1488.44 398.699C1459.19 404.884 1430.75 421.938 1412.65 445.894C1412.25 446.42 1412.25 446.42 1411.84 446.956C1399.56 463.181 1391.07 481.202 1386.83 501.086C1386.71 501.626 1386.59 502.165 1386.47 502.722C1383.02 519.385 1383.22 538.026 1386.83 554.638C1386.95 555.203 1387.07 555.768 1387.19 556.35C1394.67 590.414 1415.67 619.406 1444.54 638.82C1464.19 651.247 1487.24 659.466 1510.69 659.686Z" fill="black"/>
<path d="M1563.75 586.331C1562.94 584.472 1561.9 583.265 1560.46 581.841C1560 581.393 1559.55 580.944 1559.09 580.482C1558.6 580.003 1558.12 579.525 1557.61 579.031C1557.11 578.537 1556.62 578.043 1556.1 577.534C1554.78 576.223 1553.46 574.916 1552.13 573.61C1550.78 572.275 1549.43 570.937 1548.08 569.599C1545.43 566.977 1542.78 564.358 1540.12 561.741C1538.04 562.555 1536.05 563.467 1534.04 564.439C1524.08 569.004 1513.08 569.465 1502.74 565.701C1491.83 561.134 1484.03 553.798 1479.37 542.976C1475.41 532.939 1475.46 521.982 1479.68 512.015C1484.71 501.062 1492.73 493.961 1503.86 489.61C1514.14 486.1 1524.95 487.063 1534.74 491.504C1545.42 496.867 1552.32 505.322 1556.09 516.476C1558.69 525.898 1558.27 536.676 1553.49 545.371C1552.9 546.399 1552.28 547.417 1551.65 548.422C1551.11 549.719 1551.11 549.719 1551.48 550.743C1552.35 552.128 1553.34 553.16 1554.5 554.31C1554.98 554.781 1555.45 555.251 1555.94 555.735C1556.45 556.238 1556.96 556.741 1557.48 557.259C1558.01 557.782 1558.54 558.306 1559.07 558.83C1560.46 560.205 1561.85 561.577 1563.24 562.948C1564.66 564.349 1566.07 565.753 1567.49 567.157C1570.27 569.908 1573.05 572.657 1575.84 575.403C1586.81 566.782 1593.28 551.329 1595.41 537.881C1595.8 534.423 1595.81 530.962 1595.79 527.486C1595.79 526.908 1595.79 526.908 1595.78 526.317C1595.69 505.541 1587.18 486.954 1572.93 471.945C1570.56 469.619 1568.06 467.553 1565.4 465.566C1564.87 465.169 1564.34 464.772 1563.79 464.363C1549.9 454.361 1534.49 449.596 1517.39 449.583C1516.76 449.582 1516.76 449.582 1516.11 449.582C1510.03 449.59 1504.28 449.805 1498.36 451.359C1498 451.444 1497.64 451.529 1497.27 451.617C1487.82 453.851 1478.65 458.122 1470.89 463.927C1470.43 464.267 1469.98 464.608 1469.51 464.958C1468.11 466.04 1466.75 467.156 1465.4 468.299C1464.87 468.742 1464.34 469.185 1463.8 469.641C1459.54 473.323 1456.04 477.403 1452.76 481.96C1452.54 482.263 1452.32 482.567 1452.1 482.879C1444.67 493.362 1439.69 505.766 1438.47 518.572C1438.44 518.918 1438.4 519.264 1438.37 519.621C1436.4 539.359 1441.76 559.893 1454.41 575.403C1456.34 577.673 1458.38 579.82 1460.45 581.96C1460.83 582.379 1461.21 582.798 1461.6 583.23C1472.41 594.766 1488.42 601.478 1503.86 603.818C1504.33 603.889 1504.79 603.96 1505.27 604.033C1526.13 606.61 1547.39 599.009 1563.75 586.331Z" fill="black"/>
<path d="M1634.61 676C1636.24 675.127 1637.46 673.911 1638.76 672.616C1639.05 672.326 1639.35 672.037 1639.65 671.738C1640.63 670.78 1641.6 669.816 1642.57 668.851C1643.24 668.184 1643.92 667.516 1644.6 666.848C1646.01 665.448 1647.42 664.046 1648.83 662.641C1650.64 660.838 1652.46 659.045 1654.28 657.255C1655.68 655.879 1657.07 654.497 1658.46 653.113C1659.13 652.449 1659.8 651.788 1660.47 651.128C1661.41 650.207 1662.34 649.278 1663.27 648.346C1663.55 648.074 1663.83 647.802 1664.12 647.521C1665.93 645.678 1665.93 645.678 1666 644.242C1665.14 642.701 1664.04 641.61 1662.78 640.364C1662.51 640.093 1662.23 639.822 1661.95 639.542C1661.06 638.648 1660.15 637.76 1659.25 636.871C1658.62 636.251 1658 635.631 1657.38 635.01C1656.07 633.711 1654.75 632.415 1653.44 631.12C1651.76 629.459 1650.07 627.793 1648.4 626.126C1647.11 624.845 1645.81 623.566 1644.52 622.288C1643.9 621.674 1643.28 621.06 1642.66 620.445C1641.8 619.588 1640.93 618.733 1640.06 617.879C1639.57 617.392 1639.07 616.904 1638.57 616.402C1636.83 614.786 1635.81 614.661 1633.49 614.534C1632.61 614.485 1632.61 614.485 1631.72 614.435C1631.09 614.402 1630.46 614.369 1629.81 614.335C1629.16 614.299 1628.52 614.264 1627.85 614.227C1626.47 614.152 1625.1 614.078 1623.73 614.005C1621.63 613.894 1619.53 613.779 1617.44 613.663C1616.1 613.591 1614.77 613.519 1613.43 613.447C1612.81 613.413 1612.18 613.379 1611.54 613.343C1608.6 613.189 1605.69 613.066 1602.76 613.107C1602.9 617.281 1603.07 621.453 1603.26 625.625C1603.29 626.412 1603.33 627.199 1603.36 627.986C1603.47 630.568 1603.59 633.149 1603.72 635.73C1603.77 636.584 1603.81 637.438 1603.84 638.292C1603.9 639.503 1603.96 640.713 1604.02 641.924C1604.08 642.974 1604.08 642.974 1604.13 644.045C1604.62 647.286 1606.46 649.174 1608.73 651.453C1608.99 651.721 1609.26 651.989 1609.53 652.265C1610.4 653.143 1611.27 654.016 1612.15 654.889C1612.76 655.499 1613.36 656.109 1613.97 656.719C1615.24 657.994 1616.52 659.265 1617.8 660.536C1619.43 662.167 1621.06 663.806 1622.69 665.448C1623.94 666.709 1625.19 667.964 1626.45 669.217C1627.06 669.819 1627.66 670.424 1628.26 671.03C1629.09 671.875 1629.94 672.712 1630.78 673.546C1631.5 674.264 1631.5 674.264 1632.23 674.996C1633.53 675.949 1633.53 675.949 1634.61 676Z" fill="black"/>
<path d="M1528.03 550.266C1525 546.582 1521.61 543.268 1518.21 539.918C1517.62 539.33 1517.02 538.742 1516.43 538.153C1514.99 536.725 1513.54 535.298 1512.1 533.872C1514.34 531.2 1516.68 528.696 1519.17 526.256C1519.5 525.935 1519.83 525.613 1520.16 525.282C1520.95 524.501 1521.75 523.722 1522.54 522.944C1526.24 525.963 1529.58 529.334 1532.94 532.711C1533.54 533.302 1534.13 533.893 1534.72 534.483C1536.15 535.917 1537.59 537.353 1539.02 538.791C1541.81 536.247 1542.03 532.563 1542.3 528.965C1542.41 521.241 1539.65 514.941 1534.31 509.387C1529.29 504.873 1523.21 502.743 1516.5 502.725C1508.74 503.163 1502.48 506.287 1497.26 512.015C1492.79 517.995 1491.21 524.554 1492.08 531.926C1493.32 538.767 1497.02 544.68 1502.76 548.684C1505.58 550.385 1508.28 551.839 1511.55 552.452C1511.89 552.524 1512.24 552.595 1512.59 552.669C1517.71 553.519 1523.52 552.777 1528.03 550.266Z" fill="black"/>
</g>
</g>
<defs>
<filter id="filter0_d_139_96" x="93" y="251" width="986" height="364" filterUnits="userSpaceOnUse" color-interpolation-filters="sRGB">
<feFlood flood-opacity="0" result="BackgroundImageFix"/>
<feColorMatrix in="SourceAlpha" type="matrix" values="0 0 0 0 0 0 0 0 0 0 0 0 0 0 0 0 0 0 127 0" result="hardAlpha"/>
<feOffset dx="-24" dy="11"/>
<feGaussianBlur stdDeviation="7.5"/>
<feComposite in2="hardAlpha" operator="out"/>
<feColorMatrix type="matrix" values="0 0 0 0 0 0 0 0 0 0 0 0 0 0 0 0 0 0 0.25 0"/>
<feBlend mode="normal" in2="BackgroundImageFix" result="effect1_dropShadow_139_96"/>
<feBlend mode="normal" in="SourceGraphic" in2="effect1_dropShadow_139_96" result="shape"/>
</filter>
<filter id="filter1_d_139_96" x="1039" y="251" width="725" height="364" filterUnits="userSpaceOnUse" color-interpolation-filters="sRGB">
<feFlood flood-opacity="0" result="BackgroundImageFix"/>
<feColorMatrix in="SourceAlpha" type="matrix" values="0 0 0 0 0 0 0 0 0 0 0 0 0 0 0 0 0 0 127 0" result="hardAlpha"/>
<feOffset dx="11" dy="11"/>
<feGaussianBlur stdDeviation="7.5"/>
<feComposite in2="hardAlpha" operator="out"/>
<feColorMatrix type="matrix" values="0 0 0 0 0 0 0 0 0 0 0 0 0 0 0 0 0 0 0.25 0"/>
<feBlend mode="normal" in2="BackgroundImageFix" result="effect1_dropShadow_139_96"/>
<feBlend mode="normal" in="SourceGraphic" in2="effect1_dropShadow_139_96" result="shape"/>
</filter>
<linearGradient id="paint0_linear_139_96" x1="108.5" y1="402" x2="59" y2="585" gradientUnits="userSpaceOnUse">
<stop stop-color="#AD5389"/>
<stop offset="0.687552" stop-color="#582161"/>
</linearGradient>
<linearGradient id="paint1_linear_139_96" x1="887.499" y1="-0.000273626" x2="-8.50058" y2="608.5" gradientUnits="userSpaceOnUse">
<stop offset="0.259593" stop-color="#AD5389"/>
<stop offset="0.932901" stop-color="#3C1053"/>
</linearGradient>
</defs>
</svg>
