<svg width="42" height="42" viewBox="0 0 42 42" fill="none" xmlns="http://www.w3.org/2000/svg">
<path d="M26.8107 12.0227C26.2249 11.4369 25.2751 11.4369 24.6893 12.0227C24.1036 12.6085 24.1036 13.5582 24.6893 14.144L26.8107 12.0227ZM27.856 17.3107C28.4418 17.8964 29.3915 17.8964 29.9773 17.3107C30.5631 16.7249 30.5631 15.7751 29.9773 15.1893L27.856 17.3107ZM13.0833 28.9167L11.6362 28.522C11.4946 29.0413 11.642 29.5967 12.0227 29.9773C12.4033 30.358 12.9587 30.5054 13.478 30.3638L13.0833 28.9167ZM14.0938 25.2116L12.6467 24.8169L12.6467 24.8169L14.0938 25.2116ZM14.2433 24.7363L12.8751 24.1214L12.8748 24.1222L14.2433 24.7363ZM14.408 24.4524L13.1958 23.5689L13.1957 23.5691L14.408 24.4524ZM23.2527 15.6417L23.7161 17.0683L23.7172 17.0679L23.2527 15.6417ZM23.4973 15.6417L23.0328 17.0679L23.0339 17.0683L23.4973 15.6417ZM26.3583 18.5027L24.9317 18.9661L24.9321 18.9672L26.3583 18.5027ZM26.3583 18.7473L24.9321 18.2828L24.9317 18.2839L26.3583 18.7473ZM26.0938 19.0728L25.0332 18.0122L26.0938 19.0728ZM17.9132 27.2535L18.9739 28.3141L17.9132 27.2535ZM17.5476 27.592L18.4309 28.8043L18.4311 28.8042L17.5476 27.592ZM17.2637 27.7567L17.8778 29.1252L17.8786 29.1249L17.2637 27.7567ZM16.7884 27.9062L17.1831 29.3533L17.1831 29.3533L16.7884 27.9062ZM21 3.5C30.665 3.5 38.5 11.335 38.5 21H41.5C41.5 9.67816 32.3218 0.5 21 0.5V3.5ZM38.5 21C38.5 30.665 30.665 38.5 21 38.5V41.5C32.3218 41.5 41.5 32.3218 41.5 21H38.5ZM21 38.5C11.335 38.5 3.5 30.665 3.5 21H0.5C0.5 32.3218 9.67816 41.5 21 41.5V38.5ZM3.5 21C3.5 11.335 11.335 3.5 21 3.5V0.5C9.67816 0.5 0.5 9.67816 0.5 21H3.5ZM24.6893 14.144L27.856 17.3107L29.9773 15.1893L26.8107 12.0227L24.6893 14.144ZM14.5305 29.3113L15.541 25.6063L12.6467 24.8169L11.6362 28.522L14.5305 29.3113ZM15.541 25.6063C15.5762 25.477 15.5941 25.4119 15.6087 25.3644C15.6204 25.326 15.6205 25.331 15.6118 25.3504L12.8748 24.1222C12.7653 24.366 12.7007 24.6187 12.6467 24.8169L15.541 25.6063ZM15.6115 25.3511C15.6141 25.3452 15.6172 25.3401 15.6204 25.3357L13.1957 23.5691C13.0697 23.742 12.9624 23.9272 12.8751 24.1214L15.6115 25.3511ZM15.6203 25.3358C15.6077 25.3531 15.6033 25.3555 15.6309 25.3262C15.6649 25.29 15.7125 25.2422 15.8072 25.1474L13.6859 23.0261C13.5406 23.1714 13.3532 23.3529 13.1958 23.5689L15.6203 25.3358ZM15.8072 25.1474L23.9878 16.9668L21.8665 14.8455L13.6859 23.0261L15.8072 25.1474ZM23.9878 16.9668C24.0294 16.9252 24.0547 16.9 24.0753 16.8801C24.0959 16.8601 24.0965 16.8604 24.0855 16.8697C24.065 16.8871 23.9342 16.9974 23.7161 17.0683L22.7892 14.2151C22.4807 14.3153 22.2656 14.4795 22.1441 14.5826C22.036 14.6744 21.9274 14.7847 21.8665 14.8455L23.9878 16.9668ZM23.7172 17.0679C23.4948 17.1404 23.2552 17.1404 23.0328 17.0679L23.9618 14.2154C23.5805 14.0912 23.1695 14.0912 22.7882 14.2154L23.7172 17.0679ZM23.0339 17.0683C22.8158 16.9974 22.685 16.8871 22.6645 16.8697C22.6535 16.8604 22.6541 16.8601 22.6747 16.8801C22.6953 16.9 22.7206 16.9252 22.7622 16.9668L24.8835 14.8455C24.8226 14.7847 24.714 14.6744 24.6059 14.5826C24.4844 14.4795 24.2693 14.3153 23.9608 14.2151L23.0339 17.0683ZM22.7622 16.9668L25.0332 19.2378L27.1545 17.1165L24.8835 14.8455L22.7622 16.9668ZM25.0332 19.2378C25.0748 19.2794 25.1 19.3047 25.1199 19.3253C25.1399 19.3459 25.1396 19.3465 25.1303 19.3355C25.1129 19.315 25.0026 19.1842 24.9317 18.9661L27.7849 18.0392C27.6847 17.7307 27.5205 17.5156 27.4174 17.3941C27.3256 17.286 27.2154 17.1774 27.1545 17.1165L25.0332 19.2378ZM24.9321 18.9672C24.8596 18.7448 24.8596 18.5052 24.9321 18.2828L27.7846 19.2118C27.9088 18.8305 27.9088 18.4195 27.7846 18.0382L24.9321 18.9672ZM24.9317 18.2839C25.0026 18.0658 25.1129 17.935 25.1303 17.9145C25.1396 17.9035 25.1399 17.9041 25.1199 17.9247C25.1 17.9453 25.0748 17.9706 25.0332 18.0122L27.1545 20.1335C27.2154 20.0726 27.3256 19.964 27.4174 19.8559C27.5205 19.7344 27.6847 19.5193 27.7849 19.2108L24.9317 18.2839ZM25.0332 18.0122L16.8526 26.1928L18.9739 28.3141L27.1545 20.1335L25.0332 18.0122ZM16.8526 26.1928C16.7578 26.2875 16.71 26.3351 16.6738 26.3691C16.6446 26.3967 16.6469 26.3923 16.6642 26.3797L18.4311 28.8042C18.6471 28.6468 18.8286 28.4594 18.9739 28.3141L16.8526 26.1928ZM16.6643 26.3796C16.6599 26.3828 16.6548 26.3859 16.6489 26.3885L17.8786 29.1249C18.0728 29.0376 18.258 28.9303 18.4309 28.8043L16.6643 26.3796ZM16.6496 26.3882C16.6691 26.3795 16.674 26.3796 16.6356 26.3913C16.5881 26.4059 16.523 26.4238 16.3937 26.459L17.1831 29.3533C17.3812 29.2993 17.634 29.2347 17.8778 29.1252L16.6496 26.3882ZM16.3937 26.459L12.6887 27.4695L13.478 30.3638L17.1831 29.3533L16.3937 26.459Z" fill="#4E9F3D"/>
</svg>
