<svg width="42" height="42" viewBox="0 0 42 42" fill="none" xmlns="http://www.w3.org/2000/svg">
<path d="M21 31.5L19.6584 32.1708C19.9124 32.679 20.4318 33 21 33C21.5682 33 22.0876 32.679 22.3416 32.1708L21 31.5ZM21 3.5C30.665 3.5 38.5 11.335 38.5 21H41.5C41.5 9.67816 32.3218 0.5 21 0.5V3.5ZM38.5 21C38.5 30.665 30.665 38.5 21 38.5V41.5C32.3218 41.5 41.5 32.3218 41.5 21H38.5ZM21 38.5C11.335 38.5 3.5 30.665 3.5 21H0.5C0.5 32.3218 9.67816 41.5 21 41.5V38.5ZM3.5 21C3.5 11.335 11.335 3.5 21 3.5V0.5C9.67816 0.5 0.5 9.67816 0.5 21H3.5ZM21 22.8958C23.1401 22.8958 24.875 21.161 24.875 19.0208H21.875C21.875 19.5041 21.4833 19.8958 21 19.8958V22.8958ZM24.875 19.0208C24.875 16.8807 23.1401 15.1458 21 15.1458V18.1458C21.4833 18.1458 21.875 18.5375 21.875 19.0208H24.875ZM21 15.1458C18.8599 15.1458 17.125 16.8807 17.125 19.0208H20.125C20.125 18.5375 20.5167 18.1458 21 18.1458V15.1458ZM17.125 19.0208C17.125 21.161 18.8599 22.8958 21 22.8958V19.8958C20.5167 19.8958 20.125 19.5041 20.125 19.0208H17.125ZM22.3416 32.1708C22.6811 31.4919 23.2138 30.6921 23.8829 29.7444C24.5283 28.8303 25.3019 27.7768 26.0105 26.7085C27.4003 24.613 28.8333 22.0509 28.8333 19.4167H25.8333C25.8333 21.0719 24.8914 22.9682 23.5104 25.0503C22.8335 26.0708 22.1227 27.036 21.4322 28.0141C20.7653 28.9587 20.1106 29.9247 19.6584 30.8292L22.3416 32.1708ZM28.8333 19.4167C28.8333 15.0904 25.3262 11.5833 21 11.5833V14.5833C23.6694 14.5833 25.8333 16.7473 25.8333 19.4167H28.8333ZM21 11.5833C16.6738 11.5833 13.1667 15.0904 13.1667 19.4167H16.1667C16.1667 16.7473 18.3306 14.5833 21 14.5833V11.5833ZM13.1667 19.4167C13.1667 22.0509 14.5997 24.613 15.9895 26.7085C16.6981 27.7768 17.4717 28.8303 18.1171 29.7444C18.7862 30.6921 19.3189 31.4919 19.6584 32.1708L22.3416 30.8292C21.8894 29.9247 21.2347 28.9587 20.5678 28.0141C19.8773 27.036 19.1665 26.0708 18.4896 25.0503C17.1086 22.9682 16.1667 21.0719 16.1667 19.4167H13.1667Z" fill="#4E9F3D"/>
</svg>
