<svg width="42" height="42" viewBox="0 0 42 42" fill="none" xmlns="http://www.w3.org/2000/svg">
<path d="M13.9435 15.8128C13.2648 15.3377 12.3296 15.5028 11.8545 16.1815C11.3794 16.8602 11.5445 17.7954 12.2231 18.2705L13.9435 15.8128ZM19.5472 21.5664L20.4075 20.3376L20.4074 20.3375L19.5472 21.5664ZM20.6171 22.1869L20.98 20.7315L20.9797 20.7314L20.6171 22.1869ZM21.3829 22.1869L21.0203 20.7314L21.02 20.7315L21.3829 22.1869ZM22.4528 21.5664L21.5926 20.3375L21.5925 20.3376L22.4528 21.5664ZM29.7769 18.2705C30.4555 17.7954 30.6206 16.8602 30.1455 16.1815C29.6704 15.5028 28.7352 15.3377 28.0565 15.8128L29.7769 18.2705ZM27.6199 27.0745L26.939 25.7379L26.939 25.7379L27.6199 27.0745ZM28.6578 26.0366L27.3213 25.3556L27.3213 25.3556L28.6578 26.0366ZM28.6578 15.9634L27.3213 16.6444L27.3213 16.6444L28.6578 15.9634ZM27.6199 14.9255L26.939 16.2621L26.939 16.2621L27.6199 14.9255ZM14.3801 14.9255L15.061 16.2621L15.061 16.2621L14.3801 14.9255ZM13.3422 15.9634L14.6787 16.6444L14.6787 16.6444L13.3422 15.9634ZM13.3422 26.0366L14.6787 25.3556L14.6787 25.3556L13.3422 26.0366ZM14.3801 27.0745L15.061 25.7379L15.061 25.7379L14.3801 27.0745ZM21 3.5C30.665 3.5 38.5 11.335 38.5 21H41.5C41.5 9.67816 32.3218 0.5 21 0.5V3.5ZM38.5 21C38.5 30.665 30.665 38.5 21 38.5V41.5C32.3218 41.5 41.5 32.3218 41.5 21H38.5ZM21 38.5C11.335 38.5 3.5 30.665 3.5 21H0.5C0.5 32.3218 9.67816 41.5 21 41.5V38.5ZM3.5 21C3.5 11.335 11.335 3.5 21 3.5V0.5C9.67816 0.5 0.5 9.67816 0.5 21H3.5ZM12.2231 18.2705L18.687 22.7952L20.4074 20.3375L13.9435 15.8128L12.2231 18.2705ZM18.6869 22.7952C19.1088 23.0905 19.6348 23.4881 20.2544 23.6424L20.9797 20.7314C21.0369 20.7457 21.0439 20.7619 20.9468 20.7033C20.8339 20.6351 20.6855 20.5322 20.4075 20.3376L18.6869 22.7952ZM20.2541 23.6424C20.7439 23.7645 21.2561 23.7645 21.7459 23.6424L21.02 20.7315C21.0069 20.7348 20.9931 20.7348 20.98 20.7315L20.2541 23.6424ZM21.7456 23.6424C22.3652 23.4881 22.8912 23.0905 23.3131 22.7952L21.5925 20.3376C21.3145 20.5322 21.1661 20.6351 21.0532 20.7033C20.9561 20.7619 20.9631 20.7457 21.0203 20.7314L21.7456 23.6424ZM23.313 22.7952L29.7769 18.2705L28.0565 15.8128L21.5926 20.3375L23.313 22.7952ZM16.8833 28.8333H25.1167V25.8333H16.8833V28.8333ZM25.1167 28.8333C25.757 28.8333 26.3274 28.8345 26.7987 28.796C27.2875 28.7561 27.8002 28.6661 28.3009 28.411L26.939 25.7379C26.9316 25.7417 26.8577 25.7812 26.5544 25.806C26.2336 25.8322 25.8065 25.8333 25.1167 25.8333V28.8333ZM28.3009 28.411C29.03 28.0395 29.6228 27.4467 29.9943 26.7175L27.3213 25.3556C27.2374 25.5203 27.1036 25.6541 26.939 25.7379L28.3009 28.411ZM29.9943 26.7175C30.2494 26.2168 30.3394 25.7042 30.3793 25.2154C30.4178 24.7441 30.4167 24.1737 30.4167 23.5333H27.4167C27.4167 24.2232 27.4155 24.6503 27.3893 24.9711C27.3645 25.2743 27.325 25.3482 27.3213 25.3556L29.9943 26.7175ZM30.4167 23.5333V18.4667H27.4167V23.5333H30.4167ZM30.4167 18.4667C30.4167 17.8263 30.4178 17.2559 30.3793 16.7846C30.3394 16.2958 30.2494 15.7832 29.9943 15.2825L27.3213 16.6444C27.325 16.6518 27.3645 16.7257 27.3893 17.0289C27.4155 17.3497 27.4167 17.7768 27.4167 18.4667H30.4167ZM29.9943 15.2825C29.6228 14.5533 29.03 13.9605 28.3009 13.589L26.939 16.2621C27.1036 16.3459 27.2374 16.4797 27.3213 16.6444L29.9943 15.2825ZM28.3009 13.589C27.8002 13.3339 27.2875 13.2439 26.7987 13.204C26.3274 13.1655 25.757 13.1667 25.1167 13.1667V16.1667C25.8065 16.1667 26.2336 16.1678 26.5544 16.194C26.8577 16.2188 26.9316 16.2583 26.939 16.2621L28.3009 13.589ZM25.1167 13.1667H16.8833V16.1667H25.1167V13.1667ZM16.8833 13.1667C16.243 13.1667 15.6726 13.1655 15.2013 13.204C14.7125 13.2439 14.1998 13.3339 13.6991 13.589L15.061 16.2621C15.0684 16.2583 15.1423 16.2188 15.4456 16.194C15.7664 16.1678 16.1935 16.1667 16.8833 16.1667V13.1667ZM13.6991 13.589C12.97 13.9605 12.3772 14.5533 12.0057 15.2825L14.6787 16.6444C14.7626 16.4797 14.8964 16.3459 15.061 16.2621L13.6991 13.589ZM12.0057 15.2825C11.7506 15.7832 11.6606 16.2958 11.6207 16.7846C11.5822 17.2559 11.5833 17.8263 11.5833 18.4667H14.5833C14.5833 17.7768 14.5845 17.3497 14.6107 17.0289C14.6355 16.7257 14.675 16.6518 14.6787 16.6444L12.0057 15.2825ZM11.5833 18.4667V23.5333H14.5833V18.4667H11.5833ZM11.5833 23.5333C11.5833 24.1737 11.5822 24.7441 11.6207 25.2154C11.6606 25.7042 11.7506 26.2168 12.0057 26.7175L14.6787 25.3556C14.675 25.3482 14.6355 25.2743 14.6107 24.9711C14.5845 24.6503 14.5833 24.2232 14.5833 23.5333H11.5833ZM12.0057 26.7175C12.3772 27.4467 12.97 28.0395 13.6991 28.411L15.061 25.7379C14.8964 25.6541 14.7626 25.5203 14.6787 25.3556L12.0057 26.7175ZM13.6991 28.411C14.1998 28.6661 14.7125 28.7561 15.2013 28.796C15.6726 28.8345 16.243 28.8333 16.8833 28.8333V25.8333C16.1935 25.8333 15.7664 25.8322 15.4456 25.806C15.1424 25.7812 15.0684 25.7417 15.061 25.7379L13.6991 28.411Z" fill="#4E9F3D"/>
</svg>
