<svg width="50" height="50" viewBox="0 0 50 50" fill="none" xmlns="http://www.w3.org/2000/svg">
<path d="M22.4627 2.91327C22.5472 2.91231 22.6317 2.91136 22.7187 2.91037C24.6341 2.89318 26.482 2.92251 28.363 3.32684C28.4639 3.34827 28.5649 3.3697 28.6688 3.39178C30.0049 3.68382 31.286 4.07917 32.552 4.59538C32.6187 4.62214 32.6854 4.6489 32.7542 4.67648C33.8326 5.11294 34.875 5.64044 35.8643 6.25424C35.9313 6.29427 35.9983 6.33431 36.0674 6.37556C36.254 6.54698 36.254 6.54698 36.3028 6.78021C36.3027 6.87248 36.3025 6.96475 36.3023 7.05982C36.3027 7.16486 36.3031 7.26989 36.3035 7.37811C36.2937 7.86497 36.2832 8.35158 36.2655 8.83823C36.2579 9.09257 36.2543 9.34707 36.255 9.60152C36.2582 10.9533 36.2063 11.9868 35.2443 13.004C34.8503 13.3781 34.4447 13.7304 34.0133 14.0606C33.6469 13.9204 33.3738 13.7655 33.0635 13.5239C29.5464 10.9194 25.1417 9.59271 20.7895 10.2148C16.4749 10.889 12.6306 13.1863 10.0235 16.6983C7.39551 20.3974 6.35086 24.8654 7.08422 29.3553C7.6911 32.731 9.26231 35.6808 11.607 38.1629C11.6818 38.243 11.7566 38.3231 11.8338 38.4057C14.9488 41.6417 19.3757 43.1502 23.7843 43.237C28.107 43.2547 32.1733 41.3947 35.2798 38.4556C35.3873 38.3556 35.3873 38.3556 35.4971 38.2536C38.2259 35.6315 40.101 31.6333 40.2638 27.8444C40.2977 24.7381 39.976 21.9876 38.3972 19.2324C38.3603 19.1675 38.3234 19.1027 38.2854 19.0359C37.7903 18.1785 37.2384 17.4115 36.5801 16.6728C36.3736 16.4288 36.219 16.1901 36.0591 15.9147C36.725 15.0231 37.4452 14.1027 38.5834 13.8802C39.3221 13.7928 40.0594 13.7931 40.8022 13.7984C41.0614 13.7946 41.3204 13.7879 41.5795 13.7814C42.2075 13.7675 42.8349 13.7636 43.463 13.7679C43.9691 14.5654 44.429 15.3644 44.8329 16.2196C44.908 16.3783 44.908 16.3783 44.9846 16.5401C45.76 18.2018 46.2975 19.8774 46.6778 21.6719C46.6986 21.7683 46.7193 21.8647 46.7407 21.964C47.3529 24.942 47.3133 28.2657 46.6778 31.2347C46.6473 31.3822 46.6473 31.3822 46.6161 31.5327C45.5109 36.7411 42.4696 41.7627 38.2023 44.9935C38.1473 45.0356 38.0922 45.0776 38.0354 45.121C34.2687 47.9886 29.5843 49.9496 24.8019 49.9933C24.7151 49.9943 24.6283 49.9952 24.5389 49.9962C22.5971 50.0132 20.7229 49.9892 18.816 49.5797C18.6687 49.5492 18.6687 49.5492 18.5184 49.5179C13.331 48.4136 8.28853 45.3682 5.07988 41.0903C5.00896 40.9964 5.00896 40.9964 4.93661 40.9007C2.75869 38.0035 1.25375 34.7853 0.501186 31.2347C0.480418 31.1383 0.459651 31.0419 0.438254 30.9425C-0.173434 27.967 -0.13777 24.6383 0.501186 21.6719C0.522582 21.5709 0.543977 21.47 0.566021 21.366C1.89102 15.2833 5.61474 10.106 10.734 6.63922C14.2178 4.42027 18.3042 2.95257 22.4627 2.91327Z" fill="black"/>
<path d="M31.8701 16.0122C31.7268 16.3444 31.5419 16.5599 31.2865 16.8141C31.2065 16.8942 31.1266 16.9743 31.0442 17.0568C30.9579 17.1423 30.8715 17.2278 30.7825 17.3158C30.6941 17.4041 30.6058 17.4923 30.5147 17.5833C30.2803 17.8173 30.0454 18.0507 29.8103 18.284C29.5703 18.5224 29.3309 18.7613 29.0914 19.0002C28.6218 19.4685 28.1517 19.9361 27.6811 20.4033C27.3127 20.2581 26.9594 20.0952 26.6034 19.9215C24.8369 19.1064 22.8867 19.024 21.0528 19.6963C19.1183 20.5117 17.7353 21.8217 16.9102 23.7542C16.2074 25.5465 16.2172 27.5032 16.965 29.2831C17.8558 31.2389 19.2785 32.5069 21.2514 33.2839C23.0738 33.9108 24.9905 33.7387 26.7278 32.9458C28.6201 31.988 29.8446 30.4781 30.5123 28.4865C30.9733 26.8039 30.8996 24.8794 30.0519 23.3265C29.9459 23.1431 29.8371 22.9613 29.7246 22.7818C29.6295 22.5501 29.6295 22.5501 29.6955 22.3673C29.8489 22.1201 30.0248 21.9356 30.231 21.7303C30.3148 21.6463 30.3987 21.5623 30.4851 21.4758C30.5757 21.386 30.6663 21.2963 30.7597 21.2038C30.8534 21.1103 30.947 21.0168 31.0406 20.9232C31.2865 20.6777 31.533 20.4327 31.7796 20.1879C32.0313 19.9377 32.2825 19.687 32.5338 19.4363C33.0264 18.9449 33.5197 18.4542 34.0133 17.9638C35.9592 19.5032 37.106 22.2628 37.4832 24.6641C37.5538 25.2816 37.5542 25.8996 37.5509 26.5204C37.5506 26.6237 37.5506 26.6237 37.5503 26.729C37.5342 30.4391 36.0252 33.7583 33.4977 36.4385C33.0777 36.8537 32.634 37.2227 32.1624 37.5774C32.0687 37.6484 31.975 37.7193 31.8785 37.7924C29.4157 39.5785 26.6818 40.4292 23.6504 40.4316C23.5385 40.4317 23.5385 40.4317 23.4243 40.4318C22.3457 40.4303 21.3254 40.3919 20.2772 40.1145C20.2134 40.0993 20.1496 40.0841 20.0838 40.0685C18.4086 39.6694 16.7827 38.9068 15.4063 37.8702C15.3253 37.8094 15.2443 37.7486 15.1608 37.686C14.9125 37.4929 14.6716 37.2935 14.4321 37.0895C14.3388 37.0104 14.2455 36.9313 14.1494 36.8498C13.3939 36.1924 12.7737 35.4638 12.1915 34.65C12.1527 34.5958 12.1139 34.5416 12.0739 34.4858C10.7575 32.6138 9.87458 30.399 9.65857 28.1122C9.65219 28.0503 9.6458 27.9885 9.63921 27.9249C9.29158 24.4002 10.2416 20.7334 12.4837 17.9638C12.8256 17.5585 13.188 17.175 13.5553 16.7929C13.6228 16.718 13.6902 16.6432 13.7597 16.5661C15.676 14.5061 18.5146 13.3076 21.2514 12.8897C21.3343 12.877 21.4172 12.8643 21.5026 12.8512C25.2012 12.3912 28.9698 13.7483 31.8701 16.0122Z" fill="black"/>
<path d="M44.434 0C44.7233 0.155878 44.9402 0.373089 45.1696 0.604251C45.2221 0.655985 45.2746 0.707718 45.3286 0.76102C45.5017 0.932095 45.6737 1.10424 45.8456 1.27652C45.9653 1.3958 46.0851 1.51505 46.205 1.63428C46.4558 1.88422 46.7061 2.13473 46.956 2.38561C47.2768 2.70754 47.5994 3.02766 47.9224 3.34733C48.1702 3.59302 48.4169 3.83981 48.6633 4.08693C48.7818 4.20548 48.9007 4.32363 49.02 4.44139C49.1863 4.60585 49.351 4.77177 49.5154 4.93817C49.5653 4.9868 49.6151 5.03543 49.6665 5.08553C49.9871 5.41456 49.9871 5.41456 50 5.671C49.8468 5.94631 49.6516 6.14098 49.4286 6.36352C49.3804 6.41196 49.3323 6.4604 49.2826 6.5103C49.1235 6.67 48.9633 6.82862 48.8031 6.98723C48.6923 7.09796 48.5815 7.20875 48.4708 7.31959C48.2387 7.55158 48.0062 7.78309 47.7733 8.01423C47.4744 8.31085 47.1763 8.60832 46.8786 8.90611C46.6499 9.13477 46.4209 9.36315 46.1919 9.59144C46.0819 9.70107 45.9719 9.81075 45.862 9.92047C45.7086 10.0735 45.5548 10.2262 45.4009 10.3788C45.3134 10.4658 45.2258 10.5528 45.1357 10.6425C44.8276 10.931 44.6474 10.9534 44.2352 10.976C44.0806 10.9848 44.0806 10.9848 43.9228 10.9938C43.8108 10.9997 43.6989 11.0056 43.5836 11.0116C43.4687 11.018 43.3539 11.0244 43.2355 11.0309C42.9919 11.0443 42.7482 11.0575 42.5046 11.0705C42.1328 11.0904 41.761 11.1109 41.3892 11.1315C41.1526 11.1445 40.9159 11.1574 40.6793 11.1702C40.5684 11.1763 40.4574 11.1824 40.3431 11.1887C39.8236 11.2162 39.3071 11.2382 38.7869 11.2308C38.8125 10.4855 38.8426 9.74046 38.8753 8.99545C38.8815 8.85492 38.8876 8.71438 38.8936 8.57384C38.9134 8.11285 38.9349 7.65196 38.9582 7.19113C38.9657 7.03863 38.9728 6.88611 38.9793 6.73357C38.9887 6.5173 38.9999 6.30117 39.0114 6.085C39.0204 5.8975 39.0204 5.8975 39.0296 5.70621C39.1164 5.12749 39.4441 4.79034 39.8455 4.38331C39.8924 4.33549 39.9394 4.28768 39.9877 4.23841C40.1419 4.08167 40.2967 3.92567 40.4517 3.76976C40.5596 3.66085 40.6675 3.55192 40.7753 3.44299C41.0009 3.21544 41.2269 2.98831 41.4531 2.76142C41.7433 2.4702 42.0319 2.17743 42.3202 1.88426C42.5421 1.65909 42.7651 1.43503 42.9884 1.21126C43.0953 1.10373 43.2018 0.995799 43.308 0.887463C43.4561 0.736528 43.6056 0.5872 43.7556 0.438179C43.8828 0.310049 43.8828 0.310049 44.0125 0.179331C44.2423 0.00912281 44.2423 0.00912281 44.434 0Z" fill="black"/>
<path d="M25.5379 22.4525C24.9995 23.1103 24.3986 23.7022 23.7965 24.3004C23.6912 24.4054 23.5859 24.5104 23.4807 24.6155C23.2249 24.8705 22.9689 25.1253 22.7127 25.3799C23.1091 25.8572 23.5256 26.3043 23.967 26.7399C24.0248 26.7974 24.0825 26.8548 24.142 26.9139C24.2824 27.0534 24.423 27.1925 24.5637 27.3315C25.2204 26.7922 25.8113 26.1904 26.4086 25.5873C26.5134 25.4818 26.6182 25.3763 26.7231 25.2709C26.9777 25.0148 27.2321 24.7583 27.4863 24.5017C27.9802 24.9559 28.0201 25.6138 28.0666 26.2562C28.0862 27.6356 27.5978 28.7606 26.6506 29.7523C25.7611 30.5585 24.6833 30.9388 23.4921 30.942C22.1165 30.8638 21.0063 30.3059 20.0824 29.2831C19.2895 28.2152 19.0091 27.044 19.163 25.7275C19.3827 24.506 20.0393 23.4501 21.0566 22.735C21.5566 22.4313 22.036 22.1717 22.6153 22.0622C22.6762 22.0494 22.7371 22.0365 22.7999 22.0233C23.7071 21.8716 24.7371 22.0041 25.5379 22.4525Z" fill="black"/>
</svg>
