<svg width="57" height="48" viewBox="0 0 57 48" fill="none" xmlns="http://www.w3.org/2000/svg">
<path d="M35.6772 13.6284C35.8473 13.7694 36.0167 13.9112 36.1851 14.0541C36.2954 14.1379 36.2954 14.1379 36.4078 14.2234C38.5236 15.8763 39.8569 18.6087 40.1927 21.1892C40.3853 24.004 40.0567 26.7146 38.332 29.0595C38.1515 29.3136 38.1515 29.3136 38.1889 29.7297C38.4968 30.1397 38.8737 30.4899 39.2395 30.8514C39.3373 30.9543 39.4351 31.0573 39.5358 31.1634C40.0298 31.6915 40.0298 31.6915 40.6928 31.9123C40.9509 31.8564 41.1753 31.7784 41.4172 31.6757C42.7108 31.3937 44.0553 31.5416 45.216 32.1757C46.5081 33.0087 47.5714 34.1785 48.6608 35.2403C48.8314 35.4062 49.002 35.572 49.1727 35.7378C49.6184 36.1711 50.0637 36.6046 50.509 37.0382C50.9648 37.482 51.4209 37.9254 51.8769 38.3689C52.7693 39.2366 53.6612 40.1047 54.553 40.973C54.3707 41.4244 54.03 41.7259 53.6817 42.0599C53.6154 42.1242 53.5492 42.1886 53.4809 42.255C53.2622 42.4672 53.0427 42.6787 52.8232 42.8902C52.6712 43.0374 52.5193 43.1846 52.3674 43.3319C51.9678 43.7191 51.5676 44.1057 51.1672 44.4921C50.7587 44.8867 50.3507 45.2818 49.9428 45.6769C49.1424 46.4519 48.3413 47.2262 47.5398 48C47.2102 47.8556 46.9766 47.697 46.7201 47.4505C46.6483 47.382 46.5765 47.3136 46.5026 47.243C46.4251 47.168 46.3476 47.093 46.2677 47.0157C46.1851 46.9365 46.1025 46.8574 46.0174 46.7759C45.7441 46.5136 45.4717 46.2506 45.1995 45.9873C45.0095 45.8041 44.8196 45.6209 44.6296 45.4377C44.2311 45.0529 43.8331 44.6677 43.4354 44.2822C42.9276 43.7902 42.4178 43.3003 41.9075 42.8109C41.514 42.4328 41.1221 42.0533 40.7305 41.6734C40.5433 41.4922 40.3556 41.3117 40.1673 41.1316C38.28 39.3253 38.28 39.3253 37.8549 38.1622C37.8052 38.0289 37.7554 37.8957 37.7041 37.7584C37.6185 37.3374 37.5955 36.9416 37.5975 36.5135C37.5957 36.4392 37.5939 36.365 37.5921 36.2884C37.5914 35.5739 37.7583 35.1191 37.9663 34.3784C37.1581 33.5935 36.3499 32.8087 35.5172 32C35.1131 32.2497 34.709 32.4995 34.2927 32.7568C32.7818 33.5227 31.0016 34.1246 29.2833 34.1622C29.1665 34.1663 29.0497 34.1705 28.9293 34.1748C25.5167 34.2413 22.619 33.0657 20.155 30.8108C20.0864 30.7512 20.0179 30.6915 19.9472 30.6301C17.8468 28.7313 16.8242 25.7928 16.7085 23.0743C16.638 19.835 17.9083 16.9063 20.1855 14.5545C24.3081 10.6942 31.1127 10.1294 35.6772 13.6284ZM24.6078 19.6757C23.7545 20.795 23.3779 22.047 23.5503 23.4324C23.7969 24.7005 24.499 25.8948 25.5797 26.6503C26.7702 27.4065 27.9734 27.734 29.389 27.5173C30.6655 27.2491 31.7045 26.6256 32.5116 25.6216C33.3632 24.2792 33.6682 22.8803 33.3091 21.3273C32.8436 20.0546 31.9899 19.0605 30.7557 18.4392C28.5613 17.4336 26.2441 17.9639 24.6078 19.6757Z" fill="black"/>
<path d="M16.5928 14.0541C16.5482 14.1108 16.5035 14.1675 16.4576 14.2259C14.1693 17.2544 13.1927 21.074 13.7354 24.7935C14.3317 28.4819 16.2762 31.9803 19.3958 34.2312C22.8874 36.6647 26.9218 37.6273 31.1753 36.9645C31.8993 36.8417 32.5915 36.6521 33.2908 36.4324C33.5087 36.369 33.7267 36.3059 33.9448 36.2432C34.0979 36.1983 34.251 36.1532 34.404 36.1081C34.4204 36.3061 34.4204 36.3061 34.4371 36.508C34.5256 37.483 34.6455 38.374 34.9824 39.3007C35.0719 39.5676 35.0719 39.5676 35.0719 39.8919C33.8143 40.1627 32.5691 40.4063 31.2871 40.5405C31.1779 40.5527 31.0687 40.5648 30.9561 40.5773C25.5071 41.0862 20.041 39.7926 15.1456 37.5135C15.0086 37.4504 15.0086 37.4504 14.8688 37.386C11.1414 35.6613 7.65204 33.3336 4.61544 30.6157C4.46882 30.4858 4.32132 30.3567 4.17002 30.232C3.47312 29.6551 2.82969 29.0288 2.18382 28.3993C1.98861 28.2091 1.79282 28.0195 1.59697 27.83C1.4709 27.7075 1.34486 27.585 1.21887 27.4624C1.16123 27.4067 1.10358 27.3509 1.04419 27.2934C0.00931126 26.282 0.00931128 26.282 0 25.9358C0.152481 25.6682 0.333173 25.4668 0.548774 25.2432C0.68438 25.1013 0.68438 25.1013 0.822726 24.9565C0.969525 24.8041 0.969525 24.8041 1.11929 24.6486C1.22067 24.5406 1.32184 24.4323 1.42281 24.3239C2.24021 23.4471 3.07192 22.5931 3.99796 21.8231C4.2732 21.5904 4.53935 21.3492 4.80677 21.1081C5.45314 20.5359 6.13305 20.0135 6.8263 19.4961C7.00863 19.3593 7.1894 19.2208 7.36974 19.0815C9.95273 17.107 12.8428 15.4778 15.8122 14.1182C15.9296 14.0642 15.9296 14.0642 16.0494 14.0091C16.2588 13.9459 16.2588 13.9459 16.5928 14.0541Z" fill="black"/>
<path d="M40.4153 13.9459C40.8113 14.0106 41.1414 14.1129 41.5042 14.2791C41.6059 14.3257 41.7076 14.3724 41.8124 14.4204C41.9208 14.4712 42.0291 14.522 42.1408 14.5743C42.2539 14.6273 42.3671 14.6803 42.4837 14.7348C45.6203 16.223 48.5537 18.1294 51.2134 20.3243C51.3338 20.4224 51.4543 20.5206 51.5747 20.6187C53.3107 22.0405 55.0497 23.5445 56.5159 25.234C56.6648 25.4123 56.6648 25.4123 56.862 25.5566C57.002 25.7297 57.002 25.7297 56.9994 25.9844C56.8591 26.3533 56.6556 26.561 56.3758 26.8446C56.2359 26.9878 56.2359 26.9878 56.0932 27.1339C56.0427 27.1852 55.9921 27.2366 55.94 27.2896C55.7613 27.4764 55.5906 27.6688 55.4196 27.8623C54.9352 28.403 54.4148 28.9068 53.892 29.4122C53.7968 29.505 53.7016 29.5979 53.6035 29.6936C52.7929 30.4796 51.9511 31.2035 51.0464 31.8851C50.9409 31.9651 50.9409 31.9651 50.8333 32.0467C50.6633 32.1755 50.4931 32.304 50.3228 32.4324C49.9501 32.2762 49.7172 32.0811 49.4388 31.796C49.356 31.7127 49.2733 31.6294 49.1881 31.5436C49.1011 31.4556 49.014 31.3677 48.9243 31.277C48.2142 30.5745 47.5637 29.9555 46.6492 29.5135C46.4992 29.4385 46.4992 29.4385 46.3462 29.3619C45.043 28.7478 43.7316 28.5702 42.3078 28.4324C42.3267 28.3732 42.3456 28.314 42.3652 28.253C42.5427 27.689 42.7103 27.1227 42.8713 26.5541C42.907 26.4284 42.9428 26.3027 42.9796 26.1731C43.2679 25.0364 43.3551 23.9257 43.3514 22.7568C43.3513 22.6809 43.3512 22.605 43.3511 22.5269C43.3379 19.4108 42.3064 16.4739 40.4153 13.9459Z" fill="black"/>
<path d="M5.34946 6.7027C5.5135 6.91306 5.5135 6.91306 5.70603 7.2103C5.81363 7.37508 5.81363 7.37508 5.9234 7.54318C6.00033 7.66271 6.07726 7.78225 6.15653 7.90541C6.23605 8.02788 6.31565 8.15031 6.39531 8.2727C6.55938 8.52489 6.72305 8.77732 6.88652 9.02988C7.11777 9.38651 7.35208 9.74118 7.58717 10.0954C7.69344 10.256 7.69344 10.256 7.80187 10.4197C7.93618 10.6225 8.07076 10.8251 8.20562 11.0275C8.26614 11.1193 8.32666 11.2111 8.38902 11.3057C8.44181 11.3854 8.4946 11.465 8.54899 11.547C8.69795 11.7988 8.80707 12.0526 8.9117 12.3243C8.55234 12.552 8.19283 12.7794 7.83329 13.0068C7.681 13.1032 7.681 13.1032 7.52564 13.2016C7.42698 13.264 7.32832 13.3264 7.22668 13.3906C7.13632 13.4478 7.04596 13.505 6.95286 13.5639C6.16201 14.0541 6.16201 14.0541 5.90606 14.0541C5.71763 13.7781 5.5425 13.5016 5.37033 13.2162C4.90806 12.4648 4.43144 11.7252 3.93708 10.9932C3.39134 10.1839 2.85888 9.36868 2.34381 8.54054C2.87406 8.1044 3.45283 7.74528 4.03449 7.37838C4.1363 7.3133 4.23811 7.24822 4.34301 7.18117C4.44023 7.11971 4.53745 7.05825 4.63762 6.99493C4.72618 6.93881 4.81475 6.88268 4.906 6.82485C5.12682 6.7027 5.12682 6.7027 5.34946 6.7027Z" fill="black"/>
<path d="M51.6586 6.7027C52.2787 6.92702 52.8024 7.26121 53.3563 7.60811C53.459 7.67054 53.5618 7.73297 53.6676 7.7973C53.814 7.88886 53.814 7.88886 53.9633 7.98226C54.0525 8.0375 54.1416 8.09274 54.2335 8.14965C54.4417 8.32432 54.4417 8.32432 54.5472 8.52779C54.5556 8.86113 54.4208 9.02597 54.2329 9.30279C54.1246 9.46469 54.1246 9.46469 54.014 9.62986C53.9347 9.74531 53.8554 9.86077 53.7737 9.97973C53.6517 10.1607 53.5296 10.3417 53.4076 10.5227C53.2811 10.7101 53.1539 10.897 53.0266 11.0839C52.7777 11.4498 52.5331 11.8181 52.2892 12.1871C52.1393 12.413 51.9894 12.639 51.8395 12.8649C51.7688 12.9719 51.6981 13.079 51.6252 13.1893C51.5596 13.2874 51.494 13.3855 51.4264 13.4865C51.369 13.5729 51.3115 13.6593 51.2523 13.7483C51.102 13.9459 51.102 13.9459 50.8794 14.0541C50.5897 13.8976 50.315 13.7358 50.0375 13.5608C49.9575 13.5112 49.8774 13.4616 49.7949 13.4105C49.2239 13.0557 48.6561 12.6958 48.0964 12.3243C48.2823 11.7973 48.5814 11.3572 48.8896 10.8919C48.9469 10.8046 49.0042 10.7173 49.0632 10.6273C49.26 10.3278 49.4575 10.0288 49.6549 9.72973C49.7731 9.55011 49.8912 9.37049 50.0093 9.19083C51.3403 7.16639 51.3403 7.16639 51.6586 6.7027Z" fill="black"/>
<path d="M39.97 1.62162C41.1176 1.88459 42.2091 2.29816 43.3096 2.7027C43.0903 3.52046 42.8367 4.32065 42.5534 5.11951C42.5144 5.23061 42.4753 5.3417 42.4351 5.45617C42.3118 5.80648 42.188 6.15662 42.0642 6.50676C41.9799 6.74612 41.8956 6.98549 41.8114 7.22487C41.6062 7.80771 41.4005 8.39039 41.1946 8.97297C41.0025 8.92329 40.8106 8.87328 40.6187 8.82314C40.5118 8.79532 40.4049 8.76751 40.2948 8.73885C39.7986 8.60103 39.3182 8.42762 38.836 8.25C38.7406 8.21537 38.6452 8.18074 38.547 8.14506C38.3161 8.06114 38.0855 7.97675 37.8549 7.89189C38.1486 6.72144 38.5709 5.5902 38.9751 4.4527C39.0468 4.25008 39.1185 4.04745 39.1901 3.84481C39.291 3.55951 39.3919 3.27423 39.4931 2.98905C39.6546 2.53402 39.8144 2.07856 39.97 1.62162Z" fill="black"/>
<path d="M17.0381 1.62162C17.3142 2.40711 17.5901 3.19271 17.8654 3.97847C17.9932 4.34331 18.1212 4.7081 18.2495 5.07279C18.3969 5.49182 18.5437 5.91102 18.6905 6.33024C18.7599 6.5272 18.7599 6.5272 18.8307 6.72814C18.873 6.84933 18.9154 6.97052 18.959 7.09539C18.9966 7.20246 19.0341 7.30953 19.0729 7.41984C19.1532 7.67568 19.1532 7.67568 19.1532 7.89189C17.5552 8.42703 17.5552 8.42703 15.9249 8.97297C15.7144 8.6664 15.6111 8.42556 15.4913 8.07937C15.4508 7.96321 15.4103 7.84705 15.3686 7.72738C15.3041 7.53936 15.3041 7.53936 15.2383 7.34755C15.1938 7.21895 15.1494 7.09034 15.1036 6.95784C15.0099 6.68593 14.9164 6.41396 14.8232 6.14187C14.7036 5.79269 14.5827 5.44392 14.4616 5.09524C14.3463 4.76293 14.2323 4.43022 14.1181 4.09755C14.0744 3.97199 14.0307 3.84643 13.9857 3.71706C13.9265 3.54334 13.9265 3.54334 13.8662 3.36611C13.8311 3.26386 13.7959 3.16161 13.7597 3.05626C13.6985 2.81081 13.6985 2.81081 13.8098 2.59459C14.0265 2.50801 14.2477 2.43183 14.4703 2.36064C14.6717 2.29584 14.6717 2.29584 14.8771 2.22973C14.9474 2.20757 15.0177 2.18541 15.0901 2.16258C15.3047 2.0949 15.5188 2.02602 15.7329 1.95693C16.7827 1.62162 16.7827 1.62162 17.0381 1.62162Z" fill="black"/>
<path d="M26.7229 0C27.8617 0 29.0005 0 30.1739 0C30.1739 2.17622 30.1739 4.35243 30.1739 6.59459C29.035 6.59459 27.8962 6.59459 26.7229 6.59459C26.7229 4.41838 26.7229 2.24216 26.7229 0Z" fill="black"/>
<path d="M29.0607 21.0811C29.5996 21.3331 29.9182 21.6369 30.1739 22.1622C30.2592 22.7295 30.2441 23.195 30.0069 23.723C29.579 24.1489 29.1785 24.4069 28.5562 24.4535C28.0704 24.4294 27.7664 24.3478 27.3421 24.1081C26.94 23.6508 26.7058 23.1917 26.7334 22.5785C26.8458 22.0304 27.099 21.6888 27.5022 21.2973C27.9984 21.0017 28.4949 21.0115 29.0607 21.0811Z" fill="black"/>
</svg>
